M48
; DRILL file {KiCad (5.1.4)-1} date 11/7/2019 6:38:22 PM
; FORMAT={-:-/ absolute / inch / decimal}
; #@! TF.CreationDate,2019-11-07T18:38:22-06:00
; #@! TF.GenerationSoftware,Kicad,Pcbnew,(5.1.4)-1
FMAT,2
INCH
T1C0.0157
T2C0.0197
T3C0.0236
T4C0.0335
T5C0.0394
T6C0.0402
T7C0.0630
T8C0.0394
T9C0.0500
T10C0.1181
%
G90
G05
T1
X3.7416Y-5.388
X3.8074Y-5.219
X3.8216Y-5.388
X3.9899Y-5.4859
X4.0016Y-4.968
X4.0416Y-5.048
X4.1416Y-5.568
X4.1477Y-5.2219
X4.1616Y-5.348
X4.2042Y-5.1261
X4.6216Y-5.628
X4.6825Y-3.9865
X4.6825Y-4.1095
X4.6855Y-3.86
X4.686Y-4.2385
X4.686Y-4.3595
X4.686Y-4.485
X4.686Y-4.6085
X4.686Y-4.7345
X4.7016Y-5.248
X4.7016Y-5.528
X5.1222Y-5.7702
X5.1566Y-4.3854
X5.1652Y-4.3158
X5.2019Y-2.8492
X5.2476Y-4.4828
X5.3494Y-4.5428
X6.7564Y-2.7766
X7.0624Y-3.0858
X7.085Y-4.1579
X7.1323Y-2.1441
X7.1346Y-2.7455
X7.1466Y-3.09
X7.1546Y-2.6017
X7.2324Y-4.2346
X7.4946Y-2.493
X7.5065Y-3.5219
X7.5545Y-3.9953
X7.5828Y-5.7733
X7.7015Y-4.6347
X7.7198Y-3.1868
X7.7385Y-2.6583
X7.7515Y-4.7347
X7.8201Y-3.258
X7.9617Y-5.2491
X8.115Y-3.8572
X8.2845Y-4.3185
X8.7424Y-4.491
X8.7525Y-4.3105
X8.8974Y-4.2278
T2
X7.6775Y-2.9964
T3
X3.2015Y-4.8195
X4.3308Y-3.055
X4.3622Y-3.5048
X4.4152Y-2.3532
X4.4159Y-2.0708
X5.1866Y-3.8284
X7.655Y-2.358
X7.8905Y-2.3372
X7.9015Y-4.6147
X7.9965Y-4.7597
X8.0212Y-4.4298
T4
X3.8152Y-2.5522
X3.9152Y-2.5522
X4.0152Y-2.5522
X4.1152Y-2.5522
X4.3152Y-3.4198
X4.4152Y-3.4198
X4.5152Y-3.4198
X4.6152Y-3.4198
T5
X4.1016Y-4.928
X4.2016Y-4.928
X4.9Y-1.085
X4.9Y-1.185
X4.9Y-2.185
X4.9Y-2.285
X4.9Y-2.385
X4.9Y-2.485
X4.9Y-2.585
X4.9Y-2.685
X4.9Y-2.785
X4.9Y-2.885
X4.9Y-2.985
X4.9Y-3.085
X4.9Y-3.185
X4.9Y-3.285
X4.9Y-3.385
X4.9Y-3.485
X4.9Y-3.585
X4.9Y-3.685
X4.9Y-3.785
X4.9Y-3.885
X4.9Y-3.985
X4.9Y-4.085
X4.9Y-4.185
X4.9Y-4.285
X4.9Y-4.385
X4.9Y-4.485
X4.9Y-4.585
X4.9Y-4.685
X4.9Y-4.785
X4.9Y-4.885
X4.9Y-4.985
X4.9Y-5.085
X4.9Y-5.185
X4.9Y-5.285
X4.9Y-5.385
X4.9Y-5.485
X4.9Y-5.585
X4.9Y-5.685
X5.0Y-2.185
X5.0Y-2.285
X5.0Y-2.385
X5.0Y-2.485
X5.0Y-2.585
X5.0Y-2.685
X5.0Y-2.785
X5.0Y-2.885
X5.0Y-2.985
X5.0Y-3.085
X5.0Y-3.185
X5.0Y-3.285
X5.0Y-3.385
X5.0Y-3.485
X5.0Y-3.585
X5.0Y-3.685
X5.0Y-3.785
X5.0Y-3.885
X5.0Y-3.985
X5.0Y-4.085
X5.0Y-4.185
X5.0Y-4.285
X5.0Y-4.385
X5.0Y-4.485
X5.0Y-4.585
X5.0Y-4.685
X5.0Y-4.785
X5.0Y-4.885
X5.0Y-4.985
X5.0Y-5.085
X5.0Y-5.185
X5.0Y-5.285
X5.0Y-5.385
X5.0Y-5.485
X5.0Y-5.585
X5.0Y-5.685
X7.3Y-2.185
X7.3Y-2.285
X7.3Y-2.385
X7.3Y-2.485
X7.3Y-2.585
X7.3Y-2.685
X7.3Y-2.785
X7.3Y-2.885
X7.3Y-2.985
X7.3Y-3.085
X7.3Y-3.185
X7.3Y-3.285
X7.3Y-3.385
X7.3Y-3.485
X7.3Y-3.585
X7.3Y-3.685
X7.3Y-3.785
X7.3Y-3.885
X7.3Y-3.985
X7.3Y-4.085
X7.3Y-4.185
X7.3Y-4.285
X7.3Y-4.385
X7.3Y-4.485
X7.3Y-4.585
X7.3Y-4.685
X7.3Y-4.785
X7.3Y-4.885
X7.3Y-4.985
X7.3Y-5.085
X7.3Y-5.185
X7.3Y-5.285
X7.3Y-5.385
X7.3Y-5.485
X7.3Y-5.585
X7.3Y-5.685
X7.4Y-1.085
X7.4Y-1.185
X7.4Y-2.185
X7.4Y-2.285
X7.4Y-2.385
X7.4Y-2.485
X7.4Y-2.585
X7.4Y-2.685
X7.4Y-2.785
X7.4Y-2.885
X7.4Y-2.985
X7.4Y-3.085
X7.4Y-3.185
X7.4Y-3.285
X7.4Y-3.385
X7.4Y-3.485
X7.4Y-3.585
X7.4Y-3.685
X7.4Y-3.785
X7.4Y-3.885
X7.4Y-3.985
X7.4Y-4.085
X7.4Y-4.185
X7.4Y-4.285
X7.4Y-4.385
X7.4Y-4.485
X7.4Y-4.585
X7.4Y-4.685
X7.4Y-4.785
X7.4Y-4.885
X7.4Y-4.985
X7.4Y-5.085
X7.4Y-5.185
X7.4Y-5.285
X7.4Y-5.385
X7.4Y-5.485
X7.4Y-5.585
X7.4Y-5.685
X3.8924Y-4.3281
X3.8924Y-4.4462
X3.8924Y-4.5643
X3.8924Y-4.6824
X4.0105Y-4.3281
X4.0105Y-4.4462
X4.0105Y-4.5643
X4.0105Y-4.6824
X3.8924Y-3.6481
X3.8924Y-3.7662
X3.8924Y-3.8843
X3.8924Y-4.0024
X4.0105Y-3.6481
X4.0105Y-3.7662
X4.0105Y-3.8843
X4.0105Y-4.0024
X7.9712Y-2.5372
X8.0712Y-2.5372
T6
X4.3971Y-2.5772
X4.5152Y-2.5772
X8.4326Y-4.2269
X8.4326Y-4.345
X8.4326Y-4.4631
X8.4326Y-4.5812
X3.5062Y-5.1703
X3.5062Y-5.2884
X3.5062Y-5.4065
X3.5062Y-5.5246
X8.134Y-4.9247
X8.134Y-5.0428
X8.134Y-5.1609
X8.134Y-5.279
X7.7794Y-2.7764
X7.8975Y-2.7764
X8.363Y-3.1214
X8.4811Y-3.1214
T7
X3.9652Y-2.9272
X3.7902Y-2.9272
X3.9616Y-5.628
X7.9975Y-3.5364
X4.3652Y-2.8272
X8.1365Y-4.6197
X3.8816Y-5.488
X3.7164Y-5.1094
X3.9016Y-4.928
X3.7216Y-4.948
X3.7216Y-5.528
X4.5402Y-2.8272
T8
X4.0475Y-4.21
X4.0475Y-4.8005
X4.0475Y-3.53
X4.0475Y-4.1205
T9
X3.429Y-5.0522
X3.429Y-5.6427
X8.2449Y-3.0442
X8.5992Y-3.0442
X8.3554Y-4.1088
X8.3554Y-4.6993
X7.6613Y-2.8536
X8.0156Y-2.8536
X4.279Y-2.6544
X4.6333Y-2.6544
X8.2112Y-4.8066
X8.2112Y-5.3971
T10
X2.34Y-1.1
X1.5679Y-1.0935
X2.0837Y-1.0935
X1.8258Y-1.0935
T0
M30
