G04 #@! TF.GenerationSoftware,KiCad,Pcbnew,(5.1.4)-1*
G04 #@! TF.CreationDate,2019-11-07T18:39:05-06:00*
G04 #@! TF.ProjectId,_autosave-_autosave-BPS-Nucleo,5f617574-6f73-4617-9665-2d5f6175746f,rev?*
G04 #@! TF.SameCoordinates,Original*
G04 #@! TF.FileFunction,Copper,L2,Bot*
G04 #@! TF.FilePolarity,Positive*
%FSLAX46Y46*%
G04 Gerber Fmt 4.6, Leading zero omitted, Abs format (unit mm)*
G04 Created by KiCad (PCBNEW (5.1.4)-1) date 2019-11-07 18:39:05*
%MOMM*%
%LPD*%
G04 APERTURE LIST*
%ADD10C,1.700000*%
%ADD11C,2.800000*%
%ADD12C,0.100000*%
%ADD13C,0.975000*%
%ADD14C,1.800000*%
%ADD15O,1.700000X1.700000*%
%ADD16R,1.700000X1.700000*%
%ADD17C,1.500000*%
%ADD18R,1.500000X1.500000*%
%ADD19O,1.000000X1.800000*%
%ADD20C,1.200000*%
%ADD21C,0.800000*%
%ADD22C,1.000000*%
%ADD23C,1.000000*%
%ADD24C,0.500000*%
%ADD25C,0.260000*%
%ADD26C,0.250000*%
%ADD27C,0.150000*%
G04 APERTURE END LIST*
D10*
X124460000Y-55499000D03*
X127000000Y-55499000D03*
X124460000Y-58039000D03*
X127000000Y-58039000D03*
X124460000Y-60579000D03*
X127000000Y-60579000D03*
X124460000Y-63119000D03*
X127000000Y-63119000D03*
X124460000Y-65659000D03*
X127000000Y-65659000D03*
X124460000Y-68199000D03*
X127000000Y-68199000D03*
X124460000Y-70739000D03*
X127000000Y-70739000D03*
X124460000Y-73279000D03*
X127000000Y-73279000D03*
X124460000Y-75819000D03*
X127000000Y-75819000D03*
X124460000Y-78359000D03*
X127000000Y-78359000D03*
X124460000Y-80899000D03*
X127000000Y-80899000D03*
X124460000Y-83439000D03*
X127000000Y-83439000D03*
X124460000Y-85979000D03*
X127000000Y-85979000D03*
X124460000Y-88519000D03*
X127000000Y-88519000D03*
X124460000Y-91059000D03*
X127000000Y-91059000D03*
X124460000Y-93599000D03*
X127000000Y-93599000D03*
X124460000Y-96139000D03*
X127000000Y-96139000D03*
X124460000Y-98679000D03*
X127000000Y-98679000D03*
X124460000Y-101219000D03*
X127000000Y-101219000D03*
X124460000Y-103759000D03*
X127000000Y-103759000D03*
X124460000Y-106299000D03*
X127000000Y-106299000D03*
X124460000Y-108839000D03*
X127000000Y-108839000D03*
X124460000Y-111379000D03*
X127000000Y-111379000D03*
X124460000Y-113919000D03*
X127000000Y-113919000D03*
X124460000Y-116459000D03*
X127000000Y-116459000D03*
X124460000Y-118999000D03*
X127000000Y-118999000D03*
X124460000Y-121539000D03*
X127000000Y-121539000D03*
X124460000Y-124079000D03*
X127000000Y-124079000D03*
X124460000Y-126619000D03*
X127000000Y-126619000D03*
X124460000Y-129159000D03*
X127000000Y-129159000D03*
X124460000Y-131699000D03*
X127000000Y-131699000D03*
X124460000Y-134239000D03*
X127000000Y-134239000D03*
X124460000Y-136779000D03*
X127000000Y-136779000D03*
X124460000Y-139319000D03*
X127000000Y-139319000D03*
X124460000Y-141859000D03*
X127000000Y-141859000D03*
X124460000Y-144399000D03*
X127000000Y-144399000D03*
X185420000Y-55499000D03*
X187960000Y-55499000D03*
X185420000Y-58039000D03*
X187960000Y-58039000D03*
X185420000Y-60579000D03*
X187960000Y-60579000D03*
X185420000Y-63119000D03*
X187960000Y-63119000D03*
X185420000Y-65659000D03*
X187960000Y-65659000D03*
X185420000Y-68199000D03*
X187960000Y-68199000D03*
X185420000Y-70739000D03*
X187960000Y-70739000D03*
X185420000Y-73279000D03*
X187960000Y-73279000D03*
X185420000Y-75819000D03*
X187960000Y-75819000D03*
X185420000Y-78359000D03*
X187960000Y-78359000D03*
X185420000Y-80899000D03*
X187960000Y-80899000D03*
X185420000Y-83439000D03*
X187960000Y-83439000D03*
X185420000Y-85979000D03*
X187960000Y-85979000D03*
X185420000Y-88519000D03*
X187960000Y-88519000D03*
X185420000Y-91059000D03*
X187960000Y-91059000D03*
X185420000Y-93599000D03*
X187960000Y-93599000D03*
X185420000Y-96139000D03*
X187960000Y-96139000D03*
X185420000Y-98679000D03*
X187960000Y-98679000D03*
X185420000Y-101219000D03*
X187960000Y-101219000D03*
X185420000Y-103759000D03*
X187960000Y-103759000D03*
X185420000Y-106299000D03*
X187960000Y-106299000D03*
X185420000Y-108839000D03*
X187960000Y-108839000D03*
X185420000Y-111379000D03*
X187960000Y-111379000D03*
X185420000Y-113919000D03*
X187960000Y-113919000D03*
X185420000Y-116459000D03*
X187960000Y-116459000D03*
X185420000Y-118999000D03*
X187960000Y-118999000D03*
X185420000Y-121539000D03*
X187960000Y-121539000D03*
X185420000Y-124079000D03*
X187960000Y-124079000D03*
X185420000Y-126619000D03*
X187960000Y-126619000D03*
X185420000Y-129159000D03*
X187960000Y-129159000D03*
X185420000Y-131699000D03*
X187960000Y-131699000D03*
X185420000Y-134239000D03*
X187960000Y-134239000D03*
X185420000Y-136779000D03*
X187960000Y-136779000D03*
X185420000Y-139319000D03*
X187960000Y-139319000D03*
X185420000Y-141859000D03*
X187960000Y-141859000D03*
X185420000Y-144399000D03*
X187960000Y-144399000D03*
X124460000Y-27559000D03*
X124460000Y-30099000D03*
X187960000Y-27559000D03*
X187960000Y-30099000D03*
D11*
X100624640Y-142951200D03*
D12*
G36*
X201473742Y-118292554D02*
G01*
X201497403Y-118296064D01*
X201520607Y-118301876D01*
X201543129Y-118309934D01*
X201564753Y-118320162D01*
X201585270Y-118332459D01*
X201604483Y-118346709D01*
X201622207Y-118362773D01*
X201638271Y-118380497D01*
X201652521Y-118399710D01*
X201664818Y-118420227D01*
X201675046Y-118441851D01*
X201683104Y-118464373D01*
X201688916Y-118487577D01*
X201692426Y-118511238D01*
X201693600Y-118535130D01*
X201693600Y-119447630D01*
X201692426Y-119471522D01*
X201688916Y-119495183D01*
X201683104Y-119518387D01*
X201675046Y-119540909D01*
X201664818Y-119562533D01*
X201652521Y-119583050D01*
X201638271Y-119602263D01*
X201622207Y-119619987D01*
X201604483Y-119636051D01*
X201585270Y-119650301D01*
X201564753Y-119662598D01*
X201543129Y-119672826D01*
X201520607Y-119680884D01*
X201497403Y-119686696D01*
X201473742Y-119690206D01*
X201449850Y-119691380D01*
X200962350Y-119691380D01*
X200938458Y-119690206D01*
X200914797Y-119686696D01*
X200891593Y-119680884D01*
X200869071Y-119672826D01*
X200847447Y-119662598D01*
X200826930Y-119650301D01*
X200807717Y-119636051D01*
X200789993Y-119619987D01*
X200773929Y-119602263D01*
X200759679Y-119583050D01*
X200747382Y-119562533D01*
X200737154Y-119540909D01*
X200729096Y-119518387D01*
X200723284Y-119495183D01*
X200719774Y-119471522D01*
X200718600Y-119447630D01*
X200718600Y-118535130D01*
X200719774Y-118511238D01*
X200723284Y-118487577D01*
X200729096Y-118464373D01*
X200737154Y-118441851D01*
X200747382Y-118420227D01*
X200759679Y-118399710D01*
X200773929Y-118380497D01*
X200789993Y-118362773D01*
X200807717Y-118346709D01*
X200826930Y-118332459D01*
X200847447Y-118320162D01*
X200869071Y-118309934D01*
X200891593Y-118301876D01*
X200914797Y-118296064D01*
X200938458Y-118292554D01*
X200962350Y-118291380D01*
X201449850Y-118291380D01*
X201473742Y-118292554D01*
X201473742Y-118292554D01*
G37*
D13*
X201206100Y-118991380D03*
D12*
G36*
X203348742Y-118292554D02*
G01*
X203372403Y-118296064D01*
X203395607Y-118301876D01*
X203418129Y-118309934D01*
X203439753Y-118320162D01*
X203460270Y-118332459D01*
X203479483Y-118346709D01*
X203497207Y-118362773D01*
X203513271Y-118380497D01*
X203527521Y-118399710D01*
X203539818Y-118420227D01*
X203550046Y-118441851D01*
X203558104Y-118464373D01*
X203563916Y-118487577D01*
X203567426Y-118511238D01*
X203568600Y-118535130D01*
X203568600Y-119447630D01*
X203567426Y-119471522D01*
X203563916Y-119495183D01*
X203558104Y-119518387D01*
X203550046Y-119540909D01*
X203539818Y-119562533D01*
X203527521Y-119583050D01*
X203513271Y-119602263D01*
X203497207Y-119619987D01*
X203479483Y-119636051D01*
X203460270Y-119650301D01*
X203439753Y-119662598D01*
X203418129Y-119672826D01*
X203395607Y-119680884D01*
X203372403Y-119686696D01*
X203348742Y-119690206D01*
X203324850Y-119691380D01*
X202837350Y-119691380D01*
X202813458Y-119690206D01*
X202789797Y-119686696D01*
X202766593Y-119680884D01*
X202744071Y-119672826D01*
X202722447Y-119662598D01*
X202701930Y-119650301D01*
X202682717Y-119636051D01*
X202664993Y-119619987D01*
X202648929Y-119602263D01*
X202634679Y-119583050D01*
X202622382Y-119562533D01*
X202612154Y-119540909D01*
X202604096Y-119518387D01*
X202598284Y-119495183D01*
X202594774Y-119471522D01*
X202593600Y-119447630D01*
X202593600Y-118535130D01*
X202594774Y-118511238D01*
X202598284Y-118487577D01*
X202604096Y-118464373D01*
X202612154Y-118441851D01*
X202622382Y-118420227D01*
X202634679Y-118399710D01*
X202648929Y-118380497D01*
X202664993Y-118362773D01*
X202682717Y-118346709D01*
X202701930Y-118332459D01*
X202722447Y-118320162D01*
X202744071Y-118309934D01*
X202766593Y-118301876D01*
X202789797Y-118296064D01*
X202813458Y-118292554D01*
X202837350Y-118291380D01*
X203324850Y-118291380D01*
X203348742Y-118292554D01*
X203348742Y-118292554D01*
G37*
D13*
X203081100Y-118991380D03*
D12*
G36*
X200965742Y-111815554D02*
G01*
X200989403Y-111819064D01*
X201012607Y-111824876D01*
X201035129Y-111832934D01*
X201056753Y-111843162D01*
X201077270Y-111855459D01*
X201096483Y-111869709D01*
X201114207Y-111885773D01*
X201130271Y-111903497D01*
X201144521Y-111922710D01*
X201156818Y-111943227D01*
X201167046Y-111964851D01*
X201175104Y-111987373D01*
X201180916Y-112010577D01*
X201184426Y-112034238D01*
X201185600Y-112058130D01*
X201185600Y-112970630D01*
X201184426Y-112994522D01*
X201180916Y-113018183D01*
X201175104Y-113041387D01*
X201167046Y-113063909D01*
X201156818Y-113085533D01*
X201144521Y-113106050D01*
X201130271Y-113125263D01*
X201114207Y-113142987D01*
X201096483Y-113159051D01*
X201077270Y-113173301D01*
X201056753Y-113185598D01*
X201035129Y-113195826D01*
X201012607Y-113203884D01*
X200989403Y-113209696D01*
X200965742Y-113213206D01*
X200941850Y-113214380D01*
X200454350Y-113214380D01*
X200430458Y-113213206D01*
X200406797Y-113209696D01*
X200383593Y-113203884D01*
X200361071Y-113195826D01*
X200339447Y-113185598D01*
X200318930Y-113173301D01*
X200299717Y-113159051D01*
X200281993Y-113142987D01*
X200265929Y-113125263D01*
X200251679Y-113106050D01*
X200239382Y-113085533D01*
X200229154Y-113063909D01*
X200221096Y-113041387D01*
X200215284Y-113018183D01*
X200211774Y-112994522D01*
X200210600Y-112970630D01*
X200210600Y-112058130D01*
X200211774Y-112034238D01*
X200215284Y-112010577D01*
X200221096Y-111987373D01*
X200229154Y-111964851D01*
X200239382Y-111943227D01*
X200251679Y-111922710D01*
X200265929Y-111903497D01*
X200281993Y-111885773D01*
X200299717Y-111869709D01*
X200318930Y-111855459D01*
X200339447Y-111843162D01*
X200361071Y-111832934D01*
X200383593Y-111824876D01*
X200406797Y-111819064D01*
X200430458Y-111815554D01*
X200454350Y-111814380D01*
X200941850Y-111814380D01*
X200965742Y-111815554D01*
X200965742Y-111815554D01*
G37*
D13*
X200698100Y-112514380D03*
D12*
G36*
X202840742Y-111815554D02*
G01*
X202864403Y-111819064D01*
X202887607Y-111824876D01*
X202910129Y-111832934D01*
X202931753Y-111843162D01*
X202952270Y-111855459D01*
X202971483Y-111869709D01*
X202989207Y-111885773D01*
X203005271Y-111903497D01*
X203019521Y-111922710D01*
X203031818Y-111943227D01*
X203042046Y-111964851D01*
X203050104Y-111987373D01*
X203055916Y-112010577D01*
X203059426Y-112034238D01*
X203060600Y-112058130D01*
X203060600Y-112970630D01*
X203059426Y-112994522D01*
X203055916Y-113018183D01*
X203050104Y-113041387D01*
X203042046Y-113063909D01*
X203031818Y-113085533D01*
X203019521Y-113106050D01*
X203005271Y-113125263D01*
X202989207Y-113142987D01*
X202971483Y-113159051D01*
X202952270Y-113173301D01*
X202931753Y-113185598D01*
X202910129Y-113195826D01*
X202887607Y-113203884D01*
X202864403Y-113209696D01*
X202840742Y-113213206D01*
X202816850Y-113214380D01*
X202329350Y-113214380D01*
X202305458Y-113213206D01*
X202281797Y-113209696D01*
X202258593Y-113203884D01*
X202236071Y-113195826D01*
X202214447Y-113185598D01*
X202193930Y-113173301D01*
X202174717Y-113159051D01*
X202156993Y-113142987D01*
X202140929Y-113125263D01*
X202126679Y-113106050D01*
X202114382Y-113085533D01*
X202104154Y-113063909D01*
X202096096Y-113041387D01*
X202090284Y-113018183D01*
X202086774Y-112994522D01*
X202085600Y-112970630D01*
X202085600Y-112058130D01*
X202086774Y-112034238D01*
X202090284Y-112010577D01*
X202096096Y-111987373D01*
X202104154Y-111964851D01*
X202114382Y-111943227D01*
X202126679Y-111922710D01*
X202140929Y-111903497D01*
X202156993Y-111885773D01*
X202174717Y-111869709D01*
X202193930Y-111855459D01*
X202214447Y-111843162D01*
X202236071Y-111832934D01*
X202258593Y-111824876D01*
X202281797Y-111819064D01*
X202305458Y-111815554D01*
X202329350Y-111814380D01*
X202816850Y-111814380D01*
X202840742Y-111815554D01*
X202840742Y-111815554D01*
G37*
D13*
X202573100Y-112514380D03*
D12*
G36*
X200965742Y-109529554D02*
G01*
X200989403Y-109533064D01*
X201012607Y-109538876D01*
X201035129Y-109546934D01*
X201056753Y-109557162D01*
X201077270Y-109569459D01*
X201096483Y-109583709D01*
X201114207Y-109599773D01*
X201130271Y-109617497D01*
X201144521Y-109636710D01*
X201156818Y-109657227D01*
X201167046Y-109678851D01*
X201175104Y-109701373D01*
X201180916Y-109724577D01*
X201184426Y-109748238D01*
X201185600Y-109772130D01*
X201185600Y-110684630D01*
X201184426Y-110708522D01*
X201180916Y-110732183D01*
X201175104Y-110755387D01*
X201167046Y-110777909D01*
X201156818Y-110799533D01*
X201144521Y-110820050D01*
X201130271Y-110839263D01*
X201114207Y-110856987D01*
X201096483Y-110873051D01*
X201077270Y-110887301D01*
X201056753Y-110899598D01*
X201035129Y-110909826D01*
X201012607Y-110917884D01*
X200989403Y-110923696D01*
X200965742Y-110927206D01*
X200941850Y-110928380D01*
X200454350Y-110928380D01*
X200430458Y-110927206D01*
X200406797Y-110923696D01*
X200383593Y-110917884D01*
X200361071Y-110909826D01*
X200339447Y-110899598D01*
X200318930Y-110887301D01*
X200299717Y-110873051D01*
X200281993Y-110856987D01*
X200265929Y-110839263D01*
X200251679Y-110820050D01*
X200239382Y-110799533D01*
X200229154Y-110777909D01*
X200221096Y-110755387D01*
X200215284Y-110732183D01*
X200211774Y-110708522D01*
X200210600Y-110684630D01*
X200210600Y-109772130D01*
X200211774Y-109748238D01*
X200215284Y-109724577D01*
X200221096Y-109701373D01*
X200229154Y-109678851D01*
X200239382Y-109657227D01*
X200251679Y-109636710D01*
X200265929Y-109617497D01*
X200281993Y-109599773D01*
X200299717Y-109583709D01*
X200318930Y-109569459D01*
X200339447Y-109557162D01*
X200361071Y-109546934D01*
X200383593Y-109538876D01*
X200406797Y-109533064D01*
X200430458Y-109529554D01*
X200454350Y-109528380D01*
X200941850Y-109528380D01*
X200965742Y-109529554D01*
X200965742Y-109529554D01*
G37*
D13*
X200698100Y-110228380D03*
D12*
G36*
X202840742Y-109529554D02*
G01*
X202864403Y-109533064D01*
X202887607Y-109538876D01*
X202910129Y-109546934D01*
X202931753Y-109557162D01*
X202952270Y-109569459D01*
X202971483Y-109583709D01*
X202989207Y-109599773D01*
X203005271Y-109617497D01*
X203019521Y-109636710D01*
X203031818Y-109657227D01*
X203042046Y-109678851D01*
X203050104Y-109701373D01*
X203055916Y-109724577D01*
X203059426Y-109748238D01*
X203060600Y-109772130D01*
X203060600Y-110684630D01*
X203059426Y-110708522D01*
X203055916Y-110732183D01*
X203050104Y-110755387D01*
X203042046Y-110777909D01*
X203031818Y-110799533D01*
X203019521Y-110820050D01*
X203005271Y-110839263D01*
X202989207Y-110856987D01*
X202971483Y-110873051D01*
X202952270Y-110887301D01*
X202931753Y-110899598D01*
X202910129Y-110909826D01*
X202887607Y-110917884D01*
X202864403Y-110923696D01*
X202840742Y-110927206D01*
X202816850Y-110928380D01*
X202329350Y-110928380D01*
X202305458Y-110927206D01*
X202281797Y-110923696D01*
X202258593Y-110917884D01*
X202236071Y-110909826D01*
X202214447Y-110899598D01*
X202193930Y-110887301D01*
X202174717Y-110873051D01*
X202156993Y-110856987D01*
X202140929Y-110839263D01*
X202126679Y-110820050D01*
X202114382Y-110799533D01*
X202104154Y-110777909D01*
X202096096Y-110755387D01*
X202090284Y-110732183D01*
X202086774Y-110708522D01*
X202085600Y-110684630D01*
X202085600Y-109772130D01*
X202086774Y-109748238D01*
X202090284Y-109724577D01*
X202096096Y-109701373D01*
X202104154Y-109678851D01*
X202114382Y-109657227D01*
X202126679Y-109636710D01*
X202140929Y-109617497D01*
X202156993Y-109599773D01*
X202174717Y-109583709D01*
X202193930Y-109569459D01*
X202214447Y-109557162D01*
X202236071Y-109546934D01*
X202258593Y-109538876D01*
X202281797Y-109533064D01*
X202305458Y-109529554D01*
X202329350Y-109528380D01*
X202816850Y-109528380D01*
X202840742Y-109529554D01*
X202840742Y-109529554D01*
G37*
D13*
X202573100Y-110228380D03*
D12*
G36*
X106982722Y-63619054D02*
G01*
X107006383Y-63622564D01*
X107029587Y-63628376D01*
X107052109Y-63636434D01*
X107073733Y-63646662D01*
X107094250Y-63658959D01*
X107113463Y-63673209D01*
X107131187Y-63689273D01*
X107147251Y-63706997D01*
X107161501Y-63726210D01*
X107173798Y-63746727D01*
X107184026Y-63768351D01*
X107192084Y-63790873D01*
X107197896Y-63814077D01*
X107201406Y-63837738D01*
X107202580Y-63861630D01*
X107202580Y-64774130D01*
X107201406Y-64798022D01*
X107197896Y-64821683D01*
X107192084Y-64844887D01*
X107184026Y-64867409D01*
X107173798Y-64889033D01*
X107161501Y-64909550D01*
X107147251Y-64928763D01*
X107131187Y-64946487D01*
X107113463Y-64962551D01*
X107094250Y-64976801D01*
X107073733Y-64989098D01*
X107052109Y-64999326D01*
X107029587Y-65007384D01*
X107006383Y-65013196D01*
X106982722Y-65016706D01*
X106958830Y-65017880D01*
X106471330Y-65017880D01*
X106447438Y-65016706D01*
X106423777Y-65013196D01*
X106400573Y-65007384D01*
X106378051Y-64999326D01*
X106356427Y-64989098D01*
X106335910Y-64976801D01*
X106316697Y-64962551D01*
X106298973Y-64946487D01*
X106282909Y-64928763D01*
X106268659Y-64909550D01*
X106256362Y-64889033D01*
X106246134Y-64867409D01*
X106238076Y-64844887D01*
X106232264Y-64821683D01*
X106228754Y-64798022D01*
X106227580Y-64774130D01*
X106227580Y-63861630D01*
X106228754Y-63837738D01*
X106232264Y-63814077D01*
X106238076Y-63790873D01*
X106246134Y-63768351D01*
X106256362Y-63746727D01*
X106268659Y-63726210D01*
X106282909Y-63706997D01*
X106298973Y-63689273D01*
X106316697Y-63673209D01*
X106335910Y-63658959D01*
X106356427Y-63646662D01*
X106378051Y-63636434D01*
X106400573Y-63628376D01*
X106423777Y-63622564D01*
X106447438Y-63619054D01*
X106471330Y-63617880D01*
X106958830Y-63617880D01*
X106982722Y-63619054D01*
X106982722Y-63619054D01*
G37*
D13*
X106715080Y-64317880D03*
D12*
G36*
X108857722Y-63619054D02*
G01*
X108881383Y-63622564D01*
X108904587Y-63628376D01*
X108927109Y-63636434D01*
X108948733Y-63646662D01*
X108969250Y-63658959D01*
X108988463Y-63673209D01*
X109006187Y-63689273D01*
X109022251Y-63706997D01*
X109036501Y-63726210D01*
X109048798Y-63746727D01*
X109059026Y-63768351D01*
X109067084Y-63790873D01*
X109072896Y-63814077D01*
X109076406Y-63837738D01*
X109077580Y-63861630D01*
X109077580Y-64774130D01*
X109076406Y-64798022D01*
X109072896Y-64821683D01*
X109067084Y-64844887D01*
X109059026Y-64867409D01*
X109048798Y-64889033D01*
X109036501Y-64909550D01*
X109022251Y-64928763D01*
X109006187Y-64946487D01*
X108988463Y-64962551D01*
X108969250Y-64976801D01*
X108948733Y-64989098D01*
X108927109Y-64999326D01*
X108904587Y-65007384D01*
X108881383Y-65013196D01*
X108857722Y-65016706D01*
X108833830Y-65017880D01*
X108346330Y-65017880D01*
X108322438Y-65016706D01*
X108298777Y-65013196D01*
X108275573Y-65007384D01*
X108253051Y-64999326D01*
X108231427Y-64989098D01*
X108210910Y-64976801D01*
X108191697Y-64962551D01*
X108173973Y-64946487D01*
X108157909Y-64928763D01*
X108143659Y-64909550D01*
X108131362Y-64889033D01*
X108121134Y-64867409D01*
X108113076Y-64844887D01*
X108107264Y-64821683D01*
X108103754Y-64798022D01*
X108102580Y-64774130D01*
X108102580Y-63861630D01*
X108103754Y-63837738D01*
X108107264Y-63814077D01*
X108113076Y-63790873D01*
X108121134Y-63768351D01*
X108131362Y-63746727D01*
X108143659Y-63726210D01*
X108157909Y-63706997D01*
X108173973Y-63689273D01*
X108191697Y-63673209D01*
X108210910Y-63658959D01*
X108231427Y-63646662D01*
X108253051Y-63636434D01*
X108275573Y-63628376D01*
X108298777Y-63622564D01*
X108322438Y-63619054D01*
X108346330Y-63617880D01*
X108833830Y-63617880D01*
X108857722Y-63619054D01*
X108857722Y-63619054D01*
G37*
D13*
X108590080Y-64317880D03*
D12*
G36*
X130609422Y-74865794D02*
G01*
X130633083Y-74869304D01*
X130656287Y-74875116D01*
X130678809Y-74883174D01*
X130700433Y-74893402D01*
X130720950Y-74905699D01*
X130740163Y-74919949D01*
X130757887Y-74936013D01*
X130773951Y-74953737D01*
X130788201Y-74972950D01*
X130800498Y-74993467D01*
X130810726Y-75015091D01*
X130818784Y-75037613D01*
X130824596Y-75060817D01*
X130828106Y-75084478D01*
X130829280Y-75108370D01*
X130829280Y-75595870D01*
X130828106Y-75619762D01*
X130824596Y-75643423D01*
X130818784Y-75666627D01*
X130810726Y-75689149D01*
X130800498Y-75710773D01*
X130788201Y-75731290D01*
X130773951Y-75750503D01*
X130757887Y-75768227D01*
X130740163Y-75784291D01*
X130720950Y-75798541D01*
X130700433Y-75810838D01*
X130678809Y-75821066D01*
X130656287Y-75829124D01*
X130633083Y-75834936D01*
X130609422Y-75838446D01*
X130585530Y-75839620D01*
X129673030Y-75839620D01*
X129649138Y-75838446D01*
X129625477Y-75834936D01*
X129602273Y-75829124D01*
X129579751Y-75821066D01*
X129558127Y-75810838D01*
X129537610Y-75798541D01*
X129518397Y-75784291D01*
X129500673Y-75768227D01*
X129484609Y-75750503D01*
X129470359Y-75731290D01*
X129458062Y-75710773D01*
X129447834Y-75689149D01*
X129439776Y-75666627D01*
X129433964Y-75643423D01*
X129430454Y-75619762D01*
X129429280Y-75595870D01*
X129429280Y-75108370D01*
X129430454Y-75084478D01*
X129433964Y-75060817D01*
X129439776Y-75037613D01*
X129447834Y-75015091D01*
X129458062Y-74993467D01*
X129470359Y-74972950D01*
X129484609Y-74953737D01*
X129500673Y-74936013D01*
X129518397Y-74919949D01*
X129537610Y-74905699D01*
X129558127Y-74893402D01*
X129579751Y-74883174D01*
X129602273Y-74875116D01*
X129625477Y-74869304D01*
X129649138Y-74865794D01*
X129673030Y-74864620D01*
X130585530Y-74864620D01*
X130609422Y-74865794D01*
X130609422Y-74865794D01*
G37*
D13*
X130129280Y-75352120D03*
D12*
G36*
X130609422Y-72990794D02*
G01*
X130633083Y-72994304D01*
X130656287Y-73000116D01*
X130678809Y-73008174D01*
X130700433Y-73018402D01*
X130720950Y-73030699D01*
X130740163Y-73044949D01*
X130757887Y-73061013D01*
X130773951Y-73078737D01*
X130788201Y-73097950D01*
X130800498Y-73118467D01*
X130810726Y-73140091D01*
X130818784Y-73162613D01*
X130824596Y-73185817D01*
X130828106Y-73209478D01*
X130829280Y-73233370D01*
X130829280Y-73720870D01*
X130828106Y-73744762D01*
X130824596Y-73768423D01*
X130818784Y-73791627D01*
X130810726Y-73814149D01*
X130800498Y-73835773D01*
X130788201Y-73856290D01*
X130773951Y-73875503D01*
X130757887Y-73893227D01*
X130740163Y-73909291D01*
X130720950Y-73923541D01*
X130700433Y-73935838D01*
X130678809Y-73946066D01*
X130656287Y-73954124D01*
X130633083Y-73959936D01*
X130609422Y-73963446D01*
X130585530Y-73964620D01*
X129673030Y-73964620D01*
X129649138Y-73963446D01*
X129625477Y-73959936D01*
X129602273Y-73954124D01*
X129579751Y-73946066D01*
X129558127Y-73935838D01*
X129537610Y-73923541D01*
X129518397Y-73909291D01*
X129500673Y-73893227D01*
X129484609Y-73875503D01*
X129470359Y-73856290D01*
X129458062Y-73835773D01*
X129447834Y-73814149D01*
X129439776Y-73791627D01*
X129433964Y-73768423D01*
X129430454Y-73744762D01*
X129429280Y-73720870D01*
X129429280Y-73233370D01*
X129430454Y-73209478D01*
X129433964Y-73185817D01*
X129439776Y-73162613D01*
X129447834Y-73140091D01*
X129458062Y-73118467D01*
X129470359Y-73097950D01*
X129484609Y-73078737D01*
X129500673Y-73061013D01*
X129518397Y-73044949D01*
X129537610Y-73030699D01*
X129558127Y-73018402D01*
X129579751Y-73008174D01*
X129602273Y-73000116D01*
X129625477Y-72994304D01*
X129649138Y-72990794D01*
X129673030Y-72989620D01*
X130585530Y-72989620D01*
X130609422Y-72990794D01*
X130609422Y-72990794D01*
G37*
D13*
X130129280Y-73477120D03*
D12*
G36*
X103136782Y-139416874D02*
G01*
X103160443Y-139420384D01*
X103183647Y-139426196D01*
X103206169Y-139434254D01*
X103227793Y-139444482D01*
X103248310Y-139456779D01*
X103267523Y-139471029D01*
X103285247Y-139487093D01*
X103301311Y-139504817D01*
X103315561Y-139524030D01*
X103327858Y-139544547D01*
X103338086Y-139566171D01*
X103346144Y-139588693D01*
X103351956Y-139611897D01*
X103355466Y-139635558D01*
X103356640Y-139659450D01*
X103356640Y-140146950D01*
X103355466Y-140170842D01*
X103351956Y-140194503D01*
X103346144Y-140217707D01*
X103338086Y-140240229D01*
X103327858Y-140261853D01*
X103315561Y-140282370D01*
X103301311Y-140301583D01*
X103285247Y-140319307D01*
X103267523Y-140335371D01*
X103248310Y-140349621D01*
X103227793Y-140361918D01*
X103206169Y-140372146D01*
X103183647Y-140380204D01*
X103160443Y-140386016D01*
X103136782Y-140389526D01*
X103112890Y-140390700D01*
X102200390Y-140390700D01*
X102176498Y-140389526D01*
X102152837Y-140386016D01*
X102129633Y-140380204D01*
X102107111Y-140372146D01*
X102085487Y-140361918D01*
X102064970Y-140349621D01*
X102045757Y-140335371D01*
X102028033Y-140319307D01*
X102011969Y-140301583D01*
X101997719Y-140282370D01*
X101985422Y-140261853D01*
X101975194Y-140240229D01*
X101967136Y-140217707D01*
X101961324Y-140194503D01*
X101957814Y-140170842D01*
X101956640Y-140146950D01*
X101956640Y-139659450D01*
X101957814Y-139635558D01*
X101961324Y-139611897D01*
X101967136Y-139588693D01*
X101975194Y-139566171D01*
X101985422Y-139544547D01*
X101997719Y-139524030D01*
X102011969Y-139504817D01*
X102028033Y-139487093D01*
X102045757Y-139471029D01*
X102064970Y-139456779D01*
X102085487Y-139444482D01*
X102107111Y-139434254D01*
X102129633Y-139426196D01*
X102152837Y-139420384D01*
X102176498Y-139416874D01*
X102200390Y-139415700D01*
X103112890Y-139415700D01*
X103136782Y-139416874D01*
X103136782Y-139416874D01*
G37*
D13*
X102656640Y-139903200D03*
D12*
G36*
X103136782Y-137541874D02*
G01*
X103160443Y-137545384D01*
X103183647Y-137551196D01*
X103206169Y-137559254D01*
X103227793Y-137569482D01*
X103248310Y-137581779D01*
X103267523Y-137596029D01*
X103285247Y-137612093D01*
X103301311Y-137629817D01*
X103315561Y-137649030D01*
X103327858Y-137669547D01*
X103338086Y-137691171D01*
X103346144Y-137713693D01*
X103351956Y-137736897D01*
X103355466Y-137760558D01*
X103356640Y-137784450D01*
X103356640Y-138271950D01*
X103355466Y-138295842D01*
X103351956Y-138319503D01*
X103346144Y-138342707D01*
X103338086Y-138365229D01*
X103327858Y-138386853D01*
X103315561Y-138407370D01*
X103301311Y-138426583D01*
X103285247Y-138444307D01*
X103267523Y-138460371D01*
X103248310Y-138474621D01*
X103227793Y-138486918D01*
X103206169Y-138497146D01*
X103183647Y-138505204D01*
X103160443Y-138511016D01*
X103136782Y-138514526D01*
X103112890Y-138515700D01*
X102200390Y-138515700D01*
X102176498Y-138514526D01*
X102152837Y-138511016D01*
X102129633Y-138505204D01*
X102107111Y-138497146D01*
X102085487Y-138486918D01*
X102064970Y-138474621D01*
X102045757Y-138460371D01*
X102028033Y-138444307D01*
X102011969Y-138426583D01*
X101997719Y-138407370D01*
X101985422Y-138386853D01*
X101975194Y-138365229D01*
X101967136Y-138342707D01*
X101961324Y-138319503D01*
X101957814Y-138295842D01*
X101956640Y-138271950D01*
X101956640Y-137784450D01*
X101957814Y-137760558D01*
X101961324Y-137736897D01*
X101967136Y-137713693D01*
X101975194Y-137691171D01*
X101985422Y-137669547D01*
X101997719Y-137649030D01*
X102011969Y-137629817D01*
X102028033Y-137612093D01*
X102045757Y-137596029D01*
X102064970Y-137581779D01*
X102085487Y-137569482D01*
X102107111Y-137559254D01*
X102129633Y-137551196D01*
X102152837Y-137545384D01*
X102176498Y-137541874D01*
X102200390Y-137540700D01*
X103112890Y-137540700D01*
X103136782Y-137541874D01*
X103136782Y-137541874D01*
G37*
D13*
X102656640Y-138028200D03*
D12*
G36*
X197518962Y-60545654D02*
G01*
X197542623Y-60549164D01*
X197565827Y-60554976D01*
X197588349Y-60563034D01*
X197609973Y-60573262D01*
X197630490Y-60585559D01*
X197649703Y-60599809D01*
X197667427Y-60615873D01*
X197683491Y-60633597D01*
X197697741Y-60652810D01*
X197710038Y-60673327D01*
X197720266Y-60694951D01*
X197728324Y-60717473D01*
X197734136Y-60740677D01*
X197737646Y-60764338D01*
X197738820Y-60788230D01*
X197738820Y-61700730D01*
X197737646Y-61724622D01*
X197734136Y-61748283D01*
X197728324Y-61771487D01*
X197720266Y-61794009D01*
X197710038Y-61815633D01*
X197697741Y-61836150D01*
X197683491Y-61855363D01*
X197667427Y-61873087D01*
X197649703Y-61889151D01*
X197630490Y-61903401D01*
X197609973Y-61915698D01*
X197588349Y-61925926D01*
X197565827Y-61933984D01*
X197542623Y-61939796D01*
X197518962Y-61943306D01*
X197495070Y-61944480D01*
X197007570Y-61944480D01*
X196983678Y-61943306D01*
X196960017Y-61939796D01*
X196936813Y-61933984D01*
X196914291Y-61925926D01*
X196892667Y-61915698D01*
X196872150Y-61903401D01*
X196852937Y-61889151D01*
X196835213Y-61873087D01*
X196819149Y-61855363D01*
X196804899Y-61836150D01*
X196792602Y-61815633D01*
X196782374Y-61794009D01*
X196774316Y-61771487D01*
X196768504Y-61748283D01*
X196764994Y-61724622D01*
X196763820Y-61700730D01*
X196763820Y-60788230D01*
X196764994Y-60764338D01*
X196768504Y-60740677D01*
X196774316Y-60717473D01*
X196782374Y-60694951D01*
X196792602Y-60673327D01*
X196804899Y-60652810D01*
X196819149Y-60633597D01*
X196835213Y-60615873D01*
X196852937Y-60599809D01*
X196872150Y-60585559D01*
X196892667Y-60573262D01*
X196914291Y-60563034D01*
X196936813Y-60554976D01*
X196960017Y-60549164D01*
X196983678Y-60545654D01*
X197007570Y-60544480D01*
X197495070Y-60544480D01*
X197518962Y-60545654D01*
X197518962Y-60545654D01*
G37*
D13*
X197251320Y-61244480D03*
D12*
G36*
X195643962Y-60545654D02*
G01*
X195667623Y-60549164D01*
X195690827Y-60554976D01*
X195713349Y-60563034D01*
X195734973Y-60573262D01*
X195755490Y-60585559D01*
X195774703Y-60599809D01*
X195792427Y-60615873D01*
X195808491Y-60633597D01*
X195822741Y-60652810D01*
X195835038Y-60673327D01*
X195845266Y-60694951D01*
X195853324Y-60717473D01*
X195859136Y-60740677D01*
X195862646Y-60764338D01*
X195863820Y-60788230D01*
X195863820Y-61700730D01*
X195862646Y-61724622D01*
X195859136Y-61748283D01*
X195853324Y-61771487D01*
X195845266Y-61794009D01*
X195835038Y-61815633D01*
X195822741Y-61836150D01*
X195808491Y-61855363D01*
X195792427Y-61873087D01*
X195774703Y-61889151D01*
X195755490Y-61903401D01*
X195734973Y-61915698D01*
X195713349Y-61925926D01*
X195690827Y-61933984D01*
X195667623Y-61939796D01*
X195643962Y-61943306D01*
X195620070Y-61944480D01*
X195132570Y-61944480D01*
X195108678Y-61943306D01*
X195085017Y-61939796D01*
X195061813Y-61933984D01*
X195039291Y-61925926D01*
X195017667Y-61915698D01*
X194997150Y-61903401D01*
X194977937Y-61889151D01*
X194960213Y-61873087D01*
X194944149Y-61855363D01*
X194929899Y-61836150D01*
X194917602Y-61815633D01*
X194907374Y-61794009D01*
X194899316Y-61771487D01*
X194893504Y-61748283D01*
X194889994Y-61724622D01*
X194888820Y-61700730D01*
X194888820Y-60788230D01*
X194889994Y-60764338D01*
X194893504Y-60740677D01*
X194899316Y-60717473D01*
X194907374Y-60694951D01*
X194917602Y-60673327D01*
X194929899Y-60652810D01*
X194944149Y-60633597D01*
X194960213Y-60615873D01*
X194977937Y-60599809D01*
X194997150Y-60585559D01*
X195017667Y-60573262D01*
X195039291Y-60563034D01*
X195061813Y-60554976D01*
X195085017Y-60549164D01*
X195108678Y-60545654D01*
X195132570Y-60544480D01*
X195620070Y-60544480D01*
X195643962Y-60545654D01*
X195643962Y-60545654D01*
G37*
D13*
X195376320Y-61244480D03*
D12*
G36*
X117392584Y-79592124D02*
G01*
X117416853Y-79595724D01*
X117440651Y-79601685D01*
X117463751Y-79609950D01*
X117485929Y-79620440D01*
X117506973Y-79633053D01*
X117526678Y-79647667D01*
X117544857Y-79664143D01*
X117561333Y-79682322D01*
X117575947Y-79702027D01*
X117588560Y-79723071D01*
X117599050Y-79745249D01*
X117607315Y-79768349D01*
X117613276Y-79792147D01*
X117616876Y-79816416D01*
X117618080Y-79840920D01*
X117618080Y-84740920D01*
X117616876Y-84765424D01*
X117613276Y-84789693D01*
X117607315Y-84813491D01*
X117599050Y-84836591D01*
X117588560Y-84858769D01*
X117575947Y-84879813D01*
X117561333Y-84899518D01*
X117544857Y-84917697D01*
X117526678Y-84934173D01*
X117506973Y-84948787D01*
X117485929Y-84961400D01*
X117463751Y-84971890D01*
X117440651Y-84980155D01*
X117416853Y-84986116D01*
X117392584Y-84989716D01*
X117368080Y-84990920D01*
X116068080Y-84990920D01*
X116043576Y-84989716D01*
X116019307Y-84986116D01*
X115995509Y-84980155D01*
X115972409Y-84971890D01*
X115950231Y-84961400D01*
X115929187Y-84948787D01*
X115909482Y-84934173D01*
X115891303Y-84917697D01*
X115874827Y-84899518D01*
X115860213Y-84879813D01*
X115847600Y-84858769D01*
X115837110Y-84836591D01*
X115828845Y-84813491D01*
X115822884Y-84789693D01*
X115819284Y-84765424D01*
X115818080Y-84740920D01*
X115818080Y-79840920D01*
X115819284Y-79816416D01*
X115822884Y-79792147D01*
X115828845Y-79768349D01*
X115837110Y-79745249D01*
X115847600Y-79723071D01*
X115860213Y-79702027D01*
X115874827Y-79682322D01*
X115891303Y-79664143D01*
X115909482Y-79647667D01*
X115929187Y-79633053D01*
X115950231Y-79620440D01*
X115972409Y-79609950D01*
X115995509Y-79601685D01*
X116019307Y-79595724D01*
X116043576Y-79592124D01*
X116068080Y-79590920D01*
X117368080Y-79590920D01*
X117392584Y-79592124D01*
X117392584Y-79592124D01*
G37*
D14*
X116718080Y-82290920D03*
D12*
G36*
X112292584Y-79592124D02*
G01*
X112316853Y-79595724D01*
X112340651Y-79601685D01*
X112363751Y-79609950D01*
X112385929Y-79620440D01*
X112406973Y-79633053D01*
X112426678Y-79647667D01*
X112444857Y-79664143D01*
X112461333Y-79682322D01*
X112475947Y-79702027D01*
X112488560Y-79723071D01*
X112499050Y-79745249D01*
X112507315Y-79768349D01*
X112513276Y-79792147D01*
X112516876Y-79816416D01*
X112518080Y-79840920D01*
X112518080Y-84740920D01*
X112516876Y-84765424D01*
X112513276Y-84789693D01*
X112507315Y-84813491D01*
X112499050Y-84836591D01*
X112488560Y-84858769D01*
X112475947Y-84879813D01*
X112461333Y-84899518D01*
X112444857Y-84917697D01*
X112426678Y-84934173D01*
X112406973Y-84948787D01*
X112385929Y-84961400D01*
X112363751Y-84971890D01*
X112340651Y-84980155D01*
X112316853Y-84986116D01*
X112292584Y-84989716D01*
X112268080Y-84990920D01*
X110968080Y-84990920D01*
X110943576Y-84989716D01*
X110919307Y-84986116D01*
X110895509Y-84980155D01*
X110872409Y-84971890D01*
X110850231Y-84961400D01*
X110829187Y-84948787D01*
X110809482Y-84934173D01*
X110791303Y-84917697D01*
X110774827Y-84899518D01*
X110760213Y-84879813D01*
X110747600Y-84858769D01*
X110737110Y-84836591D01*
X110728845Y-84813491D01*
X110722884Y-84789693D01*
X110719284Y-84765424D01*
X110718080Y-84740920D01*
X110718080Y-79840920D01*
X110719284Y-79816416D01*
X110722884Y-79792147D01*
X110728845Y-79768349D01*
X110737110Y-79745249D01*
X110747600Y-79723071D01*
X110760213Y-79702027D01*
X110774827Y-79682322D01*
X110791303Y-79664143D01*
X110809482Y-79647667D01*
X110829187Y-79633053D01*
X110850231Y-79620440D01*
X110872409Y-79609950D01*
X110895509Y-79601685D01*
X110919307Y-79595724D01*
X110943576Y-79592124D01*
X110968080Y-79590920D01*
X112268080Y-79590920D01*
X112292584Y-79592124D01*
X112292584Y-79592124D01*
G37*
D14*
X111618080Y-82290920D03*
D12*
G36*
X108562222Y-88565594D02*
G01*
X108585883Y-88569104D01*
X108609087Y-88574916D01*
X108631609Y-88582974D01*
X108653233Y-88593202D01*
X108673750Y-88605499D01*
X108692963Y-88619749D01*
X108710687Y-88635813D01*
X108726751Y-88653537D01*
X108741001Y-88672750D01*
X108753298Y-88693267D01*
X108763526Y-88714891D01*
X108771584Y-88737413D01*
X108777396Y-88760617D01*
X108780906Y-88784278D01*
X108782080Y-88808170D01*
X108782080Y-89295670D01*
X108780906Y-89319562D01*
X108777396Y-89343223D01*
X108771584Y-89366427D01*
X108763526Y-89388949D01*
X108753298Y-89410573D01*
X108741001Y-89431090D01*
X108726751Y-89450303D01*
X108710687Y-89468027D01*
X108692963Y-89484091D01*
X108673750Y-89498341D01*
X108653233Y-89510638D01*
X108631609Y-89520866D01*
X108609087Y-89528924D01*
X108585883Y-89534736D01*
X108562222Y-89538246D01*
X108538330Y-89539420D01*
X107625830Y-89539420D01*
X107601938Y-89538246D01*
X107578277Y-89534736D01*
X107555073Y-89528924D01*
X107532551Y-89520866D01*
X107510927Y-89510638D01*
X107490410Y-89498341D01*
X107471197Y-89484091D01*
X107453473Y-89468027D01*
X107437409Y-89450303D01*
X107423159Y-89431090D01*
X107410862Y-89410573D01*
X107400634Y-89388949D01*
X107392576Y-89366427D01*
X107386764Y-89343223D01*
X107383254Y-89319562D01*
X107382080Y-89295670D01*
X107382080Y-88808170D01*
X107383254Y-88784278D01*
X107386764Y-88760617D01*
X107392576Y-88737413D01*
X107400634Y-88714891D01*
X107410862Y-88693267D01*
X107423159Y-88672750D01*
X107437409Y-88653537D01*
X107453473Y-88635813D01*
X107471197Y-88619749D01*
X107490410Y-88605499D01*
X107510927Y-88593202D01*
X107532551Y-88582974D01*
X107555073Y-88574916D01*
X107578277Y-88569104D01*
X107601938Y-88565594D01*
X107625830Y-88564420D01*
X108538330Y-88564420D01*
X108562222Y-88565594D01*
X108562222Y-88565594D01*
G37*
D13*
X108082080Y-89051920D03*
D12*
G36*
X108562222Y-90440594D02*
G01*
X108585883Y-90444104D01*
X108609087Y-90449916D01*
X108631609Y-90457974D01*
X108653233Y-90468202D01*
X108673750Y-90480499D01*
X108692963Y-90494749D01*
X108710687Y-90510813D01*
X108726751Y-90528537D01*
X108741001Y-90547750D01*
X108753298Y-90568267D01*
X108763526Y-90589891D01*
X108771584Y-90612413D01*
X108777396Y-90635617D01*
X108780906Y-90659278D01*
X108782080Y-90683170D01*
X108782080Y-91170670D01*
X108780906Y-91194562D01*
X108777396Y-91218223D01*
X108771584Y-91241427D01*
X108763526Y-91263949D01*
X108753298Y-91285573D01*
X108741001Y-91306090D01*
X108726751Y-91325303D01*
X108710687Y-91343027D01*
X108692963Y-91359091D01*
X108673750Y-91373341D01*
X108653233Y-91385638D01*
X108631609Y-91395866D01*
X108609087Y-91403924D01*
X108585883Y-91409736D01*
X108562222Y-91413246D01*
X108538330Y-91414420D01*
X107625830Y-91414420D01*
X107601938Y-91413246D01*
X107578277Y-91409736D01*
X107555073Y-91403924D01*
X107532551Y-91395866D01*
X107510927Y-91385638D01*
X107490410Y-91373341D01*
X107471197Y-91359091D01*
X107453473Y-91343027D01*
X107437409Y-91325303D01*
X107423159Y-91306090D01*
X107410862Y-91285573D01*
X107400634Y-91263949D01*
X107392576Y-91241427D01*
X107386764Y-91218223D01*
X107383254Y-91194562D01*
X107382080Y-91170670D01*
X107382080Y-90683170D01*
X107383254Y-90659278D01*
X107386764Y-90635617D01*
X107392576Y-90612413D01*
X107400634Y-90589891D01*
X107410862Y-90568267D01*
X107423159Y-90547750D01*
X107437409Y-90528537D01*
X107453473Y-90510813D01*
X107471197Y-90494749D01*
X107490410Y-90480499D01*
X107510927Y-90468202D01*
X107532551Y-90457974D01*
X107555073Y-90449916D01*
X107578277Y-90444104D01*
X107601938Y-90440594D01*
X107625830Y-90439420D01*
X108538330Y-90439420D01*
X108562222Y-90440594D01*
X108562222Y-90440594D01*
G37*
D13*
X108082080Y-90926920D03*
D12*
G36*
X97548782Y-135195874D02*
G01*
X97572443Y-135199384D01*
X97595647Y-135205196D01*
X97618169Y-135213254D01*
X97639793Y-135223482D01*
X97660310Y-135235779D01*
X97679523Y-135250029D01*
X97697247Y-135266093D01*
X97713311Y-135283817D01*
X97727561Y-135303030D01*
X97739858Y-135323547D01*
X97750086Y-135345171D01*
X97758144Y-135367693D01*
X97763956Y-135390897D01*
X97767466Y-135414558D01*
X97768640Y-135438450D01*
X97768640Y-135925950D01*
X97767466Y-135949842D01*
X97763956Y-135973503D01*
X97758144Y-135996707D01*
X97750086Y-136019229D01*
X97739858Y-136040853D01*
X97727561Y-136061370D01*
X97713311Y-136080583D01*
X97697247Y-136098307D01*
X97679523Y-136114371D01*
X97660310Y-136128621D01*
X97639793Y-136140918D01*
X97618169Y-136151146D01*
X97595647Y-136159204D01*
X97572443Y-136165016D01*
X97548782Y-136168526D01*
X97524890Y-136169700D01*
X96612390Y-136169700D01*
X96588498Y-136168526D01*
X96564837Y-136165016D01*
X96541633Y-136159204D01*
X96519111Y-136151146D01*
X96497487Y-136140918D01*
X96476970Y-136128621D01*
X96457757Y-136114371D01*
X96440033Y-136098307D01*
X96423969Y-136080583D01*
X96409719Y-136061370D01*
X96397422Y-136040853D01*
X96387194Y-136019229D01*
X96379136Y-135996707D01*
X96373324Y-135973503D01*
X96369814Y-135949842D01*
X96368640Y-135925950D01*
X96368640Y-135438450D01*
X96369814Y-135414558D01*
X96373324Y-135390897D01*
X96379136Y-135367693D01*
X96387194Y-135345171D01*
X96397422Y-135323547D01*
X96409719Y-135303030D01*
X96423969Y-135283817D01*
X96440033Y-135266093D01*
X96457757Y-135250029D01*
X96476970Y-135235779D01*
X96497487Y-135223482D01*
X96519111Y-135213254D01*
X96541633Y-135205196D01*
X96564837Y-135199384D01*
X96588498Y-135195874D01*
X96612390Y-135194700D01*
X97524890Y-135194700D01*
X97548782Y-135195874D01*
X97548782Y-135195874D01*
G37*
D13*
X97068640Y-135682200D03*
D12*
G36*
X97548782Y-133320874D02*
G01*
X97572443Y-133324384D01*
X97595647Y-133330196D01*
X97618169Y-133338254D01*
X97639793Y-133348482D01*
X97660310Y-133360779D01*
X97679523Y-133375029D01*
X97697247Y-133391093D01*
X97713311Y-133408817D01*
X97727561Y-133428030D01*
X97739858Y-133448547D01*
X97750086Y-133470171D01*
X97758144Y-133492693D01*
X97763956Y-133515897D01*
X97767466Y-133539558D01*
X97768640Y-133563450D01*
X97768640Y-134050950D01*
X97767466Y-134074842D01*
X97763956Y-134098503D01*
X97758144Y-134121707D01*
X97750086Y-134144229D01*
X97739858Y-134165853D01*
X97727561Y-134186370D01*
X97713311Y-134205583D01*
X97697247Y-134223307D01*
X97679523Y-134239371D01*
X97660310Y-134253621D01*
X97639793Y-134265918D01*
X97618169Y-134276146D01*
X97595647Y-134284204D01*
X97572443Y-134290016D01*
X97548782Y-134293526D01*
X97524890Y-134294700D01*
X96612390Y-134294700D01*
X96588498Y-134293526D01*
X96564837Y-134290016D01*
X96541633Y-134284204D01*
X96519111Y-134276146D01*
X96497487Y-134265918D01*
X96476970Y-134253621D01*
X96457757Y-134239371D01*
X96440033Y-134223307D01*
X96423969Y-134205583D01*
X96409719Y-134186370D01*
X96397422Y-134165853D01*
X96387194Y-134144229D01*
X96379136Y-134121707D01*
X96373324Y-134098503D01*
X96369814Y-134074842D01*
X96368640Y-134050950D01*
X96368640Y-133563450D01*
X96369814Y-133539558D01*
X96373324Y-133515897D01*
X96379136Y-133492693D01*
X96387194Y-133470171D01*
X96397422Y-133448547D01*
X96409719Y-133428030D01*
X96423969Y-133408817D01*
X96440033Y-133391093D01*
X96457757Y-133375029D01*
X96476970Y-133360779D01*
X96497487Y-133348482D01*
X96519111Y-133338254D01*
X96541633Y-133330196D01*
X96564837Y-133324384D01*
X96588498Y-133320874D01*
X96612390Y-133319700D01*
X97524890Y-133319700D01*
X97548782Y-133320874D01*
X97548782Y-133320874D01*
G37*
D13*
X97068640Y-133807200D03*
D12*
G36*
X104660782Y-133320874D02*
G01*
X104684443Y-133324384D01*
X104707647Y-133330196D01*
X104730169Y-133338254D01*
X104751793Y-133348482D01*
X104772310Y-133360779D01*
X104791523Y-133375029D01*
X104809247Y-133391093D01*
X104825311Y-133408817D01*
X104839561Y-133428030D01*
X104851858Y-133448547D01*
X104862086Y-133470171D01*
X104870144Y-133492693D01*
X104875956Y-133515897D01*
X104879466Y-133539558D01*
X104880640Y-133563450D01*
X104880640Y-134050950D01*
X104879466Y-134074842D01*
X104875956Y-134098503D01*
X104870144Y-134121707D01*
X104862086Y-134144229D01*
X104851858Y-134165853D01*
X104839561Y-134186370D01*
X104825311Y-134205583D01*
X104809247Y-134223307D01*
X104791523Y-134239371D01*
X104772310Y-134253621D01*
X104751793Y-134265918D01*
X104730169Y-134276146D01*
X104707647Y-134284204D01*
X104684443Y-134290016D01*
X104660782Y-134293526D01*
X104636890Y-134294700D01*
X103724390Y-134294700D01*
X103700498Y-134293526D01*
X103676837Y-134290016D01*
X103653633Y-134284204D01*
X103631111Y-134276146D01*
X103609487Y-134265918D01*
X103588970Y-134253621D01*
X103569757Y-134239371D01*
X103552033Y-134223307D01*
X103535969Y-134205583D01*
X103521719Y-134186370D01*
X103509422Y-134165853D01*
X103499194Y-134144229D01*
X103491136Y-134121707D01*
X103485324Y-134098503D01*
X103481814Y-134074842D01*
X103480640Y-134050950D01*
X103480640Y-133563450D01*
X103481814Y-133539558D01*
X103485324Y-133515897D01*
X103491136Y-133492693D01*
X103499194Y-133470171D01*
X103509422Y-133448547D01*
X103521719Y-133428030D01*
X103535969Y-133408817D01*
X103552033Y-133391093D01*
X103569757Y-133375029D01*
X103588970Y-133360779D01*
X103609487Y-133348482D01*
X103631111Y-133338254D01*
X103653633Y-133330196D01*
X103676837Y-133324384D01*
X103700498Y-133320874D01*
X103724390Y-133319700D01*
X104636890Y-133319700D01*
X104660782Y-133320874D01*
X104660782Y-133320874D01*
G37*
D13*
X104180640Y-133807200D03*
D12*
G36*
X104660782Y-135195874D02*
G01*
X104684443Y-135199384D01*
X104707647Y-135205196D01*
X104730169Y-135213254D01*
X104751793Y-135223482D01*
X104772310Y-135235779D01*
X104791523Y-135250029D01*
X104809247Y-135266093D01*
X104825311Y-135283817D01*
X104839561Y-135303030D01*
X104851858Y-135323547D01*
X104862086Y-135345171D01*
X104870144Y-135367693D01*
X104875956Y-135390897D01*
X104879466Y-135414558D01*
X104880640Y-135438450D01*
X104880640Y-135925950D01*
X104879466Y-135949842D01*
X104875956Y-135973503D01*
X104870144Y-135996707D01*
X104862086Y-136019229D01*
X104851858Y-136040853D01*
X104839561Y-136061370D01*
X104825311Y-136080583D01*
X104809247Y-136098307D01*
X104791523Y-136114371D01*
X104772310Y-136128621D01*
X104751793Y-136140918D01*
X104730169Y-136151146D01*
X104707647Y-136159204D01*
X104684443Y-136165016D01*
X104660782Y-136168526D01*
X104636890Y-136169700D01*
X103724390Y-136169700D01*
X103700498Y-136168526D01*
X103676837Y-136165016D01*
X103653633Y-136159204D01*
X103631111Y-136151146D01*
X103609487Y-136140918D01*
X103588970Y-136128621D01*
X103569757Y-136114371D01*
X103552033Y-136098307D01*
X103535969Y-136080583D01*
X103521719Y-136061370D01*
X103509422Y-136040853D01*
X103499194Y-136019229D01*
X103491136Y-135996707D01*
X103485324Y-135973503D01*
X103481814Y-135949842D01*
X103480640Y-135925950D01*
X103480640Y-135438450D01*
X103481814Y-135414558D01*
X103485324Y-135390897D01*
X103491136Y-135367693D01*
X103499194Y-135345171D01*
X103509422Y-135323547D01*
X103521719Y-135303030D01*
X103535969Y-135283817D01*
X103552033Y-135266093D01*
X103569757Y-135250029D01*
X103588970Y-135235779D01*
X103609487Y-135223482D01*
X103631111Y-135213254D01*
X103653633Y-135205196D01*
X103676837Y-135199384D01*
X103700498Y-135195874D01*
X103724390Y-135194700D01*
X104636890Y-135194700D01*
X104660782Y-135195874D01*
X104660782Y-135195874D01*
G37*
D13*
X104180640Y-135682200D03*
D12*
G36*
X101104782Y-133320874D02*
G01*
X101128443Y-133324384D01*
X101151647Y-133330196D01*
X101174169Y-133338254D01*
X101195793Y-133348482D01*
X101216310Y-133360779D01*
X101235523Y-133375029D01*
X101253247Y-133391093D01*
X101269311Y-133408817D01*
X101283561Y-133428030D01*
X101295858Y-133448547D01*
X101306086Y-133470171D01*
X101314144Y-133492693D01*
X101319956Y-133515897D01*
X101323466Y-133539558D01*
X101324640Y-133563450D01*
X101324640Y-134050950D01*
X101323466Y-134074842D01*
X101319956Y-134098503D01*
X101314144Y-134121707D01*
X101306086Y-134144229D01*
X101295858Y-134165853D01*
X101283561Y-134186370D01*
X101269311Y-134205583D01*
X101253247Y-134223307D01*
X101235523Y-134239371D01*
X101216310Y-134253621D01*
X101195793Y-134265918D01*
X101174169Y-134276146D01*
X101151647Y-134284204D01*
X101128443Y-134290016D01*
X101104782Y-134293526D01*
X101080890Y-134294700D01*
X100168390Y-134294700D01*
X100144498Y-134293526D01*
X100120837Y-134290016D01*
X100097633Y-134284204D01*
X100075111Y-134276146D01*
X100053487Y-134265918D01*
X100032970Y-134253621D01*
X100013757Y-134239371D01*
X99996033Y-134223307D01*
X99979969Y-134205583D01*
X99965719Y-134186370D01*
X99953422Y-134165853D01*
X99943194Y-134144229D01*
X99935136Y-134121707D01*
X99929324Y-134098503D01*
X99925814Y-134074842D01*
X99924640Y-134050950D01*
X99924640Y-133563450D01*
X99925814Y-133539558D01*
X99929324Y-133515897D01*
X99935136Y-133492693D01*
X99943194Y-133470171D01*
X99953422Y-133448547D01*
X99965719Y-133428030D01*
X99979969Y-133408817D01*
X99996033Y-133391093D01*
X100013757Y-133375029D01*
X100032970Y-133360779D01*
X100053487Y-133348482D01*
X100075111Y-133338254D01*
X100097633Y-133330196D01*
X100120837Y-133324384D01*
X100144498Y-133320874D01*
X100168390Y-133319700D01*
X101080890Y-133319700D01*
X101104782Y-133320874D01*
X101104782Y-133320874D01*
G37*
D13*
X100624640Y-133807200D03*
D12*
G36*
X101104782Y-135195874D02*
G01*
X101128443Y-135199384D01*
X101151647Y-135205196D01*
X101174169Y-135213254D01*
X101195793Y-135223482D01*
X101216310Y-135235779D01*
X101235523Y-135250029D01*
X101253247Y-135266093D01*
X101269311Y-135283817D01*
X101283561Y-135303030D01*
X101295858Y-135323547D01*
X101306086Y-135345171D01*
X101314144Y-135367693D01*
X101319956Y-135390897D01*
X101323466Y-135414558D01*
X101324640Y-135438450D01*
X101324640Y-135925950D01*
X101323466Y-135949842D01*
X101319956Y-135973503D01*
X101314144Y-135996707D01*
X101306086Y-136019229D01*
X101295858Y-136040853D01*
X101283561Y-136061370D01*
X101269311Y-136080583D01*
X101253247Y-136098307D01*
X101235523Y-136114371D01*
X101216310Y-136128621D01*
X101195793Y-136140918D01*
X101174169Y-136151146D01*
X101151647Y-136159204D01*
X101128443Y-136165016D01*
X101104782Y-136168526D01*
X101080890Y-136169700D01*
X100168390Y-136169700D01*
X100144498Y-136168526D01*
X100120837Y-136165016D01*
X100097633Y-136159204D01*
X100075111Y-136151146D01*
X100053487Y-136140918D01*
X100032970Y-136128621D01*
X100013757Y-136114371D01*
X99996033Y-136098307D01*
X99979969Y-136080583D01*
X99965719Y-136061370D01*
X99953422Y-136040853D01*
X99943194Y-136019229D01*
X99935136Y-135996707D01*
X99929324Y-135973503D01*
X99925814Y-135949842D01*
X99924640Y-135925950D01*
X99924640Y-135438450D01*
X99925814Y-135414558D01*
X99929324Y-135390897D01*
X99935136Y-135367693D01*
X99943194Y-135345171D01*
X99953422Y-135323547D01*
X99965719Y-135303030D01*
X99979969Y-135283817D01*
X99996033Y-135266093D01*
X100013757Y-135250029D01*
X100032970Y-135235779D01*
X100053487Y-135223482D01*
X100075111Y-135213254D01*
X100097633Y-135205196D01*
X100120837Y-135199384D01*
X100144498Y-135195874D01*
X100168390Y-135194700D01*
X101080890Y-135194700D01*
X101104782Y-135195874D01*
X101104782Y-135195874D01*
G37*
D13*
X100624640Y-135682200D03*
D12*
G36*
X115467282Y-136156374D02*
G01*
X115490943Y-136159884D01*
X115514147Y-136165696D01*
X115536669Y-136173754D01*
X115558293Y-136183982D01*
X115578810Y-136196279D01*
X115598023Y-136210529D01*
X115615747Y-136226593D01*
X115631811Y-136244317D01*
X115646061Y-136263530D01*
X115658358Y-136284047D01*
X115668586Y-136305671D01*
X115676644Y-136328193D01*
X115682456Y-136351397D01*
X115685966Y-136375058D01*
X115687140Y-136398950D01*
X115687140Y-137311450D01*
X115685966Y-137335342D01*
X115682456Y-137359003D01*
X115676644Y-137382207D01*
X115668586Y-137404729D01*
X115658358Y-137426353D01*
X115646061Y-137446870D01*
X115631811Y-137466083D01*
X115615747Y-137483807D01*
X115598023Y-137499871D01*
X115578810Y-137514121D01*
X115558293Y-137526418D01*
X115536669Y-137536646D01*
X115514147Y-137544704D01*
X115490943Y-137550516D01*
X115467282Y-137554026D01*
X115443390Y-137555200D01*
X114955890Y-137555200D01*
X114931998Y-137554026D01*
X114908337Y-137550516D01*
X114885133Y-137544704D01*
X114862611Y-137536646D01*
X114840987Y-137526418D01*
X114820470Y-137514121D01*
X114801257Y-137499871D01*
X114783533Y-137483807D01*
X114767469Y-137466083D01*
X114753219Y-137446870D01*
X114740922Y-137426353D01*
X114730694Y-137404729D01*
X114722636Y-137382207D01*
X114716824Y-137359003D01*
X114713314Y-137335342D01*
X114712140Y-137311450D01*
X114712140Y-136398950D01*
X114713314Y-136375058D01*
X114716824Y-136351397D01*
X114722636Y-136328193D01*
X114730694Y-136305671D01*
X114740922Y-136284047D01*
X114753219Y-136263530D01*
X114767469Y-136244317D01*
X114783533Y-136226593D01*
X114801257Y-136210529D01*
X114820470Y-136196279D01*
X114840987Y-136183982D01*
X114862611Y-136173754D01*
X114885133Y-136165696D01*
X114908337Y-136159884D01*
X114931998Y-136156374D01*
X114955890Y-136155200D01*
X115443390Y-136155200D01*
X115467282Y-136156374D01*
X115467282Y-136156374D01*
G37*
D13*
X115199640Y-136855200D03*
D12*
G36*
X113592282Y-136156374D02*
G01*
X113615943Y-136159884D01*
X113639147Y-136165696D01*
X113661669Y-136173754D01*
X113683293Y-136183982D01*
X113703810Y-136196279D01*
X113723023Y-136210529D01*
X113740747Y-136226593D01*
X113756811Y-136244317D01*
X113771061Y-136263530D01*
X113783358Y-136284047D01*
X113793586Y-136305671D01*
X113801644Y-136328193D01*
X113807456Y-136351397D01*
X113810966Y-136375058D01*
X113812140Y-136398950D01*
X113812140Y-137311450D01*
X113810966Y-137335342D01*
X113807456Y-137359003D01*
X113801644Y-137382207D01*
X113793586Y-137404729D01*
X113783358Y-137426353D01*
X113771061Y-137446870D01*
X113756811Y-137466083D01*
X113740747Y-137483807D01*
X113723023Y-137499871D01*
X113703810Y-137514121D01*
X113683293Y-137526418D01*
X113661669Y-137536646D01*
X113639147Y-137544704D01*
X113615943Y-137550516D01*
X113592282Y-137554026D01*
X113568390Y-137555200D01*
X113080890Y-137555200D01*
X113056998Y-137554026D01*
X113033337Y-137550516D01*
X113010133Y-137544704D01*
X112987611Y-137536646D01*
X112965987Y-137526418D01*
X112945470Y-137514121D01*
X112926257Y-137499871D01*
X112908533Y-137483807D01*
X112892469Y-137466083D01*
X112878219Y-137446870D01*
X112865922Y-137426353D01*
X112855694Y-137404729D01*
X112847636Y-137382207D01*
X112841824Y-137359003D01*
X112838314Y-137335342D01*
X112837140Y-137311450D01*
X112837140Y-136398950D01*
X112838314Y-136375058D01*
X112841824Y-136351397D01*
X112847636Y-136328193D01*
X112855694Y-136305671D01*
X112865922Y-136284047D01*
X112878219Y-136263530D01*
X112892469Y-136244317D01*
X112908533Y-136226593D01*
X112926257Y-136210529D01*
X112945470Y-136196279D01*
X112965987Y-136183982D01*
X112987611Y-136173754D01*
X113010133Y-136165696D01*
X113033337Y-136159884D01*
X113056998Y-136156374D01*
X113080890Y-136155200D01*
X113568390Y-136155200D01*
X113592282Y-136156374D01*
X113592282Y-136156374D01*
G37*
D13*
X113324640Y-136855200D03*
D12*
G36*
X115624282Y-139712374D02*
G01*
X115647943Y-139715884D01*
X115671147Y-139721696D01*
X115693669Y-139729754D01*
X115715293Y-139739982D01*
X115735810Y-139752279D01*
X115755023Y-139766529D01*
X115772747Y-139782593D01*
X115788811Y-139800317D01*
X115803061Y-139819530D01*
X115815358Y-139840047D01*
X115825586Y-139861671D01*
X115833644Y-139884193D01*
X115839456Y-139907397D01*
X115842966Y-139931058D01*
X115844140Y-139954950D01*
X115844140Y-140867450D01*
X115842966Y-140891342D01*
X115839456Y-140915003D01*
X115833644Y-140938207D01*
X115825586Y-140960729D01*
X115815358Y-140982353D01*
X115803061Y-141002870D01*
X115788811Y-141022083D01*
X115772747Y-141039807D01*
X115755023Y-141055871D01*
X115735810Y-141070121D01*
X115715293Y-141082418D01*
X115693669Y-141092646D01*
X115671147Y-141100704D01*
X115647943Y-141106516D01*
X115624282Y-141110026D01*
X115600390Y-141111200D01*
X115112890Y-141111200D01*
X115088998Y-141110026D01*
X115065337Y-141106516D01*
X115042133Y-141100704D01*
X115019611Y-141092646D01*
X114997987Y-141082418D01*
X114977470Y-141070121D01*
X114958257Y-141055871D01*
X114940533Y-141039807D01*
X114924469Y-141022083D01*
X114910219Y-141002870D01*
X114897922Y-140982353D01*
X114887694Y-140960729D01*
X114879636Y-140938207D01*
X114873824Y-140915003D01*
X114870314Y-140891342D01*
X114869140Y-140867450D01*
X114869140Y-139954950D01*
X114870314Y-139931058D01*
X114873824Y-139907397D01*
X114879636Y-139884193D01*
X114887694Y-139861671D01*
X114897922Y-139840047D01*
X114910219Y-139819530D01*
X114924469Y-139800317D01*
X114940533Y-139782593D01*
X114958257Y-139766529D01*
X114977470Y-139752279D01*
X114997987Y-139739982D01*
X115019611Y-139729754D01*
X115042133Y-139721696D01*
X115065337Y-139715884D01*
X115088998Y-139712374D01*
X115112890Y-139711200D01*
X115600390Y-139711200D01*
X115624282Y-139712374D01*
X115624282Y-139712374D01*
G37*
D13*
X115356640Y-140411200D03*
D12*
G36*
X113749282Y-139712374D02*
G01*
X113772943Y-139715884D01*
X113796147Y-139721696D01*
X113818669Y-139729754D01*
X113840293Y-139739982D01*
X113860810Y-139752279D01*
X113880023Y-139766529D01*
X113897747Y-139782593D01*
X113913811Y-139800317D01*
X113928061Y-139819530D01*
X113940358Y-139840047D01*
X113950586Y-139861671D01*
X113958644Y-139884193D01*
X113964456Y-139907397D01*
X113967966Y-139931058D01*
X113969140Y-139954950D01*
X113969140Y-140867450D01*
X113967966Y-140891342D01*
X113964456Y-140915003D01*
X113958644Y-140938207D01*
X113950586Y-140960729D01*
X113940358Y-140982353D01*
X113928061Y-141002870D01*
X113913811Y-141022083D01*
X113897747Y-141039807D01*
X113880023Y-141055871D01*
X113860810Y-141070121D01*
X113840293Y-141082418D01*
X113818669Y-141092646D01*
X113796147Y-141100704D01*
X113772943Y-141106516D01*
X113749282Y-141110026D01*
X113725390Y-141111200D01*
X113237890Y-141111200D01*
X113213998Y-141110026D01*
X113190337Y-141106516D01*
X113167133Y-141100704D01*
X113144611Y-141092646D01*
X113122987Y-141082418D01*
X113102470Y-141070121D01*
X113083257Y-141055871D01*
X113065533Y-141039807D01*
X113049469Y-141022083D01*
X113035219Y-141002870D01*
X113022922Y-140982353D01*
X113012694Y-140960729D01*
X113004636Y-140938207D01*
X112998824Y-140915003D01*
X112995314Y-140891342D01*
X112994140Y-140867450D01*
X112994140Y-139954950D01*
X112995314Y-139931058D01*
X112998824Y-139907397D01*
X113004636Y-139884193D01*
X113012694Y-139861671D01*
X113022922Y-139840047D01*
X113035219Y-139819530D01*
X113049469Y-139800317D01*
X113065533Y-139782593D01*
X113083257Y-139766529D01*
X113102470Y-139752279D01*
X113122987Y-139739982D01*
X113144611Y-139729754D01*
X113167133Y-139721696D01*
X113190337Y-139715884D01*
X113213998Y-139712374D01*
X113237890Y-139711200D01*
X113725390Y-139711200D01*
X113749282Y-139712374D01*
X113749282Y-139712374D01*
G37*
D13*
X113481640Y-140411200D03*
D12*
G36*
X115624282Y-129552374D02*
G01*
X115647943Y-129555884D01*
X115671147Y-129561696D01*
X115693669Y-129569754D01*
X115715293Y-129579982D01*
X115735810Y-129592279D01*
X115755023Y-129606529D01*
X115772747Y-129622593D01*
X115788811Y-129640317D01*
X115803061Y-129659530D01*
X115815358Y-129680047D01*
X115825586Y-129701671D01*
X115833644Y-129724193D01*
X115839456Y-129747397D01*
X115842966Y-129771058D01*
X115844140Y-129794950D01*
X115844140Y-130707450D01*
X115842966Y-130731342D01*
X115839456Y-130755003D01*
X115833644Y-130778207D01*
X115825586Y-130800729D01*
X115815358Y-130822353D01*
X115803061Y-130842870D01*
X115788811Y-130862083D01*
X115772747Y-130879807D01*
X115755023Y-130895871D01*
X115735810Y-130910121D01*
X115715293Y-130922418D01*
X115693669Y-130932646D01*
X115671147Y-130940704D01*
X115647943Y-130946516D01*
X115624282Y-130950026D01*
X115600390Y-130951200D01*
X115112890Y-130951200D01*
X115088998Y-130950026D01*
X115065337Y-130946516D01*
X115042133Y-130940704D01*
X115019611Y-130932646D01*
X114997987Y-130922418D01*
X114977470Y-130910121D01*
X114958257Y-130895871D01*
X114940533Y-130879807D01*
X114924469Y-130862083D01*
X114910219Y-130842870D01*
X114897922Y-130822353D01*
X114887694Y-130800729D01*
X114879636Y-130778207D01*
X114873824Y-130755003D01*
X114870314Y-130731342D01*
X114869140Y-130707450D01*
X114869140Y-129794950D01*
X114870314Y-129771058D01*
X114873824Y-129747397D01*
X114879636Y-129724193D01*
X114887694Y-129701671D01*
X114897922Y-129680047D01*
X114910219Y-129659530D01*
X114924469Y-129640317D01*
X114940533Y-129622593D01*
X114958257Y-129606529D01*
X114977470Y-129592279D01*
X114997987Y-129579982D01*
X115019611Y-129569754D01*
X115042133Y-129561696D01*
X115065337Y-129555884D01*
X115088998Y-129552374D01*
X115112890Y-129551200D01*
X115600390Y-129551200D01*
X115624282Y-129552374D01*
X115624282Y-129552374D01*
G37*
D13*
X115356640Y-130251200D03*
D12*
G36*
X113749282Y-129552374D02*
G01*
X113772943Y-129555884D01*
X113796147Y-129561696D01*
X113818669Y-129569754D01*
X113840293Y-129579982D01*
X113860810Y-129592279D01*
X113880023Y-129606529D01*
X113897747Y-129622593D01*
X113913811Y-129640317D01*
X113928061Y-129659530D01*
X113940358Y-129680047D01*
X113950586Y-129701671D01*
X113958644Y-129724193D01*
X113964456Y-129747397D01*
X113967966Y-129771058D01*
X113969140Y-129794950D01*
X113969140Y-130707450D01*
X113967966Y-130731342D01*
X113964456Y-130755003D01*
X113958644Y-130778207D01*
X113950586Y-130800729D01*
X113940358Y-130822353D01*
X113928061Y-130842870D01*
X113913811Y-130862083D01*
X113897747Y-130879807D01*
X113880023Y-130895871D01*
X113860810Y-130910121D01*
X113840293Y-130922418D01*
X113818669Y-130932646D01*
X113796147Y-130940704D01*
X113772943Y-130946516D01*
X113749282Y-130950026D01*
X113725390Y-130951200D01*
X113237890Y-130951200D01*
X113213998Y-130950026D01*
X113190337Y-130946516D01*
X113167133Y-130940704D01*
X113144611Y-130932646D01*
X113122987Y-130922418D01*
X113102470Y-130910121D01*
X113083257Y-130895871D01*
X113065533Y-130879807D01*
X113049469Y-130862083D01*
X113035219Y-130842870D01*
X113022922Y-130822353D01*
X113012694Y-130800729D01*
X113004636Y-130778207D01*
X112998824Y-130755003D01*
X112995314Y-130731342D01*
X112994140Y-130707450D01*
X112994140Y-129794950D01*
X112995314Y-129771058D01*
X112998824Y-129747397D01*
X113004636Y-129724193D01*
X113012694Y-129701671D01*
X113022922Y-129680047D01*
X113035219Y-129659530D01*
X113049469Y-129640317D01*
X113065533Y-129622593D01*
X113083257Y-129606529D01*
X113102470Y-129592279D01*
X113122987Y-129579982D01*
X113144611Y-129569754D01*
X113167133Y-129561696D01*
X113190337Y-129555884D01*
X113213998Y-129552374D01*
X113237890Y-129551200D01*
X113725390Y-129551200D01*
X113749282Y-129552374D01*
X113749282Y-129552374D01*
G37*
D13*
X113481640Y-130251200D03*
D12*
G36*
X113749282Y-132600374D02*
G01*
X113772943Y-132603884D01*
X113796147Y-132609696D01*
X113818669Y-132617754D01*
X113840293Y-132627982D01*
X113860810Y-132640279D01*
X113880023Y-132654529D01*
X113897747Y-132670593D01*
X113913811Y-132688317D01*
X113928061Y-132707530D01*
X113940358Y-132728047D01*
X113950586Y-132749671D01*
X113958644Y-132772193D01*
X113964456Y-132795397D01*
X113967966Y-132819058D01*
X113969140Y-132842950D01*
X113969140Y-133755450D01*
X113967966Y-133779342D01*
X113964456Y-133803003D01*
X113958644Y-133826207D01*
X113950586Y-133848729D01*
X113940358Y-133870353D01*
X113928061Y-133890870D01*
X113913811Y-133910083D01*
X113897747Y-133927807D01*
X113880023Y-133943871D01*
X113860810Y-133958121D01*
X113840293Y-133970418D01*
X113818669Y-133980646D01*
X113796147Y-133988704D01*
X113772943Y-133994516D01*
X113749282Y-133998026D01*
X113725390Y-133999200D01*
X113237890Y-133999200D01*
X113213998Y-133998026D01*
X113190337Y-133994516D01*
X113167133Y-133988704D01*
X113144611Y-133980646D01*
X113122987Y-133970418D01*
X113102470Y-133958121D01*
X113083257Y-133943871D01*
X113065533Y-133927807D01*
X113049469Y-133910083D01*
X113035219Y-133890870D01*
X113022922Y-133870353D01*
X113012694Y-133848729D01*
X113004636Y-133826207D01*
X112998824Y-133803003D01*
X112995314Y-133779342D01*
X112994140Y-133755450D01*
X112994140Y-132842950D01*
X112995314Y-132819058D01*
X112998824Y-132795397D01*
X113004636Y-132772193D01*
X113012694Y-132749671D01*
X113022922Y-132728047D01*
X113035219Y-132707530D01*
X113049469Y-132688317D01*
X113065533Y-132670593D01*
X113083257Y-132654529D01*
X113102470Y-132640279D01*
X113122987Y-132627982D01*
X113144611Y-132617754D01*
X113167133Y-132609696D01*
X113190337Y-132603884D01*
X113213998Y-132600374D01*
X113237890Y-132599200D01*
X113725390Y-132599200D01*
X113749282Y-132600374D01*
X113749282Y-132600374D01*
G37*
D13*
X113481640Y-133299200D03*
D12*
G36*
X115624282Y-132600374D02*
G01*
X115647943Y-132603884D01*
X115671147Y-132609696D01*
X115693669Y-132617754D01*
X115715293Y-132627982D01*
X115735810Y-132640279D01*
X115755023Y-132654529D01*
X115772747Y-132670593D01*
X115788811Y-132688317D01*
X115803061Y-132707530D01*
X115815358Y-132728047D01*
X115825586Y-132749671D01*
X115833644Y-132772193D01*
X115839456Y-132795397D01*
X115842966Y-132819058D01*
X115844140Y-132842950D01*
X115844140Y-133755450D01*
X115842966Y-133779342D01*
X115839456Y-133803003D01*
X115833644Y-133826207D01*
X115825586Y-133848729D01*
X115815358Y-133870353D01*
X115803061Y-133890870D01*
X115788811Y-133910083D01*
X115772747Y-133927807D01*
X115755023Y-133943871D01*
X115735810Y-133958121D01*
X115715293Y-133970418D01*
X115693669Y-133980646D01*
X115671147Y-133988704D01*
X115647943Y-133994516D01*
X115624282Y-133998026D01*
X115600390Y-133999200D01*
X115112890Y-133999200D01*
X115088998Y-133998026D01*
X115065337Y-133994516D01*
X115042133Y-133988704D01*
X115019611Y-133980646D01*
X114997987Y-133970418D01*
X114977470Y-133958121D01*
X114958257Y-133943871D01*
X114940533Y-133927807D01*
X114924469Y-133910083D01*
X114910219Y-133890870D01*
X114897922Y-133870353D01*
X114887694Y-133848729D01*
X114879636Y-133826207D01*
X114873824Y-133803003D01*
X114870314Y-133779342D01*
X114869140Y-133755450D01*
X114869140Y-132842950D01*
X114870314Y-132819058D01*
X114873824Y-132795397D01*
X114879636Y-132772193D01*
X114887694Y-132749671D01*
X114897922Y-132728047D01*
X114910219Y-132707530D01*
X114924469Y-132688317D01*
X114940533Y-132670593D01*
X114958257Y-132654529D01*
X114977470Y-132640279D01*
X114997987Y-132627982D01*
X115019611Y-132617754D01*
X115042133Y-132609696D01*
X115065337Y-132603884D01*
X115088998Y-132600374D01*
X115112890Y-132599200D01*
X115600390Y-132599200D01*
X115624282Y-132600374D01*
X115624282Y-132600374D01*
G37*
D13*
X115356640Y-133299200D03*
D12*
G36*
X217462182Y-113590154D02*
G01*
X217485843Y-113593664D01*
X217509047Y-113599476D01*
X217531569Y-113607534D01*
X217553193Y-113617762D01*
X217573710Y-113630059D01*
X217592923Y-113644309D01*
X217610647Y-113660373D01*
X217626711Y-113678097D01*
X217640961Y-113697310D01*
X217653258Y-113717827D01*
X217663486Y-113739451D01*
X217671544Y-113761973D01*
X217677356Y-113785177D01*
X217680866Y-113808838D01*
X217682040Y-113832730D01*
X217682040Y-114320230D01*
X217680866Y-114344122D01*
X217677356Y-114367783D01*
X217671544Y-114390987D01*
X217663486Y-114413509D01*
X217653258Y-114435133D01*
X217640961Y-114455650D01*
X217626711Y-114474863D01*
X217610647Y-114492587D01*
X217592923Y-114508651D01*
X217573710Y-114522901D01*
X217553193Y-114535198D01*
X217531569Y-114545426D01*
X217509047Y-114553484D01*
X217485843Y-114559296D01*
X217462182Y-114562806D01*
X217438290Y-114563980D01*
X216525790Y-114563980D01*
X216501898Y-114562806D01*
X216478237Y-114559296D01*
X216455033Y-114553484D01*
X216432511Y-114545426D01*
X216410887Y-114535198D01*
X216390370Y-114522901D01*
X216371157Y-114508651D01*
X216353433Y-114492587D01*
X216337369Y-114474863D01*
X216323119Y-114455650D01*
X216310822Y-114435133D01*
X216300594Y-114413509D01*
X216292536Y-114390987D01*
X216286724Y-114367783D01*
X216283214Y-114344122D01*
X216282040Y-114320230D01*
X216282040Y-113832730D01*
X216283214Y-113808838D01*
X216286724Y-113785177D01*
X216292536Y-113761973D01*
X216300594Y-113739451D01*
X216310822Y-113717827D01*
X216323119Y-113697310D01*
X216337369Y-113678097D01*
X216353433Y-113660373D01*
X216371157Y-113644309D01*
X216390370Y-113630059D01*
X216410887Y-113617762D01*
X216432511Y-113607534D01*
X216455033Y-113599476D01*
X216478237Y-113593664D01*
X216501898Y-113590154D01*
X216525790Y-113588980D01*
X217438290Y-113588980D01*
X217462182Y-113590154D01*
X217462182Y-113590154D01*
G37*
D13*
X216982040Y-114076480D03*
D12*
G36*
X217462182Y-115465154D02*
G01*
X217485843Y-115468664D01*
X217509047Y-115474476D01*
X217531569Y-115482534D01*
X217553193Y-115492762D01*
X217573710Y-115505059D01*
X217592923Y-115519309D01*
X217610647Y-115535373D01*
X217626711Y-115553097D01*
X217640961Y-115572310D01*
X217653258Y-115592827D01*
X217663486Y-115614451D01*
X217671544Y-115636973D01*
X217677356Y-115660177D01*
X217680866Y-115683838D01*
X217682040Y-115707730D01*
X217682040Y-116195230D01*
X217680866Y-116219122D01*
X217677356Y-116242783D01*
X217671544Y-116265987D01*
X217663486Y-116288509D01*
X217653258Y-116310133D01*
X217640961Y-116330650D01*
X217626711Y-116349863D01*
X217610647Y-116367587D01*
X217592923Y-116383651D01*
X217573710Y-116397901D01*
X217553193Y-116410198D01*
X217531569Y-116420426D01*
X217509047Y-116428484D01*
X217485843Y-116434296D01*
X217462182Y-116437806D01*
X217438290Y-116438980D01*
X216525790Y-116438980D01*
X216501898Y-116437806D01*
X216478237Y-116434296D01*
X216455033Y-116428484D01*
X216432511Y-116420426D01*
X216410887Y-116410198D01*
X216390370Y-116397901D01*
X216371157Y-116383651D01*
X216353433Y-116367587D01*
X216337369Y-116349863D01*
X216323119Y-116330650D01*
X216310822Y-116310133D01*
X216300594Y-116288509D01*
X216292536Y-116265987D01*
X216286724Y-116242783D01*
X216283214Y-116219122D01*
X216282040Y-116195230D01*
X216282040Y-115707730D01*
X216283214Y-115683838D01*
X216286724Y-115660177D01*
X216292536Y-115636973D01*
X216300594Y-115614451D01*
X216310822Y-115592827D01*
X216323119Y-115572310D01*
X216337369Y-115553097D01*
X216353433Y-115535373D01*
X216371157Y-115519309D01*
X216390370Y-115505059D01*
X216410887Y-115492762D01*
X216432511Y-115482534D01*
X216455033Y-115474476D01*
X216478237Y-115468664D01*
X216501898Y-115465154D01*
X216525790Y-115463980D01*
X217438290Y-115463980D01*
X217462182Y-115465154D01*
X217462182Y-115465154D01*
G37*
D13*
X216982040Y-115951480D03*
D12*
G36*
X220764182Y-113590154D02*
G01*
X220787843Y-113593664D01*
X220811047Y-113599476D01*
X220833569Y-113607534D01*
X220855193Y-113617762D01*
X220875710Y-113630059D01*
X220894923Y-113644309D01*
X220912647Y-113660373D01*
X220928711Y-113678097D01*
X220942961Y-113697310D01*
X220955258Y-113717827D01*
X220965486Y-113739451D01*
X220973544Y-113761973D01*
X220979356Y-113785177D01*
X220982866Y-113808838D01*
X220984040Y-113832730D01*
X220984040Y-114320230D01*
X220982866Y-114344122D01*
X220979356Y-114367783D01*
X220973544Y-114390987D01*
X220965486Y-114413509D01*
X220955258Y-114435133D01*
X220942961Y-114455650D01*
X220928711Y-114474863D01*
X220912647Y-114492587D01*
X220894923Y-114508651D01*
X220875710Y-114522901D01*
X220855193Y-114535198D01*
X220833569Y-114545426D01*
X220811047Y-114553484D01*
X220787843Y-114559296D01*
X220764182Y-114562806D01*
X220740290Y-114563980D01*
X219827790Y-114563980D01*
X219803898Y-114562806D01*
X219780237Y-114559296D01*
X219757033Y-114553484D01*
X219734511Y-114545426D01*
X219712887Y-114535198D01*
X219692370Y-114522901D01*
X219673157Y-114508651D01*
X219655433Y-114492587D01*
X219639369Y-114474863D01*
X219625119Y-114455650D01*
X219612822Y-114435133D01*
X219602594Y-114413509D01*
X219594536Y-114390987D01*
X219588724Y-114367783D01*
X219585214Y-114344122D01*
X219584040Y-114320230D01*
X219584040Y-113832730D01*
X219585214Y-113808838D01*
X219588724Y-113785177D01*
X219594536Y-113761973D01*
X219602594Y-113739451D01*
X219612822Y-113717827D01*
X219625119Y-113697310D01*
X219639369Y-113678097D01*
X219655433Y-113660373D01*
X219673157Y-113644309D01*
X219692370Y-113630059D01*
X219712887Y-113617762D01*
X219734511Y-113607534D01*
X219757033Y-113599476D01*
X219780237Y-113593664D01*
X219803898Y-113590154D01*
X219827790Y-113588980D01*
X220740290Y-113588980D01*
X220764182Y-113590154D01*
X220764182Y-113590154D01*
G37*
D13*
X220284040Y-114076480D03*
D12*
G36*
X220764182Y-115465154D02*
G01*
X220787843Y-115468664D01*
X220811047Y-115474476D01*
X220833569Y-115482534D01*
X220855193Y-115492762D01*
X220875710Y-115505059D01*
X220894923Y-115519309D01*
X220912647Y-115535373D01*
X220928711Y-115553097D01*
X220942961Y-115572310D01*
X220955258Y-115592827D01*
X220965486Y-115614451D01*
X220973544Y-115636973D01*
X220979356Y-115660177D01*
X220982866Y-115683838D01*
X220984040Y-115707730D01*
X220984040Y-116195230D01*
X220982866Y-116219122D01*
X220979356Y-116242783D01*
X220973544Y-116265987D01*
X220965486Y-116288509D01*
X220955258Y-116310133D01*
X220942961Y-116330650D01*
X220928711Y-116349863D01*
X220912647Y-116367587D01*
X220894923Y-116383651D01*
X220875710Y-116397901D01*
X220855193Y-116410198D01*
X220833569Y-116420426D01*
X220811047Y-116428484D01*
X220787843Y-116434296D01*
X220764182Y-116437806D01*
X220740290Y-116438980D01*
X219827790Y-116438980D01*
X219803898Y-116437806D01*
X219780237Y-116434296D01*
X219757033Y-116428484D01*
X219734511Y-116420426D01*
X219712887Y-116410198D01*
X219692370Y-116397901D01*
X219673157Y-116383651D01*
X219655433Y-116367587D01*
X219639369Y-116349863D01*
X219625119Y-116330650D01*
X219612822Y-116310133D01*
X219602594Y-116288509D01*
X219594536Y-116265987D01*
X219588724Y-116242783D01*
X219585214Y-116219122D01*
X219584040Y-116195230D01*
X219584040Y-115707730D01*
X219585214Y-115683838D01*
X219588724Y-115660177D01*
X219594536Y-115636973D01*
X219602594Y-115614451D01*
X219612822Y-115592827D01*
X219625119Y-115572310D01*
X219639369Y-115553097D01*
X219655433Y-115535373D01*
X219673157Y-115519309D01*
X219692370Y-115505059D01*
X219712887Y-115492762D01*
X219734511Y-115482534D01*
X219757033Y-115474476D01*
X219780237Y-115468664D01*
X219803898Y-115465154D01*
X219827790Y-115463980D01*
X220740290Y-115463980D01*
X220764182Y-115465154D01*
X220764182Y-115465154D01*
G37*
D13*
X220284040Y-115951480D03*
D15*
X205008480Y-64444880D03*
D16*
X202468480Y-64444880D03*
X106720640Y-125171200D03*
D15*
X104180640Y-125171200D03*
D11*
X206667100Y-117340380D03*
X115321080Y-71810880D03*
X96271080Y-74350880D03*
X110876080Y-71810880D03*
X100716080Y-74350880D03*
X98592640Y-139395200D03*
X203136500Y-89824560D03*
X94528640Y-140411200D03*
X94396560Y-129778760D03*
X94528640Y-125679200D03*
X99100640Y-125171200D03*
D10*
X206603600Y-134087380D03*
X206603600Y-125087380D03*
X206603600Y-128087380D03*
X206603600Y-131087380D03*
X111686080Y-65460880D03*
X114686080Y-65460880D03*
D17*
X101866960Y-92660960D03*
X101866960Y-95660960D03*
X101866960Y-98660960D03*
X101866960Y-101660960D03*
X98866960Y-92660960D03*
X98866960Y-95660960D03*
X98866960Y-98660960D03*
D18*
X98866960Y-101660960D03*
D10*
X197596500Y-70520560D03*
X200596500Y-70520560D03*
D18*
X98866960Y-118932960D03*
D17*
X98866960Y-115932960D03*
X98866960Y-112932960D03*
X98866960Y-109932960D03*
X101866960Y-118932960D03*
X101866960Y-115932960D03*
X101866960Y-112932960D03*
X101866960Y-109932960D03*
D10*
X212420200Y-79283560D03*
X215420200Y-79283560D03*
X89057480Y-134324840D03*
X89057480Y-137324840D03*
X89057480Y-140324840D03*
X89057480Y-131324840D03*
X214188040Y-107362480D03*
X214188040Y-116362480D03*
X214188040Y-113362480D03*
X214188040Y-110362480D03*
D19*
X104526080Y-64825880D03*
X101986080Y-64825880D03*
X99446080Y-64825880D03*
X96906080Y-64825880D03*
X109606080Y-86862920D03*
X112146080Y-86862920D03*
X114686080Y-86862920D03*
X117226080Y-86862920D03*
D20*
X200698100Y-117213380D03*
X112146080Y-59771917D03*
X112163860Y-52598320D03*
X203111100Y-120896380D03*
X203738480Y-112516920D03*
X81318100Y-122415300D03*
X110799880Y-89021920D03*
X110002320Y-77597000D03*
D21*
X202227180Y-133327140D03*
X190665100Y-89456260D03*
X117388640Y-142951200D03*
X222057387Y-114071827D03*
D20*
X194437000Y-59893200D03*
D21*
X119024400Y-120256300D03*
X119024400Y-117055900D03*
X119024400Y-113919000D03*
X119024400Y-110731300D03*
X119024400Y-107657900D03*
X118935500Y-104381300D03*
X118935500Y-101257100D03*
X119011700Y-98044000D03*
X119420640Y-140411200D03*
X210426300Y-109689900D03*
X119420640Y-133299200D03*
D20*
X200417780Y-59364880D03*
D21*
X130103880Y-146563080D03*
X132129290Y-72369680D03*
X101343220Y-139341620D03*
X97068640Y-136855200D03*
X105704640Y-135839200D03*
X105196640Y-141427200D03*
X96707960Y-132562600D03*
X222313500Y-109486700D03*
X191884300Y-101480620D03*
X225993960Y-107386120D03*
X192603120Y-146641820D03*
X179959000Y-105610660D03*
D22*
X195008500Y-76108560D03*
D21*
X196082920Y-80944720D03*
X198630540Y-82753200D03*
X171612560Y-70525640D03*
X179384960Y-78379320D03*
X131196080Y-109621320D03*
X135874760Y-115387120D03*
X130977640Y-111389160D03*
X133289040Y-113863120D03*
X181523640Y-78486000D03*
X181218840Y-69735700D03*
X181726840Y-66083180D03*
X181160420Y-54460140D03*
X190362840Y-63322200D03*
X196557900Y-67520820D03*
X195618100Y-117721380D03*
X196888100Y-120261380D03*
D20*
X131739640Y-97241360D03*
D21*
X183702960Y-107558840D03*
X206121000Y-97972880D03*
X102656640Y-128219200D03*
X101640640Y-126187200D03*
X95036640Y-136855200D03*
X106787928Y-130204181D03*
X105350487Y-132637351D03*
D23*
X105034080Y-64317880D02*
X104526080Y-64825880D01*
X106715080Y-64317880D02*
X105034080Y-64317880D01*
X109860080Y-86100920D02*
X109606080Y-86100920D01*
X108082080Y-88386920D02*
X109606080Y-86862920D01*
X108082080Y-89051920D02*
X108082080Y-88386920D01*
X200698100Y-110228380D02*
X200698100Y-112514380D01*
X200698100Y-112514380D02*
X200698100Y-117213380D01*
X201206100Y-117721380D02*
X200698100Y-117213380D01*
X201206100Y-118991380D02*
X201206100Y-117721380D01*
X105476000Y-89051920D02*
X101866960Y-92660960D01*
X108082080Y-89051920D02*
X105476000Y-89051920D01*
X109606080Y-86462920D02*
X109606080Y-86862920D01*
X108606080Y-85462920D02*
X109606080Y-86462920D01*
X108606080Y-76060778D02*
X108606080Y-85462920D01*
X110876080Y-73790778D02*
X108606080Y-76060778D01*
X110876080Y-71810880D02*
X110876080Y-73790778D01*
X112146080Y-52858300D02*
X112146080Y-59771917D01*
X80018099Y-79616791D02*
X107036570Y-52598320D01*
X107036570Y-52598320D02*
X112163860Y-52598320D01*
X80821040Y-149180410D02*
X80018099Y-148377469D01*
X213577660Y-149180410D02*
X80821040Y-149180410D01*
X200698100Y-121193379D02*
X203042100Y-123537379D01*
X200698100Y-117213380D02*
X200698100Y-121193379D01*
X203042100Y-123537379D02*
X215417149Y-123537379D01*
X215417149Y-123537379D02*
X216401510Y-124521740D01*
X216401510Y-124521740D02*
X216401510Y-146356560D01*
X80018099Y-148377469D02*
X80018099Y-79616791D01*
X216401510Y-146356560D02*
X213577660Y-149180410D01*
D24*
X113836081Y-64610881D02*
X114686080Y-65460880D01*
X112986843Y-63761643D02*
X113836081Y-64610881D01*
X109146317Y-63761643D02*
X112986843Y-63761643D01*
X108590080Y-64317880D02*
X109146317Y-63761643D01*
D23*
X203081100Y-120866380D02*
X203111100Y-120896380D01*
X203081100Y-118991380D02*
X203081100Y-120866380D01*
X202573100Y-110228380D02*
X202573100Y-112514380D01*
X202573100Y-112514380D02*
X203735940Y-112514380D01*
X203735940Y-112514380D02*
X203738480Y-112516920D01*
X203081100Y-113174300D02*
X203738480Y-112516920D01*
X203081100Y-118991380D02*
X203081100Y-113174300D01*
X207805681Y-125087380D02*
X207874261Y-125018800D01*
X206603600Y-125087380D02*
X207805681Y-125087380D01*
X207874261Y-125018800D02*
X215201500Y-125018800D01*
X215201500Y-125018800D02*
X215201500Y-145859500D01*
X215201500Y-145859500D02*
X213080600Y-147980400D01*
X213080600Y-147980400D02*
X81318100Y-147980400D01*
X81318100Y-147980400D02*
X81318100Y-122415300D01*
D24*
X114686080Y-61991240D02*
X114686080Y-65460880D01*
X124748530Y-51928790D02*
X114686080Y-61991240D01*
X201446499Y-69670561D02*
X204710399Y-69670561D01*
X204710399Y-69670561D02*
X210286600Y-64094360D01*
X210286600Y-64094360D02*
X210286600Y-56210200D01*
X200596500Y-70520560D02*
X201446499Y-69670561D01*
X210286600Y-56210200D02*
X206005190Y-51928790D01*
X206005190Y-51928790D02*
X124748530Y-51928790D01*
X110799880Y-89021920D02*
X109987080Y-89021920D01*
X109987080Y-89021920D02*
X108082080Y-90926920D01*
D23*
X110002320Y-77129640D02*
X115321080Y-71810880D01*
X110002320Y-77597000D02*
X110002320Y-77129640D01*
D25*
X202227180Y-133327140D02*
X190665100Y-121765060D01*
X190665100Y-121765060D02*
X190665100Y-89456260D01*
D24*
X113481640Y-130251200D02*
X113481640Y-133299200D01*
X113481640Y-136698200D02*
X113324640Y-136855200D01*
X113481640Y-133299200D02*
X113481640Y-136698200D01*
X113324640Y-140254200D02*
X113481640Y-140411200D01*
X113324640Y-136855200D02*
X113324640Y-140254200D01*
X113481640Y-140411200D02*
X116021640Y-142951200D01*
X116021640Y-142951200D02*
X117388640Y-142951200D01*
D26*
X220284040Y-114076480D02*
X216982040Y-114076480D01*
X216268040Y-113362480D02*
X214188040Y-113362480D01*
X216982040Y-114076480D02*
X216268040Y-113362480D01*
X220288693Y-114071827D02*
X220284040Y-114076480D01*
X222057387Y-114071827D02*
X220288693Y-114071827D01*
D24*
X195376320Y-61244480D02*
X195376320Y-60832520D01*
X195376320Y-60832520D02*
X194437000Y-59893200D01*
X130006880Y-75352120D02*
X127000000Y-78359000D01*
X130129280Y-75352120D02*
X130006880Y-75352120D01*
X127000000Y-78359000D02*
X127000000Y-80899000D01*
X127849999Y-63968999D02*
X127000000Y-63119000D01*
X131279290Y-67398290D02*
X127849999Y-63968999D01*
X131279290Y-74202110D02*
X131279290Y-67398290D01*
X130129280Y-75352120D02*
X131279290Y-74202110D01*
X183680710Y-67398290D02*
X185420000Y-65659000D01*
X119024400Y-120256300D02*
X119024400Y-117055900D01*
X119024400Y-114484685D02*
X119024400Y-117055900D01*
X119024400Y-113919000D02*
X119024400Y-114484685D01*
X119024400Y-113919000D02*
X119024400Y-110731300D01*
X119024400Y-110165615D02*
X119024400Y-107657900D01*
X119024400Y-110731300D02*
X119024400Y-110165615D01*
X119011700Y-101180900D02*
X118935500Y-101257100D01*
X119011700Y-98044000D02*
X119011700Y-101180900D01*
X118935500Y-101822785D02*
X118935500Y-104381300D01*
X118935500Y-101257100D02*
X118935500Y-101822785D01*
X118935500Y-107569000D02*
X119024400Y-107657900D01*
X118935500Y-104381300D02*
X118935500Y-107569000D01*
X123863100Y-117055900D02*
X124460000Y-116459000D01*
X119024400Y-117055900D02*
X123863100Y-117055900D01*
X123012200Y-142951200D02*
X124460000Y-144399000D01*
X117388640Y-142951200D02*
X123012200Y-142951200D01*
X127000000Y-144399000D02*
X128206500Y-144399000D01*
X128206500Y-144399000D02*
X129082800Y-143522700D01*
X129082800Y-131241800D02*
X127000000Y-129159000D01*
X129082800Y-143522700D02*
X129082800Y-131241800D01*
X128202081Y-129159000D02*
X128968500Y-128392581D01*
X127000000Y-129159000D02*
X128202081Y-129159000D01*
X128968500Y-82867500D02*
X127000000Y-80899000D01*
X128968500Y-128392581D02*
X128968500Y-82867500D01*
X194437000Y-52946300D02*
X194437000Y-59893200D01*
X194119500Y-52628800D02*
X194437000Y-52946300D01*
X183197500Y-52628800D02*
X194119500Y-52628800D01*
X183197500Y-64638581D02*
X183197500Y-52628800D01*
X185420000Y-65659000D02*
X184217919Y-65659000D01*
X184217919Y-65659000D02*
X183197500Y-64638581D01*
X183147310Y-101486310D02*
X185420000Y-103759000D01*
X183147310Y-67398290D02*
X183147310Y-101486310D01*
X183147310Y-67398290D02*
X183680710Y-67398290D01*
X131279290Y-67398290D02*
X183147310Y-67398290D01*
X115199640Y-140254200D02*
X115356640Y-140411200D01*
X115199640Y-136855200D02*
X115199640Y-140254200D01*
X115356640Y-140411200D02*
X119420640Y-140411200D01*
X214599040Y-115951480D02*
X214188040Y-116362480D01*
X216982040Y-115951480D02*
X214599040Y-115951480D01*
X96271080Y-120505220D02*
X96271080Y-74350880D01*
X96100900Y-120675400D02*
X96271080Y-120505220D01*
X104892059Y-120982959D02*
X104584500Y-120675400D01*
X104980959Y-120982959D02*
X104892059Y-120982959D01*
X115199640Y-134823326D02*
X114419140Y-134042826D01*
X115199640Y-136855200D02*
X115199640Y-134823326D01*
X114419140Y-134042826D02*
X114419140Y-128846340D01*
X114419140Y-128846340D02*
X109443999Y-123871199D01*
X104584500Y-120675400D02*
X96100900Y-120675400D01*
X109443999Y-123871199D02*
X107869199Y-123871199D01*
X107869199Y-123871199D02*
X104980959Y-120982959D01*
D25*
X210426300Y-112600740D02*
X214188040Y-116362480D01*
X210426300Y-109689900D02*
X210426300Y-112600740D01*
D24*
X115356640Y-130251200D02*
X115356640Y-133299200D01*
X115356640Y-133299200D02*
X119420640Y-133299200D01*
X197251320Y-61244480D02*
X198538180Y-61244480D01*
X198538180Y-61244480D02*
X200417780Y-59364880D01*
X127198120Y-73477120D02*
X127000000Y-73279000D01*
X130129280Y-73477120D02*
X127198120Y-73477120D01*
X132129290Y-75033236D02*
X132129290Y-72369680D01*
X130103880Y-146563080D02*
X130103880Y-77058646D01*
X130103880Y-77058646D02*
X132129290Y-75033236D01*
D26*
X102656640Y-140919200D02*
X102656640Y-139903200D01*
X100624640Y-142951200D02*
X102656640Y-140919200D01*
X101289640Y-139395200D02*
X98592640Y-139395200D01*
X102656640Y-138028200D02*
X101343220Y-139341620D01*
X101343220Y-139341620D02*
X101289640Y-139395200D01*
D24*
X116718080Y-86354920D02*
X117226080Y-86862920D01*
X116718080Y-82290920D02*
X116718080Y-86354920D01*
X111618080Y-86334920D02*
X112146080Y-86862920D01*
X111618080Y-82290920D02*
X111618080Y-86334920D01*
D26*
X96911640Y-135839200D02*
X97068640Y-135682200D01*
X102305640Y-135682200D02*
X102148640Y-135839200D01*
X104180640Y-135682200D02*
X102305640Y-135682200D01*
X100781640Y-135839200D02*
X100624640Y-135682200D01*
X102148640Y-135839200D02*
X100781640Y-135839200D01*
X97624877Y-135125963D02*
X97068640Y-135682200D01*
X100068403Y-135125963D02*
X97624877Y-135125963D01*
X100624640Y-135682200D02*
X100068403Y-135125963D01*
X97068640Y-136855200D02*
X97068640Y-135682200D01*
X105704640Y-135839200D02*
X105196640Y-136347200D01*
X105196640Y-136347200D02*
X105196640Y-141427200D01*
X105704640Y-135273515D02*
X105704640Y-135839200D01*
X104794562Y-134363437D02*
X105704640Y-135273515D01*
X104736877Y-134363437D02*
X104794562Y-134363437D01*
X104180640Y-133807200D02*
X104736877Y-134363437D01*
X104180640Y-133807200D02*
X100624640Y-133807200D01*
X100624640Y-133807200D02*
X97068640Y-133807200D01*
D25*
X96707960Y-133446520D02*
X97068640Y-133807200D01*
X96707960Y-132562600D02*
X96707960Y-133446520D01*
D27*
X222313500Y-109486700D02*
X214307420Y-101480620D01*
X214307420Y-101480620D02*
X191884300Y-101480620D01*
D25*
X221084040Y-115951480D02*
X220284040Y-115951480D01*
X221258136Y-115951480D02*
X221084040Y-115951480D01*
X225993960Y-111215656D02*
X221258136Y-115951480D01*
X225993960Y-107386120D02*
X225993960Y-111215656D01*
X192603120Y-146641820D02*
X181356000Y-146641820D01*
X181356000Y-146641820D02*
X179959000Y-145244820D01*
X179959000Y-145244820D02*
X179959000Y-105610660D01*
D24*
X195008500Y-76108560D02*
X195008500Y-79240560D01*
X195008500Y-79240560D02*
X195008500Y-79870300D01*
X195008500Y-79870300D02*
X196082920Y-80944720D01*
X196082920Y-80944720D02*
X196822060Y-80944720D01*
X196822060Y-80944720D02*
X198630540Y-82753200D01*
D27*
X171612560Y-70525640D02*
X179384960Y-78298040D01*
X179384960Y-78298040D02*
X179384960Y-78379320D01*
X131196080Y-109621320D02*
X135874760Y-114300000D01*
X135874760Y-114300000D02*
X135874760Y-115387120D01*
X130977640Y-111389160D02*
X133289040Y-113700560D01*
X133289040Y-113700560D02*
X133289040Y-113863120D01*
D26*
X205008480Y-65646961D02*
X204173481Y-66481960D01*
X205008480Y-64444880D02*
X205008480Y-65646961D01*
X198141962Y-66481960D02*
X191038480Y-59378478D01*
X204173481Y-66481960D02*
X198141962Y-66481960D01*
X191038480Y-54747160D02*
X189495130Y-53203810D01*
X191038480Y-59378478D02*
X191038480Y-54747160D01*
X187715190Y-53203810D02*
X185420000Y-55499000D01*
X189495130Y-53203810D02*
X187715190Y-53203810D01*
D27*
X181523640Y-78486000D02*
X181523640Y-70040500D01*
X181523640Y-70040500D02*
X181218840Y-69735700D01*
X181726840Y-66083180D02*
X181726840Y-55026560D01*
X181726840Y-55026560D02*
X181160420Y-54460140D01*
X190362840Y-63322200D02*
X194561460Y-67520820D01*
X194561460Y-67520820D02*
X196557900Y-67520820D01*
D26*
X195618100Y-118991380D02*
X196888100Y-120261380D01*
X195618100Y-117721380D02*
X195618100Y-118991380D01*
X173385480Y-97241360D02*
X183702960Y-107558840D01*
X131739640Y-97241360D02*
X173385480Y-97241360D01*
D27*
X206121000Y-97407195D02*
X189895480Y-81181675D01*
X206121000Y-97972880D02*
X206121000Y-97407195D01*
X189895480Y-75214480D02*
X187960000Y-73279000D01*
X189895480Y-81181675D02*
X189895480Y-75214480D01*
D26*
X102656640Y-128219200D02*
X102656640Y-127203200D01*
X102656640Y-127203200D02*
X101640640Y-126187200D01*
X95036640Y-131912198D02*
X95036640Y-136855200D01*
X102656640Y-128219200D02*
X98729638Y-128219200D01*
X89506280Y-131324840D02*
X89057480Y-131324840D01*
X95036640Y-136855200D02*
X89506280Y-131324840D01*
X95036640Y-131912198D02*
X96129002Y-131912198D01*
X98729638Y-129311562D02*
X98729638Y-128219200D01*
X96129002Y-131912198D02*
X98729638Y-129311562D01*
X105350487Y-131641622D02*
X106787928Y-130204181D01*
X105350487Y-132637351D02*
X105350487Y-131641622D01*
M02*
