M48
; DRILL file {KiCad (5.1.4)-1} date 11/13/2019 7:04:38 PM
; FORMAT={-:-/ absolute / inch / decimal}
; #@! TF.CreationDate,2019-11-13T19:04:38-06:00
; #@! TF.GenerationSoftware,Kicad,Pcbnew,(5.1.4)-1
FMAT,2
INCH
T1C0.0157
T2C0.0197
T3C0.0236
T4C0.0335
T5C0.0394
T6C0.0402
T7C0.0630
T8C0.0394
T9C0.0500
T10C0.1181
%
G90
G05
T1
X3.833Y-3.969
X3.9056Y-3.954
X4.3645Y-2.639
X4.3795Y-2.744
X4.4845Y-1.304
X4.5095Y-2.739
X4.7145Y-1.554
X4.7195Y-2.609
X4.8195Y-1.369
X4.8345Y-1.5825
X5.1855Y-1.4482
X5.2855Y-1.3982
X5.3945Y-1.119
X5.5595Y-3.159
X5.5595Y-3.869
X5.72Y-4.655
X5.73Y-4.85
X5.855Y-4.66
X5.86Y-4.84
X5.865Y-4.745
X5.9645Y-1.254
X6.1395Y-3.049
X6.1945Y-4.064
X6.1995Y-3.309
X6.2545Y-3.314
X6.2595Y-3.219
X6.285Y-3.96
X6.2992Y-3.2424
X6.2995Y-3.549
X6.3025Y-3.464
X6.375Y-3.95
X6.375Y-4.05
X6.3792Y-3.1424
X6.385Y-7.09
X6.42Y-4.465
X6.42Y-7.055
X6.4295Y-3.449
X6.47Y-7.015
X6.485Y-5.94
X6.495Y-5.895
X6.55Y-5.965
X6.565Y-5.86
X6.73Y-6.97
X6.7966Y-3.6443
X6.8392Y-3.4224
X6.8531Y-3.5485
X6.8592Y-3.2024
X6.9592Y-3.7224
X6.9992Y-3.8024
X7.0109Y-3.2845
X7.0728Y-6.5399
X7.075Y-4.77
X7.165Y-5.355
X7.1792Y-3.3824
X7.1934Y-3.5514
X7.2278Y-6.2767
X7.2592Y-3.3824
X7.2661Y-4.4891
X7.275Y-5.355
X7.3664Y-4.5603
X7.3695Y-5.6461
X7.3845Y-5.909
T2
X7.2238Y-4.2987
T3
X4.2345Y-1.529
X4.3345Y-1.529
X4.9806Y-1.1285
X5.1655Y-1.2482
X5.3105Y-1.1532
X6.55Y-0.96
X7.592Y-4.286
T4
X4.0805Y-1.4383
X4.1805Y-1.4383
X4.2805Y-1.4383
X4.3805Y-1.4383
T5
X7.5046Y-1.6679
X7.5046Y-1.786
X7.5046Y-1.9041
X7.5046Y-2.0222
X7.6227Y-1.6679
X7.6227Y-1.786
X7.6227Y-1.9041
X7.6227Y-2.0222
X3.6037Y-2.2339
X3.6037Y-2.3339
X3.6037Y-3.3339
X3.6037Y-3.4339
X3.6037Y-3.5339
X3.6037Y-3.6339
X3.6037Y-3.7339
X3.6037Y-3.8339
X3.6037Y-3.9339
X3.6037Y-4.0339
X3.6037Y-4.1339
X3.6037Y-4.2339
X3.6037Y-4.3339
X3.6037Y-4.4339
X3.6037Y-4.5339
X3.6037Y-4.6339
X3.6037Y-4.7339
X3.6037Y-4.8339
X3.6037Y-4.9339
X3.6037Y-5.0339
X3.6037Y-5.1339
X3.6037Y-5.2339
X3.6037Y-5.3339
X3.6037Y-5.4339
X3.6037Y-5.5339
X3.6037Y-5.6339
X3.6037Y-5.7339
X3.6037Y-5.8339
X3.6037Y-5.9339
X3.6037Y-6.0339
X3.6037Y-6.1339
X3.6037Y-6.2339
X3.6037Y-6.3339
X3.6037Y-6.4339
X3.6037Y-6.5339
X3.6037Y-6.6339
X3.6037Y-6.7339
X3.6037Y-6.8339
X3.7037Y-3.3339
X3.7037Y-3.4339
X3.7037Y-3.5339
X3.7037Y-3.6339
X3.7037Y-3.7339
X3.7037Y-3.8339
X3.7037Y-3.9339
X3.7037Y-4.0339
X3.7037Y-4.1339
X3.7037Y-4.2339
X3.7037Y-4.3339
X3.7037Y-4.4339
X3.7037Y-4.5339
X3.7037Y-4.6339
X3.7037Y-4.7339
X3.7037Y-4.8339
X3.7037Y-4.9339
X3.7037Y-5.0339
X3.7037Y-5.1339
X3.7037Y-5.2339
X3.7037Y-5.3339
X3.7037Y-5.4339
X3.7037Y-5.5339
X3.7037Y-5.6339
X3.7037Y-5.7339
X3.7037Y-5.8339
X3.7037Y-5.9339
X3.7037Y-6.0339
X3.7037Y-6.1339
X3.7037Y-6.2339
X3.7037Y-6.3339
X3.7037Y-6.4339
X3.7037Y-6.5339
X3.7037Y-6.6339
X3.7037Y-6.7339
X3.7037Y-6.8339
X6.0037Y-3.3339
X6.0037Y-3.4339
X6.0037Y-3.5339
X6.0037Y-3.6339
X6.0037Y-3.7339
X6.0037Y-3.8339
X6.0037Y-3.9339
X6.0037Y-4.0339
X6.0037Y-4.1339
X6.0037Y-4.2339
X6.0037Y-4.3339
X6.0037Y-4.4339
X6.0037Y-4.5339
X6.0037Y-4.6339
X6.0037Y-4.7339
X6.0037Y-4.8339
X6.0037Y-4.9339
X6.0037Y-5.0339
X6.0037Y-5.1339
X6.0037Y-5.2339
X6.0037Y-5.3339
X6.0037Y-5.4339
X6.0037Y-5.5339
X6.0037Y-5.6339
X6.0037Y-5.7339
X6.0037Y-5.8339
X6.0037Y-5.9339
X6.0037Y-6.0339
X6.0037Y-6.1339
X6.0037Y-6.2339
X6.0037Y-6.3339
X6.0037Y-6.4339
X6.0037Y-6.5339
X6.0037Y-6.6339
X6.0037Y-6.7339
X6.0037Y-6.8339
X6.1037Y-2.2339
X6.1037Y-2.3339
X6.1037Y-3.3339
X6.1037Y-3.4339
X6.1037Y-3.5339
X6.1037Y-3.6339
X6.1037Y-3.7339
X6.1037Y-3.8339
X6.1037Y-3.9339
X6.1037Y-4.0339
X6.1037Y-4.1339
X6.1037Y-4.2339
X6.1037Y-4.3339
X6.1037Y-4.4339
X6.1037Y-4.5339
X6.1037Y-4.6339
X6.1037Y-4.7339
X6.1037Y-4.8339
X6.1037Y-4.9339
X6.1037Y-5.0339
X6.1037Y-5.1339
X6.1037Y-5.2339
X6.1037Y-5.3339
X6.1037Y-5.4339
X6.1037Y-5.5339
X6.1037Y-5.6339
X6.1037Y-5.7339
X6.1037Y-5.8339
X6.1037Y-5.9339
X6.1037Y-6.0339
X6.1037Y-6.1339
X6.1037Y-6.2339
X6.1037Y-6.3339
X6.1037Y-6.4339
X6.1037Y-6.5339
X6.1037Y-6.6339
X6.1037Y-6.7339
X6.1037Y-6.8339
X7.5695Y-5.4654
X7.5695Y-5.5654
X6.7992Y-3.8424
X6.8992Y-3.8424
X7.5046Y-0.9879
X7.5046Y-1.106
X7.5046Y-1.2241
X7.5046Y-1.3422
X7.6227Y-0.9879
X7.6227Y-1.106
X7.6227Y-1.2241
X7.6227Y-1.3422
T6
X6.6669Y-6.78
X6.785Y-6.78
X3.6805Y-1.4133
X3.7986Y-1.4133
X7.2727Y-4.0822
X7.3908Y-4.0822
X7.4946Y-3.2458
X7.4946Y-3.3639
X7.4946Y-3.482
X7.4946Y-3.6001
X5.4755Y-1.0157
X5.5936Y-1.0157
X5.7117Y-1.0157
X5.8298Y-1.0157
X7.5376Y-6.1865
X7.5376Y-6.3046
X7.5376Y-6.4227
X7.5376Y-6.5408
T7
X7.5438Y-4.8387
X4.4055Y-1.0633
X7.2844Y-3.661
X7.2792Y-3.8224
X3.8305Y-1.1633
X7.1192Y-3.2824
X5.1705Y-1.0132
X7.0392Y-3.1424
X3.6555Y-1.1633
X7.2792Y-3.2424
X4.2305Y-1.0633
X7.0992Y-3.8424
T8
X7.6597Y-1.5498
X7.6597Y-2.1403
X7.6597Y-0.8698
X7.6597Y-1.4603
T9
X5.3574Y-0.9385
X5.9479Y-0.9385
X7.6148Y-6.0684
X7.6148Y-6.6589
X6.5488Y-6.8572
X6.9031Y-6.8572
X3.5624Y-1.3361
X3.9167Y-1.3361
X7.1546Y-4.1594
X7.5089Y-4.1594
X7.5718Y-3.1277
X7.5718Y-3.7182
T10
X1.7699Y-2.2815
X2.0278Y-2.2815
X2.2857Y-2.2815
X2.542Y-2.288
T0
M30
