G04 #@! TF.GenerationSoftware,KiCad,Pcbnew,(5.1.4)-1*
G04 #@! TF.CreationDate,2019-11-23T11:55:31-06:00*
G04 #@! TF.ProjectId,BPS_Nucleo,4250535f-4e75-4636-9c65-6f2e6b696361,rev?*
G04 #@! TF.SameCoordinates,Original*
G04 #@! TF.FileFunction,Copper,L2,Bot*
G04 #@! TF.FilePolarity,Positive*
%FSLAX46Y46*%
G04 Gerber Fmt 4.6, Leading zero omitted, Abs format (unit mm)*
G04 Created by KiCad (PCBNEW (5.1.4)-1) date 2019-11-23 11:55:31*
%MOMM*%
%LPD*%
G04 APERTURE LIST*
%ADD10C,1.700000*%
%ADD11C,2.800000*%
%ADD12C,0.100000*%
%ADD13C,0.975000*%
%ADD14O,1.700000X1.700000*%
%ADD15R,1.700000X1.700000*%
%ADD16R,1.500000X1.500000*%
%ADD17C,1.500000*%
%ADD18O,1.800000X1.000000*%
%ADD19C,1.200000*%
%ADD20C,0.800000*%
%ADD21C,1.000000*%
%ADD22C,0.250000*%
%ADD23C,0.500000*%
%ADD24C,0.380000*%
%ADD25C,0.260000*%
G04 APERTURE END LIST*
D10*
X236855000Y-59055000D03*
X234315000Y-59055000D03*
X236855000Y-61595000D03*
X234315000Y-61595000D03*
X236855000Y-64135000D03*
X234315000Y-64135000D03*
X236855000Y-66675000D03*
X234315000Y-66675000D03*
X236855000Y-69215000D03*
X234315000Y-69215000D03*
X236855000Y-71755000D03*
X234315000Y-71755000D03*
X236855000Y-74295000D03*
X234315000Y-74295000D03*
X236855000Y-76835000D03*
X234315000Y-76835000D03*
X236855000Y-79375000D03*
X234315000Y-79375000D03*
X236855000Y-81915000D03*
X234315000Y-81915000D03*
X236855000Y-84455000D03*
X234315000Y-84455000D03*
X236855000Y-86995000D03*
X234315000Y-86995000D03*
X236855000Y-89535000D03*
X234315000Y-89535000D03*
X236855000Y-92075000D03*
X234315000Y-92075000D03*
X236855000Y-94615000D03*
X234315000Y-94615000D03*
X236855000Y-97155000D03*
X234315000Y-97155000D03*
X236855000Y-99695000D03*
X234315000Y-99695000D03*
X236855000Y-102235000D03*
X234315000Y-102235000D03*
X236855000Y-104775000D03*
X234315000Y-104775000D03*
X236855000Y-107315000D03*
X234315000Y-107315000D03*
X236855000Y-109855000D03*
X234315000Y-109855000D03*
X236855000Y-112395000D03*
X234315000Y-112395000D03*
X236855000Y-114935000D03*
X234315000Y-114935000D03*
X236855000Y-117475000D03*
X234315000Y-117475000D03*
X236855000Y-120015000D03*
X234315000Y-120015000D03*
X236855000Y-122555000D03*
X234315000Y-122555000D03*
X236855000Y-125095000D03*
X234315000Y-125095000D03*
X236855000Y-127635000D03*
X234315000Y-127635000D03*
X236855000Y-130175000D03*
X234315000Y-130175000D03*
X236855000Y-132715000D03*
X234315000Y-132715000D03*
X236855000Y-135255000D03*
X234315000Y-135255000D03*
X236855000Y-137795000D03*
X234315000Y-137795000D03*
X236855000Y-140335000D03*
X234315000Y-140335000D03*
X236855000Y-142875000D03*
X234315000Y-142875000D03*
X236855000Y-145415000D03*
X234315000Y-145415000D03*
X236855000Y-147955000D03*
X234315000Y-147955000D03*
X175895000Y-59055000D03*
X173355000Y-59055000D03*
X175895000Y-61595000D03*
X173355000Y-61595000D03*
X175895000Y-64135000D03*
X173355000Y-64135000D03*
X175895000Y-66675000D03*
X173355000Y-66675000D03*
X175895000Y-69215000D03*
X173355000Y-69215000D03*
X175895000Y-71755000D03*
X173355000Y-71755000D03*
X175895000Y-74295000D03*
X173355000Y-74295000D03*
X175895000Y-76835000D03*
X173355000Y-76835000D03*
X175895000Y-79375000D03*
X173355000Y-79375000D03*
X175895000Y-81915000D03*
X173355000Y-81915000D03*
X175895000Y-84455000D03*
X173355000Y-84455000D03*
X175895000Y-86995000D03*
X173355000Y-86995000D03*
X175895000Y-89535000D03*
X173355000Y-89535000D03*
X175895000Y-92075000D03*
X173355000Y-92075000D03*
X175895000Y-94615000D03*
X173355000Y-94615000D03*
X175895000Y-97155000D03*
X173355000Y-97155000D03*
X175895000Y-99695000D03*
X173355000Y-99695000D03*
X175895000Y-102235000D03*
X173355000Y-102235000D03*
X175895000Y-104775000D03*
X173355000Y-104775000D03*
X175895000Y-107315000D03*
X173355000Y-107315000D03*
X175895000Y-109855000D03*
X173355000Y-109855000D03*
X175895000Y-112395000D03*
X173355000Y-112395000D03*
X175895000Y-114935000D03*
X173355000Y-114935000D03*
X175895000Y-117475000D03*
X173355000Y-117475000D03*
X175895000Y-120015000D03*
X173355000Y-120015000D03*
X175895000Y-122555000D03*
X173355000Y-122555000D03*
X175895000Y-125095000D03*
X173355000Y-125095000D03*
X175895000Y-127635000D03*
X173355000Y-127635000D03*
X175895000Y-130175000D03*
X173355000Y-130175000D03*
X175895000Y-132715000D03*
X173355000Y-132715000D03*
X175895000Y-135255000D03*
X173355000Y-135255000D03*
X175895000Y-137795000D03*
X173355000Y-137795000D03*
X175895000Y-140335000D03*
X173355000Y-140335000D03*
X175895000Y-142875000D03*
X173355000Y-142875000D03*
X175895000Y-145415000D03*
X173355000Y-145415000D03*
X175895000Y-147955000D03*
X173355000Y-147955000D03*
X236855000Y-31115000D03*
X236855000Y-33655000D03*
X173355000Y-31115000D03*
X173355000Y-33655000D03*
D11*
X201101960Y-107203240D03*
D10*
X229715060Y-126491740D03*
X229715060Y-129491740D03*
D11*
X221942660Y-56433720D03*
D10*
X182890160Y-107152180D03*
X182890160Y-110152180D03*
D12*
G36*
X221386482Y-64293354D02*
G01*
X221410143Y-64296864D01*
X221433347Y-64302676D01*
X221455869Y-64310734D01*
X221477493Y-64320962D01*
X221498010Y-64333259D01*
X221517223Y-64347509D01*
X221534947Y-64363573D01*
X221551011Y-64381297D01*
X221565261Y-64400510D01*
X221577558Y-64421027D01*
X221587786Y-64442651D01*
X221595844Y-64465173D01*
X221601656Y-64488377D01*
X221605166Y-64512038D01*
X221606340Y-64535930D01*
X221606340Y-65023430D01*
X221605166Y-65047322D01*
X221601656Y-65070983D01*
X221595844Y-65094187D01*
X221587786Y-65116709D01*
X221577558Y-65138333D01*
X221565261Y-65158850D01*
X221551011Y-65178063D01*
X221534947Y-65195787D01*
X221517223Y-65211851D01*
X221498010Y-65226101D01*
X221477493Y-65238398D01*
X221455869Y-65248626D01*
X221433347Y-65256684D01*
X221410143Y-65262496D01*
X221386482Y-65266006D01*
X221362590Y-65267180D01*
X220450090Y-65267180D01*
X220426198Y-65266006D01*
X220402537Y-65262496D01*
X220379333Y-65256684D01*
X220356811Y-65248626D01*
X220335187Y-65238398D01*
X220314670Y-65226101D01*
X220295457Y-65211851D01*
X220277733Y-65195787D01*
X220261669Y-65178063D01*
X220247419Y-65158850D01*
X220235122Y-65138333D01*
X220224894Y-65116709D01*
X220216836Y-65094187D01*
X220211024Y-65070983D01*
X220207514Y-65047322D01*
X220206340Y-65023430D01*
X220206340Y-64535930D01*
X220207514Y-64512038D01*
X220211024Y-64488377D01*
X220216836Y-64465173D01*
X220224894Y-64442651D01*
X220235122Y-64421027D01*
X220247419Y-64400510D01*
X220261669Y-64381297D01*
X220277733Y-64363573D01*
X220295457Y-64347509D01*
X220314670Y-64333259D01*
X220335187Y-64320962D01*
X220356811Y-64310734D01*
X220379333Y-64302676D01*
X220402537Y-64296864D01*
X220426198Y-64293354D01*
X220450090Y-64292180D01*
X221362590Y-64292180D01*
X221386482Y-64293354D01*
X221386482Y-64293354D01*
G37*
D13*
X220906340Y-64779680D03*
D12*
G36*
X221386482Y-66168354D02*
G01*
X221410143Y-66171864D01*
X221433347Y-66177676D01*
X221455869Y-66185734D01*
X221477493Y-66195962D01*
X221498010Y-66208259D01*
X221517223Y-66222509D01*
X221534947Y-66238573D01*
X221551011Y-66256297D01*
X221565261Y-66275510D01*
X221577558Y-66296027D01*
X221587786Y-66317651D01*
X221595844Y-66340173D01*
X221601656Y-66363377D01*
X221605166Y-66387038D01*
X221606340Y-66410930D01*
X221606340Y-66898430D01*
X221605166Y-66922322D01*
X221601656Y-66945983D01*
X221595844Y-66969187D01*
X221587786Y-66991709D01*
X221577558Y-67013333D01*
X221565261Y-67033850D01*
X221551011Y-67053063D01*
X221534947Y-67070787D01*
X221517223Y-67086851D01*
X221498010Y-67101101D01*
X221477493Y-67113398D01*
X221455869Y-67123626D01*
X221433347Y-67131684D01*
X221410143Y-67137496D01*
X221386482Y-67141006D01*
X221362590Y-67142180D01*
X220450090Y-67142180D01*
X220426198Y-67141006D01*
X220402537Y-67137496D01*
X220379333Y-67131684D01*
X220356811Y-67123626D01*
X220335187Y-67113398D01*
X220314670Y-67101101D01*
X220295457Y-67086851D01*
X220277733Y-67070787D01*
X220261669Y-67053063D01*
X220247419Y-67033850D01*
X220235122Y-67013333D01*
X220224894Y-66991709D01*
X220216836Y-66969187D01*
X220211024Y-66945983D01*
X220207514Y-66922322D01*
X220206340Y-66898430D01*
X220206340Y-66410930D01*
X220207514Y-66387038D01*
X220211024Y-66363377D01*
X220216836Y-66340173D01*
X220224894Y-66317651D01*
X220235122Y-66296027D01*
X220247419Y-66275510D01*
X220261669Y-66256297D01*
X220277733Y-66238573D01*
X220295457Y-66222509D01*
X220314670Y-66208259D01*
X220335187Y-66195962D01*
X220356811Y-66185734D01*
X220379333Y-66177676D01*
X220402537Y-66171864D01*
X220426198Y-66168354D01*
X220450090Y-66167180D01*
X221362590Y-66167180D01*
X221386482Y-66168354D01*
X221386482Y-66168354D01*
G37*
D13*
X220906340Y-66654680D03*
D12*
G36*
X214274482Y-66168354D02*
G01*
X214298143Y-66171864D01*
X214321347Y-66177676D01*
X214343869Y-66185734D01*
X214365493Y-66195962D01*
X214386010Y-66208259D01*
X214405223Y-66222509D01*
X214422947Y-66238573D01*
X214439011Y-66256297D01*
X214453261Y-66275510D01*
X214465558Y-66296027D01*
X214475786Y-66317651D01*
X214483844Y-66340173D01*
X214489656Y-66363377D01*
X214493166Y-66387038D01*
X214494340Y-66410930D01*
X214494340Y-66898430D01*
X214493166Y-66922322D01*
X214489656Y-66945983D01*
X214483844Y-66969187D01*
X214475786Y-66991709D01*
X214465558Y-67013333D01*
X214453261Y-67033850D01*
X214439011Y-67053063D01*
X214422947Y-67070787D01*
X214405223Y-67086851D01*
X214386010Y-67101101D01*
X214365493Y-67113398D01*
X214343869Y-67123626D01*
X214321347Y-67131684D01*
X214298143Y-67137496D01*
X214274482Y-67141006D01*
X214250590Y-67142180D01*
X213338090Y-67142180D01*
X213314198Y-67141006D01*
X213290537Y-67137496D01*
X213267333Y-67131684D01*
X213244811Y-67123626D01*
X213223187Y-67113398D01*
X213202670Y-67101101D01*
X213183457Y-67086851D01*
X213165733Y-67070787D01*
X213149669Y-67053063D01*
X213135419Y-67033850D01*
X213123122Y-67013333D01*
X213112894Y-66991709D01*
X213104836Y-66969187D01*
X213099024Y-66945983D01*
X213095514Y-66922322D01*
X213094340Y-66898430D01*
X213094340Y-66410930D01*
X213095514Y-66387038D01*
X213099024Y-66363377D01*
X213104836Y-66340173D01*
X213112894Y-66317651D01*
X213123122Y-66296027D01*
X213135419Y-66275510D01*
X213149669Y-66256297D01*
X213165733Y-66238573D01*
X213183457Y-66222509D01*
X213202670Y-66208259D01*
X213223187Y-66195962D01*
X213244811Y-66185734D01*
X213267333Y-66177676D01*
X213290537Y-66171864D01*
X213314198Y-66168354D01*
X213338090Y-66167180D01*
X214250590Y-66167180D01*
X214274482Y-66168354D01*
X214274482Y-66168354D01*
G37*
D13*
X213794340Y-66654680D03*
D12*
G36*
X214274482Y-64293354D02*
G01*
X214298143Y-64296864D01*
X214321347Y-64302676D01*
X214343869Y-64310734D01*
X214365493Y-64320962D01*
X214386010Y-64333259D01*
X214405223Y-64347509D01*
X214422947Y-64363573D01*
X214439011Y-64381297D01*
X214453261Y-64400510D01*
X214465558Y-64421027D01*
X214475786Y-64442651D01*
X214483844Y-64465173D01*
X214489656Y-64488377D01*
X214493166Y-64512038D01*
X214494340Y-64535930D01*
X214494340Y-65023430D01*
X214493166Y-65047322D01*
X214489656Y-65070983D01*
X214483844Y-65094187D01*
X214475786Y-65116709D01*
X214465558Y-65138333D01*
X214453261Y-65158850D01*
X214439011Y-65178063D01*
X214422947Y-65195787D01*
X214405223Y-65211851D01*
X214386010Y-65226101D01*
X214365493Y-65238398D01*
X214343869Y-65248626D01*
X214321347Y-65256684D01*
X214298143Y-65262496D01*
X214274482Y-65266006D01*
X214250590Y-65267180D01*
X213338090Y-65267180D01*
X213314198Y-65266006D01*
X213290537Y-65262496D01*
X213267333Y-65256684D01*
X213244811Y-65248626D01*
X213223187Y-65238398D01*
X213202670Y-65226101D01*
X213183457Y-65211851D01*
X213165733Y-65195787D01*
X213149669Y-65178063D01*
X213135419Y-65158850D01*
X213123122Y-65138333D01*
X213112894Y-65116709D01*
X213104836Y-65094187D01*
X213099024Y-65070983D01*
X213095514Y-65047322D01*
X213094340Y-65023430D01*
X213094340Y-64535930D01*
X213095514Y-64512038D01*
X213099024Y-64488377D01*
X213104836Y-64465173D01*
X213112894Y-64442651D01*
X213123122Y-64421027D01*
X213135419Y-64400510D01*
X213149669Y-64381297D01*
X213165733Y-64363573D01*
X213183457Y-64347509D01*
X213202670Y-64333259D01*
X213223187Y-64320962D01*
X213244811Y-64310734D01*
X213267333Y-64302676D01*
X213290537Y-64296864D01*
X213314198Y-64293354D01*
X213338090Y-64292180D01*
X214250590Y-64292180D01*
X214274482Y-64293354D01*
X214274482Y-64293354D01*
G37*
D13*
X213794340Y-64779680D03*
D12*
G36*
X217830482Y-66168354D02*
G01*
X217854143Y-66171864D01*
X217877347Y-66177676D01*
X217899869Y-66185734D01*
X217921493Y-66195962D01*
X217942010Y-66208259D01*
X217961223Y-66222509D01*
X217978947Y-66238573D01*
X217995011Y-66256297D01*
X218009261Y-66275510D01*
X218021558Y-66296027D01*
X218031786Y-66317651D01*
X218039844Y-66340173D01*
X218045656Y-66363377D01*
X218049166Y-66387038D01*
X218050340Y-66410930D01*
X218050340Y-66898430D01*
X218049166Y-66922322D01*
X218045656Y-66945983D01*
X218039844Y-66969187D01*
X218031786Y-66991709D01*
X218021558Y-67013333D01*
X218009261Y-67033850D01*
X217995011Y-67053063D01*
X217978947Y-67070787D01*
X217961223Y-67086851D01*
X217942010Y-67101101D01*
X217921493Y-67113398D01*
X217899869Y-67123626D01*
X217877347Y-67131684D01*
X217854143Y-67137496D01*
X217830482Y-67141006D01*
X217806590Y-67142180D01*
X216894090Y-67142180D01*
X216870198Y-67141006D01*
X216846537Y-67137496D01*
X216823333Y-67131684D01*
X216800811Y-67123626D01*
X216779187Y-67113398D01*
X216758670Y-67101101D01*
X216739457Y-67086851D01*
X216721733Y-67070787D01*
X216705669Y-67053063D01*
X216691419Y-67033850D01*
X216679122Y-67013333D01*
X216668894Y-66991709D01*
X216660836Y-66969187D01*
X216655024Y-66945983D01*
X216651514Y-66922322D01*
X216650340Y-66898430D01*
X216650340Y-66410930D01*
X216651514Y-66387038D01*
X216655024Y-66363377D01*
X216660836Y-66340173D01*
X216668894Y-66317651D01*
X216679122Y-66296027D01*
X216691419Y-66275510D01*
X216705669Y-66256297D01*
X216721733Y-66238573D01*
X216739457Y-66222509D01*
X216758670Y-66208259D01*
X216779187Y-66195962D01*
X216800811Y-66185734D01*
X216823333Y-66177676D01*
X216846537Y-66171864D01*
X216870198Y-66168354D01*
X216894090Y-66167180D01*
X217806590Y-66167180D01*
X217830482Y-66168354D01*
X217830482Y-66168354D01*
G37*
D13*
X217350340Y-66654680D03*
D12*
G36*
X217830482Y-64293354D02*
G01*
X217854143Y-64296864D01*
X217877347Y-64302676D01*
X217899869Y-64310734D01*
X217921493Y-64320962D01*
X217942010Y-64333259D01*
X217961223Y-64347509D01*
X217978947Y-64363573D01*
X217995011Y-64381297D01*
X218009261Y-64400510D01*
X218021558Y-64421027D01*
X218031786Y-64442651D01*
X218039844Y-64465173D01*
X218045656Y-64488377D01*
X218049166Y-64512038D01*
X218050340Y-64535930D01*
X218050340Y-65023430D01*
X218049166Y-65047322D01*
X218045656Y-65070983D01*
X218039844Y-65094187D01*
X218031786Y-65116709D01*
X218021558Y-65138333D01*
X218009261Y-65158850D01*
X217995011Y-65178063D01*
X217978947Y-65195787D01*
X217961223Y-65211851D01*
X217942010Y-65226101D01*
X217921493Y-65238398D01*
X217899869Y-65248626D01*
X217877347Y-65256684D01*
X217854143Y-65262496D01*
X217830482Y-65266006D01*
X217806590Y-65267180D01*
X216894090Y-65267180D01*
X216870198Y-65266006D01*
X216846537Y-65262496D01*
X216823333Y-65256684D01*
X216800811Y-65248626D01*
X216779187Y-65238398D01*
X216758670Y-65226101D01*
X216739457Y-65211851D01*
X216721733Y-65195787D01*
X216705669Y-65178063D01*
X216691419Y-65158850D01*
X216679122Y-65138333D01*
X216668894Y-65116709D01*
X216660836Y-65094187D01*
X216655024Y-65070983D01*
X216651514Y-65047322D01*
X216650340Y-65023430D01*
X216650340Y-64535930D01*
X216651514Y-64512038D01*
X216655024Y-64488377D01*
X216660836Y-64465173D01*
X216668894Y-64442651D01*
X216679122Y-64421027D01*
X216691419Y-64400510D01*
X216705669Y-64381297D01*
X216721733Y-64363573D01*
X216739457Y-64347509D01*
X216758670Y-64333259D01*
X216779187Y-64320962D01*
X216800811Y-64310734D01*
X216823333Y-64302676D01*
X216846537Y-64296864D01*
X216870198Y-64293354D01*
X216894090Y-64292180D01*
X217806590Y-64292180D01*
X217830482Y-64293354D01*
X217830482Y-64293354D01*
G37*
D13*
X217350340Y-64779680D03*
D12*
G36*
X223406642Y-92524254D02*
G01*
X223430303Y-92527764D01*
X223453507Y-92533576D01*
X223476029Y-92541634D01*
X223497653Y-92551862D01*
X223518170Y-92564159D01*
X223537383Y-92578409D01*
X223555107Y-92594473D01*
X223571171Y-92612197D01*
X223585421Y-92631410D01*
X223597718Y-92651927D01*
X223607946Y-92673551D01*
X223616004Y-92696073D01*
X223621816Y-92719277D01*
X223625326Y-92742938D01*
X223626500Y-92766830D01*
X223626500Y-93679330D01*
X223625326Y-93703222D01*
X223621816Y-93726883D01*
X223616004Y-93750087D01*
X223607946Y-93772609D01*
X223597718Y-93794233D01*
X223585421Y-93814750D01*
X223571171Y-93833963D01*
X223555107Y-93851687D01*
X223537383Y-93867751D01*
X223518170Y-93882001D01*
X223497653Y-93894298D01*
X223476029Y-93904526D01*
X223453507Y-93912584D01*
X223430303Y-93918396D01*
X223406642Y-93921906D01*
X223382750Y-93923080D01*
X222895250Y-93923080D01*
X222871358Y-93921906D01*
X222847697Y-93918396D01*
X222824493Y-93912584D01*
X222801971Y-93904526D01*
X222780347Y-93894298D01*
X222759830Y-93882001D01*
X222740617Y-93867751D01*
X222722893Y-93851687D01*
X222706829Y-93833963D01*
X222692579Y-93814750D01*
X222680282Y-93794233D01*
X222670054Y-93772609D01*
X222661996Y-93750087D01*
X222656184Y-93726883D01*
X222652674Y-93703222D01*
X222651500Y-93679330D01*
X222651500Y-92766830D01*
X222652674Y-92742938D01*
X222656184Y-92719277D01*
X222661996Y-92696073D01*
X222670054Y-92673551D01*
X222680282Y-92651927D01*
X222692579Y-92631410D01*
X222706829Y-92612197D01*
X222722893Y-92594473D01*
X222740617Y-92578409D01*
X222759830Y-92564159D01*
X222780347Y-92551862D01*
X222801971Y-92541634D01*
X222824493Y-92533576D01*
X222847697Y-92527764D01*
X222871358Y-92524254D01*
X222895250Y-92523080D01*
X223382750Y-92523080D01*
X223406642Y-92524254D01*
X223406642Y-92524254D01*
G37*
D13*
X223139000Y-93223080D03*
D12*
G36*
X225281642Y-92524254D02*
G01*
X225305303Y-92527764D01*
X225328507Y-92533576D01*
X225351029Y-92541634D01*
X225372653Y-92551862D01*
X225393170Y-92564159D01*
X225412383Y-92578409D01*
X225430107Y-92594473D01*
X225446171Y-92612197D01*
X225460421Y-92631410D01*
X225472718Y-92651927D01*
X225482946Y-92673551D01*
X225491004Y-92696073D01*
X225496816Y-92719277D01*
X225500326Y-92742938D01*
X225501500Y-92766830D01*
X225501500Y-93679330D01*
X225500326Y-93703222D01*
X225496816Y-93726883D01*
X225491004Y-93750087D01*
X225482946Y-93772609D01*
X225472718Y-93794233D01*
X225460421Y-93814750D01*
X225446171Y-93833963D01*
X225430107Y-93851687D01*
X225412383Y-93867751D01*
X225393170Y-93882001D01*
X225372653Y-93894298D01*
X225351029Y-93904526D01*
X225328507Y-93912584D01*
X225305303Y-93918396D01*
X225281642Y-93921906D01*
X225257750Y-93923080D01*
X224770250Y-93923080D01*
X224746358Y-93921906D01*
X224722697Y-93918396D01*
X224699493Y-93912584D01*
X224676971Y-93904526D01*
X224655347Y-93894298D01*
X224634830Y-93882001D01*
X224615617Y-93867751D01*
X224597893Y-93851687D01*
X224581829Y-93833963D01*
X224567579Y-93814750D01*
X224555282Y-93794233D01*
X224545054Y-93772609D01*
X224536996Y-93750087D01*
X224531184Y-93726883D01*
X224527674Y-93703222D01*
X224526500Y-93679330D01*
X224526500Y-92766830D01*
X224527674Y-92742938D01*
X224531184Y-92719277D01*
X224536996Y-92696073D01*
X224545054Y-92673551D01*
X224555282Y-92651927D01*
X224567579Y-92631410D01*
X224581829Y-92612197D01*
X224597893Y-92594473D01*
X224615617Y-92578409D01*
X224634830Y-92564159D01*
X224655347Y-92551862D01*
X224676971Y-92541634D01*
X224699493Y-92533576D01*
X224722697Y-92527764D01*
X224746358Y-92524254D01*
X224770250Y-92523080D01*
X225257750Y-92523080D01*
X225281642Y-92524254D01*
X225281642Y-92524254D01*
G37*
D13*
X225014000Y-93223080D03*
D12*
G36*
X223914642Y-99001254D02*
G01*
X223938303Y-99004764D01*
X223961507Y-99010576D01*
X223984029Y-99018634D01*
X224005653Y-99028862D01*
X224026170Y-99041159D01*
X224045383Y-99055409D01*
X224063107Y-99071473D01*
X224079171Y-99089197D01*
X224093421Y-99108410D01*
X224105718Y-99128927D01*
X224115946Y-99150551D01*
X224124004Y-99173073D01*
X224129816Y-99196277D01*
X224133326Y-99219938D01*
X224134500Y-99243830D01*
X224134500Y-100156330D01*
X224133326Y-100180222D01*
X224129816Y-100203883D01*
X224124004Y-100227087D01*
X224115946Y-100249609D01*
X224105718Y-100271233D01*
X224093421Y-100291750D01*
X224079171Y-100310963D01*
X224063107Y-100328687D01*
X224045383Y-100344751D01*
X224026170Y-100359001D01*
X224005653Y-100371298D01*
X223984029Y-100381526D01*
X223961507Y-100389584D01*
X223938303Y-100395396D01*
X223914642Y-100398906D01*
X223890750Y-100400080D01*
X223403250Y-100400080D01*
X223379358Y-100398906D01*
X223355697Y-100395396D01*
X223332493Y-100389584D01*
X223309971Y-100381526D01*
X223288347Y-100371298D01*
X223267830Y-100359001D01*
X223248617Y-100344751D01*
X223230893Y-100328687D01*
X223214829Y-100310963D01*
X223200579Y-100291750D01*
X223188282Y-100271233D01*
X223178054Y-100249609D01*
X223169996Y-100227087D01*
X223164184Y-100203883D01*
X223160674Y-100180222D01*
X223159500Y-100156330D01*
X223159500Y-99243830D01*
X223160674Y-99219938D01*
X223164184Y-99196277D01*
X223169996Y-99173073D01*
X223178054Y-99150551D01*
X223188282Y-99128927D01*
X223200579Y-99108410D01*
X223214829Y-99089197D01*
X223230893Y-99071473D01*
X223248617Y-99055409D01*
X223267830Y-99041159D01*
X223288347Y-99028862D01*
X223309971Y-99018634D01*
X223332493Y-99010576D01*
X223355697Y-99004764D01*
X223379358Y-99001254D01*
X223403250Y-99000080D01*
X223890750Y-99000080D01*
X223914642Y-99001254D01*
X223914642Y-99001254D01*
G37*
D13*
X223647000Y-99700080D03*
D12*
G36*
X225789642Y-99001254D02*
G01*
X225813303Y-99004764D01*
X225836507Y-99010576D01*
X225859029Y-99018634D01*
X225880653Y-99028862D01*
X225901170Y-99041159D01*
X225920383Y-99055409D01*
X225938107Y-99071473D01*
X225954171Y-99089197D01*
X225968421Y-99108410D01*
X225980718Y-99128927D01*
X225990946Y-99150551D01*
X225999004Y-99173073D01*
X226004816Y-99196277D01*
X226008326Y-99219938D01*
X226009500Y-99243830D01*
X226009500Y-100156330D01*
X226008326Y-100180222D01*
X226004816Y-100203883D01*
X225999004Y-100227087D01*
X225990946Y-100249609D01*
X225980718Y-100271233D01*
X225968421Y-100291750D01*
X225954171Y-100310963D01*
X225938107Y-100328687D01*
X225920383Y-100344751D01*
X225901170Y-100359001D01*
X225880653Y-100371298D01*
X225859029Y-100381526D01*
X225836507Y-100389584D01*
X225813303Y-100395396D01*
X225789642Y-100398906D01*
X225765750Y-100400080D01*
X225278250Y-100400080D01*
X225254358Y-100398906D01*
X225230697Y-100395396D01*
X225207493Y-100389584D01*
X225184971Y-100381526D01*
X225163347Y-100371298D01*
X225142830Y-100359001D01*
X225123617Y-100344751D01*
X225105893Y-100328687D01*
X225089829Y-100310963D01*
X225075579Y-100291750D01*
X225063282Y-100271233D01*
X225053054Y-100249609D01*
X225044996Y-100227087D01*
X225039184Y-100203883D01*
X225035674Y-100180222D01*
X225034500Y-100156330D01*
X225034500Y-99243830D01*
X225035674Y-99219938D01*
X225039184Y-99196277D01*
X225044996Y-99173073D01*
X225053054Y-99150551D01*
X225063282Y-99128927D01*
X225075579Y-99108410D01*
X225089829Y-99089197D01*
X225105893Y-99071473D01*
X225123617Y-99055409D01*
X225142830Y-99041159D01*
X225163347Y-99028862D01*
X225184971Y-99018634D01*
X225207493Y-99010576D01*
X225230697Y-99004764D01*
X225254358Y-99001254D01*
X225278250Y-99000080D01*
X225765750Y-99000080D01*
X225789642Y-99001254D01*
X225789642Y-99001254D01*
G37*
D13*
X225522000Y-99700080D03*
D12*
G36*
X223406642Y-88193554D02*
G01*
X223430303Y-88197064D01*
X223453507Y-88202876D01*
X223476029Y-88210934D01*
X223497653Y-88221162D01*
X223518170Y-88233459D01*
X223537383Y-88247709D01*
X223555107Y-88263773D01*
X223571171Y-88281497D01*
X223585421Y-88300710D01*
X223597718Y-88321227D01*
X223607946Y-88342851D01*
X223616004Y-88365373D01*
X223621816Y-88388577D01*
X223625326Y-88412238D01*
X223626500Y-88436130D01*
X223626500Y-89348630D01*
X223625326Y-89372522D01*
X223621816Y-89396183D01*
X223616004Y-89419387D01*
X223607946Y-89441909D01*
X223597718Y-89463533D01*
X223585421Y-89484050D01*
X223571171Y-89503263D01*
X223555107Y-89520987D01*
X223537383Y-89537051D01*
X223518170Y-89551301D01*
X223497653Y-89563598D01*
X223476029Y-89573826D01*
X223453507Y-89581884D01*
X223430303Y-89587696D01*
X223406642Y-89591206D01*
X223382750Y-89592380D01*
X222895250Y-89592380D01*
X222871358Y-89591206D01*
X222847697Y-89587696D01*
X222824493Y-89581884D01*
X222801971Y-89573826D01*
X222780347Y-89563598D01*
X222759830Y-89551301D01*
X222740617Y-89537051D01*
X222722893Y-89520987D01*
X222706829Y-89503263D01*
X222692579Y-89484050D01*
X222680282Y-89463533D01*
X222670054Y-89441909D01*
X222661996Y-89419387D01*
X222656184Y-89396183D01*
X222652674Y-89372522D01*
X222651500Y-89348630D01*
X222651500Y-88436130D01*
X222652674Y-88412238D01*
X222656184Y-88388577D01*
X222661996Y-88365373D01*
X222670054Y-88342851D01*
X222680282Y-88321227D01*
X222692579Y-88300710D01*
X222706829Y-88281497D01*
X222722893Y-88263773D01*
X222740617Y-88247709D01*
X222759830Y-88233459D01*
X222780347Y-88221162D01*
X222801971Y-88210934D01*
X222824493Y-88202876D01*
X222847697Y-88197064D01*
X222871358Y-88193554D01*
X222895250Y-88192380D01*
X223382750Y-88192380D01*
X223406642Y-88193554D01*
X223406642Y-88193554D01*
G37*
D13*
X223139000Y-88892380D03*
D12*
G36*
X225281642Y-88193554D02*
G01*
X225305303Y-88197064D01*
X225328507Y-88202876D01*
X225351029Y-88210934D01*
X225372653Y-88221162D01*
X225393170Y-88233459D01*
X225412383Y-88247709D01*
X225430107Y-88263773D01*
X225446171Y-88281497D01*
X225460421Y-88300710D01*
X225472718Y-88321227D01*
X225482946Y-88342851D01*
X225491004Y-88365373D01*
X225496816Y-88388577D01*
X225500326Y-88412238D01*
X225501500Y-88436130D01*
X225501500Y-89348630D01*
X225500326Y-89372522D01*
X225496816Y-89396183D01*
X225491004Y-89419387D01*
X225482946Y-89441909D01*
X225472718Y-89463533D01*
X225460421Y-89484050D01*
X225446171Y-89503263D01*
X225430107Y-89520987D01*
X225412383Y-89537051D01*
X225393170Y-89551301D01*
X225372653Y-89563598D01*
X225351029Y-89573826D01*
X225328507Y-89581884D01*
X225305303Y-89587696D01*
X225281642Y-89591206D01*
X225257750Y-89592380D01*
X224770250Y-89592380D01*
X224746358Y-89591206D01*
X224722697Y-89587696D01*
X224699493Y-89581884D01*
X224676971Y-89573826D01*
X224655347Y-89563598D01*
X224634830Y-89551301D01*
X224615617Y-89537051D01*
X224597893Y-89520987D01*
X224581829Y-89503263D01*
X224567579Y-89484050D01*
X224555282Y-89463533D01*
X224545054Y-89441909D01*
X224536996Y-89419387D01*
X224531184Y-89396183D01*
X224527674Y-89372522D01*
X224526500Y-89348630D01*
X224526500Y-88436130D01*
X224527674Y-88412238D01*
X224531184Y-88388577D01*
X224536996Y-88365373D01*
X224545054Y-88342851D01*
X224555282Y-88321227D01*
X224567579Y-88300710D01*
X224581829Y-88281497D01*
X224597893Y-88263773D01*
X224615617Y-88247709D01*
X224634830Y-88233459D01*
X224655347Y-88221162D01*
X224676971Y-88210934D01*
X224699493Y-88202876D01*
X224722697Y-88197064D01*
X224746358Y-88193554D01*
X224770250Y-88192380D01*
X225257750Y-88192380D01*
X225281642Y-88193554D01*
X225281642Y-88193554D01*
G37*
D13*
X225014000Y-88892380D03*
D12*
G36*
X232143382Y-67834114D02*
G01*
X232167043Y-67837624D01*
X232190247Y-67843436D01*
X232212769Y-67851494D01*
X232234393Y-67861722D01*
X232254910Y-67874019D01*
X232274123Y-67888269D01*
X232291847Y-67904333D01*
X232307911Y-67922057D01*
X232322161Y-67941270D01*
X232334458Y-67961787D01*
X232344686Y-67983411D01*
X232352744Y-68005933D01*
X232358556Y-68029137D01*
X232362066Y-68052798D01*
X232363240Y-68076690D01*
X232363240Y-68564190D01*
X232362066Y-68588082D01*
X232358556Y-68611743D01*
X232352744Y-68634947D01*
X232344686Y-68657469D01*
X232334458Y-68679093D01*
X232322161Y-68699610D01*
X232307911Y-68718823D01*
X232291847Y-68736547D01*
X232274123Y-68752611D01*
X232254910Y-68766861D01*
X232234393Y-68779158D01*
X232212769Y-68789386D01*
X232190247Y-68797444D01*
X232167043Y-68803256D01*
X232143382Y-68806766D01*
X232119490Y-68807940D01*
X231206990Y-68807940D01*
X231183098Y-68806766D01*
X231159437Y-68803256D01*
X231136233Y-68797444D01*
X231113711Y-68789386D01*
X231092087Y-68779158D01*
X231071570Y-68766861D01*
X231052357Y-68752611D01*
X231034633Y-68736547D01*
X231018569Y-68718823D01*
X231004319Y-68699610D01*
X230992022Y-68679093D01*
X230981794Y-68657469D01*
X230973736Y-68634947D01*
X230967924Y-68611743D01*
X230964414Y-68588082D01*
X230963240Y-68564190D01*
X230963240Y-68076690D01*
X230964414Y-68052798D01*
X230967924Y-68029137D01*
X230973736Y-68005933D01*
X230981794Y-67983411D01*
X230992022Y-67961787D01*
X231004319Y-67941270D01*
X231018569Y-67922057D01*
X231034633Y-67904333D01*
X231052357Y-67888269D01*
X231071570Y-67874019D01*
X231092087Y-67861722D01*
X231113711Y-67851494D01*
X231136233Y-67843436D01*
X231159437Y-67837624D01*
X231183098Y-67834114D01*
X231206990Y-67832940D01*
X232119490Y-67832940D01*
X232143382Y-67834114D01*
X232143382Y-67834114D01*
G37*
D13*
X231663240Y-68320440D03*
D12*
G36*
X232143382Y-69709114D02*
G01*
X232167043Y-69712624D01*
X232190247Y-69718436D01*
X232212769Y-69726494D01*
X232234393Y-69736722D01*
X232254910Y-69749019D01*
X232274123Y-69763269D01*
X232291847Y-69779333D01*
X232307911Y-69797057D01*
X232322161Y-69816270D01*
X232334458Y-69836787D01*
X232344686Y-69858411D01*
X232352744Y-69880933D01*
X232358556Y-69904137D01*
X232362066Y-69927798D01*
X232363240Y-69951690D01*
X232363240Y-70439190D01*
X232362066Y-70463082D01*
X232358556Y-70486743D01*
X232352744Y-70509947D01*
X232344686Y-70532469D01*
X232334458Y-70554093D01*
X232322161Y-70574610D01*
X232307911Y-70593823D01*
X232291847Y-70611547D01*
X232274123Y-70627611D01*
X232254910Y-70641861D01*
X232234393Y-70654158D01*
X232212769Y-70664386D01*
X232190247Y-70672444D01*
X232167043Y-70678256D01*
X232143382Y-70681766D01*
X232119490Y-70682940D01*
X231206990Y-70682940D01*
X231183098Y-70681766D01*
X231159437Y-70678256D01*
X231136233Y-70672444D01*
X231113711Y-70664386D01*
X231092087Y-70654158D01*
X231071570Y-70641861D01*
X231052357Y-70627611D01*
X231034633Y-70611547D01*
X231018569Y-70593823D01*
X231004319Y-70574610D01*
X230992022Y-70554093D01*
X230981794Y-70532469D01*
X230973736Y-70509947D01*
X230967924Y-70486743D01*
X230964414Y-70463082D01*
X230963240Y-70439190D01*
X230963240Y-69951690D01*
X230964414Y-69927798D01*
X230967924Y-69904137D01*
X230973736Y-69880933D01*
X230981794Y-69858411D01*
X230992022Y-69836787D01*
X231004319Y-69816270D01*
X231018569Y-69797057D01*
X231034633Y-69779333D01*
X231052357Y-69763269D01*
X231071570Y-69749019D01*
X231092087Y-69736722D01*
X231113711Y-69726494D01*
X231136233Y-69718436D01*
X231159437Y-69712624D01*
X231183098Y-69709114D01*
X231206990Y-69707940D01*
X232119490Y-69707940D01*
X232143382Y-69709114D01*
X232143382Y-69709114D01*
G37*
D13*
X231663240Y-70195440D03*
D12*
G36*
X215798482Y-60072354D02*
G01*
X215822143Y-60075864D01*
X215845347Y-60081676D01*
X215867869Y-60089734D01*
X215889493Y-60099962D01*
X215910010Y-60112259D01*
X215929223Y-60126509D01*
X215946947Y-60142573D01*
X215963011Y-60160297D01*
X215977261Y-60179510D01*
X215989558Y-60200027D01*
X215999786Y-60221651D01*
X216007844Y-60244173D01*
X216013656Y-60267377D01*
X216017166Y-60291038D01*
X216018340Y-60314930D01*
X216018340Y-60802430D01*
X216017166Y-60826322D01*
X216013656Y-60849983D01*
X216007844Y-60873187D01*
X215999786Y-60895709D01*
X215989558Y-60917333D01*
X215977261Y-60937850D01*
X215963011Y-60957063D01*
X215946947Y-60974787D01*
X215929223Y-60990851D01*
X215910010Y-61005101D01*
X215889493Y-61017398D01*
X215867869Y-61027626D01*
X215845347Y-61035684D01*
X215822143Y-61041496D01*
X215798482Y-61045006D01*
X215774590Y-61046180D01*
X214862090Y-61046180D01*
X214838198Y-61045006D01*
X214814537Y-61041496D01*
X214791333Y-61035684D01*
X214768811Y-61027626D01*
X214747187Y-61017398D01*
X214726670Y-61005101D01*
X214707457Y-60990851D01*
X214689733Y-60974787D01*
X214673669Y-60957063D01*
X214659419Y-60937850D01*
X214647122Y-60917333D01*
X214636894Y-60895709D01*
X214628836Y-60873187D01*
X214623024Y-60849983D01*
X214619514Y-60826322D01*
X214618340Y-60802430D01*
X214618340Y-60314930D01*
X214619514Y-60291038D01*
X214623024Y-60267377D01*
X214628836Y-60244173D01*
X214636894Y-60221651D01*
X214647122Y-60200027D01*
X214659419Y-60179510D01*
X214673669Y-60160297D01*
X214689733Y-60142573D01*
X214707457Y-60126509D01*
X214726670Y-60112259D01*
X214747187Y-60099962D01*
X214768811Y-60089734D01*
X214791333Y-60081676D01*
X214814537Y-60075864D01*
X214838198Y-60072354D01*
X214862090Y-60071180D01*
X215774590Y-60071180D01*
X215798482Y-60072354D01*
X215798482Y-60072354D01*
G37*
D13*
X215318340Y-60558680D03*
D12*
G36*
X215798482Y-61947354D02*
G01*
X215822143Y-61950864D01*
X215845347Y-61956676D01*
X215867869Y-61964734D01*
X215889493Y-61974962D01*
X215910010Y-61987259D01*
X215929223Y-62001509D01*
X215946947Y-62017573D01*
X215963011Y-62035297D01*
X215977261Y-62054510D01*
X215989558Y-62075027D01*
X215999786Y-62096651D01*
X216007844Y-62119173D01*
X216013656Y-62142377D01*
X216017166Y-62166038D01*
X216018340Y-62189930D01*
X216018340Y-62677430D01*
X216017166Y-62701322D01*
X216013656Y-62724983D01*
X216007844Y-62748187D01*
X215999786Y-62770709D01*
X215989558Y-62792333D01*
X215977261Y-62812850D01*
X215963011Y-62832063D01*
X215946947Y-62849787D01*
X215929223Y-62865851D01*
X215910010Y-62880101D01*
X215889493Y-62892398D01*
X215867869Y-62902626D01*
X215845347Y-62910684D01*
X215822143Y-62916496D01*
X215798482Y-62920006D01*
X215774590Y-62921180D01*
X214862090Y-62921180D01*
X214838198Y-62920006D01*
X214814537Y-62916496D01*
X214791333Y-62910684D01*
X214768811Y-62902626D01*
X214747187Y-62892398D01*
X214726670Y-62880101D01*
X214707457Y-62865851D01*
X214689733Y-62849787D01*
X214673669Y-62832063D01*
X214659419Y-62812850D01*
X214647122Y-62792333D01*
X214636894Y-62770709D01*
X214628836Y-62748187D01*
X214623024Y-62724983D01*
X214619514Y-62701322D01*
X214618340Y-62677430D01*
X214618340Y-62189930D01*
X214619514Y-62166038D01*
X214623024Y-62142377D01*
X214628836Y-62119173D01*
X214636894Y-62096651D01*
X214647122Y-62075027D01*
X214659419Y-62054510D01*
X214673669Y-62035297D01*
X214689733Y-62017573D01*
X214707457Y-62001509D01*
X214726670Y-61987259D01*
X214747187Y-61974962D01*
X214768811Y-61964734D01*
X214791333Y-61956676D01*
X214814537Y-61950864D01*
X214838198Y-61947354D01*
X214862090Y-61946180D01*
X215774590Y-61946180D01*
X215798482Y-61947354D01*
X215798482Y-61947354D01*
G37*
D13*
X215318340Y-62433680D03*
D12*
G36*
X195475942Y-84951654D02*
G01*
X195499603Y-84955164D01*
X195522807Y-84960976D01*
X195545329Y-84969034D01*
X195566953Y-84979262D01*
X195587470Y-84991559D01*
X195606683Y-85005809D01*
X195624407Y-85021873D01*
X195640471Y-85039597D01*
X195654721Y-85058810D01*
X195667018Y-85079327D01*
X195677246Y-85100951D01*
X195685304Y-85123473D01*
X195691116Y-85146677D01*
X195694626Y-85170338D01*
X195695800Y-85194230D01*
X195695800Y-85681730D01*
X195694626Y-85705622D01*
X195691116Y-85729283D01*
X195685304Y-85752487D01*
X195677246Y-85775009D01*
X195667018Y-85796633D01*
X195654721Y-85817150D01*
X195640471Y-85836363D01*
X195624407Y-85854087D01*
X195606683Y-85870151D01*
X195587470Y-85884401D01*
X195566953Y-85896698D01*
X195545329Y-85906926D01*
X195522807Y-85914984D01*
X195499603Y-85920796D01*
X195475942Y-85924306D01*
X195452050Y-85925480D01*
X194539550Y-85925480D01*
X194515658Y-85924306D01*
X194491997Y-85920796D01*
X194468793Y-85914984D01*
X194446271Y-85906926D01*
X194424647Y-85896698D01*
X194404130Y-85884401D01*
X194384917Y-85870151D01*
X194367193Y-85854087D01*
X194351129Y-85836363D01*
X194336879Y-85817150D01*
X194324582Y-85796633D01*
X194314354Y-85775009D01*
X194306296Y-85752487D01*
X194300484Y-85729283D01*
X194296974Y-85705622D01*
X194295800Y-85681730D01*
X194295800Y-85194230D01*
X194296974Y-85170338D01*
X194300484Y-85146677D01*
X194306296Y-85123473D01*
X194314354Y-85100951D01*
X194324582Y-85079327D01*
X194336879Y-85058810D01*
X194351129Y-85039597D01*
X194367193Y-85021873D01*
X194384917Y-85005809D01*
X194404130Y-84991559D01*
X194424647Y-84979262D01*
X194446271Y-84969034D01*
X194468793Y-84960976D01*
X194491997Y-84955164D01*
X194515658Y-84951654D01*
X194539550Y-84950480D01*
X195452050Y-84950480D01*
X195475942Y-84951654D01*
X195475942Y-84951654D01*
G37*
D13*
X194995800Y-85437980D03*
D12*
G36*
X195475942Y-83076654D02*
G01*
X195499603Y-83080164D01*
X195522807Y-83085976D01*
X195545329Y-83094034D01*
X195566953Y-83104262D01*
X195587470Y-83116559D01*
X195606683Y-83130809D01*
X195624407Y-83146873D01*
X195640471Y-83164597D01*
X195654721Y-83183810D01*
X195667018Y-83204327D01*
X195677246Y-83225951D01*
X195685304Y-83248473D01*
X195691116Y-83271677D01*
X195694626Y-83295338D01*
X195695800Y-83319230D01*
X195695800Y-83806730D01*
X195694626Y-83830622D01*
X195691116Y-83854283D01*
X195685304Y-83877487D01*
X195677246Y-83900009D01*
X195667018Y-83921633D01*
X195654721Y-83942150D01*
X195640471Y-83961363D01*
X195624407Y-83979087D01*
X195606683Y-83995151D01*
X195587470Y-84009401D01*
X195566953Y-84021698D01*
X195545329Y-84031926D01*
X195522807Y-84039984D01*
X195499603Y-84045796D01*
X195475942Y-84049306D01*
X195452050Y-84050480D01*
X194539550Y-84050480D01*
X194515658Y-84049306D01*
X194491997Y-84045796D01*
X194468793Y-84039984D01*
X194446271Y-84031926D01*
X194424647Y-84021698D01*
X194404130Y-84009401D01*
X194384917Y-83995151D01*
X194367193Y-83979087D01*
X194351129Y-83961363D01*
X194336879Y-83942150D01*
X194324582Y-83921633D01*
X194314354Y-83900009D01*
X194306296Y-83877487D01*
X194300484Y-83854283D01*
X194296974Y-83830622D01*
X194295800Y-83806730D01*
X194295800Y-83319230D01*
X194296974Y-83295338D01*
X194300484Y-83271677D01*
X194306296Y-83248473D01*
X194314354Y-83225951D01*
X194324582Y-83204327D01*
X194336879Y-83183810D01*
X194351129Y-83164597D01*
X194367193Y-83146873D01*
X194384917Y-83130809D01*
X194404130Y-83116559D01*
X194424647Y-83104262D01*
X194446271Y-83094034D01*
X194468793Y-83085976D01*
X194491997Y-83080164D01*
X194515658Y-83076654D01*
X194539550Y-83075480D01*
X195452050Y-83075480D01*
X195475942Y-83076654D01*
X195475942Y-83076654D01*
G37*
D13*
X194995800Y-83562980D03*
D12*
G36*
X202885982Y-59351854D02*
G01*
X202909643Y-59355364D01*
X202932847Y-59361176D01*
X202955369Y-59369234D01*
X202976993Y-59379462D01*
X202997510Y-59391759D01*
X203016723Y-59406009D01*
X203034447Y-59422073D01*
X203050511Y-59439797D01*
X203064761Y-59459010D01*
X203077058Y-59479527D01*
X203087286Y-59501151D01*
X203095344Y-59523673D01*
X203101156Y-59546877D01*
X203104666Y-59570538D01*
X203105840Y-59594430D01*
X203105840Y-60506930D01*
X203104666Y-60530822D01*
X203101156Y-60554483D01*
X203095344Y-60577687D01*
X203087286Y-60600209D01*
X203077058Y-60621833D01*
X203064761Y-60642350D01*
X203050511Y-60661563D01*
X203034447Y-60679287D01*
X203016723Y-60695351D01*
X202997510Y-60709601D01*
X202976993Y-60721898D01*
X202955369Y-60732126D01*
X202932847Y-60740184D01*
X202909643Y-60745996D01*
X202885982Y-60749506D01*
X202862090Y-60750680D01*
X202374590Y-60750680D01*
X202350698Y-60749506D01*
X202327037Y-60745996D01*
X202303833Y-60740184D01*
X202281311Y-60732126D01*
X202259687Y-60721898D01*
X202239170Y-60709601D01*
X202219957Y-60695351D01*
X202202233Y-60679287D01*
X202186169Y-60661563D01*
X202171919Y-60642350D01*
X202159622Y-60621833D01*
X202149394Y-60600209D01*
X202141336Y-60577687D01*
X202135524Y-60554483D01*
X202132014Y-60530822D01*
X202130840Y-60506930D01*
X202130840Y-59594430D01*
X202132014Y-59570538D01*
X202135524Y-59546877D01*
X202141336Y-59523673D01*
X202149394Y-59501151D01*
X202159622Y-59479527D01*
X202171919Y-59459010D01*
X202186169Y-59439797D01*
X202202233Y-59422073D01*
X202219957Y-59406009D01*
X202239170Y-59391759D01*
X202259687Y-59379462D01*
X202281311Y-59369234D01*
X202303833Y-59361176D01*
X202327037Y-59355364D01*
X202350698Y-59351854D01*
X202374590Y-59350680D01*
X202862090Y-59350680D01*
X202885982Y-59351854D01*
X202885982Y-59351854D01*
G37*
D13*
X202618340Y-60050680D03*
D12*
G36*
X204760982Y-59351854D02*
G01*
X204784643Y-59355364D01*
X204807847Y-59361176D01*
X204830369Y-59369234D01*
X204851993Y-59379462D01*
X204872510Y-59391759D01*
X204891723Y-59406009D01*
X204909447Y-59422073D01*
X204925511Y-59439797D01*
X204939761Y-59459010D01*
X204952058Y-59479527D01*
X204962286Y-59501151D01*
X204970344Y-59523673D01*
X204976156Y-59546877D01*
X204979666Y-59570538D01*
X204980840Y-59594430D01*
X204980840Y-60506930D01*
X204979666Y-60530822D01*
X204976156Y-60554483D01*
X204970344Y-60577687D01*
X204962286Y-60600209D01*
X204952058Y-60621833D01*
X204939761Y-60642350D01*
X204925511Y-60661563D01*
X204909447Y-60679287D01*
X204891723Y-60695351D01*
X204872510Y-60709601D01*
X204851993Y-60721898D01*
X204830369Y-60732126D01*
X204807847Y-60740184D01*
X204784643Y-60745996D01*
X204760982Y-60749506D01*
X204737090Y-60750680D01*
X204249590Y-60750680D01*
X204225698Y-60749506D01*
X204202037Y-60745996D01*
X204178833Y-60740184D01*
X204156311Y-60732126D01*
X204134687Y-60721898D01*
X204114170Y-60709601D01*
X204094957Y-60695351D01*
X204077233Y-60679287D01*
X204061169Y-60661563D01*
X204046919Y-60642350D01*
X204034622Y-60621833D01*
X204024394Y-60600209D01*
X204016336Y-60577687D01*
X204010524Y-60554483D01*
X204007014Y-60530822D01*
X204005840Y-60506930D01*
X204005840Y-59594430D01*
X204007014Y-59570538D01*
X204010524Y-59546877D01*
X204016336Y-59523673D01*
X204024394Y-59501151D01*
X204034622Y-59479527D01*
X204046919Y-59459010D01*
X204061169Y-59439797D01*
X204077233Y-59422073D01*
X204094957Y-59406009D01*
X204114170Y-59391759D01*
X204134687Y-59379462D01*
X204156311Y-59369234D01*
X204178833Y-59361176D01*
X204202037Y-59355364D01*
X204225698Y-59351854D01*
X204249590Y-59350680D01*
X204737090Y-59350680D01*
X204760982Y-59351854D01*
X204760982Y-59351854D01*
G37*
D13*
X204493340Y-60050680D03*
D12*
G36*
X202885982Y-69511854D02*
G01*
X202909643Y-69515364D01*
X202932847Y-69521176D01*
X202955369Y-69529234D01*
X202976993Y-69539462D01*
X202997510Y-69551759D01*
X203016723Y-69566009D01*
X203034447Y-69582073D01*
X203050511Y-69599797D01*
X203064761Y-69619010D01*
X203077058Y-69639527D01*
X203087286Y-69661151D01*
X203095344Y-69683673D01*
X203101156Y-69706877D01*
X203104666Y-69730538D01*
X203105840Y-69754430D01*
X203105840Y-70666930D01*
X203104666Y-70690822D01*
X203101156Y-70714483D01*
X203095344Y-70737687D01*
X203087286Y-70760209D01*
X203077058Y-70781833D01*
X203064761Y-70802350D01*
X203050511Y-70821563D01*
X203034447Y-70839287D01*
X203016723Y-70855351D01*
X202997510Y-70869601D01*
X202976993Y-70881898D01*
X202955369Y-70892126D01*
X202932847Y-70900184D01*
X202909643Y-70905996D01*
X202885982Y-70909506D01*
X202862090Y-70910680D01*
X202374590Y-70910680D01*
X202350698Y-70909506D01*
X202327037Y-70905996D01*
X202303833Y-70900184D01*
X202281311Y-70892126D01*
X202259687Y-70881898D01*
X202239170Y-70869601D01*
X202219957Y-70855351D01*
X202202233Y-70839287D01*
X202186169Y-70821563D01*
X202171919Y-70802350D01*
X202159622Y-70781833D01*
X202149394Y-70760209D01*
X202141336Y-70737687D01*
X202135524Y-70714483D01*
X202132014Y-70690822D01*
X202130840Y-70666930D01*
X202130840Y-69754430D01*
X202132014Y-69730538D01*
X202135524Y-69706877D01*
X202141336Y-69683673D01*
X202149394Y-69661151D01*
X202159622Y-69639527D01*
X202171919Y-69619010D01*
X202186169Y-69599797D01*
X202202233Y-69582073D01*
X202219957Y-69566009D01*
X202239170Y-69551759D01*
X202259687Y-69539462D01*
X202281311Y-69529234D01*
X202303833Y-69521176D01*
X202327037Y-69515364D01*
X202350698Y-69511854D01*
X202374590Y-69510680D01*
X202862090Y-69510680D01*
X202885982Y-69511854D01*
X202885982Y-69511854D01*
G37*
D13*
X202618340Y-70210680D03*
D12*
G36*
X204760982Y-69511854D02*
G01*
X204784643Y-69515364D01*
X204807847Y-69521176D01*
X204830369Y-69529234D01*
X204851993Y-69539462D01*
X204872510Y-69551759D01*
X204891723Y-69566009D01*
X204909447Y-69582073D01*
X204925511Y-69599797D01*
X204939761Y-69619010D01*
X204952058Y-69639527D01*
X204962286Y-69661151D01*
X204970344Y-69683673D01*
X204976156Y-69706877D01*
X204979666Y-69730538D01*
X204980840Y-69754430D01*
X204980840Y-70666930D01*
X204979666Y-70690822D01*
X204976156Y-70714483D01*
X204970344Y-70737687D01*
X204962286Y-70760209D01*
X204952058Y-70781833D01*
X204939761Y-70802350D01*
X204925511Y-70821563D01*
X204909447Y-70839287D01*
X204891723Y-70855351D01*
X204872510Y-70869601D01*
X204851993Y-70881898D01*
X204830369Y-70892126D01*
X204807847Y-70900184D01*
X204784643Y-70905996D01*
X204760982Y-70909506D01*
X204737090Y-70910680D01*
X204249590Y-70910680D01*
X204225698Y-70909506D01*
X204202037Y-70905996D01*
X204178833Y-70900184D01*
X204156311Y-70892126D01*
X204134687Y-70881898D01*
X204114170Y-70869601D01*
X204094957Y-70855351D01*
X204077233Y-70839287D01*
X204061169Y-70821563D01*
X204046919Y-70802350D01*
X204034622Y-70781833D01*
X204024394Y-70760209D01*
X204016336Y-70737687D01*
X204010524Y-70714483D01*
X204007014Y-70690822D01*
X204005840Y-70666930D01*
X204005840Y-69754430D01*
X204007014Y-69730538D01*
X204010524Y-69706877D01*
X204016336Y-69683673D01*
X204024394Y-69661151D01*
X204034622Y-69639527D01*
X204046919Y-69619010D01*
X204061169Y-69599797D01*
X204077233Y-69582073D01*
X204094957Y-69566009D01*
X204114170Y-69551759D01*
X204134687Y-69539462D01*
X204156311Y-69529234D01*
X204178833Y-69521176D01*
X204202037Y-69515364D01*
X204225698Y-69511854D01*
X204249590Y-69510680D01*
X204737090Y-69510680D01*
X204760982Y-69511854D01*
X204760982Y-69511854D01*
G37*
D13*
X204493340Y-70210680D03*
D12*
G36*
X204760982Y-66463854D02*
G01*
X204784643Y-66467364D01*
X204807847Y-66473176D01*
X204830369Y-66481234D01*
X204851993Y-66491462D01*
X204872510Y-66503759D01*
X204891723Y-66518009D01*
X204909447Y-66534073D01*
X204925511Y-66551797D01*
X204939761Y-66571010D01*
X204952058Y-66591527D01*
X204962286Y-66613151D01*
X204970344Y-66635673D01*
X204976156Y-66658877D01*
X204979666Y-66682538D01*
X204980840Y-66706430D01*
X204980840Y-67618930D01*
X204979666Y-67642822D01*
X204976156Y-67666483D01*
X204970344Y-67689687D01*
X204962286Y-67712209D01*
X204952058Y-67733833D01*
X204939761Y-67754350D01*
X204925511Y-67773563D01*
X204909447Y-67791287D01*
X204891723Y-67807351D01*
X204872510Y-67821601D01*
X204851993Y-67833898D01*
X204830369Y-67844126D01*
X204807847Y-67852184D01*
X204784643Y-67857996D01*
X204760982Y-67861506D01*
X204737090Y-67862680D01*
X204249590Y-67862680D01*
X204225698Y-67861506D01*
X204202037Y-67857996D01*
X204178833Y-67852184D01*
X204156311Y-67844126D01*
X204134687Y-67833898D01*
X204114170Y-67821601D01*
X204094957Y-67807351D01*
X204077233Y-67791287D01*
X204061169Y-67773563D01*
X204046919Y-67754350D01*
X204034622Y-67733833D01*
X204024394Y-67712209D01*
X204016336Y-67689687D01*
X204010524Y-67666483D01*
X204007014Y-67642822D01*
X204005840Y-67618930D01*
X204005840Y-66706430D01*
X204007014Y-66682538D01*
X204010524Y-66658877D01*
X204016336Y-66635673D01*
X204024394Y-66613151D01*
X204034622Y-66591527D01*
X204046919Y-66571010D01*
X204061169Y-66551797D01*
X204077233Y-66534073D01*
X204094957Y-66518009D01*
X204114170Y-66503759D01*
X204134687Y-66491462D01*
X204156311Y-66481234D01*
X204178833Y-66473176D01*
X204202037Y-66467364D01*
X204225698Y-66463854D01*
X204249590Y-66462680D01*
X204737090Y-66462680D01*
X204760982Y-66463854D01*
X204760982Y-66463854D01*
G37*
D13*
X204493340Y-67162680D03*
D12*
G36*
X202885982Y-66463854D02*
G01*
X202909643Y-66467364D01*
X202932847Y-66473176D01*
X202955369Y-66481234D01*
X202976993Y-66491462D01*
X202997510Y-66503759D01*
X203016723Y-66518009D01*
X203034447Y-66534073D01*
X203050511Y-66551797D01*
X203064761Y-66571010D01*
X203077058Y-66591527D01*
X203087286Y-66613151D01*
X203095344Y-66635673D01*
X203101156Y-66658877D01*
X203104666Y-66682538D01*
X203105840Y-66706430D01*
X203105840Y-67618930D01*
X203104666Y-67642822D01*
X203101156Y-67666483D01*
X203095344Y-67689687D01*
X203087286Y-67712209D01*
X203077058Y-67733833D01*
X203064761Y-67754350D01*
X203050511Y-67773563D01*
X203034447Y-67791287D01*
X203016723Y-67807351D01*
X202997510Y-67821601D01*
X202976993Y-67833898D01*
X202955369Y-67844126D01*
X202932847Y-67852184D01*
X202909643Y-67857996D01*
X202885982Y-67861506D01*
X202862090Y-67862680D01*
X202374590Y-67862680D01*
X202350698Y-67861506D01*
X202327037Y-67857996D01*
X202303833Y-67852184D01*
X202281311Y-67844126D01*
X202259687Y-67833898D01*
X202239170Y-67821601D01*
X202219957Y-67807351D01*
X202202233Y-67791287D01*
X202186169Y-67773563D01*
X202171919Y-67754350D01*
X202159622Y-67733833D01*
X202149394Y-67712209D01*
X202141336Y-67689687D01*
X202135524Y-67666483D01*
X202132014Y-67642822D01*
X202130840Y-67618930D01*
X202130840Y-66706430D01*
X202132014Y-66682538D01*
X202135524Y-66658877D01*
X202141336Y-66635673D01*
X202149394Y-66613151D01*
X202159622Y-66591527D01*
X202171919Y-66571010D01*
X202186169Y-66551797D01*
X202202233Y-66534073D01*
X202219957Y-66518009D01*
X202239170Y-66503759D01*
X202259687Y-66491462D01*
X202281311Y-66481234D01*
X202303833Y-66473176D01*
X202327037Y-66467364D01*
X202350698Y-66463854D01*
X202374590Y-66462680D01*
X202862090Y-66462680D01*
X202885982Y-66463854D01*
X202885982Y-66463854D01*
G37*
D13*
X202618340Y-67162680D03*
D12*
G36*
X203042982Y-62907854D02*
G01*
X203066643Y-62911364D01*
X203089847Y-62917176D01*
X203112369Y-62925234D01*
X203133993Y-62935462D01*
X203154510Y-62947759D01*
X203173723Y-62962009D01*
X203191447Y-62978073D01*
X203207511Y-62995797D01*
X203221761Y-63015010D01*
X203234058Y-63035527D01*
X203244286Y-63057151D01*
X203252344Y-63079673D01*
X203258156Y-63102877D01*
X203261666Y-63126538D01*
X203262840Y-63150430D01*
X203262840Y-64062930D01*
X203261666Y-64086822D01*
X203258156Y-64110483D01*
X203252344Y-64133687D01*
X203244286Y-64156209D01*
X203234058Y-64177833D01*
X203221761Y-64198350D01*
X203207511Y-64217563D01*
X203191447Y-64235287D01*
X203173723Y-64251351D01*
X203154510Y-64265601D01*
X203133993Y-64277898D01*
X203112369Y-64288126D01*
X203089847Y-64296184D01*
X203066643Y-64301996D01*
X203042982Y-64305506D01*
X203019090Y-64306680D01*
X202531590Y-64306680D01*
X202507698Y-64305506D01*
X202484037Y-64301996D01*
X202460833Y-64296184D01*
X202438311Y-64288126D01*
X202416687Y-64277898D01*
X202396170Y-64265601D01*
X202376957Y-64251351D01*
X202359233Y-64235287D01*
X202343169Y-64217563D01*
X202328919Y-64198350D01*
X202316622Y-64177833D01*
X202306394Y-64156209D01*
X202298336Y-64133687D01*
X202292524Y-64110483D01*
X202289014Y-64086822D01*
X202287840Y-64062930D01*
X202287840Y-63150430D01*
X202289014Y-63126538D01*
X202292524Y-63102877D01*
X202298336Y-63079673D01*
X202306394Y-63057151D01*
X202316622Y-63035527D01*
X202328919Y-63015010D01*
X202343169Y-62995797D01*
X202359233Y-62978073D01*
X202376957Y-62962009D01*
X202396170Y-62947759D01*
X202416687Y-62935462D01*
X202438311Y-62925234D01*
X202460833Y-62917176D01*
X202484037Y-62911364D01*
X202507698Y-62907854D01*
X202531590Y-62906680D01*
X203019090Y-62906680D01*
X203042982Y-62907854D01*
X203042982Y-62907854D01*
G37*
D13*
X202775340Y-63606680D03*
D12*
G36*
X204917982Y-62907854D02*
G01*
X204941643Y-62911364D01*
X204964847Y-62917176D01*
X204987369Y-62925234D01*
X205008993Y-62935462D01*
X205029510Y-62947759D01*
X205048723Y-62962009D01*
X205066447Y-62978073D01*
X205082511Y-62995797D01*
X205096761Y-63015010D01*
X205109058Y-63035527D01*
X205119286Y-63057151D01*
X205127344Y-63079673D01*
X205133156Y-63102877D01*
X205136666Y-63126538D01*
X205137840Y-63150430D01*
X205137840Y-64062930D01*
X205136666Y-64086822D01*
X205133156Y-64110483D01*
X205127344Y-64133687D01*
X205119286Y-64156209D01*
X205109058Y-64177833D01*
X205096761Y-64198350D01*
X205082511Y-64217563D01*
X205066447Y-64235287D01*
X205048723Y-64251351D01*
X205029510Y-64265601D01*
X205008993Y-64277898D01*
X204987369Y-64288126D01*
X204964847Y-64296184D01*
X204941643Y-64301996D01*
X204917982Y-64305506D01*
X204894090Y-64306680D01*
X204406590Y-64306680D01*
X204382698Y-64305506D01*
X204359037Y-64301996D01*
X204335833Y-64296184D01*
X204313311Y-64288126D01*
X204291687Y-64277898D01*
X204271170Y-64265601D01*
X204251957Y-64251351D01*
X204234233Y-64235287D01*
X204218169Y-64217563D01*
X204203919Y-64198350D01*
X204191622Y-64177833D01*
X204181394Y-64156209D01*
X204173336Y-64133687D01*
X204167524Y-64110483D01*
X204164014Y-64086822D01*
X204162840Y-64062930D01*
X204162840Y-63150430D01*
X204164014Y-63126538D01*
X204167524Y-63102877D01*
X204173336Y-63079673D01*
X204181394Y-63057151D01*
X204191622Y-63035527D01*
X204203919Y-63015010D01*
X204218169Y-62995797D01*
X204234233Y-62978073D01*
X204251957Y-62962009D01*
X204271170Y-62947759D01*
X204291687Y-62935462D01*
X204313311Y-62925234D01*
X204335833Y-62917176D01*
X204359037Y-62911364D01*
X204382698Y-62907854D01*
X204406590Y-62906680D01*
X204894090Y-62906680D01*
X204917982Y-62907854D01*
X204917982Y-62907854D01*
G37*
D13*
X204650340Y-63606680D03*
D14*
X181864000Y-85725000D03*
D15*
X181864000Y-83185000D03*
X230959660Y-79674720D03*
D14*
X230959660Y-77134720D03*
D12*
G36*
X190845522Y-108870594D02*
G01*
X190869183Y-108874104D01*
X190892387Y-108879916D01*
X190914909Y-108887974D01*
X190936533Y-108898202D01*
X190957050Y-108910499D01*
X190976263Y-108924749D01*
X190993987Y-108940813D01*
X191010051Y-108958537D01*
X191024301Y-108977750D01*
X191036598Y-108998267D01*
X191046826Y-109019891D01*
X191054884Y-109042413D01*
X191060696Y-109065617D01*
X191064206Y-109089278D01*
X191065380Y-109113170D01*
X191065380Y-109600670D01*
X191064206Y-109624562D01*
X191060696Y-109648223D01*
X191054884Y-109671427D01*
X191046826Y-109693949D01*
X191036598Y-109715573D01*
X191024301Y-109736090D01*
X191010051Y-109755303D01*
X190993987Y-109773027D01*
X190976263Y-109789091D01*
X190957050Y-109803341D01*
X190936533Y-109815638D01*
X190914909Y-109825866D01*
X190892387Y-109833924D01*
X190869183Y-109839736D01*
X190845522Y-109843246D01*
X190821630Y-109844420D01*
X189909130Y-109844420D01*
X189885238Y-109843246D01*
X189861577Y-109839736D01*
X189838373Y-109833924D01*
X189815851Y-109825866D01*
X189794227Y-109815638D01*
X189773710Y-109803341D01*
X189754497Y-109789091D01*
X189736773Y-109773027D01*
X189720709Y-109755303D01*
X189706459Y-109736090D01*
X189694162Y-109715573D01*
X189683934Y-109693949D01*
X189675876Y-109671427D01*
X189670064Y-109648223D01*
X189666554Y-109624562D01*
X189665380Y-109600670D01*
X189665380Y-109113170D01*
X189666554Y-109089278D01*
X189670064Y-109065617D01*
X189675876Y-109042413D01*
X189683934Y-109019891D01*
X189694162Y-108998267D01*
X189706459Y-108977750D01*
X189720709Y-108958537D01*
X189736773Y-108940813D01*
X189754497Y-108924749D01*
X189773710Y-108910499D01*
X189794227Y-108898202D01*
X189815851Y-108887974D01*
X189838373Y-108879916D01*
X189861577Y-108874104D01*
X189885238Y-108870594D01*
X189909130Y-108869420D01*
X190821630Y-108869420D01*
X190845522Y-108870594D01*
X190845522Y-108870594D01*
G37*
D13*
X190365380Y-109356920D03*
D12*
G36*
X190845522Y-110745594D02*
G01*
X190869183Y-110749104D01*
X190892387Y-110754916D01*
X190914909Y-110762974D01*
X190936533Y-110773202D01*
X190957050Y-110785499D01*
X190976263Y-110799749D01*
X190993987Y-110815813D01*
X191010051Y-110833537D01*
X191024301Y-110852750D01*
X191036598Y-110873267D01*
X191046826Y-110894891D01*
X191054884Y-110917413D01*
X191060696Y-110940617D01*
X191064206Y-110964278D01*
X191065380Y-110988170D01*
X191065380Y-111475670D01*
X191064206Y-111499562D01*
X191060696Y-111523223D01*
X191054884Y-111546427D01*
X191046826Y-111568949D01*
X191036598Y-111590573D01*
X191024301Y-111611090D01*
X191010051Y-111630303D01*
X190993987Y-111648027D01*
X190976263Y-111664091D01*
X190957050Y-111678341D01*
X190936533Y-111690638D01*
X190914909Y-111700866D01*
X190892387Y-111708924D01*
X190869183Y-111714736D01*
X190845522Y-111718246D01*
X190821630Y-111719420D01*
X189909130Y-111719420D01*
X189885238Y-111718246D01*
X189861577Y-111714736D01*
X189838373Y-111708924D01*
X189815851Y-111700866D01*
X189794227Y-111690638D01*
X189773710Y-111678341D01*
X189754497Y-111664091D01*
X189736773Y-111648027D01*
X189720709Y-111630303D01*
X189706459Y-111611090D01*
X189694162Y-111590573D01*
X189683934Y-111568949D01*
X189675876Y-111546427D01*
X189670064Y-111523223D01*
X189666554Y-111499562D01*
X189665380Y-111475670D01*
X189665380Y-110988170D01*
X189666554Y-110964278D01*
X189670064Y-110940617D01*
X189675876Y-110917413D01*
X189683934Y-110894891D01*
X189694162Y-110873267D01*
X189706459Y-110852750D01*
X189720709Y-110833537D01*
X189736773Y-110815813D01*
X189754497Y-110799749D01*
X189773710Y-110785499D01*
X189794227Y-110773202D01*
X189815851Y-110762974D01*
X189838373Y-110754916D01*
X189861577Y-110749104D01*
X189885238Y-110745594D01*
X189909130Y-110744420D01*
X190821630Y-110744420D01*
X190845522Y-110745594D01*
X190845522Y-110745594D01*
G37*
D13*
X190365380Y-111231920D03*
D11*
X223578420Y-70683120D03*
D16*
X184147460Y-125516640D03*
D17*
X184147460Y-128516640D03*
X184147460Y-131516640D03*
X184147460Y-134516640D03*
X181147460Y-125516640D03*
X181147460Y-128516640D03*
X181147460Y-131516640D03*
X181147460Y-134516640D03*
D10*
X228917500Y-66137040D03*
X228917500Y-63137040D03*
X228917500Y-60137040D03*
X228917500Y-69137040D03*
X183639460Y-66852020D03*
X183639460Y-75852020D03*
X183639460Y-72852020D03*
X183639460Y-69852020D03*
D17*
X193187580Y-125536180D03*
X193187580Y-128536180D03*
X193187580Y-131536180D03*
X193187580Y-134536180D03*
X190187580Y-125536180D03*
X190187580Y-128536180D03*
X190187580Y-131536180D03*
D16*
X190187580Y-134536180D03*
D11*
X229108000Y-98049080D03*
X225752660Y-77261720D03*
X205615540Y-125702060D03*
X219148660Y-60116720D03*
D10*
X229044500Y-114796080D03*
X229044500Y-105796080D03*
X229044500Y-108796080D03*
X229044500Y-111796080D03*
X229661720Y-140113760D03*
X229661720Y-143113760D03*
D18*
X215140540Y-133957060D03*
X215140540Y-131417060D03*
X215140540Y-128877060D03*
X215140540Y-126337060D03*
D11*
X205615540Y-130147060D03*
X218366340Y-144929860D03*
X224355660Y-60116720D03*
X219069920Y-76733400D03*
X218366340Y-140484860D03*
D19*
X223139000Y-97922080D03*
X207802480Y-111140220D03*
X225552000Y-101605080D03*
X226179380Y-93225620D03*
D20*
X197993000Y-112776000D03*
X201422000Y-113030000D03*
X215773000Y-117094000D03*
X196494400Y-81927700D03*
X207083660Y-61386720D03*
X197993000Y-58547000D03*
X189357000Y-41021000D03*
X198041260Y-60853320D03*
X226420680Y-103738680D03*
X222991680Y-118216680D03*
X192151000Y-98679000D03*
D19*
X186944000Y-79756000D03*
D20*
X218948000Y-102616000D03*
X208915000Y-99695000D03*
X192148460Y-85232240D03*
X195834000Y-64643000D03*
X209550000Y-80645000D03*
X210312000Y-72263000D03*
X205867000Y-68834000D03*
X224663000Y-54102000D03*
X194564000Y-59309000D03*
X194691000Y-62865000D03*
X219971620Y-63606680D03*
X212778340Y-59034680D03*
X221267020Y-67899280D03*
X212270340Y-64622680D03*
X190373000Y-73787000D03*
X190373000Y-76581000D03*
X188722000Y-78867000D03*
X179451000Y-85598000D03*
X208155540Y-116083080D03*
X205607920Y-114274600D03*
X208788000Y-77343000D03*
X204216000Y-54483000D03*
X202692000Y-52578000D03*
X206883000Y-51308000D03*
X209423000Y-49657000D03*
X219583000Y-48260000D03*
X212979000Y-49911000D03*
X224536000Y-144653000D03*
X203073000Y-51054000D03*
X206629000Y-54610000D03*
X208153000Y-56261000D03*
X211201000Y-75946000D03*
X211328000Y-82169000D03*
X232611680Y-96901000D03*
X179578000Y-73279000D03*
X179705000Y-66421000D03*
X221942660Y-74213720D03*
X218059000Y-98679000D03*
X219329000Y-100970080D03*
X230378000Y-94107000D03*
X200025000Y-72771000D03*
X191516000Y-68707000D03*
X187706000Y-68580000D03*
X193629280Y-111437420D03*
X190073280Y-98483420D03*
X189565280Y-96291400D03*
X193583560Y-109090460D03*
X178562000Y-93472000D03*
X222938340Y-63606680D03*
X211187052Y-70257699D03*
X212624493Y-67824529D03*
X197866000Y-64516000D03*
X197866000Y-62357000D03*
X184277000Y-60325000D03*
X179451000Y-59563000D03*
X183896000Y-61341000D03*
X179451000Y-60833000D03*
X182499000Y-96139000D03*
D21*
X223139000Y-93223080D02*
X223139000Y-88892380D01*
X223139000Y-97922080D02*
X223139000Y-99192080D01*
X223139000Y-93223080D02*
X223139000Y-97922080D01*
X223139000Y-99192080D02*
X223647000Y-99700080D01*
X214561420Y-134536180D02*
X215140540Y-133957060D01*
X193187580Y-134536180D02*
X214561420Y-134536180D01*
X223139000Y-93223080D02*
X220720920Y-93223080D01*
X220720920Y-93223080D02*
X207802480Y-106141520D01*
X207802480Y-106141520D02*
X207802480Y-111140220D01*
X225014000Y-93223080D02*
X225014000Y-88892380D01*
X225522000Y-93883000D02*
X226179380Y-93225620D01*
X225014000Y-93223080D02*
X226176840Y-93223080D01*
X225522000Y-99700080D02*
X225522000Y-101575080D01*
X225522000Y-101575080D02*
X225552000Y-101605080D01*
X225522000Y-99700080D02*
X225522000Y-93883000D01*
X226176840Y-93223080D02*
X226179380Y-93225620D01*
X229661720Y-143113760D02*
X232501440Y-140274040D01*
X232501440Y-132278120D02*
X229715060Y-129491740D01*
X232501440Y-140274040D02*
X232501440Y-132278120D01*
D22*
X173355000Y-86995000D02*
X171069000Y-89281000D01*
X187706000Y-139319000D02*
X187706000Y-122047000D01*
X187706000Y-122047000D02*
X196977000Y-112776000D01*
X196977000Y-112776000D02*
X197993000Y-112776000D01*
X201422000Y-113030000D02*
X211709000Y-113030000D01*
X211709000Y-113030000D02*
X215773000Y-117094000D01*
X187706000Y-139319000D02*
X177622200Y-149402800D01*
X171069000Y-148615400D02*
X171069000Y-147828000D01*
X171856400Y-149402800D02*
X171069000Y-148615400D01*
X177622200Y-149402800D02*
X171856400Y-149402800D01*
X171069000Y-89281000D02*
X171069000Y-147828000D01*
D23*
X196494400Y-82064380D02*
X194995800Y-83562980D01*
X204493340Y-60050680D02*
X205747620Y-60050680D01*
X205615540Y-130147060D02*
X214630540Y-130147060D01*
X196494400Y-81927700D02*
X196494400Y-82064380D01*
X205747620Y-60050680D02*
X207083660Y-61386720D01*
X214630540Y-130147060D02*
X215140540Y-129637060D01*
X215140540Y-129637060D02*
X215140540Y-128877060D01*
X204493340Y-63763680D02*
X204650340Y-63606680D01*
X204493340Y-67162680D02*
X204493340Y-63763680D01*
X204650340Y-63606680D02*
X204650340Y-60207680D01*
X204650340Y-60207680D02*
X204493340Y-60050680D01*
X204493340Y-70210680D02*
X204493340Y-67162680D01*
X180002440Y-69215000D02*
X175895000Y-69215000D01*
X183639460Y-72852020D02*
X180002440Y-69215000D01*
X233308680Y-66675000D02*
X234315000Y-66675000D01*
X231663240Y-68320440D02*
X233308680Y-66675000D01*
X204493340Y-70210680D02*
X201852000Y-72852020D01*
X204493340Y-70210680D02*
X204493340Y-71016340D01*
X215392000Y-81915000D02*
X234315000Y-81915000D01*
X204493340Y-71016340D02*
X215392000Y-81915000D01*
X196494400Y-78209620D02*
X204493340Y-70210680D01*
X196494400Y-81927700D02*
X196494400Y-78209620D01*
X215540540Y-128877060D02*
X221996000Y-135332520D01*
X215140540Y-128877060D02*
X215540540Y-128877060D01*
X221996000Y-135332520D02*
X221996000Y-144145000D01*
X225806000Y-147955000D02*
X234315000Y-147955000D01*
X221996000Y-144145000D02*
X225806000Y-147955000D01*
X230246581Y-111796080D02*
X232537000Y-114086499D01*
X229044500Y-111796080D02*
X230246581Y-111796080D01*
X232537000Y-130937000D02*
X234315000Y-132715000D01*
X232537000Y-114086499D02*
X232537000Y-130937000D01*
X196494400Y-81927700D02*
X196094401Y-81527701D01*
X181737000Y-74754480D02*
X183639460Y-72852020D01*
X181737000Y-76581000D02*
X181737000Y-74754480D01*
X196094401Y-81527701D02*
X196094401Y-80905401D01*
X196094401Y-80905401D02*
X192913000Y-77724000D01*
X182880000Y-77724000D02*
X181737000Y-76581000D01*
X192913000Y-77724000D02*
X182880000Y-77724000D01*
X189103000Y-49657000D02*
X189103000Y-44450000D01*
X197993000Y-58547000D02*
X189103000Y-49657000D01*
X189103000Y-44450000D02*
X189103000Y-41275000D01*
X189103000Y-41275000D02*
X189357000Y-41021000D01*
D24*
X198041260Y-60853320D02*
X198441259Y-60453321D01*
X198441259Y-60163761D02*
X198554340Y-60050680D01*
X198441259Y-60453321D02*
X198441259Y-60163761D01*
X202618340Y-60050680D02*
X198554340Y-60050680D01*
X202775340Y-63606680D02*
X202775340Y-60207680D01*
X202775340Y-60207680D02*
X202618340Y-60050680D01*
X226420680Y-114787680D02*
X226420680Y-103738680D01*
X222991680Y-118216680D02*
X226420680Y-114787680D01*
X183639460Y-75255120D02*
X183639460Y-75852020D01*
X198041260Y-60853320D02*
X183639460Y-75255120D01*
X232410000Y-62230000D02*
X232410000Y-54229000D01*
X234315000Y-64135000D02*
X232410000Y-62230000D01*
X232410000Y-54229000D02*
X231394000Y-53213000D01*
X209456020Y-53213000D02*
X202618340Y-60050680D01*
X231394000Y-53213000D02*
X209456020Y-53213000D01*
X199371959Y-119458479D02*
X199371959Y-110725959D01*
X205615540Y-125702060D02*
X199371959Y-119458479D01*
X199371959Y-110725959D02*
X195961000Y-107315000D01*
X195961000Y-102489000D02*
X192849500Y-99377500D01*
X195961000Y-107315000D02*
X195961000Y-102489000D01*
X192151000Y-98679000D02*
X192849500Y-99377500D01*
X226420680Y-103738680D02*
X220070680Y-103738680D01*
X220070680Y-103738680D02*
X218948000Y-102616000D01*
X208407000Y-100203000D02*
X208915000Y-99695000D01*
X193675000Y-100203000D02*
X208407000Y-100203000D01*
X193675000Y-100203000D02*
X193802000Y-100330000D01*
X192849500Y-99377500D02*
X193675000Y-100203000D01*
X192151000Y-88900000D02*
X192151000Y-98679000D01*
X186944000Y-79756000D02*
X186944000Y-83693000D01*
X186944000Y-83693000D02*
X192151000Y-88900000D01*
D23*
X202618340Y-70210680D02*
X202618340Y-67162680D01*
X194790060Y-85232240D02*
X194995800Y-85437980D01*
X192148460Y-85232240D02*
X194790060Y-85232240D01*
X231663240Y-70782940D02*
X232613200Y-71732900D01*
X231663240Y-70195440D02*
X231663240Y-70782940D01*
X232613200Y-75133200D02*
X234315000Y-76835000D01*
X232613200Y-71732900D02*
X232613200Y-75133200D01*
X202618340Y-67162680D02*
X198353680Y-67162680D01*
X198353680Y-67162680D02*
X195834000Y-64643000D01*
X194995800Y-85437980D02*
X204757020Y-85437980D01*
X204757020Y-85437980D02*
X209550000Y-80645000D01*
X210312000Y-72263000D02*
X209296000Y-72263000D01*
X209296000Y-72263000D02*
X205867000Y-68834000D01*
X230378000Y-68910200D02*
X230378000Y-58674000D01*
X231663240Y-70195440D02*
X230378000Y-68910200D01*
X230378000Y-58674000D02*
X225806000Y-54102000D01*
X225806000Y-54102000D02*
X224663000Y-54102000D01*
X194564000Y-59309000D02*
X194564000Y-62738000D01*
X194564000Y-62738000D02*
X194691000Y-62865000D01*
D22*
X217370660Y-56433720D02*
X221942660Y-56433720D01*
X215318340Y-60558680D02*
X215318340Y-58486040D01*
X215318340Y-58486040D02*
X217370660Y-56433720D01*
X215318340Y-62433680D02*
X216831700Y-62433680D01*
X216831700Y-62433680D02*
X219148660Y-60116720D01*
X220350103Y-65335917D02*
X220906340Y-64779680D01*
X217193340Y-64622680D02*
X217350340Y-64779680D01*
X215669340Y-64779680D02*
X215826340Y-64622680D01*
X213794340Y-64779680D02*
X215669340Y-64779680D01*
X217906577Y-65335917D02*
X220350103Y-65335917D01*
X220906340Y-64541400D02*
X219971620Y-63606680D01*
X215826340Y-64622680D02*
X217193340Y-64622680D01*
X217350340Y-64779680D02*
X217906577Y-65335917D01*
X220906340Y-64779680D02*
X220906340Y-64541400D01*
D25*
X221267020Y-67899280D02*
X221267020Y-67015360D01*
X221267020Y-67015360D02*
X220906340Y-66654680D01*
D22*
X217350340Y-66654680D02*
X220906340Y-66654680D01*
X213794340Y-66654680D02*
X217350340Y-66654680D01*
X212778340Y-64114680D02*
X212778340Y-59034680D01*
X213794340Y-66654680D02*
X213238103Y-66098443D01*
X213238103Y-66098443D02*
X213180418Y-66098443D01*
X213180418Y-66098443D02*
X212270340Y-65188365D01*
X212270340Y-65188365D02*
X212270340Y-64622680D01*
X212270340Y-64622680D02*
X212778340Y-64114680D01*
X190373000Y-73787000D02*
X190373000Y-76581000D01*
X188156315Y-78867000D02*
X187902315Y-78613000D01*
X188722000Y-78867000D02*
X188156315Y-78867000D01*
X187902315Y-78613000D02*
X186309000Y-78613000D01*
X186309000Y-78613000D02*
X184658000Y-80264000D01*
X184658000Y-99569410D02*
X181484410Y-102743000D01*
X184658000Y-80264000D02*
X184658000Y-99569410D01*
X177927000Y-102743000D02*
X175895000Y-104775000D01*
X181484410Y-102743000D02*
X177927000Y-102743000D01*
X179451000Y-85598000D02*
X179451000Y-91059000D01*
X179451000Y-91059000D02*
X183896000Y-95504000D01*
X183896000Y-95504000D02*
X183896000Y-99695000D01*
X181356000Y-102235000D02*
X175895000Y-102235000D01*
X183896000Y-99695000D02*
X181356000Y-102235000D01*
D23*
X208155540Y-116083080D02*
X208155540Y-116083080D01*
X208155540Y-116083080D02*
X207416400Y-116083080D01*
X207416400Y-116083080D02*
X205607920Y-114274600D01*
X228512979Y-126491740D02*
X229715060Y-126491740D01*
X227431340Y-126491740D02*
X228512979Y-126491740D01*
X223240340Y-122300740D02*
X227431340Y-126491740D01*
X209229960Y-122300740D02*
X223240340Y-122300740D01*
X209229960Y-117157500D02*
X209229960Y-122300740D01*
X208155540Y-116083080D02*
X209229960Y-117157500D01*
D22*
X218497990Y-87052990D02*
X208788000Y-77343000D01*
X234315000Y-92075000D02*
X229292990Y-87052990D01*
X229292990Y-87052990D02*
X218497990Y-87052990D01*
X204216000Y-54483000D02*
X202692000Y-52959000D01*
X202692000Y-52959000D02*
X202692000Y-52578000D01*
X206883000Y-51308000D02*
X208534000Y-49657000D01*
X208534000Y-49657000D02*
X209423000Y-49657000D01*
X237704999Y-103925001D02*
X236855000Y-104775000D01*
X238829010Y-102800990D02*
X237704999Y-103925001D01*
X238829010Y-57852600D02*
X238829010Y-102800990D01*
X229236410Y-48260000D02*
X238829010Y-57852600D01*
X219583000Y-48260000D02*
X229236410Y-48260000D01*
X213378999Y-50310999D02*
X230650999Y-50310999D01*
X212979000Y-49911000D02*
X213378999Y-50310999D01*
X230650999Y-50310999D02*
X238379000Y-58039000D01*
X238379000Y-100711000D02*
X236855000Y-102235000D01*
X238379000Y-58039000D02*
X238379000Y-100711000D01*
X208991784Y-122875750D02*
X200279000Y-114162966D01*
X214315750Y-122875750D02*
X208991784Y-122875750D01*
X224536000Y-144653000D02*
X224536000Y-133096000D01*
X224536000Y-133096000D02*
X214315750Y-122875750D01*
X200279000Y-113099998D02*
X201237998Y-112141000D01*
X200279000Y-114162966D02*
X200279000Y-113099998D01*
X208349998Y-112141000D02*
X217678000Y-102812998D01*
X201237998Y-112141000D02*
X208349998Y-112141000D01*
X217678000Y-102812998D02*
X217678000Y-102108000D01*
X218090919Y-101695081D02*
X223615081Y-101695081D01*
X217678000Y-102108000D02*
X218090919Y-101695081D01*
X225962358Y-103124000D02*
X227867358Y-101219000D01*
X223615081Y-101695081D02*
X225044000Y-103124000D01*
X225044000Y-103124000D02*
X225962358Y-103124000D01*
X233299000Y-101219000D02*
X234315000Y-102235000D01*
X227867358Y-101219000D02*
X233299000Y-101219000D01*
X203073000Y-51054000D02*
X206629000Y-54610000D01*
X208153000Y-56261000D02*
X210058000Y-58166000D01*
X210058000Y-58166000D02*
X210058000Y-70485000D01*
X210058000Y-70485000D02*
X211455000Y-71882000D01*
X211455000Y-71882000D02*
X211455000Y-75692000D01*
X211455000Y-75692000D02*
X211201000Y-75946000D01*
X211328000Y-82169000D02*
X216662000Y-87503000D01*
X216662000Y-87503000D02*
X227838000Y-87503000D01*
X227838000Y-87503000D02*
X232611680Y-92276680D01*
X232611680Y-92276680D02*
X232611680Y-96901000D01*
X179705000Y-62865000D02*
X175895000Y-59055000D01*
X179705000Y-66421000D02*
X179705000Y-62865000D01*
X179578000Y-83439000D02*
X181864000Y-85725000D01*
X179578000Y-73279000D02*
X179578000Y-83439000D01*
X228019661Y-74194721D02*
X230959660Y-77134720D01*
X221961659Y-74194721D02*
X228019661Y-74194721D01*
X218059000Y-99700080D02*
X219329000Y-100970080D01*
X218059000Y-98430080D02*
X218059000Y-99700080D01*
X230378000Y-95758000D02*
X234315000Y-99695000D01*
X230378000Y-94107000D02*
X230378000Y-95758000D01*
X200025000Y-72771000D02*
X195580000Y-72771000D01*
X195580000Y-72771000D02*
X191516000Y-68707000D01*
X187706000Y-68580000D02*
X187706000Y-57785000D01*
X187706000Y-57785000D02*
X186182000Y-56261000D01*
X186182000Y-56261000D02*
X173228000Y-56261000D01*
X173228000Y-56261000D02*
X171450000Y-58039000D01*
X171450000Y-74930000D02*
X173355000Y-76835000D01*
X171450000Y-58039000D02*
X171450000Y-74930000D01*
X190365380Y-111231920D02*
X193423780Y-111231920D01*
X193423780Y-111231920D02*
X193629280Y-111437420D01*
X190073280Y-98483420D02*
X190073280Y-96799400D01*
X190073280Y-96799400D02*
X189565280Y-96291400D01*
X190365380Y-109356920D02*
X193317100Y-109356920D01*
X193317100Y-109356920D02*
X193583560Y-109090460D01*
X175895000Y-94615000D02*
X177419000Y-94615000D01*
X177419000Y-94615000D02*
X178562000Y-93472000D01*
X219069920Y-74038460D02*
X219069920Y-76733400D01*
X222938340Y-63606680D02*
X222938340Y-67457320D01*
X222938340Y-67457320D02*
X219245342Y-71150318D01*
X222938340Y-63606680D02*
X228468700Y-69137040D01*
X219245342Y-71150318D02*
X219245342Y-73863038D01*
X228468700Y-69137040D02*
X228917500Y-69137040D01*
X219245342Y-73863038D02*
X219069920Y-74038460D01*
X212624493Y-68820258D02*
X211187052Y-70257699D01*
X212624493Y-67824529D02*
X212624493Y-68820258D01*
X197866000Y-64516000D02*
X197866000Y-62357000D01*
X184277000Y-60325000D02*
X183515000Y-59563000D01*
X183515000Y-59563000D02*
X179451000Y-59563000D01*
X183896000Y-61341000D02*
X183388000Y-60833000D01*
X183388000Y-60833000D02*
X179451000Y-60833000D01*
X182499000Y-95573315D02*
X178562000Y-91636315D01*
X182499000Y-96139000D02*
X182499000Y-95573315D01*
X178562000Y-82042000D02*
X175895000Y-79375000D01*
X178562000Y-91636315D02*
X178562000Y-82042000D01*
M02*
