G04 #@! TF.GenerationSoftware,KiCad,Pcbnew,(5.1.4)-1*
G04 #@! TF.CreationDate,2019-11-23T11:55:31-06:00*
G04 #@! TF.ProjectId,BPS_Nucleo,4250535f-4e75-4636-9c65-6f2e6b696361,rev?*
G04 #@! TF.SameCoordinates,Original*
G04 #@! TF.FileFunction,Legend,Top*
G04 #@! TF.FilePolarity,Positive*
%FSLAX46Y46*%
G04 Gerber Fmt 4.6, Leading zero omitted, Abs format (unit mm)*
G04 Created by KiCad (PCBNEW (5.1.4)-1) date 2019-11-23 11:55:31*
%MOMM*%
%LPD*%
G04 APERTURE LIST*
%ADD10C,0.150000*%
%ADD11C,0.125000*%
%ADD12C,0.300000*%
%ADD13C,0.010000*%
%ADD14C,0.120000*%
%ADD15C,0.152400*%
%ADD16C,0.127000*%
%ADD17C,0.200000*%
%ADD18C,0.254000*%
%ADD19C,0.100000*%
%ADD20C,0.050000*%
G04 APERTURE END LIST*
D10*
X192152380Y-37298380D02*
X192152380Y-38107904D01*
X192200000Y-38203142D01*
X192247619Y-38250761D01*
X192342857Y-38298380D01*
X192533333Y-38298380D01*
X192628571Y-38250761D01*
X192676190Y-38203142D01*
X192723809Y-38107904D01*
X192723809Y-37298380D01*
X193057142Y-37298380D02*
X193628571Y-37298380D01*
X193342857Y-38298380D02*
X193342857Y-37298380D01*
X194676190Y-38250761D02*
X194819047Y-38298380D01*
X195057142Y-38298380D01*
X195152380Y-38250761D01*
X195200000Y-38203142D01*
X195247619Y-38107904D01*
X195247619Y-38012666D01*
X195200000Y-37917428D01*
X195152380Y-37869809D01*
X195057142Y-37822190D01*
X194866666Y-37774571D01*
X194771428Y-37726952D01*
X194723809Y-37679333D01*
X194676190Y-37584095D01*
X194676190Y-37488857D01*
X194723809Y-37393619D01*
X194771428Y-37346000D01*
X194866666Y-37298380D01*
X195104761Y-37298380D01*
X195247619Y-37346000D01*
X195819047Y-38298380D02*
X195723809Y-38250761D01*
X195676190Y-38203142D01*
X195628571Y-38107904D01*
X195628571Y-37822190D01*
X195676190Y-37726952D01*
X195723809Y-37679333D01*
X195819047Y-37631714D01*
X195961904Y-37631714D01*
X196057142Y-37679333D01*
X196104761Y-37726952D01*
X196152380Y-37822190D01*
X196152380Y-38107904D01*
X196104761Y-38203142D01*
X196057142Y-38250761D01*
X195961904Y-38298380D01*
X195819047Y-38298380D01*
X196723809Y-38298380D02*
X196628571Y-38250761D01*
X196580952Y-38155523D01*
X196580952Y-37298380D01*
X197533333Y-38298380D02*
X197533333Y-37774571D01*
X197485714Y-37679333D01*
X197390476Y-37631714D01*
X197200000Y-37631714D01*
X197104761Y-37679333D01*
X197533333Y-38250761D02*
X197438095Y-38298380D01*
X197200000Y-38298380D01*
X197104761Y-38250761D01*
X197057142Y-38155523D01*
X197057142Y-38060285D01*
X197104761Y-37965047D01*
X197200000Y-37917428D01*
X197438095Y-37917428D01*
X197533333Y-37869809D01*
X198009523Y-38298380D02*
X198009523Y-37631714D01*
X198009523Y-37822190D02*
X198057142Y-37726952D01*
X198104761Y-37679333D01*
X198200000Y-37631714D01*
X198295238Y-37631714D01*
X199247619Y-37298380D02*
X199580952Y-38298380D01*
X199914285Y-37298380D01*
X200628571Y-38250761D02*
X200533333Y-38298380D01*
X200342857Y-38298380D01*
X200247619Y-38250761D01*
X200200000Y-38155523D01*
X200200000Y-37774571D01*
X200247619Y-37679333D01*
X200342857Y-37631714D01*
X200533333Y-37631714D01*
X200628571Y-37679333D01*
X200676190Y-37774571D01*
X200676190Y-37869809D01*
X200200000Y-37965047D01*
X201104761Y-38298380D02*
X201104761Y-37298380D01*
X201533333Y-38298380D02*
X201533333Y-37774571D01*
X201485714Y-37679333D01*
X201390476Y-37631714D01*
X201247619Y-37631714D01*
X201152380Y-37679333D01*
X201104761Y-37726952D01*
X202009523Y-38298380D02*
X202009523Y-37631714D01*
X202009523Y-37298380D02*
X201961904Y-37346000D01*
X202009523Y-37393619D01*
X202057142Y-37346000D01*
X202009523Y-37298380D01*
X202009523Y-37393619D01*
X202914285Y-38250761D02*
X202819047Y-38298380D01*
X202628571Y-38298380D01*
X202533333Y-38250761D01*
X202485714Y-38203142D01*
X202438095Y-38107904D01*
X202438095Y-37822190D01*
X202485714Y-37726952D01*
X202533333Y-37679333D01*
X202628571Y-37631714D01*
X202819047Y-37631714D01*
X202914285Y-37679333D01*
X203485714Y-38298380D02*
X203390476Y-38250761D01*
X203342857Y-38155523D01*
X203342857Y-37298380D01*
X204247619Y-38250761D02*
X204152380Y-38298380D01*
X203961904Y-38298380D01*
X203866666Y-38250761D01*
X203819047Y-38155523D01*
X203819047Y-37774571D01*
X203866666Y-37679333D01*
X203961904Y-37631714D01*
X204152380Y-37631714D01*
X204247619Y-37679333D01*
X204295238Y-37774571D01*
X204295238Y-37869809D01*
X203819047Y-37965047D01*
X204676190Y-38250761D02*
X204771428Y-38298380D01*
X204961904Y-38298380D01*
X205057142Y-38250761D01*
X205104761Y-38155523D01*
X205104761Y-38107904D01*
X205057142Y-38012666D01*
X204961904Y-37965047D01*
X204819047Y-37965047D01*
X204723809Y-37917428D01*
X204676190Y-37822190D01*
X204676190Y-37774571D01*
X204723809Y-37679333D01*
X204819047Y-37631714D01*
X204961904Y-37631714D01*
X205057142Y-37679333D01*
X206152380Y-37298380D02*
X206723809Y-37298380D01*
X206438095Y-38298380D02*
X206438095Y-37298380D01*
X207438095Y-38250761D02*
X207342857Y-38298380D01*
X207152380Y-38298380D01*
X207057142Y-38250761D01*
X207009523Y-38155523D01*
X207009523Y-37774571D01*
X207057142Y-37679333D01*
X207152380Y-37631714D01*
X207342857Y-37631714D01*
X207438095Y-37679333D01*
X207485714Y-37774571D01*
X207485714Y-37869809D01*
X207009523Y-37965047D01*
X208342857Y-38298380D02*
X208342857Y-37774571D01*
X208295238Y-37679333D01*
X208199999Y-37631714D01*
X208009523Y-37631714D01*
X207914285Y-37679333D01*
X208342857Y-38250761D02*
X208247619Y-38298380D01*
X208009523Y-38298380D01*
X207914285Y-38250761D01*
X207866666Y-38155523D01*
X207866666Y-38060285D01*
X207914285Y-37965047D01*
X208009523Y-37917428D01*
X208247619Y-37917428D01*
X208342857Y-37869809D01*
X208819047Y-38298380D02*
X208819047Y-37631714D01*
X208819047Y-37726952D02*
X208866666Y-37679333D01*
X208961904Y-37631714D01*
X209104761Y-37631714D01*
X209199999Y-37679333D01*
X209247619Y-37774571D01*
X209247619Y-38298380D01*
X209247619Y-37774571D02*
X209295238Y-37679333D01*
X209390476Y-37631714D01*
X209533333Y-37631714D01*
X209628571Y-37679333D01*
X209676190Y-37774571D01*
X209676190Y-38298380D01*
X210866666Y-37393619D02*
X210914285Y-37346000D01*
X211009523Y-37298380D01*
X211247619Y-37298380D01*
X211342857Y-37346000D01*
X211390476Y-37393619D01*
X211438095Y-37488857D01*
X211438095Y-37584095D01*
X211390476Y-37726952D01*
X210819047Y-38298380D01*
X211438095Y-38298380D01*
X212057142Y-37298380D02*
X212152380Y-37298380D01*
X212247619Y-37346000D01*
X212295238Y-37393619D01*
X212342857Y-37488857D01*
X212390476Y-37679333D01*
X212390476Y-37917428D01*
X212342857Y-38107904D01*
X212295238Y-38203142D01*
X212247619Y-38250761D01*
X212152380Y-38298380D01*
X212057142Y-38298380D01*
X211961904Y-38250761D01*
X211914285Y-38203142D01*
X211866666Y-38107904D01*
X211819047Y-37917428D01*
X211819047Y-37679333D01*
X211866666Y-37488857D01*
X211914285Y-37393619D01*
X211961904Y-37346000D01*
X212057142Y-37298380D01*
X213342857Y-38298380D02*
X212771428Y-38298380D01*
X213057142Y-38298380D02*
X213057142Y-37298380D01*
X212961904Y-37441238D01*
X212866666Y-37536476D01*
X212771428Y-37584095D01*
X213819047Y-38298380D02*
X214009523Y-38298380D01*
X214104761Y-38250761D01*
X214152380Y-38203142D01*
X214247619Y-38060285D01*
X214295238Y-37869809D01*
X214295238Y-37488857D01*
X214247619Y-37393619D01*
X214199999Y-37346000D01*
X214104761Y-37298380D01*
X213914285Y-37298380D01*
X213819047Y-37346000D01*
X213771428Y-37393619D01*
X213723809Y-37488857D01*
X213723809Y-37726952D01*
X213771428Y-37822190D01*
X213819047Y-37869809D01*
X213914285Y-37917428D01*
X214104761Y-37917428D01*
X214199999Y-37869809D01*
X214247619Y-37822190D01*
X214295238Y-37726952D01*
X199494095Y-83764380D02*
X199494095Y-82764380D01*
X199827428Y-83478666D01*
X200160761Y-82764380D01*
X200160761Y-83764380D01*
X201065523Y-83764380D02*
X201065523Y-83240571D01*
X201017904Y-83145333D01*
X200922666Y-83097714D01*
X200732190Y-83097714D01*
X200636952Y-83145333D01*
X201065523Y-83716761D02*
X200970285Y-83764380D01*
X200732190Y-83764380D01*
X200636952Y-83716761D01*
X200589333Y-83621523D01*
X200589333Y-83526285D01*
X200636952Y-83431047D01*
X200732190Y-83383428D01*
X200970285Y-83383428D01*
X201065523Y-83335809D01*
X201541714Y-83097714D02*
X201541714Y-83764380D01*
X201541714Y-83192952D02*
X201589333Y-83145333D01*
X201684571Y-83097714D01*
X201827428Y-83097714D01*
X201922666Y-83145333D01*
X201970285Y-83240571D01*
X201970285Y-83764380D01*
X202303619Y-83097714D02*
X202684571Y-83097714D01*
X202446476Y-82764380D02*
X202446476Y-83621523D01*
X202494095Y-83716761D01*
X202589333Y-83764380D01*
X202684571Y-83764380D01*
X203017904Y-83764380D02*
X203017904Y-82764380D01*
X203446476Y-83764380D02*
X203446476Y-83240571D01*
X203398857Y-83145333D01*
X203303619Y-83097714D01*
X203160761Y-83097714D01*
X203065523Y-83145333D01*
X203017904Y-83192952D01*
X204351238Y-83764380D02*
X204351238Y-83240571D01*
X204303619Y-83145333D01*
X204208380Y-83097714D01*
X204017904Y-83097714D01*
X203922666Y-83145333D01*
X204351238Y-83716761D02*
X204256000Y-83764380D01*
X204017904Y-83764380D01*
X203922666Y-83716761D01*
X203875047Y-83621523D01*
X203875047Y-83526285D01*
X203922666Y-83431047D01*
X204017904Y-83383428D01*
X204256000Y-83383428D01*
X204351238Y-83335809D01*
X204827428Y-83097714D02*
X204827428Y-83764380D01*
X204827428Y-83192952D02*
X204875047Y-83145333D01*
X204970285Y-83097714D01*
X205113142Y-83097714D01*
X205208380Y-83145333D01*
X205256000Y-83240571D01*
X205256000Y-83764380D01*
X206494095Y-82764380D02*
X206494095Y-83573904D01*
X206541714Y-83669142D01*
X206589333Y-83716761D01*
X206684571Y-83764380D01*
X206875047Y-83764380D01*
X206970285Y-83716761D01*
X207017904Y-83669142D01*
X207065523Y-83573904D01*
X207065523Y-82764380D01*
X207541714Y-83097714D02*
X207541714Y-84097714D01*
X207541714Y-83145333D02*
X207636952Y-83097714D01*
X207827428Y-83097714D01*
X207922666Y-83145333D01*
X207970285Y-83192952D01*
X208017904Y-83288190D01*
X208017904Y-83573904D01*
X207970285Y-83669142D01*
X207922666Y-83716761D01*
X207827428Y-83764380D01*
X207636952Y-83764380D01*
X207541714Y-83716761D01*
X208875047Y-83764380D02*
X208875047Y-83240571D01*
X208827428Y-83145333D01*
X208732190Y-83097714D01*
X208541714Y-83097714D01*
X208446476Y-83145333D01*
X208875047Y-83716761D02*
X208779809Y-83764380D01*
X208541714Y-83764380D01*
X208446476Y-83716761D01*
X208398857Y-83621523D01*
X208398857Y-83526285D01*
X208446476Y-83431047D01*
X208541714Y-83383428D01*
X208779809Y-83383428D01*
X208875047Y-83335809D01*
X209779809Y-83764380D02*
X209779809Y-82764380D01*
X209779809Y-83716761D02*
X209684571Y-83764380D01*
X209494095Y-83764380D01*
X209398857Y-83716761D01*
X209351238Y-83669142D01*
X209303619Y-83573904D01*
X209303619Y-83288190D01*
X209351238Y-83192952D01*
X209398857Y-83145333D01*
X209494095Y-83097714D01*
X209684571Y-83097714D01*
X209779809Y-83145333D01*
X210256000Y-83764380D02*
X210256000Y-82764380D01*
X210684571Y-83764380D02*
X210684571Y-83240571D01*
X210636952Y-83145333D01*
X210541714Y-83097714D01*
X210398857Y-83097714D01*
X210303619Y-83145333D01*
X210256000Y-83192952D01*
X211065523Y-83097714D02*
X211303619Y-83764380D01*
X211541714Y-83097714D02*
X211303619Y-83764380D01*
X211208380Y-84002476D01*
X211160761Y-84050095D01*
X211065523Y-84097714D01*
X212351238Y-83764380D02*
X212351238Y-83240571D01*
X212303619Y-83145333D01*
X212208380Y-83097714D01*
X212017904Y-83097714D01*
X211922666Y-83145333D01*
X212351238Y-83716761D02*
X212256000Y-83764380D01*
X212017904Y-83764380D01*
X211922666Y-83716761D01*
X211875047Y-83621523D01*
X211875047Y-83526285D01*
X211922666Y-83431047D01*
X212017904Y-83383428D01*
X212256000Y-83383428D01*
X212351238Y-83335809D01*
X212732190Y-83097714D02*
X212970285Y-83764380D01*
X213208380Y-83097714D02*
X212970285Y-83764380D01*
X212875047Y-84002476D01*
X212827428Y-84050095D01*
X212732190Y-84097714D01*
X214017904Y-83764380D02*
X214017904Y-83240571D01*
X213970285Y-83145333D01*
X213875047Y-83097714D01*
X213684571Y-83097714D01*
X213589333Y-83145333D01*
X214017904Y-83716761D02*
X213922666Y-83764380D01*
X213684571Y-83764380D01*
X213589333Y-83716761D01*
X213541714Y-83621523D01*
X213541714Y-83526285D01*
X213589333Y-83431047D01*
X213684571Y-83383428D01*
X213922666Y-83383428D01*
X214017904Y-83335809D01*
X198120000Y-115570000D02*
X198120000Y-89535000D01*
X177800000Y-115570000D02*
X198120000Y-115570000D01*
X177800000Y-89535000D02*
X177800000Y-115570000D01*
X180340000Y-89535000D02*
X177800000Y-89535000D01*
X179070000Y-62230000D02*
X198755000Y-62230000D01*
X179070000Y-80645000D02*
X179070000Y-62230000D01*
X179070000Y-80645000D02*
X180340000Y-80645000D01*
X180340000Y-80645000D02*
X198755000Y-80645000D01*
X198755000Y-89535000D02*
X198755000Y-80645000D01*
X180340000Y-89535000D02*
X198755000Y-89535000D01*
X179959000Y-80645000D02*
X179959000Y-89535000D01*
X233045000Y-121285000D02*
X232244900Y-121251980D01*
X233045000Y-135255000D02*
X233045000Y-121285000D01*
X214630000Y-93345000D02*
X214960200Y-93345000D01*
X198120000Y-93345000D02*
X214630000Y-93345000D01*
X198120000Y-123190000D02*
X198120000Y-93345000D01*
X200660000Y-123190000D02*
X198120000Y-123190000D01*
X224155000Y-135255000D02*
X233045000Y-135255000D01*
X224155000Y-123190000D02*
X224155000Y-135255000D01*
X200660000Y-123190000D02*
X224155000Y-123190000D01*
X200660000Y-149225000D02*
X200660000Y-123190000D01*
X233045000Y-149225000D02*
X200660000Y-149225000D01*
X233045000Y-135255000D02*
X233045000Y-149225000D01*
X233045000Y-53975000D02*
X198755000Y-53975000D01*
X233045000Y-81915000D02*
X233045000Y-53975000D01*
X198755000Y-81915000D02*
X233045000Y-81915000D01*
X198755000Y-81280000D02*
X198755000Y-81915000D01*
X198755000Y-80645000D02*
X198755000Y-81280000D01*
X198755000Y-53975000D02*
X198755000Y-80645000D01*
X201168476Y-94670571D02*
X201501809Y-94670571D01*
X201644666Y-95194380D02*
X201168476Y-95194380D01*
X201168476Y-94194380D01*
X201644666Y-94194380D01*
X202073238Y-95194380D02*
X202073238Y-94527714D01*
X202073238Y-94718190D02*
X202120857Y-94622952D01*
X202168476Y-94575333D01*
X202263714Y-94527714D01*
X202358952Y-94527714D01*
X202692285Y-95194380D02*
X202692285Y-94527714D01*
X202692285Y-94718190D02*
X202739904Y-94622952D01*
X202787523Y-94575333D01*
X202882761Y-94527714D01*
X202978000Y-94527714D01*
X203454190Y-95194380D02*
X203358952Y-95146761D01*
X203311333Y-95099142D01*
X203263714Y-95003904D01*
X203263714Y-94718190D01*
X203311333Y-94622952D01*
X203358952Y-94575333D01*
X203454190Y-94527714D01*
X203597047Y-94527714D01*
X203692285Y-94575333D01*
X203739904Y-94622952D01*
X203787523Y-94718190D01*
X203787523Y-95003904D01*
X203739904Y-95099142D01*
X203692285Y-95146761D01*
X203597047Y-95194380D01*
X203454190Y-95194380D01*
X204216095Y-95194380D02*
X204216095Y-94527714D01*
X204216095Y-94718190D02*
X204263714Y-94622952D01*
X204311333Y-94575333D01*
X204406571Y-94527714D01*
X204501809Y-94527714D01*
X206073238Y-95194380D02*
X205597047Y-95194380D01*
X205597047Y-94194380D01*
X206406571Y-95194380D02*
X206406571Y-94527714D01*
X206406571Y-94194380D02*
X206358952Y-94242000D01*
X206406571Y-94289619D01*
X206454190Y-94242000D01*
X206406571Y-94194380D01*
X206406571Y-94289619D01*
X207311333Y-94527714D02*
X207311333Y-95337238D01*
X207263714Y-95432476D01*
X207216095Y-95480095D01*
X207120857Y-95527714D01*
X206978000Y-95527714D01*
X206882761Y-95480095D01*
X207311333Y-95146761D02*
X207216095Y-95194380D01*
X207025619Y-95194380D01*
X206930380Y-95146761D01*
X206882761Y-95099142D01*
X206835142Y-95003904D01*
X206835142Y-94718190D01*
X206882761Y-94622952D01*
X206930380Y-94575333D01*
X207025619Y-94527714D01*
X207216095Y-94527714D01*
X207311333Y-94575333D01*
X207787523Y-95194380D02*
X207787523Y-94194380D01*
X208216095Y-95194380D02*
X208216095Y-94670571D01*
X208168476Y-94575333D01*
X208073238Y-94527714D01*
X207930380Y-94527714D01*
X207835142Y-94575333D01*
X207787523Y-94622952D01*
X208549428Y-94527714D02*
X208930380Y-94527714D01*
X208692285Y-94194380D02*
X208692285Y-95051523D01*
X208739904Y-95146761D01*
X208835142Y-95194380D01*
X208930380Y-95194380D01*
D11*
X197650331Y-83282731D02*
X197650331Y-83532731D01*
X197257474Y-83639874D02*
X197257474Y-83282731D01*
X198007474Y-83282731D01*
X198007474Y-83639874D01*
X197650331Y-83961302D02*
X197650331Y-84211302D01*
X197257474Y-84318445D02*
X197257474Y-83961302D01*
X198007474Y-83961302D01*
X198007474Y-84318445D01*
X197257474Y-84639874D02*
X198007474Y-84639874D01*
X198007474Y-84925588D01*
X197971760Y-84997017D01*
X197936045Y-85032731D01*
X197864617Y-85068445D01*
X197757474Y-85068445D01*
X197686045Y-85032731D01*
X197650331Y-84997017D01*
X197614617Y-84925588D01*
X197614617Y-84639874D01*
X197257474Y-85818445D02*
X197614617Y-85568445D01*
X197257474Y-85389874D02*
X198007474Y-85389874D01*
X198007474Y-85675588D01*
X197971760Y-85747017D01*
X197936045Y-85782731D01*
X197864617Y-85818445D01*
X197757474Y-85818445D01*
X197686045Y-85782731D01*
X197650331Y-85747017D01*
X197614617Y-85675588D01*
X197614617Y-85389874D01*
X198007474Y-86282731D02*
X198007474Y-86425588D01*
X197971760Y-86497017D01*
X197900331Y-86568445D01*
X197757474Y-86604160D01*
X197507474Y-86604160D01*
X197364617Y-86568445D01*
X197293188Y-86497017D01*
X197257474Y-86425588D01*
X197257474Y-86282731D01*
X197293188Y-86211302D01*
X197364617Y-86139874D01*
X197507474Y-86104160D01*
X197757474Y-86104160D01*
X197900331Y-86139874D01*
X197971760Y-86211302D01*
X198007474Y-86282731D01*
X197257474Y-86925588D02*
X198007474Y-86925588D01*
X197471760Y-87175588D01*
X198007474Y-87425588D01*
X197257474Y-87425588D01*
D10*
X202702920Y-147998250D02*
X201702920Y-147998250D01*
X201702920Y-147617298D01*
X201750540Y-147522060D01*
X201798159Y-147474440D01*
X201893397Y-147426821D01*
X202036254Y-147426821D01*
X202131492Y-147474440D01*
X202179111Y-147522060D01*
X202226730Y-147617298D01*
X202226730Y-147998250D01*
X202702920Y-146855393D02*
X202655301Y-146950631D01*
X202607682Y-146998250D01*
X202512444Y-147045869D01*
X202226730Y-147045869D01*
X202131492Y-146998250D01*
X202083873Y-146950631D01*
X202036254Y-146855393D01*
X202036254Y-146712536D01*
X202083873Y-146617298D01*
X202131492Y-146569679D01*
X202226730Y-146522060D01*
X202512444Y-146522060D01*
X202607682Y-146569679D01*
X202655301Y-146617298D01*
X202702920Y-146712536D01*
X202702920Y-146855393D01*
X202036254Y-146188726D02*
X202702920Y-145998250D01*
X202226730Y-145807774D01*
X202702920Y-145617298D01*
X202036254Y-145426821D01*
X202655301Y-144664917D02*
X202702920Y-144760155D01*
X202702920Y-144950631D01*
X202655301Y-145045869D01*
X202560063Y-145093488D01*
X202179111Y-145093488D01*
X202083873Y-145045869D01*
X202036254Y-144950631D01*
X202036254Y-144760155D01*
X202083873Y-144664917D01*
X202179111Y-144617298D01*
X202274349Y-144617298D01*
X202369587Y-145093488D01*
X202702920Y-144188726D02*
X202036254Y-144188726D01*
X202226730Y-144188726D02*
X202131492Y-144141107D01*
X202083873Y-144093488D01*
X202036254Y-143998250D01*
X202036254Y-143903012D01*
X204305301Y-148307774D02*
X204352920Y-148164917D01*
X204352920Y-147926821D01*
X204305301Y-147831583D01*
X204257682Y-147783964D01*
X204162444Y-147736345D01*
X204067206Y-147736345D01*
X203971968Y-147783964D01*
X203924349Y-147831583D01*
X203876730Y-147926821D01*
X203829111Y-148117298D01*
X203781492Y-148212536D01*
X203733873Y-148260155D01*
X203638635Y-148307774D01*
X203543397Y-148307774D01*
X203448159Y-148260155D01*
X203400540Y-148212536D01*
X203352920Y-148117298D01*
X203352920Y-147879202D01*
X203400540Y-147736345D01*
X203686254Y-146879202D02*
X204352920Y-146879202D01*
X203686254Y-147307774D02*
X204210063Y-147307774D01*
X204305301Y-147260155D01*
X204352920Y-147164917D01*
X204352920Y-147022060D01*
X204305301Y-146926821D01*
X204257682Y-146879202D01*
X203686254Y-146403012D02*
X204686254Y-146403012D01*
X203733873Y-146403012D02*
X203686254Y-146307774D01*
X203686254Y-146117298D01*
X203733873Y-146022060D01*
X203781492Y-145974440D01*
X203876730Y-145926821D01*
X204162444Y-145926821D01*
X204257682Y-145974440D01*
X204305301Y-146022060D01*
X204352920Y-146117298D01*
X204352920Y-146307774D01*
X204305301Y-146403012D01*
X203686254Y-145498250D02*
X204686254Y-145498250D01*
X203733873Y-145498250D02*
X203686254Y-145403012D01*
X203686254Y-145212536D01*
X203733873Y-145117298D01*
X203781492Y-145069679D01*
X203876730Y-145022060D01*
X204162444Y-145022060D01*
X204257682Y-145069679D01*
X204305301Y-145117298D01*
X204352920Y-145212536D01*
X204352920Y-145403012D01*
X204305301Y-145498250D01*
X204352920Y-144450631D02*
X204305301Y-144545869D01*
X204210063Y-144593488D01*
X203352920Y-144593488D01*
X203686254Y-144164917D02*
X204352920Y-143926821D01*
X203686254Y-143688726D02*
X204352920Y-143926821D01*
X204591016Y-144022060D01*
X204638635Y-144069679D01*
X204686254Y-144164917D01*
X187436666Y-115260380D02*
X187436666Y-114260380D01*
X187865238Y-115212761D02*
X187960476Y-115260380D01*
X188150952Y-115260380D01*
X188246190Y-115212761D01*
X188293809Y-115117523D01*
X188293809Y-115069904D01*
X188246190Y-114974666D01*
X188150952Y-114927047D01*
X188008095Y-114927047D01*
X187912857Y-114879428D01*
X187865238Y-114784190D01*
X187865238Y-114736571D01*
X187912857Y-114641333D01*
X188008095Y-114593714D01*
X188150952Y-114593714D01*
X188246190Y-114641333D01*
X188865238Y-115260380D02*
X188770000Y-115212761D01*
X188722380Y-115165142D01*
X188674761Y-115069904D01*
X188674761Y-114784190D01*
X188722380Y-114688952D01*
X188770000Y-114641333D01*
X188865238Y-114593714D01*
X189008095Y-114593714D01*
X189103333Y-114641333D01*
X189150952Y-114688952D01*
X189198571Y-114784190D01*
X189198571Y-115069904D01*
X189150952Y-115165142D01*
X189103333Y-115212761D01*
X189008095Y-115260380D01*
X188865238Y-115260380D01*
X189770000Y-115260380D02*
X189674761Y-115212761D01*
X189627142Y-115117523D01*
X189627142Y-114260380D01*
X190579523Y-115260380D02*
X190579523Y-114736571D01*
X190531904Y-114641333D01*
X190436666Y-114593714D01*
X190246190Y-114593714D01*
X190150952Y-114641333D01*
X190579523Y-115212761D02*
X190484285Y-115260380D01*
X190246190Y-115260380D01*
X190150952Y-115212761D01*
X190103333Y-115117523D01*
X190103333Y-115022285D01*
X190150952Y-114927047D01*
X190246190Y-114879428D01*
X190484285Y-114879428D01*
X190579523Y-114831809D01*
X190912857Y-114593714D02*
X191293809Y-114593714D01*
X191055714Y-114260380D02*
X191055714Y-115117523D01*
X191103333Y-115212761D01*
X191198571Y-115260380D01*
X191293809Y-115260380D01*
X192008095Y-115212761D02*
X191912857Y-115260380D01*
X191722380Y-115260380D01*
X191627142Y-115212761D01*
X191579523Y-115117523D01*
X191579523Y-114736571D01*
X191627142Y-114641333D01*
X191722380Y-114593714D01*
X191912857Y-114593714D01*
X192008095Y-114641333D01*
X192055714Y-114736571D01*
X192055714Y-114831809D01*
X191579523Y-114927047D01*
X192912857Y-115260380D02*
X192912857Y-114260380D01*
X192912857Y-115212761D02*
X192817619Y-115260380D01*
X192627142Y-115260380D01*
X192531904Y-115212761D01*
X192484285Y-115165142D01*
X192436666Y-115069904D01*
X192436666Y-114784190D01*
X192484285Y-114688952D01*
X192531904Y-114641333D01*
X192627142Y-114593714D01*
X192817619Y-114593714D01*
X192912857Y-114641333D01*
X194103333Y-115212761D02*
X194246190Y-115260380D01*
X194484285Y-115260380D01*
X194579523Y-115212761D01*
X194627142Y-115165142D01*
X194674761Y-115069904D01*
X194674761Y-114974666D01*
X194627142Y-114879428D01*
X194579523Y-114831809D01*
X194484285Y-114784190D01*
X194293809Y-114736571D01*
X194198571Y-114688952D01*
X194150952Y-114641333D01*
X194103333Y-114546095D01*
X194103333Y-114450857D01*
X194150952Y-114355619D01*
X194198571Y-114308000D01*
X194293809Y-114260380D01*
X194531904Y-114260380D01*
X194674761Y-114308000D01*
X195103333Y-115260380D02*
X195103333Y-114260380D01*
X195484285Y-114260380D01*
X195579523Y-114308000D01*
X195627142Y-114355619D01*
X195674761Y-114450857D01*
X195674761Y-114593714D01*
X195627142Y-114688952D01*
X195579523Y-114736571D01*
X195484285Y-114784190D01*
X195103333Y-114784190D01*
X196103333Y-115260380D02*
X196103333Y-114260380D01*
D12*
X206680714Y-75846714D02*
X206609285Y-75918142D01*
X206395000Y-75989571D01*
X206252142Y-75989571D01*
X206037857Y-75918142D01*
X205895000Y-75775285D01*
X205823571Y-75632428D01*
X205752142Y-75346714D01*
X205752142Y-75132428D01*
X205823571Y-74846714D01*
X205895000Y-74703857D01*
X206037857Y-74561000D01*
X206252142Y-74489571D01*
X206395000Y-74489571D01*
X206609285Y-74561000D01*
X206680714Y-74632428D01*
X207252142Y-75561000D02*
X207966428Y-75561000D01*
X207109285Y-75989571D02*
X207609285Y-74489571D01*
X208109285Y-75989571D01*
X208609285Y-75989571D02*
X208609285Y-74489571D01*
X209466428Y-75989571D01*
X209466428Y-74489571D01*
D10*
X215657157Y-88978456D02*
X215609538Y-88930837D01*
X215561919Y-88787980D01*
X215561919Y-88692741D01*
X215609538Y-88549884D01*
X215704776Y-88454646D01*
X215800014Y-88407027D01*
X215990490Y-88359408D01*
X216133347Y-88359408D01*
X216323823Y-88407027D01*
X216419061Y-88454646D01*
X216514300Y-88549884D01*
X216561919Y-88692741D01*
X216561919Y-88787980D01*
X216514300Y-88930837D01*
X216466680Y-88978456D01*
X215561919Y-89549884D02*
X215609538Y-89454646D01*
X215657157Y-89407027D01*
X215752395Y-89359408D01*
X216038109Y-89359408D01*
X216133347Y-89407027D01*
X216180966Y-89454646D01*
X216228585Y-89549884D01*
X216228585Y-89692741D01*
X216180966Y-89787980D01*
X216133347Y-89835599D01*
X216038109Y-89883218D01*
X215752395Y-89883218D01*
X215657157Y-89835599D01*
X215609538Y-89787980D01*
X215561919Y-89692741D01*
X215561919Y-89549884D01*
X216228585Y-90311789D02*
X215561919Y-90311789D01*
X216133347Y-90311789D02*
X216180966Y-90359408D01*
X216228585Y-90454646D01*
X216228585Y-90597503D01*
X216180966Y-90692741D01*
X216085728Y-90740360D01*
X215561919Y-90740360D01*
X216228585Y-91073694D02*
X216228585Y-91454646D01*
X216561919Y-91216551D02*
X215704776Y-91216551D01*
X215609538Y-91264170D01*
X215561919Y-91359408D01*
X215561919Y-91454646D01*
X215561919Y-92216551D02*
X216085728Y-92216551D01*
X216180966Y-92168932D01*
X216228585Y-92073694D01*
X216228585Y-91883218D01*
X216180966Y-91787980D01*
X215609538Y-92216551D02*
X215561919Y-92121313D01*
X215561919Y-91883218D01*
X215609538Y-91787980D01*
X215704776Y-91740360D01*
X215800014Y-91740360D01*
X215895252Y-91787980D01*
X215942871Y-91883218D01*
X215942871Y-92121313D01*
X215990490Y-92216551D01*
X215609538Y-93121313D02*
X215561919Y-93026075D01*
X215561919Y-92835599D01*
X215609538Y-92740360D01*
X215657157Y-92692741D01*
X215752395Y-92645122D01*
X216038109Y-92645122D01*
X216133347Y-92692741D01*
X216180966Y-92740360D01*
X216228585Y-92835599D01*
X216228585Y-93026075D01*
X216180966Y-93121313D01*
X216228585Y-93407027D02*
X216228585Y-93787980D01*
X216561919Y-93549884D02*
X215704776Y-93549884D01*
X215609538Y-93597503D01*
X215561919Y-93692741D01*
X215561919Y-93787980D01*
X215561919Y-94264170D02*
X215609538Y-94168932D01*
X215657157Y-94121313D01*
X215752395Y-94073694D01*
X216038109Y-94073694D01*
X216133347Y-94121313D01*
X216180966Y-94168932D01*
X216228585Y-94264170D01*
X216228585Y-94407027D01*
X216180966Y-94502265D01*
X216133347Y-94549884D01*
X216038109Y-94597503D01*
X215752395Y-94597503D01*
X215657157Y-94549884D01*
X215609538Y-94502265D01*
X215561919Y-94407027D01*
X215561919Y-94264170D01*
X215561919Y-95026075D02*
X216228585Y-95026075D01*
X216038109Y-95026075D02*
X216133347Y-95073694D01*
X216180966Y-95121313D01*
X216228585Y-95216551D01*
X216228585Y-95311789D01*
X232219500Y-81958180D02*
X214972900Y-81958180D01*
X232244900Y-121251980D02*
X232257600Y-82567780D01*
X196451220Y-78727300D02*
X196451220Y-78727300D01*
X214972900Y-121251980D02*
X214947500Y-81958180D01*
X232257600Y-82567780D02*
X232257600Y-81958180D01*
X232244900Y-121251980D02*
X214972900Y-121251980D01*
D13*
G36*
X206094022Y-30145039D02*
G01*
X206401668Y-30227318D01*
X207028242Y-30501482D01*
X207632510Y-30921275D01*
X208181345Y-31463341D01*
X208220770Y-31509975D01*
X208433432Y-31775321D01*
X208603812Y-32007225D01*
X208711543Y-32175853D01*
X208736260Y-32251370D01*
X208727479Y-32252302D01*
X208656298Y-32198987D01*
X208487916Y-32062039D01*
X208254169Y-31867479D01*
X208168559Y-31795442D01*
X207456133Y-31266873D01*
X206738895Y-30886433D01*
X206002426Y-30652838D01*
X205232309Y-30564807D01*
X204414127Y-30621057D01*
X203533463Y-30820308D01*
X202575897Y-31161276D01*
X202309314Y-31274400D01*
X201940517Y-31429373D01*
X201715415Y-31510557D01*
X201627855Y-31523023D01*
X201671683Y-31471842D01*
X201840746Y-31362085D01*
X202128890Y-31198824D01*
X202529962Y-30987130D01*
X202861334Y-30819458D01*
X203640464Y-30462603D01*
X204326658Y-30221189D01*
X204946555Y-30090760D01*
X205526797Y-30066863D01*
X206094022Y-30145039D01*
X206094022Y-30145039D01*
G37*
X206094022Y-30145039D02*
X206401668Y-30227318D01*
X207028242Y-30501482D01*
X207632510Y-30921275D01*
X208181345Y-31463341D01*
X208220770Y-31509975D01*
X208433432Y-31775321D01*
X208603812Y-32007225D01*
X208711543Y-32175853D01*
X208736260Y-32251370D01*
X208727479Y-32252302D01*
X208656298Y-32198987D01*
X208487916Y-32062039D01*
X208254169Y-31867479D01*
X208168559Y-31795442D01*
X207456133Y-31266873D01*
X206738895Y-30886433D01*
X206002426Y-30652838D01*
X205232309Y-30564807D01*
X204414127Y-30621057D01*
X203533463Y-30820308D01*
X202575897Y-31161276D01*
X202309314Y-31274400D01*
X201940517Y-31429373D01*
X201715415Y-31510557D01*
X201627855Y-31523023D01*
X201671683Y-31471842D01*
X201840746Y-31362085D01*
X202128890Y-31198824D01*
X202529962Y-30987130D01*
X202861334Y-30819458D01*
X203640464Y-30462603D01*
X204326658Y-30221189D01*
X204946555Y-30090760D01*
X205526797Y-30066863D01*
X206094022Y-30145039D01*
G36*
X202207000Y-33536171D02*
G01*
X202397544Y-33563224D01*
X202461975Y-33612973D01*
X202459591Y-33633834D01*
X202356889Y-33729847D01*
X202240868Y-33766722D01*
X202097364Y-33838816D01*
X202055844Y-34020722D01*
X202026513Y-34335587D01*
X201950073Y-34549292D01*
X201838432Y-34628663D01*
X201837575Y-34628667D01*
X201777213Y-34603620D01*
X201755959Y-34508418D01*
X201774037Y-34312973D01*
X201831673Y-33987193D01*
X201842775Y-33930167D01*
X201810544Y-33805742D01*
X201717463Y-33782000D01*
X201571358Y-33736815D01*
X201531284Y-33686517D01*
X201480169Y-33706527D01*
X201375145Y-33848276D01*
X201237902Y-34081984D01*
X201222930Y-34109851D01*
X201069318Y-34368806D01*
X200929268Y-34554760D01*
X200832380Y-34628593D01*
X200830376Y-34628667D01*
X200740830Y-34551915D01*
X200640428Y-34347296D01*
X200581341Y-34171136D01*
X200492659Y-33848851D01*
X200457360Y-33655502D01*
X200475067Y-33559449D01*
X200545406Y-33529054D01*
X200573720Y-33528000D01*
X200680642Y-33600943D01*
X200750125Y-33760834D01*
X200816921Y-34030998D01*
X200876097Y-34142036D01*
X200947480Y-34101914D01*
X201050897Y-33918599D01*
X201066167Y-33887834D01*
X201243694Y-33528000D01*
X201869069Y-33528000D01*
X202207000Y-33536171D01*
X202207000Y-33536171D01*
G37*
X202207000Y-33536171D02*
X202397544Y-33563224D01*
X202461975Y-33612973D01*
X202459591Y-33633834D01*
X202356889Y-33729847D01*
X202240868Y-33766722D01*
X202097364Y-33838816D01*
X202055844Y-34020722D01*
X202026513Y-34335587D01*
X201950073Y-34549292D01*
X201838432Y-34628663D01*
X201837575Y-34628667D01*
X201777213Y-34603620D01*
X201755959Y-34508418D01*
X201774037Y-34312973D01*
X201831673Y-33987193D01*
X201842775Y-33930167D01*
X201810544Y-33805742D01*
X201717463Y-33782000D01*
X201571358Y-33736815D01*
X201531284Y-33686517D01*
X201480169Y-33706527D01*
X201375145Y-33848276D01*
X201237902Y-34081984D01*
X201222930Y-34109851D01*
X201069318Y-34368806D01*
X200929268Y-34554760D01*
X200832380Y-34628593D01*
X200830376Y-34628667D01*
X200740830Y-34551915D01*
X200640428Y-34347296D01*
X200581341Y-34171136D01*
X200492659Y-33848851D01*
X200457360Y-33655502D01*
X200475067Y-33559449D01*
X200545406Y-33529054D01*
X200573720Y-33528000D01*
X200680642Y-33600943D01*
X200750125Y-33760834D01*
X200816921Y-34030998D01*
X200876097Y-34142036D01*
X200947480Y-34101914D01*
X201050897Y-33918599D01*
X201066167Y-33887834D01*
X201243694Y-33528000D01*
X201869069Y-33528000D01*
X202207000Y-33536171D01*
G36*
X199275219Y-33541596D02*
G01*
X199405244Y-33588668D01*
X199432334Y-33655000D01*
X199362050Y-33758509D01*
X199265916Y-33782000D01*
X199160195Y-33813175D01*
X199093996Y-33932676D01*
X199046834Y-34179465D01*
X199043342Y-34205334D01*
X198983866Y-34491175D01*
X198900182Y-34619210D01*
X198863148Y-34628667D01*
X198792253Y-34596698D01*
X198771093Y-34476218D01*
X198793936Y-34230366D01*
X198797334Y-34205334D01*
X198823950Y-33951201D01*
X198808181Y-33823507D01*
X198742926Y-33783076D01*
X198720612Y-33782000D01*
X198603343Y-33717644D01*
X198585667Y-33655000D01*
X198630986Y-33575135D01*
X198787894Y-33536127D01*
X199009000Y-33528000D01*
X199275219Y-33541596D01*
X199275219Y-33541596D01*
G37*
X199275219Y-33541596D02*
X199405244Y-33588668D01*
X199432334Y-33655000D01*
X199362050Y-33758509D01*
X199265916Y-33782000D01*
X199160195Y-33813175D01*
X199093996Y-33932676D01*
X199046834Y-34179465D01*
X199043342Y-34205334D01*
X198983866Y-34491175D01*
X198900182Y-34619210D01*
X198863148Y-34628667D01*
X198792253Y-34596698D01*
X198771093Y-34476218D01*
X198793936Y-34230366D01*
X198797334Y-34205334D01*
X198823950Y-33951201D01*
X198808181Y-33823507D01*
X198742926Y-33783076D01*
X198720612Y-33782000D01*
X198603343Y-33717644D01*
X198585667Y-33655000D01*
X198630986Y-33575135D01*
X198787894Y-33536127D01*
X199009000Y-33528000D01*
X199275219Y-33541596D01*
G36*
X200236135Y-33571696D02*
G01*
X200257412Y-33633834D01*
X200154971Y-33716619D01*
X200025000Y-33739667D01*
X199842919Y-33779982D01*
X199808271Y-33876427D01*
X199926901Y-33992247D01*
X199980474Y-34019596D01*
X200154609Y-34167319D01*
X200179343Y-34356490D01*
X200052769Y-34545372D01*
X200006161Y-34581533D01*
X199795083Y-34695544D01*
X199623919Y-34687270D01*
X199527320Y-34636836D01*
X199446683Y-34535447D01*
X199501926Y-34455410D01*
X199659992Y-34429665D01*
X199726646Y-34438225D01*
X199894718Y-34428631D01*
X199940882Y-34343169D01*
X199861230Y-34227420D01*
X199750328Y-34161910D01*
X199574049Y-34012940D01*
X199531433Y-33812311D01*
X199605042Y-33650933D01*
X199733838Y-33572772D01*
X199920927Y-33532491D01*
X200107847Y-33531621D01*
X200236135Y-33571696D01*
X200236135Y-33571696D01*
G37*
X200236135Y-33571696D02*
X200257412Y-33633834D01*
X200154971Y-33716619D01*
X200025000Y-33739667D01*
X199842919Y-33779982D01*
X199808271Y-33876427D01*
X199926901Y-33992247D01*
X199980474Y-34019596D01*
X200154609Y-34167319D01*
X200179343Y-34356490D01*
X200052769Y-34545372D01*
X200006161Y-34581533D01*
X199795083Y-34695544D01*
X199623919Y-34687270D01*
X199527320Y-34636836D01*
X199446683Y-34535447D01*
X199501926Y-34455410D01*
X199659992Y-34429665D01*
X199726646Y-34438225D01*
X199894718Y-34428631D01*
X199940882Y-34343169D01*
X199861230Y-34227420D01*
X199750328Y-34161910D01*
X199574049Y-34012940D01*
X199531433Y-33812311D01*
X199605042Y-33650933D01*
X199733838Y-33572772D01*
X199920927Y-33532491D01*
X200107847Y-33531621D01*
X200236135Y-33571696D01*
G36*
X198397617Y-33597315D02*
G01*
X198414314Y-33676167D01*
X198390556Y-33890794D01*
X198335406Y-34150471D01*
X198266108Y-34388123D01*
X198199907Y-34536676D01*
X198190082Y-34548361D01*
X198000009Y-34643001D01*
X197751331Y-34671677D01*
X197548500Y-34623932D01*
X197449859Y-34488585D01*
X197399401Y-34264812D01*
X197394347Y-34004811D01*
X197431919Y-33760782D01*
X197509335Y-33584923D01*
X197606858Y-33528000D01*
X197666526Y-33586109D01*
X197683710Y-33774093D01*
X197671373Y-34001009D01*
X197653174Y-34268789D01*
X197665265Y-34406448D01*
X197721683Y-34452415D01*
X197833740Y-34445509D01*
X197957993Y-34403283D01*
X198036221Y-34291762D01*
X198093798Y-34067613D01*
X198110741Y-33972500D01*
X198180395Y-33686155D01*
X198264765Y-33541690D01*
X198301241Y-33528000D01*
X198397617Y-33597315D01*
X198397617Y-33597315D01*
G37*
X198397617Y-33597315D02*
X198414314Y-33676167D01*
X198390556Y-33890794D01*
X198335406Y-34150471D01*
X198266108Y-34388123D01*
X198199907Y-34536676D01*
X198190082Y-34548361D01*
X198000009Y-34643001D01*
X197751331Y-34671677D01*
X197548500Y-34623932D01*
X197449859Y-34488585D01*
X197399401Y-34264812D01*
X197394347Y-34004811D01*
X197431919Y-33760782D01*
X197509335Y-33584923D01*
X197606858Y-33528000D01*
X197666526Y-33586109D01*
X197683710Y-33774093D01*
X197671373Y-34001009D01*
X197653174Y-34268789D01*
X197665265Y-34406448D01*
X197721683Y-34452415D01*
X197833740Y-34445509D01*
X197957993Y-34403283D01*
X198036221Y-34291762D01*
X198093798Y-34067613D01*
X198110741Y-33972500D01*
X198180395Y-33686155D01*
X198264765Y-33541690D01*
X198301241Y-33528000D01*
X198397617Y-33597315D01*
G36*
X201822943Y-32283662D02*
G01*
X203437301Y-32337837D01*
X205205221Y-32423813D01*
X207125529Y-32541673D01*
X207391000Y-32559663D01*
X208043946Y-32605680D01*
X208734556Y-32656602D01*
X209412333Y-32708553D01*
X210026778Y-32757655D01*
X210527393Y-32800030D01*
X210566000Y-32803458D01*
X211836000Y-32916801D01*
X209931000Y-32862567D01*
X209114080Y-32842732D01*
X208228053Y-32827324D01*
X207292882Y-32816234D01*
X206328527Y-32809357D01*
X205354950Y-32806585D01*
X204392113Y-32807811D01*
X203459978Y-32812927D01*
X202578507Y-32821828D01*
X201767660Y-32834404D01*
X201047401Y-32850551D01*
X200437690Y-32870159D01*
X199958489Y-32893123D01*
X199644000Y-32917767D01*
X198669440Y-33037425D01*
X197856746Y-33170204D01*
X197198780Y-33318644D01*
X196688406Y-33485283D01*
X196318487Y-33672661D01*
X196081886Y-33883318D01*
X195971467Y-34119793D01*
X195961000Y-34228189D01*
X196010925Y-34470824D01*
X196131500Y-34714887D01*
X196136099Y-34721430D01*
X196234263Y-34873554D01*
X196244725Y-34941634D01*
X196154276Y-34923003D01*
X195949705Y-34814997D01*
X195622334Y-34617745D01*
X195193626Y-34327938D01*
X194829792Y-34033182D01*
X194557285Y-33757932D01*
X194402559Y-33526643D01*
X194383892Y-33472878D01*
X194397979Y-33213570D01*
X194577382Y-32985240D01*
X194920926Y-32787968D01*
X195427435Y-32621839D01*
X196095734Y-32486934D01*
X196924647Y-32383336D01*
X197913000Y-32311127D01*
X199059618Y-32270390D01*
X200363323Y-32261208D01*
X201822943Y-32283662D01*
X201822943Y-32283662D01*
G37*
X201822943Y-32283662D02*
X203437301Y-32337837D01*
X205205221Y-32423813D01*
X207125529Y-32541673D01*
X207391000Y-32559663D01*
X208043946Y-32605680D01*
X208734556Y-32656602D01*
X209412333Y-32708553D01*
X210026778Y-32757655D01*
X210527393Y-32800030D01*
X210566000Y-32803458D01*
X211836000Y-32916801D01*
X209931000Y-32862567D01*
X209114080Y-32842732D01*
X208228053Y-32827324D01*
X207292882Y-32816234D01*
X206328527Y-32809357D01*
X205354950Y-32806585D01*
X204392113Y-32807811D01*
X203459978Y-32812927D01*
X202578507Y-32821828D01*
X201767660Y-32834404D01*
X201047401Y-32850551D01*
X200437690Y-32870159D01*
X199958489Y-32893123D01*
X199644000Y-32917767D01*
X198669440Y-33037425D01*
X197856746Y-33170204D01*
X197198780Y-33318644D01*
X196688406Y-33485283D01*
X196318487Y-33672661D01*
X196081886Y-33883318D01*
X195971467Y-34119793D01*
X195961000Y-34228189D01*
X196010925Y-34470824D01*
X196131500Y-34714887D01*
X196136099Y-34721430D01*
X196234263Y-34873554D01*
X196244725Y-34941634D01*
X196154276Y-34923003D01*
X195949705Y-34814997D01*
X195622334Y-34617745D01*
X195193626Y-34327938D01*
X194829792Y-34033182D01*
X194557285Y-33757932D01*
X194402559Y-33526643D01*
X194383892Y-33472878D01*
X194397979Y-33213570D01*
X194577382Y-32985240D01*
X194920926Y-32787968D01*
X195427435Y-32621839D01*
X196095734Y-32486934D01*
X196924647Y-32383336D01*
X197913000Y-32311127D01*
X199059618Y-32270390D01*
X200363323Y-32261208D01*
X201822943Y-32283662D01*
G36*
X207045616Y-33122884D02*
G01*
X207812095Y-33204699D01*
X208483321Y-33349139D01*
X208618667Y-33390989D01*
X209255279Y-33647973D01*
X209750666Y-33945975D01*
X210100375Y-34276364D01*
X210299952Y-34630511D01*
X210344944Y-34999786D01*
X210230897Y-35375560D01*
X209953357Y-35749203D01*
X209875059Y-35825501D01*
X209415706Y-36147800D01*
X208833328Y-36389745D01*
X208157434Y-36544518D01*
X207417531Y-36605305D01*
X206662722Y-36567577D01*
X206270259Y-36503619D01*
X205864114Y-36408150D01*
X205592042Y-36322726D01*
X205223244Y-36158908D01*
X204821742Y-35939585D01*
X204438164Y-35696294D01*
X204123138Y-35460570D01*
X203962000Y-35307358D01*
X203792667Y-35113501D01*
X204046667Y-35242686D01*
X204701755Y-35505412D01*
X205445130Y-35685303D01*
X206234448Y-35780579D01*
X207027366Y-35789459D01*
X207781542Y-35710163D01*
X208454632Y-35540909D01*
X208711139Y-35438870D01*
X209137518Y-35196059D01*
X209399214Y-34936225D01*
X209499009Y-34667425D01*
X209439686Y-34397717D01*
X209224027Y-34135160D01*
X208854815Y-33887810D01*
X208334831Y-33663726D01*
X208068334Y-33577350D01*
X207252203Y-33403229D01*
X206349398Y-33330743D01*
X205407694Y-33358587D01*
X204474866Y-33485453D01*
X203633889Y-33698601D01*
X203301610Y-33801953D01*
X203036131Y-33877913D01*
X202873974Y-33916382D01*
X202841758Y-33917647D01*
X202884005Y-33863450D01*
X203057575Y-33776737D01*
X203330235Y-33668844D01*
X203669752Y-33551111D01*
X204043894Y-33434876D01*
X204420428Y-33331478D01*
X204685657Y-33269034D01*
X205431297Y-33153467D01*
X206234983Y-33105279D01*
X207045616Y-33122884D01*
X207045616Y-33122884D01*
G37*
X207045616Y-33122884D02*
X207812095Y-33204699D01*
X208483321Y-33349139D01*
X208618667Y-33390989D01*
X209255279Y-33647973D01*
X209750666Y-33945975D01*
X210100375Y-34276364D01*
X210299952Y-34630511D01*
X210344944Y-34999786D01*
X210230897Y-35375560D01*
X209953357Y-35749203D01*
X209875059Y-35825501D01*
X209415706Y-36147800D01*
X208833328Y-36389745D01*
X208157434Y-36544518D01*
X207417531Y-36605305D01*
X206662722Y-36567577D01*
X206270259Y-36503619D01*
X205864114Y-36408150D01*
X205592042Y-36322726D01*
X205223244Y-36158908D01*
X204821742Y-35939585D01*
X204438164Y-35696294D01*
X204123138Y-35460570D01*
X203962000Y-35307358D01*
X203792667Y-35113501D01*
X204046667Y-35242686D01*
X204701755Y-35505412D01*
X205445130Y-35685303D01*
X206234448Y-35780579D01*
X207027366Y-35789459D01*
X207781542Y-35710163D01*
X208454632Y-35540909D01*
X208711139Y-35438870D01*
X209137518Y-35196059D01*
X209399214Y-34936225D01*
X209499009Y-34667425D01*
X209439686Y-34397717D01*
X209224027Y-34135160D01*
X208854815Y-33887810D01*
X208334831Y-33663726D01*
X208068334Y-33577350D01*
X207252203Y-33403229D01*
X206349398Y-33330743D01*
X205407694Y-33358587D01*
X204474866Y-33485453D01*
X203633889Y-33698601D01*
X203301610Y-33801953D01*
X203036131Y-33877913D01*
X202873974Y-33916382D01*
X202841758Y-33917647D01*
X202884005Y-33863450D01*
X203057575Y-33776737D01*
X203330235Y-33668844D01*
X203669752Y-33551111D01*
X204043894Y-33434876D01*
X204420428Y-33331478D01*
X204685657Y-33269034D01*
X205431297Y-33153467D01*
X206234983Y-33105279D01*
X207045616Y-33122884D01*
G36*
X203767417Y-34487313D02*
G01*
X203583990Y-34621627D01*
X203313708Y-34806048D01*
X202985558Y-35021760D01*
X202628526Y-35249948D01*
X202271599Y-35471795D01*
X201943765Y-35668486D01*
X201706621Y-35803489D01*
X200959408Y-36170640D01*
X200229966Y-36449038D01*
X199541950Y-36633144D01*
X198919012Y-36717424D01*
X198384807Y-36696339D01*
X198139343Y-36638469D01*
X197655869Y-36392277D01*
X197254459Y-36000205D01*
X196968551Y-35528429D01*
X196853503Y-35261420D01*
X196770827Y-35025845D01*
X196724925Y-34846973D01*
X196720199Y-34750074D01*
X196761050Y-34760418D01*
X196851879Y-34903274D01*
X196863449Y-34925000D01*
X197196640Y-35388842D01*
X197645388Y-35762930D01*
X197781334Y-35842921D01*
X197954425Y-35924448D01*
X198139015Y-35977418D01*
X198376005Y-36007376D01*
X198706296Y-36019869D01*
X199093667Y-36020887D01*
X199555913Y-36013070D01*
X199911277Y-35988514D01*
X200222059Y-35937661D01*
X200550558Y-35850955D01*
X200871667Y-35748125D01*
X201264692Y-35602784D01*
X201746735Y-35402941D01*
X202257793Y-35174511D01*
X202737863Y-34943408D01*
X202755500Y-34934512D01*
X203139340Y-34742671D01*
X203463034Y-34585028D01*
X203699927Y-34474240D01*
X203823364Y-34422964D01*
X203835000Y-34421923D01*
X203767417Y-34487313D01*
X203767417Y-34487313D01*
G37*
X203767417Y-34487313D02*
X203583990Y-34621627D01*
X203313708Y-34806048D01*
X202985558Y-35021760D01*
X202628526Y-35249948D01*
X202271599Y-35471795D01*
X201943765Y-35668486D01*
X201706621Y-35803489D01*
X200959408Y-36170640D01*
X200229966Y-36449038D01*
X199541950Y-36633144D01*
X198919012Y-36717424D01*
X198384807Y-36696339D01*
X198139343Y-36638469D01*
X197655869Y-36392277D01*
X197254459Y-36000205D01*
X196968551Y-35528429D01*
X196853503Y-35261420D01*
X196770827Y-35025845D01*
X196724925Y-34846973D01*
X196720199Y-34750074D01*
X196761050Y-34760418D01*
X196851879Y-34903274D01*
X196863449Y-34925000D01*
X197196640Y-35388842D01*
X197645388Y-35762930D01*
X197781334Y-35842921D01*
X197954425Y-35924448D01*
X198139015Y-35977418D01*
X198376005Y-36007376D01*
X198706296Y-36019869D01*
X199093667Y-36020887D01*
X199555913Y-36013070D01*
X199911277Y-35988514D01*
X200222059Y-35937661D01*
X200550558Y-35850955D01*
X200871667Y-35748125D01*
X201264692Y-35602784D01*
X201746735Y-35402941D01*
X202257793Y-35174511D01*
X202737863Y-34943408D01*
X202755500Y-34934512D01*
X203139340Y-34742671D01*
X203463034Y-34585028D01*
X203699927Y-34474240D01*
X203823364Y-34422964D01*
X203835000Y-34421923D01*
X203767417Y-34487313D01*
D10*
X212282480Y-106365220D02*
X212232480Y-106365220D01*
X212282480Y-110515220D02*
X212137480Y-110515220D01*
X207132480Y-110515220D02*
X207277480Y-110515220D01*
X207132480Y-106365220D02*
X207277480Y-106365220D01*
X212282480Y-106365220D02*
X212282480Y-110515220D01*
X207132480Y-106365220D02*
X207132480Y-110515220D01*
X212232480Y-106365220D02*
X212232480Y-104965220D01*
D14*
X202827960Y-120231162D02*
X202827960Y-120748318D01*
X201407960Y-120231162D02*
X201407960Y-120748318D01*
X211030558Y-115500220D02*
X210513402Y-115500220D01*
X211030558Y-114080220D02*
X210513402Y-114080220D01*
X207399960Y-120718318D02*
X207399960Y-120201162D01*
X205979960Y-120718318D02*
X205979960Y-120201162D01*
X210882980Y-96558220D02*
X208197980Y-96558220D01*
X208197980Y-96558220D02*
X208197980Y-98478220D01*
X208197980Y-98478220D02*
X210882980Y-98478220D01*
X213523960Y-119305440D02*
X210973960Y-119305440D01*
X213523960Y-117605440D02*
X210973960Y-117605440D01*
X213523960Y-119305440D02*
X213523960Y-117605440D01*
X205036960Y-104719240D02*
X203576960Y-104719240D01*
X205036960Y-101559240D02*
X202876960Y-101559240D01*
X205036960Y-101559240D02*
X205036960Y-102489240D01*
X205036960Y-104719240D02*
X205036960Y-103789240D01*
X200235558Y-97062220D02*
X199718402Y-97062220D01*
X200235558Y-98482220D02*
X199718402Y-98482220D01*
X210521480Y-102016298D02*
X210521480Y-101499142D01*
X211941480Y-102016298D02*
X211941480Y-101499142D01*
X200795960Y-115659162D02*
X200795960Y-116176318D01*
X199375960Y-115659162D02*
X199375960Y-116176318D01*
X205663960Y-115145240D02*
X204733960Y-115145240D01*
X202503960Y-115145240D02*
X203433960Y-115145240D01*
X202503960Y-115145240D02*
X202503960Y-117305240D01*
X205663960Y-115145240D02*
X205663960Y-116605240D01*
X203439960Y-97879162D02*
X203439960Y-98396318D01*
X204859960Y-97879162D02*
X204859960Y-98396318D01*
X205083480Y-111414298D02*
X205083480Y-110897142D01*
X203663480Y-111414298D02*
X203663480Y-110897142D01*
X200235558Y-102165220D02*
X199718402Y-102165220D01*
X200235558Y-100745220D02*
X199718402Y-100745220D01*
D10*
X202851960Y-107203240D02*
G75*
G03X202851960Y-107203240I-1750000J0D01*
G01*
X231615060Y-133991740D02*
X226715060Y-133991740D01*
X231615060Y-121991740D02*
X231615060Y-133991740D01*
X226715060Y-121991740D02*
X231615060Y-121991740D01*
X226715060Y-124991740D02*
X226715060Y-121991740D01*
X227715060Y-124991740D02*
X226715060Y-124991740D01*
X227715060Y-130991740D02*
X227715060Y-124991740D01*
X226715060Y-130991740D02*
X227715060Y-130991740D01*
X226715060Y-133991740D02*
X226715060Y-130991740D01*
X223692660Y-56433720D02*
G75*
G03X223692660Y-56433720I-1750000J0D01*
G01*
D14*
X198415840Y-41579538D02*
X198415840Y-41062382D01*
X199835840Y-41579538D02*
X199835840Y-41062382D01*
X183348560Y-98008702D02*
X183348560Y-98525858D01*
X184768560Y-98008702D02*
X184768560Y-98525858D01*
X195008238Y-90798580D02*
X194491082Y-90798580D01*
X195008238Y-92218580D02*
X194491082Y-92218580D01*
X181415760Y-98186502D02*
X181415760Y-98703658D01*
X179995760Y-98186502D02*
X179995760Y-98703658D01*
X195184960Y-95955858D02*
X195184960Y-95438702D01*
X196604960Y-95955858D02*
X196604960Y-95438702D01*
D10*
X184790160Y-114652180D02*
X179890160Y-114652180D01*
X184790160Y-102652180D02*
X184790160Y-114652180D01*
X179890160Y-102652180D02*
X184790160Y-102652180D01*
X179890160Y-105652180D02*
X179890160Y-102652180D01*
X180890160Y-105652180D02*
X179890160Y-105652180D01*
X180890160Y-111652180D02*
X180890160Y-105652180D01*
X179890160Y-111652180D02*
X180890160Y-111652180D01*
X179890160Y-114652180D02*
X179890160Y-111652180D01*
D14*
X189405161Y-97467181D02*
X190905161Y-97467181D01*
X189405161Y-97467181D02*
X187905161Y-97467181D01*
X189405161Y-93147181D02*
X190905161Y-93147181D01*
X189405161Y-93147181D02*
X186530161Y-93147181D01*
X225943000Y-106519080D02*
X223393000Y-106519080D01*
X225943000Y-104819080D02*
X223393000Y-104819080D01*
X225943000Y-106519080D02*
X225943000Y-104819080D01*
X223895178Y-112640180D02*
X223378022Y-112640180D01*
X223895178Y-111220180D02*
X223378022Y-111220180D01*
X215360320Y-142887438D02*
X215360320Y-142370282D01*
X213940320Y-142887438D02*
X213940320Y-142370282D01*
X223417280Y-129995788D02*
X223417280Y-127164292D01*
X218197280Y-129995788D02*
X218197280Y-127164292D01*
X211927560Y-45429700D02*
X211927560Y-48114700D01*
X213847560Y-45429700D02*
X211927560Y-45429700D01*
X213847560Y-48114700D02*
X213847560Y-45429700D01*
X207065760Y-48503320D02*
X207065760Y-45818320D01*
X207065760Y-45818320D02*
X205145760Y-45818320D01*
X205145760Y-45818320D02*
X205145760Y-48503320D01*
X201823440Y-45724340D02*
X201823440Y-48409340D01*
X203743440Y-45724340D02*
X201823440Y-45724340D01*
X203743440Y-48409340D02*
X203743440Y-45724340D01*
X210548100Y-48328060D02*
X210548100Y-45643060D01*
X210548100Y-45643060D02*
X208628100Y-45643060D01*
X208628100Y-45643060D02*
X208628100Y-48328060D01*
X195136700Y-75837042D02*
X195136700Y-76354198D01*
X196556700Y-75837042D02*
X196556700Y-76354198D01*
X200090920Y-48338220D02*
X200090920Y-45653220D01*
X200090920Y-45653220D02*
X198170920Y-45653220D01*
X198170920Y-45653220D02*
X198170920Y-48338220D01*
X194848600Y-45693860D02*
X194848600Y-48378860D01*
X196768600Y-45693860D02*
X194848600Y-45693860D01*
X196768600Y-48378860D02*
X196768600Y-45693860D01*
X204928200Y-135994020D02*
X207613200Y-135994020D01*
X207613200Y-135994020D02*
X207613200Y-134074020D01*
X207613200Y-134074020D02*
X204928200Y-134074020D01*
X188911300Y-76070198D02*
X188911300Y-75553042D01*
X187491300Y-76070198D02*
X187491300Y-75553042D01*
X224139000Y-86040080D02*
X221454000Y-86040080D01*
X221454000Y-86040080D02*
X221454000Y-87960080D01*
X221454000Y-87960080D02*
X224139000Y-87960080D01*
X193178500Y-75756242D02*
X193178500Y-76273398D01*
X191758500Y-75756242D02*
X191758500Y-76273398D01*
X215366720Y-45450020D02*
X215366720Y-48135020D01*
X217286720Y-45450020D02*
X215366720Y-45450020D01*
X217286720Y-48135020D02*
X217286720Y-45450020D01*
X217013860Y-41226478D02*
X217013860Y-40709322D01*
X215593860Y-41226478D02*
X215593860Y-40709322D01*
X225492380Y-119106422D02*
X225492380Y-119623578D01*
X224072380Y-119106422D02*
X224072380Y-119623578D01*
X188009460Y-70942942D02*
X188009460Y-71460098D01*
X189429460Y-70942942D02*
X189429460Y-71460098D01*
X187251078Y-83480980D02*
X186733922Y-83480980D01*
X187251078Y-82060980D02*
X186733922Y-82060980D01*
X208918740Y-41399198D02*
X208918740Y-40882042D01*
X210338740Y-41399198D02*
X210338740Y-40882042D01*
X212329960Y-41223938D02*
X212329960Y-40706782D01*
X213749960Y-41223938D02*
X213749960Y-40706782D01*
X218737922Y-94695080D02*
X219255078Y-94695080D01*
X218737922Y-93275080D02*
X219255078Y-93275080D01*
X187675782Y-66079300D02*
X188192938Y-66079300D01*
X187675782Y-67499300D02*
X188192938Y-67499300D01*
X212576340Y-61833258D02*
X212576340Y-61316102D01*
X213996340Y-61833258D02*
X213996340Y-61316102D01*
X180534000Y-81855000D02*
X181864000Y-81855000D01*
X180534000Y-83185000D02*
X180534000Y-81855000D01*
X180534000Y-84455000D02*
X183194000Y-84455000D01*
X183194000Y-84455000D02*
X183194000Y-87055000D01*
X180534000Y-84455000D02*
X180534000Y-87055000D01*
X180534000Y-87055000D02*
X183194000Y-87055000D01*
X225937578Y-83115080D02*
X225420422Y-83115080D01*
X225937578Y-84535080D02*
X225420422Y-84535080D01*
X220274000Y-83065080D02*
X220274000Y-84525080D01*
X217114000Y-83065080D02*
X217114000Y-85225080D01*
X217114000Y-83065080D02*
X218044000Y-83065080D01*
X220274000Y-83065080D02*
X219344000Y-83065080D01*
X203150540Y-134635982D02*
X203150540Y-135153138D01*
X201730540Y-134635982D02*
X201730540Y-135153138D01*
X187281078Y-85489980D02*
X186763922Y-85489980D01*
X187281078Y-86909980D02*
X186763922Y-86909980D01*
X191518660Y-45721800D02*
X191518660Y-48406800D01*
X193438660Y-45721800D02*
X191518660Y-45721800D01*
X193438660Y-48406800D02*
X193438660Y-45721800D01*
X218737922Y-96450080D02*
X219255078Y-96450080D01*
X218737922Y-97870080D02*
X219255078Y-97870080D01*
X232289660Y-75804720D02*
X229629660Y-75804720D01*
X232289660Y-78404720D02*
X232289660Y-75804720D01*
X229629660Y-78404720D02*
X229629660Y-75804720D01*
X232289660Y-78404720D02*
X229629660Y-78404720D01*
X232289660Y-79674720D02*
X232289660Y-81004720D01*
X232289660Y-81004720D02*
X230959660Y-81004720D01*
X218782922Y-86925080D02*
X219300078Y-86925080D01*
X218782922Y-88345080D02*
X219300078Y-88345080D01*
X211738738Y-55342720D02*
X211221582Y-55342720D01*
X211738738Y-56762720D02*
X211221582Y-56762720D01*
X228569782Y-87910740D02*
X229086938Y-87910740D01*
X228569782Y-86490740D02*
X229086938Y-86490740D01*
X222002420Y-119521978D02*
X222002420Y-119004822D01*
X220582420Y-119521978D02*
X220582420Y-119004822D01*
X205428780Y-41615098D02*
X205428780Y-41097942D01*
X206848780Y-41615098D02*
X206848780Y-41097942D01*
X222144000Y-103810080D02*
X222144000Y-102310080D01*
X222144000Y-102310080D02*
X221874000Y-102310080D01*
X221874000Y-102310080D02*
X221874000Y-99480080D01*
X215244000Y-103810080D02*
X215244000Y-102310080D01*
X215244000Y-102310080D02*
X215514000Y-102310080D01*
X215514000Y-102310080D02*
X215514000Y-101210080D01*
X218737922Y-91520080D02*
X219255078Y-91520080D01*
X218737922Y-90100080D02*
X219255078Y-90100080D01*
X202068360Y-41604938D02*
X202068360Y-41087782D01*
X203488360Y-41604938D02*
X203488360Y-41087782D01*
D10*
X225328420Y-70683120D02*
G75*
G03X225328420Y-70683120I-1750000J0D01*
G01*
D14*
X219817980Y-116126380D02*
X219817980Y-115196380D01*
X219817980Y-112966380D02*
X219817980Y-113896380D01*
X219817980Y-112966380D02*
X217657980Y-112966380D01*
X219817980Y-116126380D02*
X218357980Y-116126380D01*
X179447460Y-122081640D02*
X179137460Y-122081640D01*
X179137460Y-122081640D02*
X179137460Y-137951640D01*
X179137460Y-137951640D02*
X179447460Y-137951640D01*
X180967460Y-122081640D02*
X186727460Y-122081640D01*
X186727460Y-122081640D02*
X186727460Y-123501640D01*
X186727460Y-123501640D02*
X186227460Y-123501640D01*
X186227460Y-123501640D02*
X186227460Y-136531640D01*
X186227460Y-136531640D02*
X186727460Y-136531640D01*
X186727460Y-136531640D02*
X186727460Y-137951640D01*
X186727460Y-137951640D02*
X180967460Y-137951640D01*
D10*
X227017500Y-55637040D02*
X231917500Y-55637040D01*
X227017500Y-73637040D02*
X227017500Y-55637040D01*
X231917500Y-73637040D02*
X227017500Y-73637040D01*
X231917500Y-70637040D02*
X231917500Y-73637040D01*
X230917500Y-70637040D02*
X231917500Y-70637040D01*
X230917500Y-58637040D02*
X230917500Y-70637040D01*
X231917500Y-58637040D02*
X230917500Y-58637040D01*
X231917500Y-55637040D02*
X231917500Y-58637040D01*
D14*
X215527122Y-66914960D02*
X216044278Y-66914960D01*
X215527122Y-68334960D02*
X216044278Y-68334960D01*
D10*
X180639460Y-80352020D02*
X180639460Y-77352020D01*
X180639460Y-77352020D02*
X181639460Y-77352020D01*
X181639460Y-77352020D02*
X181639460Y-65352020D01*
X181639460Y-65352020D02*
X180639460Y-65352020D01*
X180639460Y-65352020D02*
X180639460Y-62352020D01*
X180639460Y-62352020D02*
X185539460Y-62352020D01*
X185539460Y-62352020D02*
X185539460Y-80352020D01*
X185539460Y-80352020D02*
X180639460Y-80352020D01*
D14*
X192654182Y-67428180D02*
X193171338Y-67428180D01*
X192654182Y-66008180D02*
X193171338Y-66008180D01*
X187607580Y-122101180D02*
X193367580Y-122101180D01*
X187607580Y-123521180D02*
X187607580Y-122101180D01*
X188107580Y-123521180D02*
X187607580Y-123521180D01*
X188107580Y-136551180D02*
X188107580Y-123521180D01*
X187607580Y-136551180D02*
X188107580Y-136551180D01*
X187607580Y-137971180D02*
X187607580Y-136551180D01*
X193367580Y-137971180D02*
X187607580Y-137971180D01*
X195197580Y-122101180D02*
X194887580Y-122101180D01*
X195197580Y-137971180D02*
X195197580Y-122101180D01*
X194887580Y-137971180D02*
X195197580Y-137971180D01*
D15*
X190436500Y-82425540D02*
X190436500Y-86692740D01*
X195694300Y-86692740D02*
X195694300Y-82425540D01*
D10*
X230858000Y-98049080D02*
G75*
G03X230858000Y-98049080I-1750000J0D01*
G01*
X227502660Y-77261720D02*
G75*
G03X227502660Y-77261720I-1750000J0D01*
G01*
D14*
X220155340Y-67314680D02*
X220155340Y-66404680D01*
X220155340Y-65004680D02*
X220155340Y-64094680D01*
X222730340Y-67314680D02*
X220155340Y-67314680D01*
X222305340Y-64094680D02*
X220155340Y-64094680D01*
X212745582Y-74288720D02*
X213262738Y-74288720D01*
X212745582Y-72868720D02*
X213262738Y-72868720D01*
D10*
X207365540Y-125702060D02*
G75*
G03X207365540Y-125702060I-1750000J0D01*
G01*
X220898660Y-60116720D02*
G75*
G03X220898660Y-60116720I-1750000J0D01*
G01*
X232044500Y-101296080D02*
X232044500Y-104296080D01*
X232044500Y-104296080D02*
X231044500Y-104296080D01*
X231044500Y-104296080D02*
X231044500Y-116296080D01*
X231044500Y-116296080D02*
X232044500Y-116296080D01*
X232044500Y-116296080D02*
X232044500Y-119296080D01*
X232044500Y-119296080D02*
X227144500Y-119296080D01*
X227144500Y-119296080D02*
X227144500Y-101296080D01*
X227144500Y-101296080D02*
X232044500Y-101296080D01*
X231561720Y-147613760D02*
X226661720Y-147613760D01*
X231561720Y-135613760D02*
X231561720Y-147613760D01*
X226661720Y-135613760D02*
X231561720Y-135613760D01*
X226661720Y-138613760D02*
X226661720Y-135613760D01*
X227661720Y-138613760D02*
X226661720Y-138613760D01*
X227661720Y-144613760D02*
X227661720Y-138613760D01*
X226661720Y-144613760D02*
X227661720Y-144613760D01*
X226661720Y-147613760D02*
X226661720Y-144613760D01*
X208680540Y-135897060D02*
X208680540Y-124397060D01*
X208680540Y-124397060D02*
X216540540Y-124397060D01*
X216540540Y-124397060D02*
X216540540Y-135897060D01*
X216540540Y-135897060D02*
X208680540Y-135897060D01*
X207365540Y-130147060D02*
G75*
G03X207365540Y-130147060I-1750000J0D01*
G01*
D16*
X194782440Y-112582960D02*
G75*
G03X194782440Y-112582960I-317500J0D01*
G01*
D10*
X226984000Y-90640080D02*
X226934000Y-90640080D01*
X226984000Y-94790080D02*
X226839000Y-94790080D01*
X221834000Y-94790080D02*
X221979000Y-94790080D01*
X221834000Y-90640080D02*
X221979000Y-90640080D01*
X226984000Y-90640080D02*
X226984000Y-94790080D01*
X221834000Y-90640080D02*
X221834000Y-94790080D01*
X226934000Y-90640080D02*
X226934000Y-89240080D01*
X220116340Y-144929860D02*
G75*
G03X220116340Y-144929860I-1750000J0D01*
G01*
D17*
X205556860Y-147821400D02*
X205556860Y-138621400D01*
X211556860Y-138621400D02*
X211556860Y-147821400D01*
D18*
X207294860Y-148707400D02*
G75*
G03X207294860Y-148707400I-91000J0D01*
G01*
D10*
X202163340Y-57458681D02*
X208663340Y-57458681D01*
X208663340Y-57458681D02*
X208663340Y-72858681D01*
X208663340Y-72858681D02*
X201163340Y-72858681D01*
X201163340Y-72858681D02*
X201163340Y-58458681D01*
X201163340Y-58458681D02*
X202163340Y-57458681D01*
D14*
X218699822Y-71540440D02*
X219216978Y-71540440D01*
X218699822Y-70120440D02*
X219216978Y-70120440D01*
D10*
X226105660Y-60116720D02*
G75*
G03X226105660Y-60116720I-1750000J0D01*
G01*
D14*
X191885500Y-71460098D02*
X191885500Y-70942942D01*
X193305500Y-71460098D02*
X193305500Y-70942942D01*
D10*
X220819920Y-76733400D02*
G75*
G03X220819920Y-76733400I-1750000J0D01*
G01*
D14*
X196490660Y-41657798D02*
X196490660Y-41140642D01*
X195070660Y-41657798D02*
X195070660Y-41140642D01*
X191679760Y-41619698D02*
X191679760Y-41102542D01*
X193099760Y-41619698D02*
X193099760Y-41102542D01*
D10*
X220116340Y-140484860D02*
G75*
G03X220116340Y-140484860I-1750000J0D01*
G01*
X212588860Y-107678124D02*
X213398384Y-107678124D01*
X213493622Y-107630505D01*
X213541241Y-107582886D01*
X213588860Y-107487648D01*
X213588860Y-107297172D01*
X213541241Y-107201934D01*
X213493622Y-107154315D01*
X213398384Y-107106696D01*
X212588860Y-107106696D01*
X212588860Y-106725743D02*
X212588860Y-106059077D01*
X213588860Y-106487648D01*
X200661542Y-121148077D02*
X200709161Y-121195696D01*
X200756780Y-121338553D01*
X200756780Y-121433791D01*
X200709161Y-121576648D01*
X200613923Y-121671886D01*
X200518685Y-121719505D01*
X200328209Y-121767124D01*
X200185352Y-121767124D01*
X199994876Y-121719505D01*
X199899638Y-121671886D01*
X199804400Y-121576648D01*
X199756780Y-121433791D01*
X199756780Y-121338553D01*
X199804400Y-121195696D01*
X199852019Y-121148077D01*
X200756780Y-120195696D02*
X200756780Y-120767124D01*
X200756780Y-120481410D02*
X199756780Y-120481410D01*
X199899638Y-120576648D01*
X199994876Y-120671886D01*
X200042495Y-120767124D01*
X199756780Y-119576648D02*
X199756780Y-119481410D01*
X199804400Y-119386172D01*
X199852019Y-119338553D01*
X199947257Y-119290934D01*
X200137733Y-119243315D01*
X200375828Y-119243315D01*
X200566304Y-119290934D01*
X200661542Y-119338553D01*
X200709161Y-119386172D01*
X200756780Y-119481410D01*
X200756780Y-119576648D01*
X200709161Y-119671886D01*
X200661542Y-119719505D01*
X200566304Y-119767124D01*
X200375828Y-119814743D01*
X200137733Y-119814743D01*
X199947257Y-119767124D01*
X199852019Y-119719505D01*
X199804400Y-119671886D01*
X199756780Y-119576648D01*
X213366622Y-115331477D02*
X213414241Y-115379096D01*
X213461860Y-115521953D01*
X213461860Y-115617191D01*
X213414241Y-115760048D01*
X213319003Y-115855286D01*
X213223765Y-115902905D01*
X213033289Y-115950524D01*
X212890432Y-115950524D01*
X212699956Y-115902905D01*
X212604718Y-115855286D01*
X212509480Y-115760048D01*
X212461860Y-115617191D01*
X212461860Y-115521953D01*
X212509480Y-115379096D01*
X212557099Y-115331477D01*
X213461860Y-114379096D02*
X213461860Y-114950524D01*
X213461860Y-114664810D02*
X212461860Y-114664810D01*
X212604718Y-114760048D01*
X212699956Y-114855286D01*
X212747575Y-114950524D01*
X213461860Y-113426715D02*
X213461860Y-113998143D01*
X213461860Y-113712429D02*
X212461860Y-113712429D01*
X212604718Y-113807667D01*
X212699956Y-113902905D01*
X212747575Y-113998143D01*
X205397102Y-121102597D02*
X205444721Y-121150216D01*
X205492340Y-121293073D01*
X205492340Y-121388311D01*
X205444721Y-121531168D01*
X205349483Y-121626406D01*
X205254245Y-121674025D01*
X205063769Y-121721644D01*
X204920912Y-121721644D01*
X204730436Y-121674025D01*
X204635198Y-121626406D01*
X204539960Y-121531168D01*
X204492340Y-121388311D01*
X204492340Y-121293073D01*
X204539960Y-121150216D01*
X204587579Y-121102597D01*
X205492340Y-120150216D02*
X205492340Y-120721644D01*
X205492340Y-120435930D02*
X204492340Y-120435930D01*
X204635198Y-120531168D01*
X204730436Y-120626406D01*
X204778055Y-120721644D01*
X204587579Y-119769263D02*
X204539960Y-119721644D01*
X204492340Y-119626406D01*
X204492340Y-119388311D01*
X204539960Y-119293073D01*
X204587579Y-119245454D01*
X204682817Y-119197835D01*
X204778055Y-119197835D01*
X204920912Y-119245454D01*
X205492340Y-119816882D01*
X205492340Y-119197835D01*
X209144884Y-96320600D02*
X209144884Y-95320600D01*
X209382980Y-95320600D01*
X209525837Y-95368220D01*
X209621075Y-95463458D01*
X209668694Y-95558696D01*
X209716313Y-95749172D01*
X209716313Y-95892029D01*
X209668694Y-96082505D01*
X209621075Y-96177743D01*
X209525837Y-96272981D01*
X209382980Y-96320600D01*
X209144884Y-96320600D01*
X210573456Y-95653934D02*
X210573456Y-96320600D01*
X210335360Y-95272981D02*
X210097265Y-95987267D01*
X210716313Y-95987267D01*
X211318884Y-120772180D02*
X211318884Y-119772180D01*
X211556980Y-119772180D01*
X211699837Y-119819800D01*
X211795075Y-119915038D01*
X211842694Y-120010276D01*
X211890313Y-120200752D01*
X211890313Y-120343609D01*
X211842694Y-120534085D01*
X211795075Y-120629323D01*
X211699837Y-120724561D01*
X211556980Y-120772180D01*
X211318884Y-120772180D01*
X212795075Y-119772180D02*
X212318884Y-119772180D01*
X212271265Y-120248371D01*
X212318884Y-120200752D01*
X212414122Y-120153133D01*
X212652218Y-120153133D01*
X212747456Y-120200752D01*
X212795075Y-120248371D01*
X212842694Y-120343609D01*
X212842694Y-120581704D01*
X212795075Y-120676942D01*
X212747456Y-120724561D01*
X212652218Y-120772180D01*
X212414122Y-120772180D01*
X212318884Y-120724561D01*
X212271265Y-120676942D01*
X204181721Y-101186859D02*
X204086483Y-101139240D01*
X203991245Y-101044001D01*
X203848388Y-100901144D01*
X203753150Y-100853525D01*
X203657912Y-100853525D01*
X203705531Y-101091620D02*
X203610293Y-101044001D01*
X203515055Y-100948763D01*
X203467436Y-100758287D01*
X203467436Y-100424954D01*
X203515055Y-100234478D01*
X203610293Y-100139240D01*
X203705531Y-100091620D01*
X203896007Y-100091620D01*
X203991245Y-100139240D01*
X204086483Y-100234478D01*
X204134102Y-100424954D01*
X204134102Y-100758287D01*
X204086483Y-100948763D01*
X203991245Y-101044001D01*
X203896007Y-101091620D01*
X203705531Y-101091620D01*
X204991245Y-100424954D02*
X204991245Y-101091620D01*
X204753150Y-100044001D02*
X204515055Y-100758287D01*
X205134102Y-100758287D01*
X199257922Y-96599000D02*
X198924589Y-96122810D01*
X198686494Y-96599000D02*
X198686494Y-95599000D01*
X199067446Y-95599000D01*
X199162684Y-95646620D01*
X199210303Y-95694239D01*
X199257922Y-95789477D01*
X199257922Y-95932334D01*
X199210303Y-96027572D01*
X199162684Y-96075191D01*
X199067446Y-96122810D01*
X198686494Y-96122810D01*
X200210303Y-96599000D02*
X199638875Y-96599000D01*
X199924589Y-96599000D02*
X199924589Y-95599000D01*
X199829351Y-95741858D01*
X199734113Y-95837096D01*
X199638875Y-95884715D01*
X201067446Y-95599000D02*
X200876970Y-95599000D01*
X200781732Y-95646620D01*
X200734113Y-95694239D01*
X200638875Y-95837096D01*
X200591256Y-96027572D01*
X200591256Y-96408524D01*
X200638875Y-96503762D01*
X200686494Y-96551381D01*
X200781732Y-96599000D01*
X200972208Y-96599000D01*
X201067446Y-96551381D01*
X201115065Y-96503762D01*
X201162684Y-96408524D01*
X201162684Y-96170429D01*
X201115065Y-96075191D01*
X201067446Y-96027572D01*
X200972208Y-95979953D01*
X200781732Y-95979953D01*
X200686494Y-96027572D01*
X200638875Y-96075191D01*
X200591256Y-96170429D01*
X210033860Y-102400577D02*
X209557670Y-102733910D01*
X210033860Y-102972005D02*
X209033860Y-102972005D01*
X209033860Y-102591053D01*
X209081480Y-102495815D01*
X209129099Y-102448196D01*
X209224337Y-102400577D01*
X209367194Y-102400577D01*
X209462432Y-102448196D01*
X209510051Y-102495815D01*
X209557670Y-102591053D01*
X209557670Y-102972005D01*
X210033860Y-101448196D02*
X210033860Y-102019624D01*
X210033860Y-101733910D02*
X209033860Y-101733910D01*
X209176718Y-101829148D01*
X209271956Y-101924386D01*
X209319575Y-102019624D01*
X209129099Y-101067243D02*
X209081480Y-101019624D01*
X209033860Y-100924386D01*
X209033860Y-100686291D01*
X209081480Y-100591053D01*
X209129099Y-100543434D01*
X209224337Y-100495815D01*
X209319575Y-100495815D01*
X209462432Y-100543434D01*
X210033860Y-101114862D01*
X210033860Y-100495815D01*
X200538340Y-113434097D02*
X200062150Y-113767430D01*
X200538340Y-114005525D02*
X199538340Y-114005525D01*
X199538340Y-113624573D01*
X199585960Y-113529335D01*
X199633579Y-113481716D01*
X199728817Y-113434097D01*
X199871674Y-113434097D01*
X199966912Y-113481716D01*
X200014531Y-113529335D01*
X200062150Y-113624573D01*
X200062150Y-114005525D01*
X200538340Y-112481716D02*
X200538340Y-113053144D01*
X200538340Y-112767430D02*
X199538340Y-112767430D01*
X199681198Y-112862668D01*
X199776436Y-112957906D01*
X199824055Y-113053144D01*
X199538340Y-111576954D02*
X199538340Y-112053144D01*
X200014531Y-112100763D01*
X199966912Y-112053144D01*
X199919293Y-111957906D01*
X199919293Y-111719811D01*
X199966912Y-111624573D01*
X200014531Y-111576954D01*
X200109769Y-111529335D01*
X200347864Y-111529335D01*
X200443102Y-111576954D01*
X200490721Y-111624573D01*
X200538340Y-111719811D01*
X200538340Y-111957906D01*
X200490721Y-112053144D01*
X200443102Y-112100763D01*
X202107579Y-116000478D02*
X202059960Y-116095716D01*
X201964721Y-116190954D01*
X201821864Y-116333811D01*
X201774245Y-116429049D01*
X201774245Y-116524287D01*
X202012340Y-116476668D02*
X201964721Y-116571906D01*
X201869483Y-116667144D01*
X201679007Y-116714763D01*
X201345674Y-116714763D01*
X201155198Y-116667144D01*
X201059960Y-116571906D01*
X201012340Y-116476668D01*
X201012340Y-116286192D01*
X201059960Y-116190954D01*
X201155198Y-116095716D01*
X201345674Y-116048097D01*
X201679007Y-116048097D01*
X201869483Y-116095716D01*
X201964721Y-116190954D01*
X202012340Y-116286192D01*
X202012340Y-116476668D01*
X201012340Y-115714763D02*
X201012340Y-115095716D01*
X201393293Y-115429049D01*
X201393293Y-115286192D01*
X201440912Y-115190954D01*
X201488531Y-115143335D01*
X201583769Y-115095716D01*
X201821864Y-115095716D01*
X201917102Y-115143335D01*
X201964721Y-115190954D01*
X202012340Y-115286192D01*
X202012340Y-115571906D01*
X201964721Y-115667144D01*
X201917102Y-115714763D01*
X206252340Y-98780597D02*
X205776150Y-99113930D01*
X206252340Y-99352025D02*
X205252340Y-99352025D01*
X205252340Y-98971073D01*
X205299960Y-98875835D01*
X205347579Y-98828216D01*
X205442817Y-98780597D01*
X205585674Y-98780597D01*
X205680912Y-98828216D01*
X205728531Y-98875835D01*
X205776150Y-98971073D01*
X205776150Y-99352025D01*
X206252340Y-97828216D02*
X206252340Y-98399644D01*
X206252340Y-98113930D02*
X205252340Y-98113930D01*
X205395198Y-98209168D01*
X205490436Y-98304406D01*
X205538055Y-98399644D01*
X205252340Y-97494882D02*
X205252340Y-96875835D01*
X205633293Y-97209168D01*
X205633293Y-97066311D01*
X205680912Y-96971073D01*
X205728531Y-96923454D01*
X205823769Y-96875835D01*
X206061864Y-96875835D01*
X206157102Y-96923454D01*
X206204721Y-96971073D01*
X206252340Y-97066311D01*
X206252340Y-97352025D01*
X206204721Y-97447263D01*
X206157102Y-97494882D01*
X203175860Y-111798577D02*
X202699670Y-112131910D01*
X203175860Y-112370005D02*
X202175860Y-112370005D01*
X202175860Y-111989053D01*
X202223480Y-111893815D01*
X202271099Y-111846196D01*
X202366337Y-111798577D01*
X202509194Y-111798577D01*
X202604432Y-111846196D01*
X202652051Y-111893815D01*
X202699670Y-111989053D01*
X202699670Y-112370005D01*
X203175860Y-110846196D02*
X203175860Y-111417624D01*
X203175860Y-111131910D02*
X202175860Y-111131910D01*
X202318718Y-111227148D01*
X202413956Y-111322386D01*
X202461575Y-111417624D01*
X202509194Y-109989053D02*
X203175860Y-109989053D01*
X202128241Y-110227148D02*
X202842527Y-110465243D01*
X202842527Y-109846196D01*
X199334122Y-103557600D02*
X199000789Y-103081410D01*
X198762694Y-103557600D02*
X198762694Y-102557600D01*
X199143646Y-102557600D01*
X199238884Y-102605220D01*
X199286503Y-102652839D01*
X199334122Y-102748077D01*
X199334122Y-102890934D01*
X199286503Y-102986172D01*
X199238884Y-103033791D01*
X199143646Y-103081410D01*
X198762694Y-103081410D01*
X200286503Y-103557600D02*
X199715075Y-103557600D01*
X200000789Y-103557600D02*
X200000789Y-102557600D01*
X199905551Y-102700458D01*
X199810313Y-102795696D01*
X199715075Y-102843315D01*
X200619837Y-102557600D02*
X201286503Y-102557600D01*
X200857932Y-103557600D01*
X203304340Y-108465144D02*
X203304340Y-107893716D01*
X204304340Y-108179430D02*
X203304340Y-108179430D01*
X204304340Y-107560382D02*
X203304340Y-107560382D01*
X203304340Y-107179430D01*
X203351960Y-107084192D01*
X203399579Y-107036573D01*
X203494817Y-106988954D01*
X203637674Y-106988954D01*
X203732912Y-107036573D01*
X203780531Y-107084192D01*
X203828150Y-107179430D01*
X203828150Y-107560382D01*
X203304340Y-106655620D02*
X203304340Y-105988954D01*
X204304340Y-106417525D01*
X225667440Y-128325073D02*
X226381726Y-128325073D01*
X226524583Y-128372692D01*
X226619821Y-128467930D01*
X226667440Y-128610787D01*
X226667440Y-128706025D01*
X225667440Y-127372692D02*
X225667440Y-127848882D01*
X226143631Y-127896501D01*
X226096012Y-127848882D01*
X226048393Y-127753644D01*
X226048393Y-127515549D01*
X226096012Y-127420311D01*
X226143631Y-127372692D01*
X226238869Y-127325073D01*
X226476964Y-127325073D01*
X226572202Y-127372692D01*
X226619821Y-127420311D01*
X226667440Y-127515549D01*
X226667440Y-127753644D01*
X226619821Y-127848882D01*
X226572202Y-127896501D01*
D19*
X224221550Y-57066547D02*
X224221550Y-56780833D01*
X224721550Y-56923690D02*
X224221550Y-56923690D01*
X224721550Y-56614166D02*
X224221550Y-56614166D01*
X224221550Y-56423690D01*
X224245360Y-56376071D01*
X224269169Y-56352261D01*
X224316788Y-56328452D01*
X224388217Y-56328452D01*
X224435836Y-56352261D01*
X224459645Y-56376071D01*
X224483455Y-56423690D01*
X224483455Y-56614166D01*
X224721550Y-55852261D02*
X224721550Y-56137976D01*
X224721550Y-55995119D02*
X224221550Y-55995119D01*
X224292979Y-56042738D01*
X224340598Y-56090357D01*
X224364407Y-56137976D01*
X224221550Y-55542738D02*
X224221550Y-55495119D01*
X224245360Y-55447500D01*
X224269169Y-55423690D01*
X224316788Y-55399880D01*
X224412026Y-55376071D01*
X224531074Y-55376071D01*
X224626312Y-55399880D01*
X224673931Y-55423690D01*
X224697740Y-55447500D01*
X224721550Y-55495119D01*
X224721550Y-55542738D01*
X224697740Y-55590357D01*
X224673931Y-55614166D01*
X224626312Y-55637976D01*
X224531074Y-55661785D01*
X224412026Y-55661785D01*
X224316788Y-55637976D01*
X224269169Y-55614166D01*
X224245360Y-55590357D01*
X224221550Y-55542738D01*
D10*
X201267320Y-42042317D02*
X200791130Y-42375650D01*
X201267320Y-42613745D02*
X200267320Y-42613745D01*
X200267320Y-42232793D01*
X200314940Y-42137555D01*
X200362559Y-42089936D01*
X200457797Y-42042317D01*
X200600654Y-42042317D01*
X200695892Y-42089936D01*
X200743511Y-42137555D01*
X200791130Y-42232793D01*
X200791130Y-42613745D01*
X200362559Y-41661364D02*
X200314940Y-41613745D01*
X200267320Y-41518507D01*
X200267320Y-41280412D01*
X200314940Y-41185174D01*
X200362559Y-41137555D01*
X200457797Y-41089936D01*
X200553035Y-41089936D01*
X200695892Y-41137555D01*
X201267320Y-41708983D01*
X201267320Y-41089936D01*
X200267320Y-40756602D02*
X200267320Y-40137555D01*
X200648273Y-40470888D01*
X200648273Y-40328031D01*
X200695892Y-40232793D01*
X200743511Y-40185174D01*
X200838749Y-40137555D01*
X201076844Y-40137555D01*
X201172082Y-40185174D01*
X201219701Y-40232793D01*
X201267320Y-40328031D01*
X201267320Y-40613745D01*
X201219701Y-40708983D01*
X201172082Y-40756602D01*
X186168302Y-99923837D02*
X186215921Y-99971456D01*
X186263540Y-100114313D01*
X186263540Y-100209551D01*
X186215921Y-100352408D01*
X186120683Y-100447646D01*
X186025445Y-100495265D01*
X185834969Y-100542884D01*
X185692112Y-100542884D01*
X185501636Y-100495265D01*
X185406398Y-100447646D01*
X185311160Y-100352408D01*
X185263540Y-100209551D01*
X185263540Y-100114313D01*
X185311160Y-99971456D01*
X185358779Y-99923837D01*
X186263540Y-98971456D02*
X186263540Y-99542884D01*
X186263540Y-99257170D02*
X185263540Y-99257170D01*
X185406398Y-99352408D01*
X185501636Y-99447646D01*
X185549255Y-99542884D01*
X185263540Y-98066694D02*
X185263540Y-98542884D01*
X185739731Y-98590503D01*
X185692112Y-98542884D01*
X185644493Y-98447646D01*
X185644493Y-98209551D01*
X185692112Y-98114313D01*
X185739731Y-98066694D01*
X185834969Y-98019075D01*
X186073064Y-98019075D01*
X186168302Y-98066694D01*
X186215921Y-98114313D01*
X186263540Y-98209551D01*
X186263540Y-98447646D01*
X186215921Y-98542884D01*
X186168302Y-98590503D01*
X193753502Y-93611960D02*
X193420169Y-93135770D01*
X193182074Y-93611960D02*
X193182074Y-92611960D01*
X193563026Y-92611960D01*
X193658264Y-92659580D01*
X193705883Y-92707199D01*
X193753502Y-92802437D01*
X193753502Y-92945294D01*
X193705883Y-93040532D01*
X193658264Y-93088151D01*
X193563026Y-93135770D01*
X193182074Y-93135770D01*
X194134455Y-92707199D02*
X194182074Y-92659580D01*
X194277312Y-92611960D01*
X194515407Y-92611960D01*
X194610645Y-92659580D01*
X194658264Y-92707199D01*
X194705883Y-92802437D01*
X194705883Y-92897675D01*
X194658264Y-93040532D01*
X194086836Y-93611960D01*
X194705883Y-93611960D01*
X195039217Y-92611960D02*
X195705883Y-92611960D01*
X195277312Y-93611960D01*
X182712902Y-99087937D02*
X182760521Y-99135556D01*
X182808140Y-99278413D01*
X182808140Y-99373651D01*
X182760521Y-99516508D01*
X182665283Y-99611746D01*
X182570045Y-99659365D01*
X182379569Y-99706984D01*
X182236712Y-99706984D01*
X182046236Y-99659365D01*
X181950998Y-99611746D01*
X181855760Y-99516508D01*
X181808140Y-99373651D01*
X181808140Y-99278413D01*
X181855760Y-99135556D01*
X181903379Y-99087937D01*
X182808140Y-98135556D02*
X182808140Y-98706984D01*
X182808140Y-98421270D02*
X181808140Y-98421270D01*
X181950998Y-98516508D01*
X182046236Y-98611746D01*
X182093855Y-98706984D01*
X181808140Y-97802222D02*
X181808140Y-97135556D01*
X182808140Y-97564127D01*
X194697340Y-96340137D02*
X194221150Y-96673470D01*
X194697340Y-96911565D02*
X193697340Y-96911565D01*
X193697340Y-96530613D01*
X193744960Y-96435375D01*
X193792579Y-96387756D01*
X193887817Y-96340137D01*
X194030674Y-96340137D01*
X194125912Y-96387756D01*
X194173531Y-96435375D01*
X194221150Y-96530613D01*
X194221150Y-96911565D01*
X193792579Y-95959184D02*
X193744960Y-95911565D01*
X193697340Y-95816327D01*
X193697340Y-95578232D01*
X193744960Y-95482994D01*
X193792579Y-95435375D01*
X193887817Y-95387756D01*
X193983055Y-95387756D01*
X194125912Y-95435375D01*
X194697340Y-96006803D01*
X194697340Y-95387756D01*
X194125912Y-94816327D02*
X194078293Y-94911565D01*
X194030674Y-94959184D01*
X193935436Y-95006803D01*
X193887817Y-95006803D01*
X193792579Y-94959184D01*
X193744960Y-94911565D01*
X193697340Y-94816327D01*
X193697340Y-94625851D01*
X193744960Y-94530613D01*
X193792579Y-94482994D01*
X193887817Y-94435375D01*
X193935436Y-94435375D01*
X194030674Y-94482994D01*
X194078293Y-94530613D01*
X194125912Y-94625851D01*
X194125912Y-94816327D01*
X194173531Y-94911565D01*
X194221150Y-94959184D01*
X194316388Y-95006803D01*
X194506864Y-95006803D01*
X194602102Y-94959184D01*
X194649721Y-94911565D01*
X194697340Y-94816327D01*
X194697340Y-94625851D01*
X194649721Y-94530613D01*
X194602102Y-94482994D01*
X194506864Y-94435375D01*
X194316388Y-94435375D01*
X194221150Y-94482994D01*
X194173531Y-94530613D01*
X194125912Y-94625851D01*
X178842540Y-108985513D02*
X179556826Y-108985513D01*
X179699683Y-109033132D01*
X179794921Y-109128370D01*
X179842540Y-109271227D01*
X179842540Y-109366465D01*
X178842540Y-108604560D02*
X178842540Y-107937894D01*
X179842540Y-108366465D01*
X188643256Y-91809561D02*
X188643256Y-92619085D01*
X188690875Y-92714323D01*
X188738494Y-92761942D01*
X188833732Y-92809561D01*
X189024208Y-92809561D01*
X189119446Y-92761942D01*
X189167065Y-92714323D01*
X189214684Y-92619085D01*
X189214684Y-91809561D01*
X189833732Y-92238133D02*
X189738494Y-92190514D01*
X189690875Y-92142895D01*
X189643256Y-92047657D01*
X189643256Y-92000038D01*
X189690875Y-91904800D01*
X189738494Y-91857181D01*
X189833732Y-91809561D01*
X190024208Y-91809561D01*
X190119446Y-91857181D01*
X190167065Y-91904800D01*
X190214684Y-92000038D01*
X190214684Y-92047657D01*
X190167065Y-92142895D01*
X190119446Y-92190514D01*
X190024208Y-92238133D01*
X189833732Y-92238133D01*
X189738494Y-92285752D01*
X189690875Y-92333371D01*
X189643256Y-92428609D01*
X189643256Y-92619085D01*
X189690875Y-92714323D01*
X189738494Y-92761942D01*
X189833732Y-92809561D01*
X190024208Y-92809561D01*
X190119446Y-92761942D01*
X190167065Y-92714323D01*
X190214684Y-92619085D01*
X190214684Y-92428609D01*
X190167065Y-92333371D01*
X190119446Y-92285752D01*
X190024208Y-92238133D01*
X223886804Y-107886760D02*
X223886804Y-106886760D01*
X224124900Y-106886760D01*
X224267757Y-106934380D01*
X224362995Y-107029618D01*
X224410614Y-107124856D01*
X224458233Y-107315332D01*
X224458233Y-107458189D01*
X224410614Y-107648665D01*
X224362995Y-107743903D01*
X224267757Y-107839141D01*
X224124900Y-107886760D01*
X223886804Y-107886760D01*
X225410614Y-107886760D02*
X224839185Y-107886760D01*
X225124900Y-107886760D02*
X225124900Y-106886760D01*
X225029661Y-107029618D01*
X224934423Y-107124856D01*
X224839185Y-107172475D01*
X220800633Y-112109522D02*
X220753014Y-112157141D01*
X220610157Y-112204760D01*
X220514919Y-112204760D01*
X220372061Y-112157141D01*
X220276823Y-112061903D01*
X220229204Y-111966665D01*
X220181585Y-111776189D01*
X220181585Y-111633332D01*
X220229204Y-111442856D01*
X220276823Y-111347618D01*
X220372061Y-111252380D01*
X220514919Y-111204760D01*
X220610157Y-111204760D01*
X220753014Y-111252380D01*
X220800633Y-111299999D01*
X221657776Y-111538094D02*
X221657776Y-112204760D01*
X221419680Y-111157141D02*
X221181585Y-111871427D01*
X221800633Y-111871427D01*
X213357462Y-142795526D02*
X213405081Y-142843145D01*
X213452700Y-142986002D01*
X213452700Y-143081240D01*
X213405081Y-143224098D01*
X213309843Y-143319336D01*
X213214605Y-143366955D01*
X213024129Y-143414574D01*
X212881272Y-143414574D01*
X212690796Y-143366955D01*
X212595558Y-143319336D01*
X212500320Y-143224098D01*
X212452700Y-143081240D01*
X212452700Y-142986002D01*
X212500320Y-142843145D01*
X212547939Y-142795526D01*
X212452700Y-141938383D02*
X212452700Y-142128860D01*
X212500320Y-142224098D01*
X212547939Y-142271717D01*
X212690796Y-142366955D01*
X212881272Y-142414574D01*
X213262224Y-142414574D01*
X213357462Y-142366955D01*
X213405081Y-142319336D01*
X213452700Y-142224098D01*
X213452700Y-142033621D01*
X213405081Y-141938383D01*
X213357462Y-141890764D01*
X213262224Y-141843145D01*
X213024129Y-141843145D01*
X212928891Y-141890764D01*
X212881272Y-141938383D01*
X212833653Y-142033621D01*
X212833653Y-142224098D01*
X212881272Y-142319336D01*
X212928891Y-142366955D01*
X213024129Y-142414574D01*
X222180422Y-133582706D02*
X222228041Y-133630325D01*
X222275660Y-133773182D01*
X222275660Y-133868420D01*
X222228041Y-134011278D01*
X222132803Y-134106516D01*
X222037565Y-134154135D01*
X221847089Y-134201754D01*
X221704232Y-134201754D01*
X221513756Y-134154135D01*
X221418518Y-134106516D01*
X221323280Y-134011278D01*
X221275660Y-133868420D01*
X221275660Y-133773182D01*
X221323280Y-133630325D01*
X221370899Y-133582706D01*
X221275660Y-132677944D02*
X221275660Y-133154135D01*
X221751851Y-133201754D01*
X221704232Y-133154135D01*
X221656613Y-133058897D01*
X221656613Y-132820801D01*
X221704232Y-132725563D01*
X221751851Y-132677944D01*
X221847089Y-132630325D01*
X222085184Y-132630325D01*
X222180422Y-132677944D01*
X222228041Y-132725563D01*
X222275660Y-132820801D01*
X222275660Y-133058897D01*
X222228041Y-133154135D01*
X222180422Y-133201754D01*
X213965540Y-48818609D02*
X213965540Y-48628133D01*
X214013160Y-48532895D01*
X214108398Y-48437657D01*
X214298874Y-48390038D01*
X214632207Y-48390038D01*
X214822683Y-48437657D01*
X214917921Y-48532895D01*
X214965540Y-48628133D01*
X214965540Y-48818609D01*
X214917921Y-48913847D01*
X214822683Y-49009085D01*
X214632207Y-49056704D01*
X214298874Y-49056704D01*
X214108398Y-49009085D01*
X214013160Y-48913847D01*
X213965540Y-48818609D01*
X213965540Y-48104323D02*
X214965540Y-47770990D01*
X213965540Y-47437657D01*
X214965540Y-46961466D02*
X214917921Y-47056704D01*
X214870302Y-47104323D01*
X214775064Y-47151942D01*
X214489350Y-47151942D01*
X214394112Y-47104323D01*
X214346493Y-47056704D01*
X214298874Y-46961466D01*
X214298874Y-46818609D01*
X214346493Y-46723371D01*
X214394112Y-46675752D01*
X214489350Y-46628133D01*
X214775064Y-46628133D01*
X214870302Y-46675752D01*
X214917921Y-46723371D01*
X214965540Y-46818609D01*
X214965540Y-46961466D01*
X214965540Y-46056704D02*
X214917921Y-46151942D01*
X214822683Y-46199561D01*
X213965540Y-46199561D01*
X214298874Y-45818609D02*
X214298874Y-45437657D01*
X213965540Y-45675752D02*
X214822683Y-45675752D01*
X214917921Y-45628133D01*
X214965540Y-45532895D01*
X214965540Y-45437657D01*
X207257400Y-49232249D02*
X207257400Y-49041773D01*
X207305020Y-48946535D01*
X207400258Y-48851297D01*
X207590734Y-48803678D01*
X207924067Y-48803678D01*
X208114543Y-48851297D01*
X208209781Y-48946535D01*
X208257400Y-49041773D01*
X208257400Y-49232249D01*
X208209781Y-49327487D01*
X208114543Y-49422725D01*
X207924067Y-49470344D01*
X207590734Y-49470344D01*
X207400258Y-49422725D01*
X207305020Y-49327487D01*
X207257400Y-49232249D01*
X207257400Y-48517963D02*
X207257400Y-47946535D01*
X208257400Y-48232249D02*
X207257400Y-48232249D01*
X208209781Y-47232249D02*
X208257400Y-47327487D01*
X208257400Y-47517963D01*
X208209781Y-47613201D01*
X208114543Y-47660820D01*
X207733591Y-47660820D01*
X207638353Y-47613201D01*
X207590734Y-47517963D01*
X207590734Y-47327487D01*
X207638353Y-47232249D01*
X207733591Y-47184630D01*
X207828829Y-47184630D01*
X207924067Y-47660820D01*
X208257400Y-46756059D02*
X207590734Y-46756059D01*
X207685972Y-46756059D02*
X207638353Y-46708440D01*
X207590734Y-46613201D01*
X207590734Y-46470344D01*
X207638353Y-46375106D01*
X207733591Y-46327487D01*
X208257400Y-46327487D01*
X207733591Y-46327487D02*
X207638353Y-46279868D01*
X207590734Y-46184630D01*
X207590734Y-46041773D01*
X207638353Y-45946535D01*
X207733591Y-45898916D01*
X208257400Y-45898916D01*
X207590734Y-45422725D02*
X208590734Y-45422725D01*
X207638353Y-45422725D02*
X207590734Y-45327487D01*
X207590734Y-45137011D01*
X207638353Y-45041773D01*
X207685972Y-44994154D01*
X207781210Y-44946535D01*
X208066924Y-44946535D01*
X208162162Y-44994154D01*
X208209781Y-45041773D01*
X208257400Y-45137011D01*
X208257400Y-45327487D01*
X208209781Y-45422725D01*
X203968100Y-48969086D02*
X203968100Y-48778610D01*
X204015720Y-48683372D01*
X204110958Y-48588134D01*
X204301434Y-48540515D01*
X204634767Y-48540515D01*
X204825243Y-48588134D01*
X204920481Y-48683372D01*
X204968100Y-48778610D01*
X204968100Y-48969086D01*
X204920481Y-49064324D01*
X204825243Y-49159562D01*
X204634767Y-49207181D01*
X204301434Y-49207181D01*
X204110958Y-49159562D01*
X204015720Y-49064324D01*
X203968100Y-48969086D01*
X204872862Y-47540515D02*
X204920481Y-47588134D01*
X204968100Y-47730991D01*
X204968100Y-47826229D01*
X204920481Y-47969086D01*
X204825243Y-48064324D01*
X204730005Y-48111943D01*
X204539529Y-48159562D01*
X204396672Y-48159562D01*
X204206196Y-48111943D01*
X204110958Y-48064324D01*
X204015720Y-47969086D01*
X203968100Y-47826229D01*
X203968100Y-47730991D01*
X204015720Y-47588134D01*
X204063339Y-47540515D01*
X204301434Y-46683372D02*
X204968100Y-46683372D01*
X204301434Y-47111943D02*
X204825243Y-47111943D01*
X204920481Y-47064324D01*
X204968100Y-46969086D01*
X204968100Y-46826229D01*
X204920481Y-46730991D01*
X204872862Y-46683372D01*
X204968100Y-46207181D02*
X204301434Y-46207181D01*
X204491910Y-46207181D02*
X204396672Y-46159562D01*
X204349053Y-46111943D01*
X204301434Y-46016705D01*
X204301434Y-45921467D01*
X204968100Y-45588134D02*
X204301434Y-45588134D01*
X204491910Y-45588134D02*
X204396672Y-45540515D01*
X204349053Y-45492896D01*
X204301434Y-45397658D01*
X204301434Y-45302420D01*
X211666080Y-50600012D02*
X210666080Y-50600012D01*
X211142271Y-50600012D02*
X211142271Y-50028583D01*
X211666080Y-50028583D02*
X210666080Y-50028583D01*
X211618461Y-49171440D02*
X211666080Y-49266679D01*
X211666080Y-49457155D01*
X211618461Y-49552393D01*
X211523223Y-49600012D01*
X211142271Y-49600012D01*
X211047033Y-49552393D01*
X210999414Y-49457155D01*
X210999414Y-49266679D01*
X211047033Y-49171440D01*
X211142271Y-49123821D01*
X211237509Y-49123821D01*
X211332747Y-49600012D01*
X211666080Y-48266679D02*
X211142271Y-48266679D01*
X211047033Y-48314298D01*
X210999414Y-48409536D01*
X210999414Y-48600012D01*
X211047033Y-48695250D01*
X211618461Y-48266679D02*
X211666080Y-48361917D01*
X211666080Y-48600012D01*
X211618461Y-48695250D01*
X211523223Y-48742869D01*
X211427985Y-48742869D01*
X211332747Y-48695250D01*
X211285128Y-48600012D01*
X211285128Y-48361917D01*
X211237509Y-48266679D01*
X211666080Y-47790488D02*
X210999414Y-47790488D01*
X211189890Y-47790488D02*
X211094652Y-47742869D01*
X211047033Y-47695250D01*
X210999414Y-47600012D01*
X210999414Y-47504774D01*
X210999414Y-47314298D02*
X210999414Y-46933345D01*
X210666080Y-47171440D02*
X211523223Y-47171440D01*
X211618461Y-47123821D01*
X211666080Y-47028583D01*
X211666080Y-46933345D01*
X211666080Y-46600012D02*
X210666080Y-46600012D01*
X211047033Y-46600012D02*
X210999414Y-46504774D01*
X210999414Y-46314298D01*
X211047033Y-46219060D01*
X211094652Y-46171440D01*
X211189890Y-46123821D01*
X211475604Y-46123821D01*
X211570842Y-46171440D01*
X211618461Y-46219060D01*
X211666080Y-46314298D01*
X211666080Y-46504774D01*
X211618461Y-46600012D01*
X211618461Y-45314298D02*
X211666080Y-45409536D01*
X211666080Y-45600012D01*
X211618461Y-45695250D01*
X211523223Y-45742869D01*
X211142271Y-45742869D01*
X211047033Y-45695250D01*
X210999414Y-45600012D01*
X210999414Y-45409536D01*
X211047033Y-45314298D01*
X211142271Y-45266679D01*
X211237509Y-45266679D01*
X211332747Y-45742869D01*
X211666080Y-44409536D02*
X211142271Y-44409536D01*
X211047033Y-44457155D01*
X210999414Y-44552393D01*
X210999414Y-44742869D01*
X211047033Y-44838107D01*
X211618461Y-44409536D02*
X211666080Y-44504774D01*
X211666080Y-44742869D01*
X211618461Y-44838107D01*
X211523223Y-44885726D01*
X211427985Y-44885726D01*
X211332747Y-44838107D01*
X211285128Y-44742869D01*
X211285128Y-44504774D01*
X211237509Y-44409536D01*
X210999414Y-44076202D02*
X210999414Y-43695250D01*
X210666080Y-43933345D02*
X211523223Y-43933345D01*
X211618461Y-43885726D01*
X211666080Y-43790488D01*
X211666080Y-43695250D01*
X197931042Y-76715377D02*
X197978661Y-76762996D01*
X198026280Y-76905853D01*
X198026280Y-77001091D01*
X197978661Y-77143948D01*
X197883423Y-77239186D01*
X197788185Y-77286805D01*
X197597709Y-77334424D01*
X197454852Y-77334424D01*
X197264376Y-77286805D01*
X197169138Y-77239186D01*
X197073900Y-77143948D01*
X197026280Y-77001091D01*
X197026280Y-76905853D01*
X197073900Y-76762996D01*
X197121519Y-76715377D01*
X197026280Y-76382043D02*
X197026280Y-75762996D01*
X197407233Y-76096329D01*
X197407233Y-75953472D01*
X197454852Y-75858234D01*
X197502471Y-75810615D01*
X197597709Y-75762996D01*
X197835804Y-75762996D01*
X197931042Y-75810615D01*
X197978661Y-75858234D01*
X198026280Y-75953472D01*
X198026280Y-76239186D01*
X197978661Y-76334424D01*
X197931042Y-76382043D01*
X197026280Y-74858234D02*
X197026280Y-75334424D01*
X197502471Y-75382043D01*
X197454852Y-75334424D01*
X197407233Y-75239186D01*
X197407233Y-75001091D01*
X197454852Y-74905853D01*
X197502471Y-74858234D01*
X197597709Y-74810615D01*
X197835804Y-74810615D01*
X197931042Y-74858234D01*
X197978661Y-74905853D01*
X198026280Y-75001091D01*
X198026280Y-75239186D01*
X197978661Y-75334424D01*
X197931042Y-75382043D01*
X200208900Y-50051624D02*
X201208900Y-49813529D01*
X200494615Y-49623053D01*
X201208900Y-49432577D01*
X200208900Y-49194481D01*
X201208900Y-48813529D02*
X200208900Y-48813529D01*
X200208900Y-48575434D01*
X200256520Y-48432577D01*
X200351758Y-48337339D01*
X200446996Y-48289720D01*
X200637472Y-48242100D01*
X200780329Y-48242100D01*
X200970805Y-48289720D01*
X201066043Y-48337339D01*
X201161281Y-48432577D01*
X201208900Y-48575434D01*
X201208900Y-48813529D01*
X200685091Y-47813529D02*
X200685091Y-47480196D01*
X201208900Y-47337339D02*
X201208900Y-47813529D01*
X200208900Y-47813529D01*
X200208900Y-47337339D01*
X201208900Y-46908767D02*
X200542234Y-46908767D01*
X200732710Y-46908767D02*
X200637472Y-46861148D01*
X200589853Y-46813529D01*
X200542234Y-46718291D01*
X200542234Y-46623053D01*
X201208900Y-46289720D02*
X200542234Y-46289720D01*
X200732710Y-46289720D02*
X200637472Y-46242100D01*
X200589853Y-46194481D01*
X200542234Y-46099243D01*
X200542234Y-46004005D01*
X201208900Y-45527815D02*
X201161281Y-45623053D01*
X201113662Y-45670672D01*
X201018424Y-45718291D01*
X200732710Y-45718291D01*
X200637472Y-45670672D01*
X200589853Y-45623053D01*
X200542234Y-45527815D01*
X200542234Y-45384958D01*
X200589853Y-45289720D01*
X200637472Y-45242100D01*
X200732710Y-45194481D01*
X201018424Y-45194481D01*
X201113662Y-45242100D01*
X201161281Y-45289720D01*
X201208900Y-45384958D01*
X201208900Y-45527815D01*
X201208900Y-44765910D02*
X200542234Y-44765910D01*
X200732710Y-44765910D02*
X200637472Y-44718291D01*
X200589853Y-44670672D01*
X200542234Y-44575434D01*
X200542234Y-44480196D01*
X197829442Y-49754331D02*
X197877061Y-49801950D01*
X197924680Y-49944807D01*
X197924680Y-50040045D01*
X197877061Y-50182902D01*
X197781823Y-50278140D01*
X197686585Y-50325760D01*
X197496109Y-50373379D01*
X197353252Y-50373379D01*
X197162776Y-50325760D01*
X197067538Y-50278140D01*
X196972300Y-50182902D01*
X196924680Y-50040045D01*
X196924680Y-49944807D01*
X196972300Y-49801950D01*
X197019919Y-49754331D01*
X197924680Y-48897188D02*
X197400871Y-48897188D01*
X197305633Y-48944807D01*
X197258014Y-49040045D01*
X197258014Y-49230521D01*
X197305633Y-49325760D01*
X197877061Y-48897188D02*
X197924680Y-48992426D01*
X197924680Y-49230521D01*
X197877061Y-49325760D01*
X197781823Y-49373379D01*
X197686585Y-49373379D01*
X197591347Y-49325760D01*
X197543728Y-49230521D01*
X197543728Y-48992426D01*
X197496109Y-48897188D01*
X197258014Y-48420998D02*
X197924680Y-48420998D01*
X197353252Y-48420998D02*
X197305633Y-48373379D01*
X197258014Y-48278140D01*
X197258014Y-48135283D01*
X197305633Y-48040045D01*
X197400871Y-47992426D01*
X197924680Y-47992426D01*
X197400871Y-47516236D02*
X197400871Y-47182902D01*
X197924680Y-47040045D02*
X197924680Y-47516236D01*
X196924680Y-47516236D01*
X196924680Y-47040045D01*
X197924680Y-46611474D02*
X197258014Y-46611474D01*
X197448490Y-46611474D02*
X197353252Y-46563855D01*
X197305633Y-46516236D01*
X197258014Y-46420998D01*
X197258014Y-46325760D01*
X197924680Y-45992426D02*
X197258014Y-45992426D01*
X197448490Y-45992426D02*
X197353252Y-45944807D01*
X197305633Y-45897188D01*
X197258014Y-45801950D01*
X197258014Y-45706712D01*
X197924680Y-45230521D02*
X197877061Y-45325760D01*
X197829442Y-45373379D01*
X197734204Y-45420998D01*
X197448490Y-45420998D01*
X197353252Y-45373379D01*
X197305633Y-45325760D01*
X197258014Y-45230521D01*
X197258014Y-45087664D01*
X197305633Y-44992426D01*
X197353252Y-44944807D01*
X197448490Y-44897188D01*
X197734204Y-44897188D01*
X197829442Y-44944807D01*
X197877061Y-44992426D01*
X197924680Y-45087664D01*
X197924680Y-45230521D01*
X197924680Y-44468617D02*
X197258014Y-44468617D01*
X197448490Y-44468617D02*
X197353252Y-44420998D01*
X197305633Y-44373379D01*
X197258014Y-44278140D01*
X197258014Y-44182902D01*
X206437004Y-137183120D02*
X206437004Y-136183120D01*
X206675100Y-136183120D01*
X206817957Y-136230740D01*
X206913195Y-136325978D01*
X206960814Y-136421216D01*
X207008433Y-136611692D01*
X207008433Y-136754549D01*
X206960814Y-136945025D01*
X206913195Y-137040263D01*
X206817957Y-137135501D01*
X206675100Y-137183120D01*
X206437004Y-137183120D01*
X207341766Y-136183120D02*
X207960814Y-136183120D01*
X207627480Y-136564073D01*
X207770338Y-136564073D01*
X207865576Y-136611692D01*
X207913195Y-136659311D01*
X207960814Y-136754549D01*
X207960814Y-136992644D01*
X207913195Y-137087882D01*
X207865576Y-137135501D01*
X207770338Y-137183120D01*
X207484623Y-137183120D01*
X207389385Y-137135501D01*
X207341766Y-137087882D01*
X186908442Y-76454477D02*
X186956061Y-76502096D01*
X187003680Y-76644953D01*
X187003680Y-76740191D01*
X186956061Y-76883048D01*
X186860823Y-76978286D01*
X186765585Y-77025905D01*
X186575109Y-77073524D01*
X186432252Y-77073524D01*
X186241776Y-77025905D01*
X186146538Y-76978286D01*
X186051300Y-76883048D01*
X186003680Y-76740191D01*
X186003680Y-76644953D01*
X186051300Y-76502096D01*
X186098919Y-76454477D01*
X186003680Y-76121143D02*
X186003680Y-75502096D01*
X186384633Y-75835429D01*
X186384633Y-75692572D01*
X186432252Y-75597334D01*
X186479871Y-75549715D01*
X186575109Y-75502096D01*
X186813204Y-75502096D01*
X186908442Y-75549715D01*
X186956061Y-75597334D01*
X187003680Y-75692572D01*
X187003680Y-75978286D01*
X186956061Y-76073524D01*
X186908442Y-76121143D01*
X186337014Y-74644953D02*
X187003680Y-74644953D01*
X185956061Y-74883048D02*
X186670347Y-75121143D01*
X186670347Y-74502096D01*
X222400904Y-85802460D02*
X222400904Y-84802460D01*
X222639000Y-84802460D01*
X222781857Y-84850080D01*
X222877095Y-84945318D01*
X222924714Y-85040556D01*
X222972333Y-85231032D01*
X222972333Y-85373889D01*
X222924714Y-85564365D01*
X222877095Y-85659603D01*
X222781857Y-85754841D01*
X222639000Y-85802460D01*
X222400904Y-85802460D01*
X223353285Y-84897699D02*
X223400904Y-84850080D01*
X223496142Y-84802460D01*
X223734238Y-84802460D01*
X223829476Y-84850080D01*
X223877095Y-84897699D01*
X223924714Y-84992937D01*
X223924714Y-85088175D01*
X223877095Y-85231032D01*
X223305666Y-85802460D01*
X223924714Y-85802460D01*
X191174642Y-76736177D02*
X191222261Y-76783796D01*
X191269880Y-76926653D01*
X191269880Y-77021891D01*
X191222261Y-77164748D01*
X191127023Y-77259986D01*
X191031785Y-77307605D01*
X190841309Y-77355224D01*
X190698452Y-77355224D01*
X190507976Y-77307605D01*
X190412738Y-77259986D01*
X190317500Y-77164748D01*
X190269880Y-77021891D01*
X190269880Y-76926653D01*
X190317500Y-76783796D01*
X190365119Y-76736177D01*
X190269880Y-76402843D02*
X190269880Y-75783796D01*
X190650833Y-76117129D01*
X190650833Y-75974272D01*
X190698452Y-75879034D01*
X190746071Y-75831415D01*
X190841309Y-75783796D01*
X191079404Y-75783796D01*
X191174642Y-75831415D01*
X191222261Y-75879034D01*
X191269880Y-75974272D01*
X191269880Y-76259986D01*
X191222261Y-76355224D01*
X191174642Y-76402843D01*
X190269880Y-74926653D02*
X190269880Y-75117129D01*
X190317500Y-75212367D01*
X190365119Y-75259986D01*
X190507976Y-75355224D01*
X190698452Y-75402843D01*
X191079404Y-75402843D01*
X191174642Y-75355224D01*
X191222261Y-75307605D01*
X191269880Y-75212367D01*
X191269880Y-75021891D01*
X191222261Y-74926653D01*
X191174642Y-74879034D01*
X191079404Y-74831415D01*
X190841309Y-74831415D01*
X190746071Y-74879034D01*
X190698452Y-74926653D01*
X190650833Y-75021891D01*
X190650833Y-75212367D01*
X190698452Y-75307605D01*
X190746071Y-75355224D01*
X190841309Y-75402843D01*
X217508840Y-48831285D02*
X218318364Y-48831285D01*
X218413602Y-48783666D01*
X218461221Y-48736047D01*
X218508840Y-48640809D01*
X218508840Y-48450333D01*
X218461221Y-48355095D01*
X218413602Y-48307476D01*
X218318364Y-48259857D01*
X217508840Y-48259857D01*
X217508840Y-47926523D02*
X218508840Y-47593190D01*
X217508840Y-47259857D01*
X218508840Y-46783666D02*
X218461221Y-46878904D01*
X218413602Y-46926523D01*
X218318364Y-46974142D01*
X218032650Y-46974142D01*
X217937412Y-46926523D01*
X217889793Y-46878904D01*
X217842174Y-46783666D01*
X217842174Y-46640809D01*
X217889793Y-46545571D01*
X217937412Y-46497952D01*
X218032650Y-46450333D01*
X218318364Y-46450333D01*
X218413602Y-46497952D01*
X218461221Y-46545571D01*
X218508840Y-46640809D01*
X218508840Y-46783666D01*
X218508840Y-45878904D02*
X218461221Y-45974142D01*
X218365983Y-46021761D01*
X217508840Y-46021761D01*
X217842174Y-45640809D02*
X217842174Y-45259857D01*
X217508840Y-45497952D02*
X218365983Y-45497952D01*
X218461221Y-45450333D01*
X218508840Y-45355095D01*
X218508840Y-45259857D01*
X218369140Y-41773557D02*
X217892950Y-42106890D01*
X218369140Y-42344985D02*
X217369140Y-42344985D01*
X217369140Y-41964033D01*
X217416760Y-41868795D01*
X217464379Y-41821176D01*
X217559617Y-41773557D01*
X217702474Y-41773557D01*
X217797712Y-41821176D01*
X217845331Y-41868795D01*
X217892950Y-41964033D01*
X217892950Y-42344985D01*
X218369140Y-40821176D02*
X218369140Y-41392604D01*
X218369140Y-41106890D02*
X217369140Y-41106890D01*
X217511998Y-41202128D01*
X217607236Y-41297366D01*
X217654855Y-41392604D01*
X218369140Y-40344985D02*
X218369140Y-40154509D01*
X218321521Y-40059271D01*
X218273902Y-40011652D01*
X218131045Y-39916414D01*
X217940569Y-39868795D01*
X217559617Y-39868795D01*
X217464379Y-39916414D01*
X217416760Y-39964033D01*
X217369140Y-40059271D01*
X217369140Y-40249747D01*
X217416760Y-40344985D01*
X217464379Y-40392604D01*
X217559617Y-40440223D01*
X217797712Y-40440223D01*
X217892950Y-40392604D01*
X217940569Y-40344985D01*
X217988188Y-40249747D01*
X217988188Y-40059271D01*
X217940569Y-39964033D01*
X217892950Y-39916414D01*
X217797712Y-39868795D01*
X226546113Y-120949980D02*
X226212780Y-120473790D01*
X225974684Y-120949980D02*
X225974684Y-119949980D01*
X226355637Y-119949980D01*
X226450875Y-119997600D01*
X226498494Y-120045219D01*
X226546113Y-120140457D01*
X226546113Y-120283314D01*
X226498494Y-120378552D01*
X226450875Y-120426171D01*
X226355637Y-120473790D01*
X225974684Y-120473790D01*
X227403256Y-120283314D02*
X227403256Y-120949980D01*
X227165160Y-119902361D02*
X226927065Y-120616647D01*
X227546113Y-120616647D01*
X190298031Y-72034853D02*
X190298031Y-72368186D01*
X190821840Y-72368186D02*
X189821840Y-72368186D01*
X189821840Y-71891996D01*
X190298031Y-71177710D02*
X190345650Y-71034853D01*
X190393269Y-70987234D01*
X190488507Y-70939615D01*
X190631364Y-70939615D01*
X190726602Y-70987234D01*
X190774221Y-71034853D01*
X190821840Y-71130091D01*
X190821840Y-71511043D01*
X189821840Y-71511043D01*
X189821840Y-71177710D01*
X189869460Y-71082472D01*
X189917079Y-71034853D01*
X190012317Y-70987234D01*
X190107555Y-70987234D01*
X190202793Y-71034853D01*
X190250412Y-71082472D01*
X190298031Y-71177710D01*
X190298031Y-71511043D01*
X190821840Y-69987234D02*
X190821840Y-70558662D01*
X190821840Y-70272948D02*
X189821840Y-70272948D01*
X189964698Y-70368186D01*
X190059936Y-70463424D01*
X190107555Y-70558662D01*
X186349642Y-84873360D02*
X186016309Y-84397170D01*
X185778214Y-84873360D02*
X185778214Y-83873360D01*
X186159166Y-83873360D01*
X186254404Y-83920980D01*
X186302023Y-83968599D01*
X186349642Y-84063837D01*
X186349642Y-84206694D01*
X186302023Y-84301932D01*
X186254404Y-84349551D01*
X186159166Y-84397170D01*
X185778214Y-84397170D01*
X187302023Y-84873360D02*
X186730595Y-84873360D01*
X187016309Y-84873360D02*
X187016309Y-83873360D01*
X186921071Y-84016218D01*
X186825833Y-84111456D01*
X186730595Y-84159075D01*
X187921071Y-83873360D02*
X188016309Y-83873360D01*
X188111547Y-83920980D01*
X188159166Y-83968599D01*
X188206785Y-84063837D01*
X188254404Y-84254313D01*
X188254404Y-84492408D01*
X188206785Y-84682884D01*
X188159166Y-84778122D01*
X188111547Y-84825741D01*
X188016309Y-84873360D01*
X187921071Y-84873360D01*
X187825833Y-84825741D01*
X187778214Y-84778122D01*
X187730595Y-84682884D01*
X187682976Y-84492408D01*
X187682976Y-84254313D01*
X187730595Y-84063837D01*
X187778214Y-83968599D01*
X187825833Y-83920980D01*
X187921071Y-83873360D01*
X211681320Y-41704977D02*
X211205130Y-42038310D01*
X211681320Y-42276405D02*
X210681320Y-42276405D01*
X210681320Y-41895453D01*
X210728940Y-41800215D01*
X210776559Y-41752596D01*
X210871797Y-41704977D01*
X211014654Y-41704977D01*
X211109892Y-41752596D01*
X211157511Y-41800215D01*
X211205130Y-41895453D01*
X211205130Y-42276405D01*
X211681320Y-40752596D02*
X211681320Y-41324024D01*
X211681320Y-41038310D02*
X210681320Y-41038310D01*
X210824178Y-41133548D01*
X210919416Y-41228786D01*
X210967035Y-41324024D01*
X211109892Y-40181167D02*
X211062273Y-40276405D01*
X211014654Y-40324024D01*
X210919416Y-40371643D01*
X210871797Y-40371643D01*
X210776559Y-40324024D01*
X210728940Y-40276405D01*
X210681320Y-40181167D01*
X210681320Y-39990691D01*
X210728940Y-39895453D01*
X210776559Y-39847834D01*
X210871797Y-39800215D01*
X210919416Y-39800215D01*
X211014654Y-39847834D01*
X211062273Y-39895453D01*
X211109892Y-39990691D01*
X211109892Y-40181167D01*
X211157511Y-40276405D01*
X211205130Y-40324024D01*
X211300368Y-40371643D01*
X211490844Y-40371643D01*
X211586082Y-40324024D01*
X211633701Y-40276405D01*
X211681320Y-40181167D01*
X211681320Y-39990691D01*
X211633701Y-39895453D01*
X211586082Y-39847834D01*
X211490844Y-39800215D01*
X211300368Y-39800215D01*
X211205130Y-39847834D01*
X211157511Y-39895453D01*
X211109892Y-39990691D01*
X215130640Y-41547017D02*
X214654450Y-41880350D01*
X215130640Y-42118445D02*
X214130640Y-42118445D01*
X214130640Y-41737493D01*
X214178260Y-41642255D01*
X214225879Y-41594636D01*
X214321117Y-41547017D01*
X214463974Y-41547017D01*
X214559212Y-41594636D01*
X214606831Y-41642255D01*
X214654450Y-41737493D01*
X214654450Y-42118445D01*
X214225879Y-41166064D02*
X214178260Y-41118445D01*
X214130640Y-41023207D01*
X214130640Y-40785112D01*
X214178260Y-40689874D01*
X214225879Y-40642255D01*
X214321117Y-40594636D01*
X214416355Y-40594636D01*
X214559212Y-40642255D01*
X215130640Y-41213683D01*
X215130640Y-40594636D01*
X214130640Y-39975588D02*
X214130640Y-39880350D01*
X214178260Y-39785112D01*
X214225879Y-39737493D01*
X214321117Y-39689874D01*
X214511593Y-39642255D01*
X214749688Y-39642255D01*
X214940164Y-39689874D01*
X215035402Y-39737493D01*
X215083021Y-39785112D01*
X215130640Y-39880350D01*
X215130640Y-39975588D01*
X215083021Y-40070826D01*
X215035402Y-40118445D01*
X214940164Y-40166064D01*
X214749688Y-40213683D01*
X214511593Y-40213683D01*
X214321117Y-40166064D01*
X214225879Y-40118445D01*
X214178260Y-40070826D01*
X214130640Y-39975588D01*
X218829833Y-92787460D02*
X218496500Y-92311270D01*
X218258404Y-92787460D02*
X218258404Y-91787460D01*
X218639357Y-91787460D01*
X218734595Y-91835080D01*
X218782214Y-91882699D01*
X218829833Y-91977937D01*
X218829833Y-92120794D01*
X218782214Y-92216032D01*
X218734595Y-92263651D01*
X218639357Y-92311270D01*
X218258404Y-92311270D01*
X219734595Y-91787460D02*
X219258404Y-91787460D01*
X219210785Y-92263651D01*
X219258404Y-92216032D01*
X219353642Y-92168413D01*
X219591738Y-92168413D01*
X219686976Y-92216032D01*
X219734595Y-92263651D01*
X219782214Y-92358889D01*
X219782214Y-92596984D01*
X219734595Y-92692222D01*
X219686976Y-92739841D01*
X219591738Y-92787460D01*
X219353642Y-92787460D01*
X219258404Y-92739841D01*
X219210785Y-92692222D01*
X187101026Y-65067871D02*
X186767693Y-65067871D01*
X186767693Y-65591680D02*
X186767693Y-64591680D01*
X187243883Y-64591680D01*
X187958169Y-65067871D02*
X188101026Y-65115490D01*
X188148645Y-65163109D01*
X188196264Y-65258347D01*
X188196264Y-65401204D01*
X188148645Y-65496442D01*
X188101026Y-65544061D01*
X188005788Y-65591680D01*
X187624836Y-65591680D01*
X187624836Y-64591680D01*
X187958169Y-64591680D01*
X188053407Y-64639300D01*
X188101026Y-64686919D01*
X188148645Y-64782157D01*
X188148645Y-64877395D01*
X188101026Y-64972633D01*
X188053407Y-65020252D01*
X187958169Y-65067871D01*
X187624836Y-65067871D01*
X188577217Y-64686919D02*
X188624836Y-64639300D01*
X188720074Y-64591680D01*
X188958169Y-64591680D01*
X189053407Y-64639300D01*
X189101026Y-64686919D01*
X189148645Y-64782157D01*
X189148645Y-64877395D01*
X189101026Y-65020252D01*
X188529598Y-65591680D01*
X189148645Y-65591680D01*
X212088720Y-61741346D02*
X212088720Y-62217537D01*
X211088720Y-62217537D01*
X211088720Y-61503251D02*
X211088720Y-60884203D01*
X211469673Y-61217537D01*
X211469673Y-61074680D01*
X211517292Y-60979441D01*
X211564911Y-60931822D01*
X211660149Y-60884203D01*
X211898244Y-60884203D01*
X211993482Y-60931822D01*
X212041101Y-60979441D01*
X212088720Y-61074680D01*
X212088720Y-61360394D01*
X212041101Y-61455632D01*
X211993482Y-61503251D01*
X181530666Y-87717380D02*
X181530666Y-88431666D01*
X181483047Y-88574523D01*
X181387809Y-88669761D01*
X181244952Y-88717380D01*
X181149714Y-88717380D01*
X181911619Y-87717380D02*
X182530666Y-87717380D01*
X182197333Y-88098333D01*
X182340190Y-88098333D01*
X182435428Y-88145952D01*
X182483047Y-88193571D01*
X182530666Y-88288809D01*
X182530666Y-88526904D01*
X182483047Y-88622142D01*
X182435428Y-88669761D01*
X182340190Y-88717380D01*
X182054476Y-88717380D01*
X181959238Y-88669761D01*
X181911619Y-88622142D01*
X222337333Y-83642460D02*
X222004000Y-83166270D01*
X221765904Y-83642460D02*
X221765904Y-82642460D01*
X222146857Y-82642460D01*
X222242095Y-82690080D01*
X222289714Y-82737699D01*
X222337333Y-82832937D01*
X222337333Y-82975794D01*
X222289714Y-83071032D01*
X222242095Y-83118651D01*
X222146857Y-83166270D01*
X221765904Y-83166270D01*
X223289714Y-83642460D02*
X222718285Y-83642460D01*
X223004000Y-83642460D02*
X223004000Y-82642460D01*
X222908761Y-82785318D01*
X222813523Y-82880556D01*
X222718285Y-82928175D01*
X216741619Y-83920318D02*
X216694000Y-84015556D01*
X216598761Y-84110794D01*
X216455904Y-84253651D01*
X216408285Y-84348889D01*
X216408285Y-84444127D01*
X216646380Y-84396508D02*
X216598761Y-84491746D01*
X216503523Y-84586984D01*
X216313047Y-84634603D01*
X215979714Y-84634603D01*
X215789238Y-84586984D01*
X215694000Y-84491746D01*
X215646380Y-84396508D01*
X215646380Y-84206032D01*
X215694000Y-84110794D01*
X215789238Y-84015556D01*
X215979714Y-83967937D01*
X216313047Y-83967937D01*
X216503523Y-84015556D01*
X216598761Y-84110794D01*
X216646380Y-84206032D01*
X216646380Y-84396508D01*
X215741619Y-83586984D02*
X215694000Y-83539365D01*
X215646380Y-83444127D01*
X215646380Y-83206032D01*
X215694000Y-83110794D01*
X215741619Y-83063175D01*
X215836857Y-83015556D01*
X215932095Y-83015556D01*
X216074952Y-83063175D01*
X216646380Y-83634603D01*
X216646380Y-83015556D01*
X202892920Y-137679726D02*
X202416730Y-138013060D01*
X202892920Y-138251155D02*
X201892920Y-138251155D01*
X201892920Y-137870202D01*
X201940540Y-137774964D01*
X201988159Y-137727345D01*
X202083397Y-137679726D01*
X202226254Y-137679726D01*
X202321492Y-137727345D01*
X202369111Y-137774964D01*
X202416730Y-137870202D01*
X202416730Y-138251155D01*
X202892920Y-137203536D02*
X202892920Y-137013060D01*
X202845301Y-136917821D01*
X202797682Y-136870202D01*
X202654825Y-136774964D01*
X202464349Y-136727345D01*
X202083397Y-136727345D01*
X201988159Y-136774964D01*
X201940540Y-136822583D01*
X201892920Y-136917821D01*
X201892920Y-137108298D01*
X201940540Y-137203536D01*
X201988159Y-137251155D01*
X202083397Y-137298774D01*
X202321492Y-137298774D01*
X202416730Y-137251155D01*
X202464349Y-137203536D01*
X202511968Y-137108298D01*
X202511968Y-136917821D01*
X202464349Y-136822583D01*
X202416730Y-136774964D01*
X202321492Y-136727345D01*
X186379642Y-88302360D02*
X186046309Y-87826170D01*
X185808214Y-88302360D02*
X185808214Y-87302360D01*
X186189166Y-87302360D01*
X186284404Y-87349980D01*
X186332023Y-87397599D01*
X186379642Y-87492837D01*
X186379642Y-87635694D01*
X186332023Y-87730932D01*
X186284404Y-87778551D01*
X186189166Y-87826170D01*
X185808214Y-87826170D01*
X187332023Y-88302360D02*
X186760595Y-88302360D01*
X187046309Y-88302360D02*
X187046309Y-87302360D01*
X186951071Y-87445218D01*
X186855833Y-87540456D01*
X186760595Y-87588075D01*
X188284404Y-88302360D02*
X187712976Y-88302360D01*
X187998690Y-88302360D02*
X187998690Y-87302360D01*
X187903452Y-87445218D01*
X187808214Y-87540456D01*
X187712976Y-87588075D01*
X194007431Y-48921066D02*
X194007431Y-48587733D01*
X194531240Y-48444876D02*
X194531240Y-48921066D01*
X193531240Y-48921066D01*
X193531240Y-48444876D01*
X194531240Y-48111542D02*
X193864574Y-47587733D01*
X193864574Y-48111542D02*
X194531240Y-47587733D01*
X193864574Y-47349638D02*
X193864574Y-46968685D01*
X193531240Y-47206780D02*
X194388383Y-47206780D01*
X194483621Y-47159161D01*
X194531240Y-47063923D01*
X194531240Y-46968685D01*
X194531240Y-46635352D02*
X193864574Y-46635352D01*
X194055050Y-46635352D02*
X193959812Y-46587733D01*
X193912193Y-46540114D01*
X193864574Y-46444876D01*
X193864574Y-46349638D01*
X194531240Y-45587733D02*
X194007431Y-45587733D01*
X193912193Y-45635352D01*
X193864574Y-45730590D01*
X193864574Y-45921066D01*
X193912193Y-46016304D01*
X194483621Y-45587733D02*
X194531240Y-45682971D01*
X194531240Y-45921066D01*
X194483621Y-46016304D01*
X194388383Y-46063923D01*
X194293145Y-46063923D01*
X194197907Y-46016304D01*
X194150288Y-45921066D01*
X194150288Y-45682971D01*
X194102669Y-45587733D01*
X218829833Y-95962460D02*
X218496500Y-95486270D01*
X218258404Y-95962460D02*
X218258404Y-94962460D01*
X218639357Y-94962460D01*
X218734595Y-95010080D01*
X218782214Y-95057699D01*
X218829833Y-95152937D01*
X218829833Y-95295794D01*
X218782214Y-95391032D01*
X218734595Y-95438651D01*
X218639357Y-95486270D01*
X218258404Y-95486270D01*
X219686976Y-94962460D02*
X219496500Y-94962460D01*
X219401261Y-95010080D01*
X219353642Y-95057699D01*
X219258404Y-95200556D01*
X219210785Y-95391032D01*
X219210785Y-95771984D01*
X219258404Y-95867222D01*
X219306023Y-95914841D01*
X219401261Y-95962460D01*
X219591738Y-95962460D01*
X219686976Y-95914841D01*
X219734595Y-95867222D01*
X219782214Y-95771984D01*
X219782214Y-95533889D01*
X219734595Y-95438651D01*
X219686976Y-95391032D01*
X219591738Y-95343413D01*
X219401261Y-95343413D01*
X219306023Y-95391032D01*
X219258404Y-95438651D01*
X219210785Y-95533889D01*
X227798380Y-79827333D02*
X228512666Y-79827333D01*
X228655523Y-79874952D01*
X228750761Y-79970190D01*
X228798380Y-80113047D01*
X228798380Y-80208285D01*
X228798380Y-79351142D02*
X227798380Y-79351142D01*
X227798380Y-78970190D01*
X227846000Y-78874952D01*
X227893619Y-78827333D01*
X227988857Y-78779714D01*
X228131714Y-78779714D01*
X228226952Y-78827333D01*
X228274571Y-78874952D01*
X228322190Y-78970190D01*
X228322190Y-79351142D01*
X228798380Y-77827333D02*
X228798380Y-78398761D01*
X228798380Y-78113047D02*
X227798380Y-78113047D01*
X227941238Y-78208285D01*
X228036476Y-78303523D01*
X228084095Y-78398761D01*
X218874833Y-86437460D02*
X218541500Y-85961270D01*
X218303404Y-86437460D02*
X218303404Y-85437460D01*
X218684357Y-85437460D01*
X218779595Y-85485080D01*
X218827214Y-85532699D01*
X218874833Y-85627937D01*
X218874833Y-85770794D01*
X218827214Y-85866032D01*
X218779595Y-85913651D01*
X218684357Y-85961270D01*
X218303404Y-85961270D01*
X219446261Y-85866032D02*
X219351023Y-85818413D01*
X219303404Y-85770794D01*
X219255785Y-85675556D01*
X219255785Y-85627937D01*
X219303404Y-85532699D01*
X219351023Y-85485080D01*
X219446261Y-85437460D01*
X219636738Y-85437460D01*
X219731976Y-85485080D01*
X219779595Y-85532699D01*
X219827214Y-85627937D01*
X219827214Y-85675556D01*
X219779595Y-85770794D01*
X219731976Y-85818413D01*
X219636738Y-85866032D01*
X219446261Y-85866032D01*
X219351023Y-85913651D01*
X219303404Y-85961270D01*
X219255785Y-86056508D01*
X219255785Y-86246984D01*
X219303404Y-86342222D01*
X219351023Y-86389841D01*
X219446261Y-86437460D01*
X219636738Y-86437460D01*
X219731976Y-86389841D01*
X219779595Y-86342222D01*
X219827214Y-86246984D01*
X219827214Y-86056508D01*
X219779595Y-85961270D01*
X219731976Y-85913651D01*
X219636738Y-85866032D01*
X211313493Y-58155100D02*
X210837302Y-58155100D01*
X210837302Y-57155100D01*
X212075398Y-57488434D02*
X212075398Y-58155100D01*
X211837302Y-57107481D02*
X211599207Y-57821767D01*
X212218255Y-57821767D01*
X228661693Y-86003120D02*
X228328360Y-85526930D01*
X228090264Y-86003120D02*
X228090264Y-85003120D01*
X228471217Y-85003120D01*
X228566455Y-85050740D01*
X228614074Y-85098359D01*
X228661693Y-85193597D01*
X228661693Y-85336454D01*
X228614074Y-85431692D01*
X228566455Y-85479311D01*
X228471217Y-85526930D01*
X228090264Y-85526930D01*
X228995026Y-85003120D02*
X229614074Y-85003120D01*
X229280740Y-85384073D01*
X229423598Y-85384073D01*
X229518836Y-85431692D01*
X229566455Y-85479311D01*
X229614074Y-85574549D01*
X229614074Y-85812644D01*
X229566455Y-85907882D01*
X229518836Y-85955501D01*
X229423598Y-86003120D01*
X229137883Y-86003120D01*
X229042645Y-85955501D01*
X228995026Y-85907882D01*
X219966800Y-119292666D02*
X219490610Y-119626000D01*
X219966800Y-119864095D02*
X218966800Y-119864095D01*
X218966800Y-119483142D01*
X219014420Y-119387904D01*
X219062039Y-119340285D01*
X219157277Y-119292666D01*
X219300134Y-119292666D01*
X219395372Y-119340285D01*
X219442991Y-119387904D01*
X219490610Y-119483142D01*
X219490610Y-119864095D01*
X219062039Y-118911714D02*
X219014420Y-118864095D01*
X218966800Y-118768857D01*
X218966800Y-118530761D01*
X219014420Y-118435523D01*
X219062039Y-118387904D01*
X219157277Y-118340285D01*
X219252515Y-118340285D01*
X219395372Y-118387904D01*
X219966800Y-118959333D01*
X219966800Y-118340285D01*
X208254860Y-41933577D02*
X207778670Y-42266910D01*
X208254860Y-42505005D02*
X207254860Y-42505005D01*
X207254860Y-42124053D01*
X207302480Y-42028815D01*
X207350099Y-41981196D01*
X207445337Y-41933577D01*
X207588194Y-41933577D01*
X207683432Y-41981196D01*
X207731051Y-42028815D01*
X207778670Y-42124053D01*
X207778670Y-42505005D01*
X207350099Y-41552624D02*
X207302480Y-41505005D01*
X207254860Y-41409767D01*
X207254860Y-41171672D01*
X207302480Y-41076434D01*
X207350099Y-41028815D01*
X207445337Y-40981196D01*
X207540575Y-40981196D01*
X207683432Y-41028815D01*
X208254860Y-41600243D01*
X208254860Y-40981196D01*
X208254860Y-40028815D02*
X208254860Y-40600243D01*
X208254860Y-40314529D02*
X207254860Y-40314529D01*
X207397718Y-40409767D01*
X207492956Y-40505005D01*
X207540575Y-40600243D01*
X217201761Y-111804699D02*
X217106523Y-111757080D01*
X217011285Y-111661841D01*
X216868428Y-111518984D01*
X216773190Y-111471365D01*
X216677952Y-111471365D01*
X216725571Y-111709460D02*
X216630333Y-111661841D01*
X216535095Y-111566603D01*
X216487476Y-111376127D01*
X216487476Y-111042794D01*
X216535095Y-110852318D01*
X216630333Y-110757080D01*
X216725571Y-110709460D01*
X216916047Y-110709460D01*
X217011285Y-110757080D01*
X217106523Y-110852318D01*
X217154142Y-111042794D01*
X217154142Y-111376127D01*
X217106523Y-111566603D01*
X217011285Y-111661841D01*
X216916047Y-111709460D01*
X216725571Y-111709460D01*
X218106523Y-111709460D02*
X217535095Y-111709460D01*
X217820809Y-111709460D02*
X217820809Y-110709460D01*
X217725571Y-110852318D01*
X217630333Y-110947556D01*
X217535095Y-110995175D01*
X218481613Y-89725760D02*
X218148280Y-89249570D01*
X217910184Y-89725760D02*
X217910184Y-88725760D01*
X218291137Y-88725760D01*
X218386375Y-88773380D01*
X218433994Y-88820999D01*
X218481613Y-88916237D01*
X218481613Y-89059094D01*
X218433994Y-89154332D01*
X218386375Y-89201951D01*
X218291137Y-89249570D01*
X217910184Y-89249570D01*
X218814946Y-88725760D02*
X219481613Y-88725760D01*
X219053041Y-89725760D01*
X204932540Y-42025017D02*
X204456350Y-42358350D01*
X204932540Y-42596445D02*
X203932540Y-42596445D01*
X203932540Y-42215493D01*
X203980160Y-42120255D01*
X204027779Y-42072636D01*
X204123017Y-42025017D01*
X204265874Y-42025017D01*
X204361112Y-42072636D01*
X204408731Y-42120255D01*
X204456350Y-42215493D01*
X204456350Y-42596445D01*
X204027779Y-41644064D02*
X203980160Y-41596445D01*
X203932540Y-41501207D01*
X203932540Y-41263112D01*
X203980160Y-41167874D01*
X204027779Y-41120255D01*
X204123017Y-41072636D01*
X204218255Y-41072636D01*
X204361112Y-41120255D01*
X204932540Y-41691683D01*
X204932540Y-41072636D01*
X204027779Y-40691683D02*
X203980160Y-40644064D01*
X203932540Y-40548826D01*
X203932540Y-40310731D01*
X203980160Y-40215493D01*
X204027779Y-40167874D01*
X204123017Y-40120255D01*
X204218255Y-40120255D01*
X204361112Y-40167874D01*
X204932540Y-40739302D01*
X204932540Y-40120255D01*
X223274095Y-67524380D02*
X223845523Y-67524380D01*
X223559809Y-68524380D02*
X223559809Y-67524380D01*
X224178857Y-68524380D02*
X224178857Y-67524380D01*
X224559809Y-67524380D01*
X224655047Y-67572000D01*
X224702666Y-67619619D01*
X224750285Y-67714857D01*
X224750285Y-67857714D01*
X224702666Y-67952952D01*
X224655047Y-68000571D01*
X224559809Y-68048190D01*
X224178857Y-68048190D01*
X225226476Y-68524380D02*
X225416952Y-68524380D01*
X225512190Y-68476761D01*
X225559809Y-68429142D01*
X225655047Y-68286285D01*
X225702666Y-68095809D01*
X225702666Y-67714857D01*
X225655047Y-67619619D01*
X225607428Y-67572000D01*
X225512190Y-67524380D01*
X225321714Y-67524380D01*
X225226476Y-67572000D01*
X225178857Y-67619619D01*
X225131238Y-67714857D01*
X225131238Y-67952952D01*
X225178857Y-68048190D01*
X225226476Y-68095809D01*
X225321714Y-68143428D01*
X225512190Y-68143428D01*
X225607428Y-68095809D01*
X225655047Y-68048190D01*
X225702666Y-67952952D01*
X215640160Y-115041584D02*
X216449684Y-115041584D01*
X216544922Y-114993965D01*
X216592541Y-114946346D01*
X216640160Y-114851108D01*
X216640160Y-114660632D01*
X216592541Y-114565394D01*
X216544922Y-114517775D01*
X216449684Y-114470156D01*
X215640160Y-114470156D01*
X215735399Y-114041584D02*
X215687780Y-113993965D01*
X215640160Y-113898727D01*
X215640160Y-113660632D01*
X215687780Y-113565394D01*
X215735399Y-113517775D01*
X215830637Y-113470156D01*
X215925875Y-113470156D01*
X216068732Y-113517775D01*
X216640160Y-114089203D01*
X216640160Y-113470156D01*
X179330766Y-120776691D02*
X179473623Y-120824310D01*
X179521242Y-120871929D01*
X179568861Y-120967167D01*
X179568861Y-121110024D01*
X179521242Y-121205262D01*
X179473623Y-121252881D01*
X179378385Y-121300500D01*
X178997433Y-121300500D01*
X178997433Y-120300500D01*
X179330766Y-120300500D01*
X179426004Y-120348120D01*
X179473623Y-120395739D01*
X179521242Y-120490977D01*
X179521242Y-120586215D01*
X179473623Y-120681453D01*
X179426004Y-120729072D01*
X179330766Y-120776691D01*
X178997433Y-120776691D01*
X180426004Y-121300500D02*
X180426004Y-120776691D01*
X180378385Y-120681453D01*
X180283147Y-120633834D01*
X180092671Y-120633834D01*
X179997433Y-120681453D01*
X180426004Y-121252881D02*
X180330766Y-121300500D01*
X180092671Y-121300500D01*
X179997433Y-121252881D01*
X179949814Y-121157643D01*
X179949814Y-121062405D01*
X179997433Y-120967167D01*
X180092671Y-120919548D01*
X180330766Y-120919548D01*
X180426004Y-120871929D01*
X181330766Y-121252881D02*
X181235528Y-121300500D01*
X181045052Y-121300500D01*
X180949814Y-121252881D01*
X180902195Y-121205262D01*
X180854576Y-121110024D01*
X180854576Y-120824310D01*
X180902195Y-120729072D01*
X180949814Y-120681453D01*
X181045052Y-120633834D01*
X181235528Y-120633834D01*
X181330766Y-120681453D01*
X181759338Y-121300500D02*
X181759338Y-120300500D01*
X181854576Y-120919548D02*
X182140290Y-121300500D01*
X182140290Y-120633834D02*
X181759338Y-121014786D01*
X183664100Y-120776691D02*
X183330766Y-120776691D01*
X183330766Y-121300500D02*
X183330766Y-120300500D01*
X183806957Y-120300500D01*
X184616480Y-121300500D02*
X184616480Y-120776691D01*
X184568861Y-120681453D01*
X184473623Y-120633834D01*
X184283147Y-120633834D01*
X184187909Y-120681453D01*
X184616480Y-121252881D02*
X184521242Y-121300500D01*
X184283147Y-121300500D01*
X184187909Y-121252881D01*
X184140290Y-121157643D01*
X184140290Y-121062405D01*
X184187909Y-120967167D01*
X184283147Y-120919548D01*
X184521242Y-120919548D01*
X184616480Y-120871929D01*
X185092671Y-120633834D02*
X185092671Y-121300500D01*
X185092671Y-120729072D02*
X185140290Y-120681453D01*
X185235528Y-120633834D01*
X185378385Y-120633834D01*
X185473623Y-120681453D01*
X185521242Y-120776691D01*
X185521242Y-121300500D01*
X185949814Y-121252881D02*
X186045052Y-121300500D01*
X186235528Y-121300500D01*
X186330766Y-121252881D01*
X186378385Y-121157643D01*
X186378385Y-121110024D01*
X186330766Y-121014786D01*
X186235528Y-120967167D01*
X186092671Y-120967167D01*
X185997433Y-120919548D01*
X185949814Y-120824310D01*
X185949814Y-120776691D01*
X185997433Y-120681453D01*
X186092671Y-120633834D01*
X186235528Y-120633834D01*
X186330766Y-120681453D01*
X228405156Y-73981060D02*
X228405156Y-74695346D01*
X228357537Y-74838203D01*
X228262299Y-74933441D01*
X228119441Y-74981060D01*
X228024203Y-74981060D01*
X229405156Y-74981060D02*
X228833727Y-74981060D01*
X229119441Y-74981060D02*
X229119441Y-73981060D01*
X229024203Y-74123918D01*
X228928965Y-74219156D01*
X228833727Y-74266775D01*
X230357537Y-74981060D02*
X229786108Y-74981060D01*
X230071822Y-74981060D02*
X230071822Y-73981060D01*
X229976584Y-74123918D01*
X229881346Y-74219156D01*
X229786108Y-74266775D01*
X215142842Y-66427340D02*
X214809509Y-65951150D01*
X214571414Y-66427340D02*
X214571414Y-65427340D01*
X214952366Y-65427340D01*
X215047604Y-65474960D01*
X215095223Y-65522579D01*
X215142842Y-65617817D01*
X215142842Y-65760674D01*
X215095223Y-65855912D01*
X215047604Y-65903531D01*
X214952366Y-65951150D01*
X214571414Y-65951150D01*
X216047604Y-65427340D02*
X215571414Y-65427340D01*
X215523795Y-65903531D01*
X215571414Y-65855912D01*
X215666652Y-65808293D01*
X215904747Y-65808293D01*
X215999985Y-65855912D01*
X216047604Y-65903531D01*
X216095223Y-65998769D01*
X216095223Y-66236864D01*
X216047604Y-66332102D01*
X215999985Y-66379721D01*
X215904747Y-66427340D01*
X215666652Y-66427340D01*
X215571414Y-66379721D01*
X215523795Y-66332102D01*
X216952366Y-65760674D02*
X216952366Y-66427340D01*
X216714271Y-65379721D02*
X216476176Y-66094007D01*
X217095223Y-66094007D01*
X179591840Y-72161543D02*
X180306126Y-72161543D01*
X180448983Y-72209162D01*
X180544221Y-72304400D01*
X180591840Y-72447258D01*
X180591840Y-72542496D01*
X180591840Y-71161543D02*
X180591840Y-71732972D01*
X180591840Y-71447258D02*
X179591840Y-71447258D01*
X179734698Y-71542496D01*
X179829936Y-71637734D01*
X179877555Y-71732972D01*
X179687079Y-70780591D02*
X179639460Y-70732972D01*
X179591840Y-70637734D01*
X179591840Y-70399639D01*
X179639460Y-70304400D01*
X179687079Y-70256781D01*
X179782317Y-70209162D01*
X179877555Y-70209162D01*
X180020412Y-70256781D01*
X180591840Y-70828210D01*
X180591840Y-70209162D01*
X192269902Y-65520560D02*
X191936569Y-65044370D01*
X191698474Y-65520560D02*
X191698474Y-64520560D01*
X192079426Y-64520560D01*
X192174664Y-64568180D01*
X192222283Y-64615799D01*
X192269902Y-64711037D01*
X192269902Y-64853894D01*
X192222283Y-64949132D01*
X192174664Y-64996751D01*
X192079426Y-65044370D01*
X191698474Y-65044370D01*
X193174664Y-64520560D02*
X192698474Y-64520560D01*
X192650855Y-64996751D01*
X192698474Y-64949132D01*
X192793712Y-64901513D01*
X193031807Y-64901513D01*
X193127045Y-64949132D01*
X193174664Y-64996751D01*
X193222283Y-65091989D01*
X193222283Y-65330084D01*
X193174664Y-65425322D01*
X193127045Y-65472941D01*
X193031807Y-65520560D01*
X192793712Y-65520560D01*
X192698474Y-65472941D01*
X192650855Y-65425322D01*
X194079426Y-64520560D02*
X193888950Y-64520560D01*
X193793712Y-64568180D01*
X193746093Y-64615799D01*
X193650855Y-64758656D01*
X193603236Y-64949132D01*
X193603236Y-65330084D01*
X193650855Y-65425322D01*
X193698474Y-65472941D01*
X193793712Y-65520560D01*
X193984188Y-65520560D01*
X194079426Y-65472941D01*
X194127045Y-65425322D01*
X194174664Y-65330084D01*
X194174664Y-65091989D01*
X194127045Y-64996751D01*
X194079426Y-64949132D01*
X193984188Y-64901513D01*
X193793712Y-64901513D01*
X193698474Y-64949132D01*
X193650855Y-64996751D01*
X193603236Y-65091989D01*
X188293809Y-120832571D02*
X187960476Y-120832571D01*
X187960476Y-121356380D02*
X187960476Y-120356380D01*
X188436666Y-120356380D01*
X188817619Y-121356380D02*
X188817619Y-120689714D01*
X188817619Y-120880190D02*
X188865238Y-120784952D01*
X188912857Y-120737333D01*
X189008095Y-120689714D01*
X189103333Y-120689714D01*
X189579523Y-121356380D02*
X189484285Y-121308761D01*
X189436666Y-121261142D01*
X189389047Y-121165904D01*
X189389047Y-120880190D01*
X189436666Y-120784952D01*
X189484285Y-120737333D01*
X189579523Y-120689714D01*
X189722380Y-120689714D01*
X189817619Y-120737333D01*
X189865238Y-120784952D01*
X189912857Y-120880190D01*
X189912857Y-121165904D01*
X189865238Y-121261142D01*
X189817619Y-121308761D01*
X189722380Y-121356380D01*
X189579523Y-121356380D01*
X190341428Y-120689714D02*
X190341428Y-121356380D01*
X190341428Y-120784952D02*
X190389047Y-120737333D01*
X190484285Y-120689714D01*
X190627142Y-120689714D01*
X190722380Y-120737333D01*
X190770000Y-120832571D01*
X190770000Y-121356380D01*
X191103333Y-120689714D02*
X191484285Y-120689714D01*
X191246190Y-120356380D02*
X191246190Y-121213523D01*
X191293809Y-121308761D01*
X191389047Y-121356380D01*
X191484285Y-121356380D01*
X192912857Y-120832571D02*
X192579523Y-120832571D01*
X192579523Y-121356380D02*
X192579523Y-120356380D01*
X193055714Y-120356380D01*
X193865238Y-121356380D02*
X193865238Y-120832571D01*
X193817619Y-120737333D01*
X193722380Y-120689714D01*
X193531904Y-120689714D01*
X193436666Y-120737333D01*
X193865238Y-121308761D02*
X193770000Y-121356380D01*
X193531904Y-121356380D01*
X193436666Y-121308761D01*
X193389047Y-121213523D01*
X193389047Y-121118285D01*
X193436666Y-121023047D01*
X193531904Y-120975428D01*
X193770000Y-120975428D01*
X193865238Y-120927809D01*
X194341428Y-120689714D02*
X194341428Y-121356380D01*
X194341428Y-120784952D02*
X194389047Y-120737333D01*
X194484285Y-120689714D01*
X194627142Y-120689714D01*
X194722380Y-120737333D01*
X194770000Y-120832571D01*
X194770000Y-121356380D01*
X195198571Y-121308761D02*
X195293809Y-121356380D01*
X195484285Y-121356380D01*
X195579523Y-121308761D01*
X195627142Y-121213523D01*
X195627142Y-121165904D01*
X195579523Y-121070666D01*
X195484285Y-121023047D01*
X195341428Y-121023047D01*
X195246190Y-120975428D01*
X195198571Y-120880190D01*
X195198571Y-120832571D01*
X195246190Y-120737333D01*
X195341428Y-120689714D01*
X195484285Y-120689714D01*
X195579523Y-120737333D01*
X191430660Y-85260084D02*
X192240184Y-85260084D01*
X192335422Y-85212465D01*
X192383041Y-85164846D01*
X192430660Y-85069608D01*
X192430660Y-84879132D01*
X192383041Y-84783894D01*
X192335422Y-84736275D01*
X192240184Y-84688656D01*
X191430660Y-84688656D01*
X191430660Y-83783894D02*
X191430660Y-83974370D01*
X191478280Y-84069608D01*
X191525899Y-84117227D01*
X191668756Y-84212465D01*
X191859232Y-84260084D01*
X192240184Y-84260084D01*
X192335422Y-84212465D01*
X192383041Y-84164846D01*
X192430660Y-84069608D01*
X192430660Y-83879132D01*
X192383041Y-83783894D01*
X192335422Y-83736275D01*
X192240184Y-83688656D01*
X192002089Y-83688656D01*
X191906851Y-83736275D01*
X191859232Y-83783894D01*
X191811613Y-83879132D01*
X191811613Y-84069608D01*
X191859232Y-84164846D01*
X191906851Y-84212465D01*
X192002089Y-84260084D01*
X193517780Y-87273425D02*
X192517780Y-87273425D01*
X193232066Y-86940092D01*
X192517780Y-86606759D01*
X193517780Y-86606759D01*
X192613019Y-86178187D02*
X192565400Y-86130568D01*
X192517780Y-86035330D01*
X192517780Y-85797235D01*
X192565400Y-85701997D01*
X192613019Y-85654378D01*
X192708257Y-85606759D01*
X192803495Y-85606759D01*
X192946352Y-85654378D01*
X193517780Y-86225806D01*
X193517780Y-85606759D01*
X192851114Y-84749616D02*
X193517780Y-84749616D01*
X192470161Y-84987711D02*
X193184447Y-85225806D01*
X193184447Y-84606759D01*
X193517780Y-83701997D02*
X193517780Y-84273425D01*
X193517780Y-83987711D02*
X192517780Y-83987711D01*
X192660638Y-84082949D01*
X192755876Y-84178187D01*
X192803495Y-84273425D01*
X192613019Y-83321044D02*
X192565400Y-83273425D01*
X192517780Y-83178187D01*
X192517780Y-82940092D01*
X192565400Y-82844854D01*
X192613019Y-82797235D01*
X192708257Y-82749616D01*
X192803495Y-82749616D01*
X192946352Y-82797235D01*
X193517780Y-83368663D01*
X193517780Y-82749616D01*
X192946352Y-82178187D02*
X192898733Y-82273425D01*
X192851114Y-82321044D01*
X192755876Y-82368663D01*
X192708257Y-82368663D01*
X192613019Y-82321044D01*
X192565400Y-82273425D01*
X192517780Y-82178187D01*
X192517780Y-81987711D01*
X192565400Y-81892473D01*
X192613019Y-81844854D01*
X192708257Y-81797235D01*
X192755876Y-81797235D01*
X192851114Y-81844854D01*
X192898733Y-81892473D01*
X192946352Y-81987711D01*
X192946352Y-82178187D01*
X192993971Y-82273425D01*
X193041590Y-82321044D01*
X193136828Y-82368663D01*
X193327304Y-82368663D01*
X193422542Y-82321044D01*
X193470161Y-82273425D01*
X193517780Y-82178187D01*
X193517780Y-81987711D01*
X193470161Y-81892473D01*
X193422542Y-81844854D01*
X193327304Y-81797235D01*
X193136828Y-81797235D01*
X193041590Y-81844854D01*
X192993971Y-81892473D01*
X192946352Y-81987711D01*
X195146680Y-82425540D02*
X195384776Y-82425540D01*
X195289538Y-82663635D02*
X195384776Y-82425540D01*
X195289538Y-82187444D01*
X195575252Y-82568397D02*
X195384776Y-82425540D01*
X195575252Y-82282682D01*
D19*
X226746571Y-101742571D02*
X226770380Y-101766380D01*
X226794190Y-101837809D01*
X226794190Y-101885428D01*
X226770380Y-101956857D01*
X226722761Y-102004476D01*
X226675142Y-102028285D01*
X226579904Y-102052095D01*
X226508476Y-102052095D01*
X226413238Y-102028285D01*
X226365619Y-102004476D01*
X226318000Y-101956857D01*
X226294190Y-101885428D01*
X226294190Y-101837809D01*
X226318000Y-101766380D01*
X226341809Y-101742571D01*
X226794190Y-101456857D02*
X226770380Y-101504476D01*
X226746571Y-101528285D01*
X226698952Y-101552095D01*
X226556095Y-101552095D01*
X226508476Y-101528285D01*
X226484666Y-101504476D01*
X226460857Y-101456857D01*
X226460857Y-101385428D01*
X226484666Y-101337809D01*
X226508476Y-101314000D01*
X226556095Y-101290190D01*
X226698952Y-101290190D01*
X226746571Y-101314000D01*
X226770380Y-101337809D01*
X226794190Y-101385428D01*
X226794190Y-101456857D01*
X226460857Y-101075904D02*
X226794190Y-101075904D01*
X226508476Y-101075904D02*
X226484666Y-101052095D01*
X226460857Y-101004476D01*
X226460857Y-100933047D01*
X226484666Y-100885428D01*
X226532285Y-100861619D01*
X226794190Y-100861619D01*
X226460857Y-100694952D02*
X226460857Y-100504476D01*
X226294190Y-100623523D02*
X226722761Y-100623523D01*
X226770380Y-100599714D01*
X226794190Y-100552095D01*
X226794190Y-100504476D01*
X226794190Y-100123523D02*
X226532285Y-100123523D01*
X226484666Y-100147333D01*
X226460857Y-100194952D01*
X226460857Y-100290190D01*
X226484666Y-100337809D01*
X226770380Y-100123523D02*
X226794190Y-100171142D01*
X226794190Y-100290190D01*
X226770380Y-100337809D01*
X226722761Y-100361619D01*
X226675142Y-100361619D01*
X226627523Y-100337809D01*
X226603714Y-100290190D01*
X226603714Y-100171142D01*
X226579904Y-100123523D01*
X226770380Y-99671142D02*
X226794190Y-99718761D01*
X226794190Y-99814000D01*
X226770380Y-99861619D01*
X226746571Y-99885428D01*
X226698952Y-99909238D01*
X226556095Y-99909238D01*
X226508476Y-99885428D01*
X226484666Y-99861619D01*
X226460857Y-99814000D01*
X226460857Y-99718761D01*
X226484666Y-99671142D01*
X226460857Y-99528285D02*
X226460857Y-99337809D01*
X226294190Y-99456857D02*
X226722761Y-99456857D01*
X226770380Y-99433047D01*
X226794190Y-99385428D01*
X226794190Y-99337809D01*
X226794190Y-99099714D02*
X226770380Y-99147333D01*
X226746571Y-99171142D01*
X226698952Y-99194952D01*
X226556095Y-99194952D01*
X226508476Y-99171142D01*
X226484666Y-99147333D01*
X226460857Y-99099714D01*
X226460857Y-99028285D01*
X226484666Y-98980666D01*
X226508476Y-98956857D01*
X226556095Y-98933047D01*
X226698952Y-98933047D01*
X226746571Y-98956857D01*
X226770380Y-98980666D01*
X226794190Y-99028285D01*
X226794190Y-99099714D01*
X226794190Y-98718761D02*
X226460857Y-98718761D01*
X226556095Y-98718761D02*
X226508476Y-98694952D01*
X226484666Y-98671142D01*
X226460857Y-98623523D01*
X226460857Y-98575904D01*
X226318000Y-97766380D02*
X226294190Y-97814000D01*
X226294190Y-97885428D01*
X226318000Y-97956857D01*
X226365619Y-98004476D01*
X226413238Y-98028285D01*
X226508476Y-98052095D01*
X226579904Y-98052095D01*
X226675142Y-98028285D01*
X226722761Y-98004476D01*
X226770380Y-97956857D01*
X226794190Y-97885428D01*
X226794190Y-97837809D01*
X226770380Y-97766380D01*
X226746571Y-97742571D01*
X226579904Y-97742571D01*
X226579904Y-97837809D01*
X226794190Y-97314000D02*
X226532285Y-97314000D01*
X226484666Y-97337809D01*
X226460857Y-97385428D01*
X226460857Y-97480666D01*
X226484666Y-97528285D01*
X226770380Y-97314000D02*
X226794190Y-97361619D01*
X226794190Y-97480666D01*
X226770380Y-97528285D01*
X226722761Y-97552095D01*
X226675142Y-97552095D01*
X226627523Y-97528285D01*
X226603714Y-97480666D01*
X226603714Y-97361619D01*
X226579904Y-97314000D01*
X226460857Y-97147333D02*
X226460857Y-96956857D01*
X226294190Y-97075904D02*
X226722761Y-97075904D01*
X226770380Y-97052095D01*
X226794190Y-97004476D01*
X226794190Y-96956857D01*
X226770380Y-96599714D02*
X226794190Y-96647333D01*
X226794190Y-96742571D01*
X226770380Y-96790190D01*
X226722761Y-96814000D01*
X226532285Y-96814000D01*
X226484666Y-96790190D01*
X226460857Y-96742571D01*
X226460857Y-96647333D01*
X226484666Y-96599714D01*
X226532285Y-96575904D01*
X226579904Y-96575904D01*
X226627523Y-96814000D01*
D10*
X223369142Y-78763619D02*
X223416761Y-78811238D01*
X223464380Y-78954095D01*
X223464380Y-79049333D01*
X223416761Y-79192190D01*
X223321523Y-79287428D01*
X223226285Y-79335047D01*
X223035809Y-79382666D01*
X222892952Y-79382666D01*
X222702476Y-79335047D01*
X222607238Y-79287428D01*
X222512000Y-79192190D01*
X222464380Y-79049333D01*
X222464380Y-78954095D01*
X222512000Y-78811238D01*
X222559619Y-78763619D01*
X223178666Y-78382666D02*
X223178666Y-77906476D01*
X223464380Y-78477904D02*
X222464380Y-78144571D01*
X223464380Y-77811238D01*
X223464380Y-77477904D02*
X222464380Y-77477904D01*
X223464380Y-76906476D01*
X222464380Y-76906476D01*
X223559619Y-76668380D02*
X223559619Y-75906476D01*
X223464380Y-75668380D02*
X222464380Y-75668380D01*
X222940571Y-75668380D02*
X222940571Y-75096952D01*
X223464380Y-75096952D02*
X222464380Y-75096952D01*
X221295055Y-62083700D02*
X221295055Y-62893224D01*
X221342674Y-62988462D01*
X221390293Y-63036081D01*
X221485531Y-63083700D01*
X221676007Y-63083700D01*
X221771245Y-63036081D01*
X221818864Y-62988462D01*
X221866483Y-62893224D01*
X221866483Y-62083700D01*
X222818864Y-62083700D02*
X222342674Y-62083700D01*
X222295055Y-62559891D01*
X222342674Y-62512272D01*
X222437912Y-62464653D01*
X222676007Y-62464653D01*
X222771245Y-62512272D01*
X222818864Y-62559891D01*
X222866483Y-62655129D01*
X222866483Y-62893224D01*
X222818864Y-62988462D01*
X222771245Y-63036081D01*
X222676007Y-63083700D01*
X222437912Y-63083700D01*
X222342674Y-63036081D01*
X222295055Y-62988462D01*
X212439802Y-72507100D02*
X212106469Y-72030910D01*
X211868374Y-72507100D02*
X211868374Y-71507100D01*
X212249326Y-71507100D01*
X212344564Y-71554720D01*
X212392183Y-71602339D01*
X212439802Y-71697577D01*
X212439802Y-71840434D01*
X212392183Y-71935672D01*
X212344564Y-71983291D01*
X212249326Y-72030910D01*
X211868374Y-72030910D01*
X213344564Y-71507100D02*
X212868374Y-71507100D01*
X212820755Y-71983291D01*
X212868374Y-71935672D01*
X212963612Y-71888053D01*
X213201707Y-71888053D01*
X213296945Y-71935672D01*
X213344564Y-71983291D01*
X213392183Y-72078529D01*
X213392183Y-72316624D01*
X213344564Y-72411862D01*
X213296945Y-72459481D01*
X213201707Y-72507100D01*
X212963612Y-72507100D01*
X212868374Y-72459481D01*
X212820755Y-72411862D01*
X213725517Y-71507100D02*
X214344564Y-71507100D01*
X214011231Y-71888053D01*
X214154088Y-71888053D01*
X214249326Y-71935672D01*
X214296945Y-71983291D01*
X214344564Y-72078529D01*
X214344564Y-72316624D01*
X214296945Y-72411862D01*
X214249326Y-72459481D01*
X214154088Y-72507100D01*
X213868374Y-72507100D01*
X213773136Y-72459481D01*
X213725517Y-72411862D01*
X202400920Y-125892536D02*
X202400920Y-126368726D01*
X202877111Y-126416345D01*
X202829492Y-126368726D01*
X202781873Y-126273488D01*
X202781873Y-126035393D01*
X202829492Y-125940155D01*
X202877111Y-125892536D01*
X202972349Y-125844917D01*
X203210444Y-125844917D01*
X203305682Y-125892536D01*
X203353301Y-125940155D01*
X203400920Y-126035393D01*
X203400920Y-126273488D01*
X203353301Y-126368726D01*
X203305682Y-126416345D01*
X202400920Y-125559202D02*
X203400920Y-125225869D01*
X202400920Y-124892536D01*
D19*
X218263707Y-57175910D02*
X218549421Y-57175910D01*
X218406564Y-57675910D02*
X218406564Y-57175910D01*
X218716088Y-57675910D02*
X218716088Y-57175910D01*
X218906564Y-57175910D01*
X218954183Y-57199720D01*
X218977993Y-57223529D01*
X219001802Y-57271148D01*
X219001802Y-57342577D01*
X218977993Y-57390196D01*
X218954183Y-57414005D01*
X218906564Y-57437815D01*
X218716088Y-57437815D01*
X219430374Y-57175910D02*
X219335136Y-57175910D01*
X219287517Y-57199720D01*
X219263707Y-57223529D01*
X219216088Y-57294958D01*
X219192279Y-57390196D01*
X219192279Y-57580672D01*
X219216088Y-57628291D01*
X219239898Y-57652100D01*
X219287517Y-57675910D01*
X219382755Y-57675910D01*
X219430374Y-57652100D01*
X219454183Y-57628291D01*
X219477993Y-57580672D01*
X219477993Y-57461624D01*
X219454183Y-57414005D01*
X219430374Y-57390196D01*
X219382755Y-57366386D01*
X219287517Y-57366386D01*
X219239898Y-57390196D01*
X219216088Y-57414005D01*
X219192279Y-57461624D01*
D10*
X230793966Y-99850960D02*
X230793966Y-100565246D01*
X230746347Y-100708103D01*
X230651109Y-100803341D01*
X230508252Y-100850960D01*
X230413014Y-100850960D01*
X231793966Y-100850960D02*
X231222538Y-100850960D01*
X231508252Y-100850960D02*
X231508252Y-99850960D01*
X231413014Y-99993818D01*
X231317776Y-100089056D01*
X231222538Y-100136675D01*
X225614100Y-141947093D02*
X226328386Y-141947093D01*
X226471243Y-141994712D01*
X226566481Y-142089950D01*
X226614100Y-142232807D01*
X226614100Y-142328045D01*
X225709339Y-141518521D02*
X225661720Y-141470902D01*
X225614100Y-141375664D01*
X225614100Y-141137569D01*
X225661720Y-141042331D01*
X225709339Y-140994712D01*
X225804577Y-140947093D01*
X225899815Y-140947093D01*
X226042672Y-140994712D01*
X226614100Y-141566140D01*
X226614100Y-140947093D01*
X207371700Y-129029364D02*
X208181224Y-129029364D01*
X208276462Y-128981745D01*
X208324081Y-128934126D01*
X208371700Y-128838888D01*
X208371700Y-128648412D01*
X208324081Y-128553174D01*
X208276462Y-128505555D01*
X208181224Y-128457936D01*
X207371700Y-128457936D01*
X207705034Y-127553174D02*
X208371700Y-127553174D01*
X207324081Y-127791269D02*
X208038367Y-128029364D01*
X208038367Y-127410317D01*
X204731715Y-132532500D02*
X204636477Y-132484880D01*
X204493620Y-132484880D01*
X204350762Y-132532500D01*
X204255524Y-132627738D01*
X204207905Y-132722976D01*
X204160286Y-132913452D01*
X204160286Y-133056309D01*
X204207905Y-133246785D01*
X204255524Y-133342023D01*
X204350762Y-133437261D01*
X204493620Y-133484880D01*
X204588858Y-133484880D01*
X204731715Y-133437261D01*
X204779334Y-133389642D01*
X204779334Y-133056309D01*
X204588858Y-133056309D01*
X205207905Y-133484880D02*
X205207905Y-132484880D01*
X205779334Y-133484880D01*
X205779334Y-132484880D01*
X206255524Y-133484880D02*
X206255524Y-132484880D01*
X206493620Y-132484880D01*
X206636477Y-132532500D01*
X206731715Y-132627738D01*
X206779334Y-132722976D01*
X206826953Y-132913452D01*
X206826953Y-133056309D01*
X206779334Y-133246785D01*
X206731715Y-133342023D01*
X206636477Y-133437261D01*
X206493620Y-133484880D01*
X206255524Y-133484880D01*
D20*
X191314186Y-107127480D02*
X191314186Y-107776406D01*
X191352358Y-107852750D01*
X191390530Y-107890922D01*
X191466874Y-107929094D01*
X191619563Y-107929094D01*
X191695907Y-107890922D01*
X191734079Y-107852750D01*
X191772251Y-107776406D01*
X191772251Y-107127480D01*
X192192144Y-107929094D02*
X192344833Y-107929094D01*
X192421177Y-107890922D01*
X192459349Y-107852750D01*
X192535693Y-107738234D01*
X192573865Y-107585546D01*
X192573865Y-107280169D01*
X192535693Y-107203825D01*
X192497521Y-107165653D01*
X192421177Y-107127480D01*
X192268488Y-107127480D01*
X192192144Y-107165653D01*
X192153972Y-107203825D01*
X192115800Y-107280169D01*
X192115800Y-107471029D01*
X192153972Y-107547373D01*
X192192144Y-107585546D01*
X192268488Y-107623718D01*
X192421177Y-107623718D01*
X192497521Y-107585546D01*
X192535693Y-107547373D01*
X192573865Y-107471029D01*
X193716428Y-110274488D02*
X193075225Y-110274488D01*
X193380559Y-110274488D02*
X193380559Y-109908087D01*
X193716428Y-109908087D02*
X193075225Y-109908087D01*
X193075225Y-109663819D02*
X193716428Y-109236350D01*
X193075225Y-109236350D02*
X193716428Y-109663819D01*
X193716428Y-108656214D02*
X193716428Y-109022616D01*
X193716428Y-108839415D02*
X193075225Y-108839415D01*
X193166825Y-108900482D01*
X193227892Y-108961549D01*
X193258425Y-109022616D01*
X193716428Y-108045544D02*
X193716428Y-108411946D01*
X193716428Y-108228745D02*
X193075225Y-108228745D01*
X193166825Y-108289812D01*
X193227892Y-108350879D01*
X193258425Y-108411946D01*
X193350026Y-107679143D02*
X193319492Y-107740210D01*
X193288959Y-107770743D01*
X193227892Y-107801277D01*
X193197358Y-107801277D01*
X193136291Y-107770743D01*
X193105758Y-107740210D01*
X193075225Y-107679143D01*
X193075225Y-107557009D01*
X193105758Y-107495942D01*
X193136291Y-107465408D01*
X193197358Y-107434875D01*
X193227892Y-107434875D01*
X193288959Y-107465408D01*
X193319492Y-107495942D01*
X193350026Y-107557009D01*
X193350026Y-107679143D01*
X193380559Y-107740210D01*
X193411093Y-107770743D01*
X193472160Y-107801277D01*
X193594294Y-107801277D01*
X193655361Y-107770743D01*
X193685894Y-107740210D01*
X193716428Y-107679143D01*
X193716428Y-107557009D01*
X193685894Y-107495942D01*
X193655361Y-107465408D01*
X193594294Y-107434875D01*
X193472160Y-107434875D01*
X193411093Y-107465408D01*
X193380559Y-107495942D01*
X193350026Y-107557009D01*
X193350026Y-107068473D02*
X193319492Y-107129540D01*
X193288959Y-107160074D01*
X193227892Y-107190607D01*
X193197358Y-107190607D01*
X193136291Y-107160074D01*
X193105758Y-107129540D01*
X193075225Y-107068473D01*
X193075225Y-106946339D01*
X193105758Y-106885272D01*
X193136291Y-106854739D01*
X193197358Y-106824205D01*
X193227892Y-106824205D01*
X193288959Y-106854739D01*
X193319492Y-106885272D01*
X193350026Y-106946339D01*
X193350026Y-107068473D01*
X193380559Y-107129540D01*
X193411093Y-107160074D01*
X193472160Y-107190607D01*
X193594294Y-107190607D01*
X193655361Y-107160074D01*
X193685894Y-107129540D01*
X193716428Y-107068473D01*
X193716428Y-106946339D01*
X193685894Y-106885272D01*
X193655361Y-106854739D01*
X193594294Y-106824205D01*
X193472160Y-106824205D01*
X193411093Y-106854739D01*
X193380559Y-106885272D01*
X193350026Y-106946339D01*
X193380559Y-106335670D02*
X193380559Y-106549404D01*
X193716428Y-106549404D02*
X193075225Y-106549404D01*
X193075225Y-106244069D01*
X193716428Y-105999802D02*
X193075225Y-105999802D01*
X193716428Y-105633400D01*
X193075225Y-105633400D01*
X193716428Y-105022730D02*
X193716428Y-105328065D01*
X193075225Y-105328065D01*
D10*
X227290380Y-91698984D02*
X228099904Y-91698984D01*
X228195142Y-91651365D01*
X228242761Y-91603746D01*
X228290380Y-91508508D01*
X228290380Y-91318032D01*
X228242761Y-91222794D01*
X228195142Y-91175175D01*
X228099904Y-91127556D01*
X227290380Y-91127556D01*
X227290380Y-90746603D02*
X227290380Y-90127556D01*
X227671333Y-90460889D01*
X227671333Y-90318032D01*
X227718952Y-90222794D01*
X227766571Y-90175175D01*
X227861809Y-90127556D01*
X228099904Y-90127556D01*
X228195142Y-90175175D01*
X228242761Y-90222794D01*
X228290380Y-90318032D01*
X228290380Y-90603746D01*
X228242761Y-90698984D01*
X228195142Y-90746603D01*
X217820952Y-148280380D02*
X217249523Y-148280380D01*
X217535238Y-148280380D02*
X217535238Y-147280380D01*
X217440000Y-147423238D01*
X217344761Y-147518476D01*
X217249523Y-147566095D01*
X218201904Y-147375619D02*
X218249523Y-147328000D01*
X218344761Y-147280380D01*
X218582857Y-147280380D01*
X218678095Y-147328000D01*
X218725714Y-147375619D01*
X218773333Y-147470857D01*
X218773333Y-147566095D01*
X218725714Y-147708952D01*
X218154285Y-148280380D01*
X218773333Y-148280380D01*
X219059047Y-147280380D02*
X219392380Y-148280380D01*
X219725714Y-147280380D01*
D18*
X209131383Y-143366066D02*
X209131383Y-143970828D01*
X207861383Y-143970828D01*
X209131383Y-142277495D02*
X209131383Y-143003209D01*
X209131383Y-142640352D02*
X207861383Y-142640352D01*
X208042812Y-142761304D01*
X208163764Y-142882257D01*
X208224240Y-143003209D01*
D10*
X203675244Y-55811061D02*
X203675244Y-56620585D01*
X203722863Y-56715823D01*
X203770482Y-56763442D01*
X203865720Y-56811061D01*
X204056197Y-56811061D01*
X204151435Y-56763442D01*
X204199054Y-56715823D01*
X204246673Y-56620585D01*
X204246673Y-55811061D01*
X205246673Y-56811061D02*
X204675244Y-56811061D01*
X204960959Y-56811061D02*
X204960959Y-55811061D01*
X204865720Y-55953919D01*
X204770482Y-56049157D01*
X204675244Y-56096776D01*
X206103816Y-56144395D02*
X206103816Y-56811061D01*
X205865720Y-55763442D02*
X205627625Y-56477728D01*
X206246673Y-56477728D01*
X218237042Y-69545460D02*
X217903709Y-69069270D01*
X217665614Y-69545460D02*
X217665614Y-68545460D01*
X218046566Y-68545460D01*
X218141804Y-68593080D01*
X218189423Y-68640699D01*
X218237042Y-68735937D01*
X218237042Y-68878794D01*
X218189423Y-68974032D01*
X218141804Y-69021651D01*
X218046566Y-69069270D01*
X217665614Y-69069270D01*
X219141804Y-68545460D02*
X218665614Y-68545460D01*
X218617995Y-69021651D01*
X218665614Y-68974032D01*
X218760852Y-68926413D01*
X218998947Y-68926413D01*
X219094185Y-68974032D01*
X219141804Y-69021651D01*
X219189423Y-69116889D01*
X219189423Y-69354984D01*
X219141804Y-69450222D01*
X219094185Y-69497841D01*
X218998947Y-69545460D01*
X218760852Y-69545460D01*
X218665614Y-69497841D01*
X218617995Y-69450222D01*
X219570376Y-68640699D02*
X219617995Y-68593080D01*
X219713233Y-68545460D01*
X219951328Y-68545460D01*
X220046566Y-68593080D01*
X220094185Y-68640699D01*
X220141804Y-68735937D01*
X220141804Y-68831175D01*
X220094185Y-68974032D01*
X219522757Y-69545460D01*
X220141804Y-69545460D01*
D19*
X223968547Y-57353710D02*
X224254261Y-57353710D01*
X224111404Y-57853710D02*
X224111404Y-57353710D01*
X224420928Y-57853710D02*
X224420928Y-57353710D01*
X224611404Y-57353710D01*
X224659023Y-57377520D01*
X224682833Y-57401329D01*
X224706642Y-57448948D01*
X224706642Y-57520377D01*
X224682833Y-57567996D01*
X224659023Y-57591805D01*
X224611404Y-57615615D01*
X224420928Y-57615615D01*
X224992357Y-57567996D02*
X224944738Y-57544186D01*
X224920928Y-57520377D01*
X224897119Y-57472758D01*
X224897119Y-57448948D01*
X224920928Y-57401329D01*
X224944738Y-57377520D01*
X224992357Y-57353710D01*
X225087595Y-57353710D01*
X225135214Y-57377520D01*
X225159023Y-57401329D01*
X225182833Y-57448948D01*
X225182833Y-57472758D01*
X225159023Y-57520377D01*
X225135214Y-57544186D01*
X225087595Y-57567996D01*
X224992357Y-57567996D01*
X224944738Y-57591805D01*
X224920928Y-57615615D01*
X224897119Y-57663234D01*
X224897119Y-57758472D01*
X224920928Y-57806091D01*
X224944738Y-57829900D01*
X224992357Y-57853710D01*
X225087595Y-57853710D01*
X225135214Y-57829900D01*
X225159023Y-57806091D01*
X225182833Y-57758472D01*
X225182833Y-57663234D01*
X225159023Y-57615615D01*
X225135214Y-57591805D01*
X225087595Y-57567996D01*
D10*
X194571880Y-71922877D02*
X194095690Y-72256210D01*
X194571880Y-72494305D02*
X193571880Y-72494305D01*
X193571880Y-72113353D01*
X193619500Y-72018115D01*
X193667119Y-71970496D01*
X193762357Y-71922877D01*
X193905214Y-71922877D01*
X194000452Y-71970496D01*
X194048071Y-72018115D01*
X194095690Y-72113353D01*
X194095690Y-72494305D01*
X193571880Y-71018115D02*
X193571880Y-71494305D01*
X194048071Y-71541924D01*
X194000452Y-71494305D01*
X193952833Y-71399067D01*
X193952833Y-71160972D01*
X194000452Y-71065734D01*
X194048071Y-71018115D01*
X194143309Y-70970496D01*
X194381404Y-70970496D01*
X194476642Y-71018115D01*
X194524261Y-71065734D01*
X194571880Y-71160972D01*
X194571880Y-71399067D01*
X194524261Y-71494305D01*
X194476642Y-71541924D01*
X193571880Y-70065734D02*
X193571880Y-70541924D01*
X194048071Y-70589543D01*
X194000452Y-70541924D01*
X193952833Y-70446686D01*
X193952833Y-70208591D01*
X194000452Y-70113353D01*
X194048071Y-70065734D01*
X194143309Y-70018115D01*
X194381404Y-70018115D01*
X194476642Y-70065734D01*
X194524261Y-70113353D01*
X194571880Y-70208591D01*
X194571880Y-70446686D01*
X194524261Y-70541924D01*
X194476642Y-70589543D01*
X216765142Y-77882571D02*
X216812761Y-77930190D01*
X216860380Y-78073047D01*
X216860380Y-78168285D01*
X216812761Y-78311142D01*
X216717523Y-78406380D01*
X216622285Y-78454000D01*
X216431809Y-78501619D01*
X216288952Y-78501619D01*
X216098476Y-78454000D01*
X216003238Y-78406380D01*
X215908000Y-78311142D01*
X215860380Y-78168285D01*
X215860380Y-78073047D01*
X215908000Y-77930190D01*
X215955619Y-77882571D01*
X216574666Y-77501619D02*
X216574666Y-77025428D01*
X216860380Y-77596857D02*
X215860380Y-77263523D01*
X216860380Y-76930190D01*
X216860380Y-76596857D02*
X215860380Y-76596857D01*
X216860380Y-76025428D01*
X215860380Y-76025428D01*
X216955619Y-75787333D02*
X216955619Y-75025428D01*
X216860380Y-74311142D02*
X216860380Y-74787333D01*
X215860380Y-74787333D01*
X197896740Y-42044377D02*
X197420550Y-42377710D01*
X197896740Y-42615805D02*
X196896740Y-42615805D01*
X196896740Y-42234853D01*
X196944360Y-42139615D01*
X196991979Y-42091996D01*
X197087217Y-42044377D01*
X197230074Y-42044377D01*
X197325312Y-42091996D01*
X197372931Y-42139615D01*
X197420550Y-42234853D01*
X197420550Y-42615805D01*
X196991979Y-41663424D02*
X196944360Y-41615805D01*
X196896740Y-41520567D01*
X196896740Y-41282472D01*
X196944360Y-41187234D01*
X196991979Y-41139615D01*
X197087217Y-41091996D01*
X197182455Y-41091996D01*
X197325312Y-41139615D01*
X197896740Y-41711043D01*
X197896740Y-41091996D01*
X197230074Y-40234853D02*
X197896740Y-40234853D01*
X196849121Y-40472948D02*
X197563407Y-40711043D01*
X197563407Y-40091996D01*
X194493140Y-41988977D02*
X194016950Y-42322310D01*
X194493140Y-42560405D02*
X193493140Y-42560405D01*
X193493140Y-42179453D01*
X193540760Y-42084215D01*
X193588379Y-42036596D01*
X193683617Y-41988977D01*
X193826474Y-41988977D01*
X193921712Y-42036596D01*
X193969331Y-42084215D01*
X194016950Y-42179453D01*
X194016950Y-42560405D01*
X193588379Y-41608024D02*
X193540760Y-41560405D01*
X193493140Y-41465167D01*
X193493140Y-41227072D01*
X193540760Y-41131834D01*
X193588379Y-41084215D01*
X193683617Y-41036596D01*
X193778855Y-41036596D01*
X193921712Y-41084215D01*
X194493140Y-41655643D01*
X194493140Y-41036596D01*
X193493140Y-40131834D02*
X193493140Y-40608024D01*
X193969331Y-40655643D01*
X193921712Y-40608024D01*
X193874093Y-40512786D01*
X193874093Y-40274691D01*
X193921712Y-40179453D01*
X193969331Y-40131834D01*
X194064569Y-40084215D01*
X194302664Y-40084215D01*
X194397902Y-40131834D01*
X194445521Y-40179453D01*
X194493140Y-40274691D01*
X194493140Y-40512786D01*
X194445521Y-40608024D01*
X194397902Y-40655643D01*
X220734000Y-143049333D02*
X220686380Y-143144571D01*
X220686380Y-143287428D01*
X220734000Y-143430285D01*
X220829238Y-143525523D01*
X220924476Y-143573142D01*
X221114952Y-143620761D01*
X221257809Y-143620761D01*
X221448285Y-143573142D01*
X221543523Y-143525523D01*
X221638761Y-143430285D01*
X221686380Y-143287428D01*
X221686380Y-143192190D01*
X221638761Y-143049333D01*
X221591142Y-143001714D01*
X221257809Y-143001714D01*
X221257809Y-143192190D01*
X221686380Y-142573142D02*
X220686380Y-142573142D01*
X221686380Y-142001714D01*
X220686380Y-142001714D01*
X221686380Y-141525523D02*
X220686380Y-141525523D01*
X220686380Y-141287428D01*
X220734000Y-141144571D01*
X220829238Y-141049333D01*
X220924476Y-141001714D01*
X221114952Y-140954095D01*
X221257809Y-140954095D01*
X221448285Y-141001714D01*
X221543523Y-141049333D01*
X221638761Y-141144571D01*
X221686380Y-141287428D01*
X221686380Y-141525523D01*
X221686380Y-140525523D02*
X220686380Y-140525523D01*
X220686380Y-140144571D01*
X220734000Y-140049333D01*
X220781619Y-140001714D01*
X220876857Y-139954095D01*
X221019714Y-139954095D01*
X221114952Y-140001714D01*
X221162571Y-140049333D01*
X221210190Y-140144571D01*
X221210190Y-140525523D01*
X220686380Y-139620761D02*
X221686380Y-139382666D01*
X220972095Y-139192190D01*
X221686380Y-139001714D01*
X220686380Y-138763619D01*
X221686380Y-137811238D02*
X221210190Y-138144571D01*
X221686380Y-138382666D02*
X220686380Y-138382666D01*
X220686380Y-138001714D01*
X220734000Y-137906476D01*
X220781619Y-137858857D01*
X220876857Y-137811238D01*
X221019714Y-137811238D01*
X221114952Y-137858857D01*
X221162571Y-137906476D01*
X221210190Y-138001714D01*
X221210190Y-138382666D01*
X243713095Y-143137380D02*
X243713095Y-142137380D01*
X243713095Y-142613571D02*
X244284523Y-142613571D01*
X244284523Y-143137380D02*
X244284523Y-142137380D01*
X245284523Y-143137380D02*
X244713095Y-143137380D01*
X244998809Y-143137380D02*
X244998809Y-142137380D01*
X244903571Y-142280238D01*
X244808333Y-142375476D01*
X244713095Y-142423095D01*
X164973095Y-143137380D02*
X164973095Y-142137380D01*
X164973095Y-142613571D02*
X165544523Y-142613571D01*
X165544523Y-143137380D02*
X165544523Y-142137380D01*
X165973095Y-142232619D02*
X166020714Y-142185000D01*
X166115952Y-142137380D01*
X166354047Y-142137380D01*
X166449285Y-142185000D01*
X166496904Y-142232619D01*
X166544523Y-142327857D01*
X166544523Y-142423095D01*
X166496904Y-142565952D01*
X165925476Y-143137380D01*
X166544523Y-143137380D01*
X243713095Y-29472380D02*
X243713095Y-28472380D01*
X243713095Y-28948571D02*
X244284523Y-28948571D01*
X244284523Y-29472380D02*
X244284523Y-28472380D01*
X244665476Y-28472380D02*
X245284523Y-28472380D01*
X244951190Y-28853333D01*
X245094047Y-28853333D01*
X245189285Y-28900952D01*
X245236904Y-28948571D01*
X245284523Y-29043809D01*
X245284523Y-29281904D01*
X245236904Y-29377142D01*
X245189285Y-29424761D01*
X245094047Y-29472380D01*
X244808333Y-29472380D01*
X244713095Y-29424761D01*
X244665476Y-29377142D01*
X164973095Y-29472380D02*
X164973095Y-28472380D01*
X164973095Y-28948571D02*
X165544523Y-28948571D01*
X165544523Y-29472380D02*
X165544523Y-28472380D01*
X166449285Y-28805714D02*
X166449285Y-29472380D01*
X166211190Y-28424761D02*
X165973095Y-29139047D01*
X166592142Y-29139047D01*
M02*
